<?xml version="1.0" encoding="utf-8"?>
<!-- Generator: Adobe Illustrator 27.5.0, SVG Export Plug-In . SVG Version: 6.00 Build 0)  -->
<svg version="1.1" xmlns="http://www.w3.org/2000/svg" xmlns:xlink="http://www.w3.org/1999/xlink" x="0px" y="0px"
	 viewBox="0 0 500 500" style="enable-background:new 0 0 500 500;" xml:space="preserve">
<g id="Background_Simple">
	<g>
		<path style="fill:#92E3A9;" d="M327.833,51.062c0,0-79.342-31.17-155.222,12.821C96.731,107.874,60.279,198.385,28.834,270.824
			c-31.445,72.44-10.206,147.607,49.578,183.277c59.784,35.67,98.467-13.379,180.987-13.52
			c82.521-0.141,105.06,12.726,172.29-33.764c67.23-46.49,76.547-160.451,20.216-246.535
			C395.574,74.198,327.833,51.062,327.833,51.062z"/>
		<path style="opacity:0.7;fill:#FFFFFF;" d="M327.833,51.062c0,0-79.342-31.17-155.222,12.821
			C96.731,107.874,60.279,198.385,28.834,270.824c-31.445,72.44-10.206,147.607,49.578,183.277
			c59.784,35.67,98.467-13.379,180.987-13.52c82.521-0.141,105.06,12.726,172.29-33.764c67.23-46.49,76.547-160.451,20.216-246.535
			C395.574,74.198,327.833,51.062,327.833,51.062z"/>
	</g>
</g>
<g id="Window">
	<path style="fill:none;stroke:#263238;stroke-miterlimit:10;" d="M124.206,73.664v205.444h128.139V73.664H124.206z M191.066,78.644
		h56.601v45.375h-0.364h-56.236V78.644z M191.066,129h56.236h0.364v44.896h-0.364h-56.236V129z M191.066,178.876h56.236h0.364
		v45.854h-0.364h-56.236V178.876z M186.387,274.127h-57.501v-44.417h57.501V274.127z M186.387,224.73h-57.501v-45.854h57.501V224.73
		z M186.387,173.896h-57.501V129h57.501V173.896z M186.387,124.02h-57.501V78.644h57.501V124.02z M191.066,274.127v-44.417h56.236
		h0.364v44.417H191.066z"/>
</g>
<g id="Plants">
	<g>
		<path style="fill:#92E3A9;" d="M423.008,100.51c0,0,0.155-4.191-3.415-10.554c-3.57-6.364-8.381-11.175-8.381-11.175
			s2.173,0,5.743,3.57c3.57,3.57,5.588,6.984,5.588,6.984s0.31-4.346-4.346-11.951c-4.656-7.605-8.536-12.727-8.536-12.727
			s8.226,3.88,12.106,10.089c3.88,6.208,4.967,9.157,4.967,9.157s0-6.519,0-11.33s0.466-11.796,0.466-11.796
			s2.018,5.432,2.483,12.417c0.466,6.984,0.621,12.727,0.621,12.727s0.155-6.208,1.862-12.727C433.873,66.674,437.132,60,437.132,60
			s0.466,11.33-0.776,17.694c-1.242,6.364-2.794,11.796-2.794,11.796s0.621-2.483,3.415-6.364c2.794-3.88,6.053-6.364,6.053-6.364
			s-5.432,10.865-6.053,14.9c-0.621,4.035-0.776,8.536-0.776,8.536"/>
		<path style="fill:#92E3A9;" d="M398.951,112.616c0,0-3.415-4.346-3.415-6.984c0-2.639,2.639,1.242,2.639,1.242
			s-5.588-10.244-5.122-14.435c0.466-4.191,4.656,7.295,4.656,7.295s-1.397-23.592,0.931-22.816
			c2.328,0.776,5.277,22.971,5.277,24.368c0,1.397,2.018-9.778,3.57-6.519c1.552,3.259,1.552,11.02,1.552,11.02
			s2.018-11.796,3.57-7.761c1.552,4.035-1.863,14.745-1.863,14.745"/>
		<path style="fill:#92E3A9;" d="M357.354,113.082c0,0,1.397-2.639-1.397-6.674c-2.794-4.035-6.208-7.605-6.208-7.605
			s5.898,2.173,7.605,4.035c1.707,1.863,3.259,4.191,3.104,3.725c-0.155-0.466-2.483-4.811-4.967-9.778
			c-2.483-4.967-4.811-9.778-4.811-9.778s3.259,4.346,6.984,7.916c3.725,3.57,6.053,8.071,6.053,8.071s-1.707-9.002-1.707-13.038
			c0-4.035,0.776-10.865,0.776-10.865s2.794,6.829,3.415,11.796c0.621,4.967,0.776,10.554,0.776,10.554s0.31-1.552,1.552-6.829
			c1.242-5.277,4.035-12.417,4.035-12.417s0.31,5.898,0.155,11.796c-0.155,5.898-2.639,12.882-2.639,12.882s2.328-2.638,4.191-5.122
			c1.863-2.483,2.639-3.88,2.639-3.88s-4.035,9.623-4.501,10.709c-0.466,1.087-1.397,4.656-1.397,4.656L357.354,113.082z"/>
		
			<rect x="349.425" y="132.249" style="fill:none;stroke:#263238;stroke-linecap:round;stroke-linejoin:round;stroke-miterlimit:10;" width="94.649" height="7.64"/>
		<g>
			
				<rect x="355.72" y="113.033" style="fill:none;stroke:#263238;stroke-linecap:round;stroke-linejoin:round;stroke-miterlimit:10;" width="16.51" height="5.575"/>
			<polygon style="fill:none;stroke:#263238;stroke-linecap:round;stroke-linejoin:round;stroke-miterlimit:10;" points="
				370.233,132.189 357.718,132.189 351.46,118.625 376.491,118.625 			"/>
		</g>
		
			<rect x="379.985" y="97.445" style="fill:none;stroke:#263238;stroke-linecap:round;stroke-linejoin:round;stroke-miterlimit:10;" width="9.762" height="34.804"/>
		<g>
			<polyline style="fill:none;stroke:#263238;stroke-linecap:round;stroke-linejoin:round;stroke-miterlimit:10;" points="
				414.825,122.933 414.825,132.24 395.717,132.24 395.717,122.134 			"/>
			<path style="fill:none;stroke:#263238;stroke-linecap:round;stroke-linejoin:round;stroke-miterlimit:10;" d="M414.789,121.638
				v-8.913h-19.1v8.913v1.295c0,1.263,1.024,2.286,2.286,2.286h0.119c1.263,0,2.286-1.024,2.286-2.286v-1.295h0.124v1.295
				c0,1.263,1.024,2.286,2.286,2.286h0.119c1.263,0,2.286-1.024,2.286-2.286v-1.295h0.124v1.295c0,1.263,1.024,2.286,2.286,2.286
				h0.119c1.263,0,2.286-1.024,2.286-2.286v-1.295h0.124v1.295c0,1.263,1.024,2.286,2.286,2.286h0.119
				c1.263,0,2.286-1.024,2.286-2.286v-1.295H414.789z"/>
		</g>
		<g>
			
				<rect x="419.316" y="99.992" style="fill:none;stroke:#263238;stroke-linecap:round;stroke-linejoin:round;stroke-miterlimit:10;" width="18.392" height="25.135"/>
			
				<rect x="421.114" y="125.226" style="fill:none;stroke:#263238;stroke-linecap:round;stroke-linejoin:round;stroke-miterlimit:10;" width="14.796" height="7.033"/>
		</g>
		<path style="fill:#92E3A9;" d="M381.14,86.657c-2.272,0-4.113,1.841-4.113,4.113s1.841,4.113,4.113,4.113s4.113-1.841,4.113-4.113
			S383.412,86.657,381.14,86.657z M381.14,92.478c-0.943,0-1.707-0.764-1.707-1.707s0.764-1.707,1.707-1.707
			s1.707,0.764,1.707,1.707S382.083,92.478,381.14,92.478z"/>
		<path style="fill:#92E3A9;" d="M385.234,83.592c-1.704,0-3.085,1.381-3.085,3.085c0,1.704,1.381,3.085,3.085,3.085
			s3.085-1.381,3.085-3.085C388.319,84.973,386.938,83.592,385.234,83.592z M385.234,87.957c-0.707,0-1.28-0.573-1.28-1.281
			c0-0.707,0.573-1.28,1.28-1.28c0.707,0,1.28,0.573,1.28,1.28C386.514,87.384,385.941,87.957,385.234,87.957z"/>
		<path style="fill:#92E3A9;" d="M387.717,89.49c-1.704,0-3.085,1.381-3.085,3.085s1.381,3.085,3.085,3.085s3.085-1.381,3.085-3.085
			S389.421,89.49,387.717,89.49z M387.717,93.855c-0.707,0-1.281-0.573-1.281-1.281s0.573-1.28,1.281-1.28s1.28,0.573,1.28,1.28
			S388.424,93.855,387.717,93.855z"/>
		<path style="fill:#92E3A9;" d="M384.303,92.749c-1.704,0-3.085,1.381-3.085,3.085c0,1.704,1.381,3.085,3.085,3.085
			s3.085-1.381,3.085-3.085C387.387,94.13,386.006,92.749,384.303,92.749z M384.303,97.115c-0.707,0-1.28-0.573-1.28-1.281
			s0.573-1.28,1.28-1.28c0.707,0,1.281,0.573,1.281,1.28S385.01,97.115,384.303,97.115z"/>
		<path style="fill:#92E3A9;" d="M385.234,75.055c-1.704,0-3.085,1.381-3.085,3.085c0,1.704,1.381,3.085,3.085,3.085
			s3.085-1.381,3.085-3.085C388.319,76.436,386.938,75.055,385.234,75.055z M385.234,79.421c-0.707,0-1.28-0.573-1.28-1.281
			s0.573-1.28,1.28-1.28c0.707,0,1.28,0.573,1.28,1.28S385.941,79.421,385.234,79.421z"/>
		<path style="fill:#92E3A9;" d="M383.837,79.091c-1.704,0-3.085,1.381-3.085,3.085c0,1.704,1.381,3.085,3.085,3.085
			c1.704,0,3.085-1.381,3.085-3.085C386.922,80.472,385.541,79.091,383.837,79.091z M383.837,83.456
			c-0.707,0-1.281-0.573-1.281-1.281c0-0.707,0.573-1.28,1.281-1.28c0.707,0,1.28,0.573,1.28,1.28
			C385.117,82.883,384.544,83.456,383.837,83.456z"/>
		<path style="fill:#92E3A9;" d="M379.646,77.849c-1.704,0-3.085,1.381-3.085,3.085c0,1.704,1.381,3.085,3.085,3.085
			s3.085-1.381,3.085-3.085C382.731,79.23,381.35,77.849,379.646,77.849z M379.646,82.214c-0.707,0-1.281-0.573-1.281-1.281
			s0.573-1.281,1.281-1.281c0.707,0,1.28,0.573,1.28,1.281S380.353,82.214,379.646,82.214z"/>
		<path style="fill:#92E3A9;" d="M389.114,79.556c-1.704,0-3.085,1.381-3.085,3.085c0,1.704,1.381,3.085,3.085,3.085
			c1.704,0,3.085-1.381,3.085-3.085C392.199,80.938,390.818,79.556,389.114,79.556z M389.114,83.922
			c-0.707,0-1.281-0.573-1.281-1.281s0.573-1.28,1.281-1.28c0.707,0,1.28,0.573,1.28,1.28S389.821,83.922,389.114,83.922z"/>
	</g>
</g>
<g id="Couch">
	<g>
		<path style="fill:none;stroke:#263238;stroke-miterlimit:10;" d="M402.228,242.012h17.374c10.849,0,19.644,8.795,19.644,19.644
			v45.025"/>
		<path style="fill:none;stroke:#263238;stroke-miterlimit:10;" d="M270.977,306.682C261.173,308,252.173,305,242.173,308
			c-7,2-13,9-13,16c-2,24-1,51.128-0.866,75.427"/>
		<line style="fill:none;stroke:#263238;stroke-miterlimit:10;" x1="308.419" y1="306.682" x2="303.35" y2="306.682"/>
		<polyline style="fill:none;stroke:#263238;stroke-miterlimit:10;" points="307.996,353.012 307.996,306.682 303.35,306.682 		"/>
		<path style="fill:none;stroke:#263238;stroke-miterlimit:10;" d="M270.977,306.682C260.173,307,251.173,317,250.173,327
			c-1,23,0,48.711,0.39,72.01"/>
		<line style="fill:none;stroke:#263238;stroke-miterlimit:10;" x1="270.977" y1="306.682" x2="307.976" y2="306.682"/>
		<path style="fill:none;stroke:#263238;stroke-miterlimit:10;" d="M402.228,242.012c10.849,0,19.644,8.795,19.644,19.644v45.025"/>
		<path style="fill:none;stroke:#263238;stroke-miterlimit:10;" d="M307.976,306.682v-45.025c0-10.849,8.795-19.644,19.644-19.644
			h17.374"/>
		<line style="fill:none;stroke:#263238;stroke-miterlimit:10;" x1="344.994" y1="242.012" x2="402.228" y2="242.012"/>
		<line style="fill:none;stroke:#263238;stroke-miterlimit:10;" x1="307.976" y1="353.012" x2="308.419" y2="353.012"/>
		<path style="fill:none;stroke:#263238;stroke-miterlimit:10;" d="M307.976,353.012c-12.709,0-25.418,0-38.127,0
			c-5.606,0-12.311-0.42-12.881,7.151c-0.276,3.66,0,7.448,0,11.115c0,8.723,0,19.158,0,27.881"/>
		<line style="fill:none;stroke:#263238;stroke-miterlimit:10;" x1="325.35" y1="353.012" x2="330.675" y2="353.012"/>
		<line style="fill:none;stroke:#263238;stroke-miterlimit:10;" x1="336.877" y1="353.012" x2="330.675" y2="353.012"/>
		<line style="fill:none;stroke:#263238;stroke-miterlimit:10;" x1="308.419" y1="353.012" x2="325.35" y2="353.012"/>
		<line style="fill:none;stroke:#263238;stroke-miterlimit:10;" x1="308.419" y1="380.988" x2="330.675" y2="380.988"/>
		<line style="fill:none;stroke:#263238;stroke-miterlimit:10;" x1="330.675" y1="380.988" x2="336.535" y2="380.988"/>
		<line style="fill:none;stroke:#263238;stroke-miterlimit:10;" x1="308.419" y1="380.988" x2="257.005" y2="380.988"/>
		<path style="fill:none;stroke:#263238;stroke-miterlimit:10;" d="M336.877,399.01c0.296-14.441,0.296-29.01,0-43.102"/>
		<path style="fill:none;stroke:#263238;stroke-miterlimit:10;" d="M379.547,306.682h-22.256c-11.275,0-20.414,9.14-20.414,20.415
			v25.916"/>
		<line style="fill:none;stroke:#263238;stroke-miterlimit:10;" x1="336.877" y1="353.012" x2="336.877" y2="355.908"/>
		<line style="fill:none;stroke:#263238;stroke-miterlimit:10;" x1="439.246" y1="306.682" x2="421.872" y2="306.682"/>
		<line style="fill:none;stroke:#263238;stroke-miterlimit:10;" x1="359.133" y1="353.012" x2="359.133" y2="355.908"/>
		<path style="fill:none;stroke:#263238;stroke-miterlimit:10;" d="M359.133,399.01c0.04-14.441,0.04-29.01,0-43.102"/>
		<path style="fill:none;stroke:#263238;stroke-miterlimit:10;" d="M379.547,306.682c-11.275,0-20.414,9.14-20.414,20.415v25.916"/>
		<path style="fill:none;stroke:#263238;stroke-miterlimit:10;" d="M439.246,355.908c-0.073,14.092-0.073,28.661,0,43.102"/>
		<line style="fill:none;stroke:#263238;stroke-miterlimit:10;" x1="416.99" y1="306.682" x2="421.872" y2="306.682"/>
		<line style="fill:none;stroke:#263238;stroke-miterlimit:10;" x1="439.246" y1="355.908" x2="439.246" y2="306.682"/>
		<line style="fill:none;stroke:#263238;stroke-miterlimit:10;" x1="379.547" y1="306.682" x2="416.99" y2="306.682"/>
	</g>
</g>
<g id="Notebooks">
	<path style="fill:#FFFFFF;stroke:#263238;stroke-linecap:round;stroke-linejoin:round;stroke-miterlimit:10;" d="M124.293,280.547"
		/>
	<g>
		<g>
			<polygon style="fill:#FFFFFF;stroke:#263238;stroke-linecap:round;stroke-linejoin:round;stroke-miterlimit:10;" points="
				222.657,403.359 183.711,430.737 240.01,432.665 276.642,405.287 			"/>
			<polygon style="fill:#FFFFFF;stroke:#263238;stroke-linecap:round;stroke-linejoin:round;stroke-miterlimit:10;" points="
				183.711,430.737 184.096,433.822 240.01,436.907 240.01,432.665 			"/>
			<polygon style="fill:#263238;stroke:#263238;stroke-linecap:round;stroke-linejoin:round;stroke-miterlimit:10;" points="
				240.01,436.907 277.414,407.6 276.642,405.287 240.01,432.665 			"/>
		</g>
		<g>
			<path style="fill:none;stroke:#263238;stroke-linecap:round;stroke-linejoin:round;stroke-miterlimit:10;" d="M223.676,404.839
				c0,0-3.04-3.406-4.865,0.263"/>
			<path style="fill:none;stroke:#263238;stroke-linecap:round;stroke-linejoin:round;stroke-miterlimit:10;" d="M220.597,407.063
				c0,0-3.04-3.406-4.865,0.263"/>
			<path style="fill:none;stroke:#263238;stroke-linecap:round;stroke-linejoin:round;stroke-miterlimit:10;" d="M217.519,409.287
				c0,0-3.04-3.406-4.865,0.263"/>
			<path style="fill:none;stroke:#263238;stroke-linecap:round;stroke-linejoin:round;stroke-miterlimit:10;" d="M214.44,411.512
				c0,0-3.04-3.406-4.865,0.263"/>
			<path style="fill:none;stroke:#263238;stroke-linecap:round;stroke-linejoin:round;stroke-miterlimit:10;" d="M211.361,413.736
				c0,0-3.04-3.406-4.865,0.263"/>
			<path style="fill:none;stroke:#263238;stroke-linecap:round;stroke-linejoin:round;stroke-miterlimit:10;" d="M208.282,415.96
				c0,0-3.04-3.406-4.865,0.263"/>
			<path style="fill:none;stroke:#263238;stroke-linecap:round;stroke-linejoin:round;stroke-miterlimit:10;" d="M205.203,418.184
				c0,0-3.04-3.406-4.865,0.263"/>
			<path style="fill:none;stroke:#263238;stroke-linecap:round;stroke-linejoin:round;stroke-miterlimit:10;" d="M202.124,420.409
				c0,0-3.04-3.406-4.865,0.263"/>
			<path style="fill:none;stroke:#263238;stroke-linecap:round;stroke-linejoin:round;stroke-miterlimit:10;" d="M199.045,422.633
				c0,0-3.04-3.406-4.865,0.263"/>
			<path style="fill:none;stroke:#263238;stroke-linecap:round;stroke-linejoin:round;stroke-miterlimit:10;" d="M195.966,424.857
				c0,0-3.04-3.406-4.865,0.263"/>
			<path style="fill:none;stroke:#263238;stroke-linecap:round;stroke-linejoin:round;stroke-miterlimit:10;" d="M192.887,427.081
				c0,0-3.04-3.406-4.865,0.263"/>
			<path style="fill:none;stroke:#263238;stroke-linecap:round;stroke-linejoin:round;stroke-miterlimit:10;" d="M189.808,429.305
				c0,0-3.04-3.406-4.865,0.263"/>
		</g>
	</g>
	<g>
		<polygon style="fill:#FFFFFF;stroke:#263238;stroke-linecap:round;stroke-linejoin:round;stroke-miterlimit:10;" points="
			176.028,451.378 182.063,452.397 176.189,454.374 		"/>
		<g>
			<path style="fill:#92E3A9;stroke:#263238;stroke-linecap:round;stroke-linejoin:round;stroke-miterlimit:10;" d="
				M124.854,457.126c-0.792,0-1.454-0.62-1.497-1.42c-0.044-0.827,0.59-1.533,1.418-1.578l51.254-2.75
				c0.823-0.025,1.534,0.591,1.579,1.418c0.044,0.827-0.59,1.533-1.417,1.578l-51.254,2.75
				C124.908,457.125,124.881,457.126,124.854,457.126z"/>
		</g>
		<path style="fill:#FFFFFF;stroke:#263238;stroke-linecap:round;stroke-linejoin:round;stroke-miterlimit:10;" d="M179.311,451.932
			c0.108,0.391,0.207,0.839,0.258,1.304l2.494-0.84L179.311,451.932z"/>
		<path style="fill:#FFFFFF;stroke:#263238;stroke-linecap:round;stroke-linejoin:round;stroke-miterlimit:10;" d="M129.251,453.888
			l-4.477,0.24c-0.827,0.045-1.461,0.751-1.418,1.578c0.043,0.8,0.705,1.42,1.497,1.42c0.027,0,0.055-0.001,0.082-0.002l4.451-0.255
			C130.635,456.143,130.522,454.554,129.251,453.888z"/>
	</g>
	<g>
		<polygon style="fill:#FFFFFF;stroke:#263238;stroke-linecap:round;stroke-linejoin:round;stroke-miterlimit:10;" points="
			205.816,453.849 211.935,453.934 206.433,456.786 		"/>
		<g>
			<path style="fill:#92E3A9;stroke:#263238;stroke-linecap:round;stroke-linejoin:round;stroke-miterlimit:10;" d="M156.12,467.348
				c-0.782,0.121-1.531-0.391-1.696-1.175c-0.17-0.811,0.349-1.605,1.16-1.776l50.232-10.547c0.81-0.151,1.606,0.349,1.777,1.16
				c0.17,0.811-0.349,1.605-1.16,1.776L156.2,467.333C156.173,467.338,156.147,467.343,156.12,467.348z"/>
		</g>
		<path style="fill:#FFFFFF;stroke:#263238;stroke-linecap:round;stroke-linejoin:round;stroke-miterlimit:10;" d="M209.144,453.895
			c0.166,0.37,0.333,0.798,0.454,1.25l2.337-1.211L209.144,453.895z"/>
		<path style="fill:#FFFFFF;stroke:#263238;stroke-linecap:round;stroke-linejoin:round;stroke-miterlimit:10;" d="M159.971,463.475
			l-4.388,0.921c-0.811,0.171-1.33,0.965-1.16,1.776c0.165,0.784,0.914,1.296,1.696,1.175c0.027-0.004,0.054-0.009,0.081-0.014
			l4.36-0.932C161.683,465.493,161.328,463.939,159.971,463.475z"/>
	</g>
	<g>
		<polygon style="fill:#FFFFFF;stroke:#263238;stroke-linecap:round;stroke-linejoin:round;stroke-miterlimit:10;" points="
			403.12,442.932 409.239,443.016 403.737,445.868 		"/>
		<g>
			<path style="fill:#92E3A9;stroke:#263238;stroke-linecap:round;stroke-linejoin:round;stroke-miterlimit:10;" d="M353.424,456.43
				c-0.782,0.121-1.531-0.391-1.696-1.175c-0.17-0.811,0.349-1.605,1.16-1.776l50.232-10.547c0.81-0.151,1.606,0.35,1.777,1.16
				c0.17,0.811-0.349,1.605-1.16,1.776l-50.232,10.547C353.478,456.421,353.451,456.426,353.424,456.43z"/>
		</g>
		<path style="fill:#FFFFFF;stroke:#263238;stroke-linecap:round;stroke-linejoin:round;stroke-miterlimit:10;" d="M406.448,442.978
			c0.166,0.369,0.333,0.797,0.454,1.25l2.337-1.211L406.448,442.978z"/>
		<path style="fill:#FFFFFF;stroke:#263238;stroke-linecap:round;stroke-linejoin:round;stroke-miterlimit:10;" d="M357.275,452.558
			l-4.388,0.921c-0.811,0.171-1.33,0.965-1.16,1.776c0.165,0.784,0.914,1.296,1.696,1.175c0.027-0.004,0.054-0.009,0.081-0.014
			l4.36-0.932C358.987,454.575,358.632,453.022,357.275,452.558z"/>
	</g>
	<g>
		<g>
			<polygon style="fill:#92E3A9;stroke:#263238;stroke-linecap:round;stroke-linejoin:round;stroke-miterlimit:10;" points="
				250.04,415.248 217.648,459.593 275.875,464.22 302.097,417.562 			"/>
			<polygon style="fill:#FFFFFF;stroke:#263238;stroke-linecap:round;stroke-linejoin:round;stroke-miterlimit:10;" points="
				217.648,459.593 219.191,462.292 275.875,466.92 275.875,464.22 			"/>
			<polygon style="fill:#263238;stroke:#263238;stroke-linecap:round;stroke-linejoin:round;stroke-miterlimit:10;" points="
				275.875,466.92 301.711,421.032 302.097,417.562 275.875,464.22 			"/>
		</g>
		<g>
			<path style="fill:none;stroke:#263238;stroke-linecap:round;stroke-linejoin:round;stroke-miterlimit:10;" d="M250.39,418.339
				c0,0-3.974-2.246-4.521,1.815"/>
			<path style="fill:none;stroke:#263238;stroke-linecap:round;stroke-linejoin:round;stroke-miterlimit:10;" d="M248.19,421.436
				c0,0-3.974-2.246-4.521,1.815"/>
			<path style="fill:none;stroke:#263238;stroke-linecap:round;stroke-linejoin:round;stroke-miterlimit:10;" d="M245.991,424.533
				c0,0-3.974-2.246-4.521,1.814"/>
			<path style="fill:none;stroke:#263238;stroke-linecap:round;stroke-linejoin:round;stroke-miterlimit:10;" d="M243.792,427.63
				c0,0-3.974-2.246-4.521,1.814"/>
			<path style="fill:none;stroke:#263238;stroke-linecap:round;stroke-linejoin:round;stroke-miterlimit:10;" d="M241.593,430.727
				c0,0-3.974-2.246-4.521,1.814"/>
			<path style="fill:none;stroke:#263238;stroke-linecap:round;stroke-linejoin:round;stroke-miterlimit:10;" d="M239.394,433.823
				c0,0-3.974-2.246-4.521,1.815"/>
			<path style="fill:none;stroke:#263238;stroke-linecap:round;stroke-linejoin:round;stroke-miterlimit:10;" d="M237.195,436.92
				c0,0-3.974-2.246-4.521,1.815"/>
			<path style="fill:none;stroke:#263238;stroke-linecap:round;stroke-linejoin:round;stroke-miterlimit:10;" d="M234.995,440.017
				c0,0-3.974-2.246-4.521,1.814"/>
			<path style="fill:none;stroke:#263238;stroke-linecap:round;stroke-linejoin:round;stroke-miterlimit:10;" d="M232.796,443.114
				c0,0-3.974-2.246-4.521,1.815"/>
			<path style="fill:none;stroke:#263238;stroke-linecap:round;stroke-linejoin:round;stroke-miterlimit:10;" d="M230.597,446.211
				c0,0-3.974-2.246-4.521,1.815"/>
			<path style="fill:none;stroke:#263238;stroke-linecap:round;stroke-linejoin:round;stroke-miterlimit:10;" d="M228.398,449.308
				c0,0-3.974-2.246-4.521,1.815"/>
			<path style="fill:none;stroke:#263238;stroke-linecap:round;stroke-linejoin:round;stroke-miterlimit:10;" d="M226.199,452.405
				c0,0-3.974-2.246-4.521,1.815"/>
		</g>
	</g>
</g>
<g id="Floor_1_">
	
		<line style="fill:none;stroke:#263238;stroke-linecap:round;stroke-linejoin:round;stroke-miterlimit:10;" x1="27.667" y1="399.626" x2="482.333" y2="399.626"/>
</g>
<g id="Character_2">
	<g>
		<g>
			<g>
				<polygon style="fill:#263238;stroke:#263238;stroke-linecap:round;stroke-linejoin:round;stroke-miterlimit:10;" points="
					266.465,399.317 271.316,373.53 365.405,379.315 367.124,399.317 				"/>
				<g>
					<path style="fill:#FFFFFF;" d="M317.975,221.6c0,0-12.725-4.242-25.065,0c-12.339,4.242-15.039,17.352-18.509,25.45
						c-3.47,8.098-20.052,41.26-20.052,41.26l29.306,10.411l-12.339,74.808c0,0,20.052,5.784,37.404,8.098
						s57.841-2.314,57.841-2.314v-99.487l10.026,27.378c0,0,11.183-0.386,19.281-5.398c8.098-5.013,13.882-12.725,13.882-12.725
						s-34.319-46.659-37.019-53.214c-2.699-6.555-18.509-13.111-25.065-14.268C341.112,220.444,317.975,221.6,317.975,221.6z"/>
					<g>
						<path style="fill:#263238;" d="M368.208,284.323l40.849,3.815c-0.385-0.525-0.916-1.25-1.579-2.156l-40.031-3.738
							L368.208,284.323z"/>
						<polygon style="fill:#263238;" points="366.562,315.622 282.065,308.367 281.738,310.346 366.562,317.63 						"/>
						<polygon style="fill:#263238;" points="366.562,334.679 279.13,326.16 278.804,328.138 366.562,336.688 						"/>
						<path style="fill:#263238;" d="M366.562,282.161l-104.326-9.742c-0.32,0.649-0.635,1.288-0.947,1.92l105.273,9.831V282.161z"
							/>
						<polygon style="fill:#263238;" points="366.562,300.969 366.562,298.963 260.837,290.616 268.098,293.195 						"/>
						<path style="fill:#263238;" d="M396.596,301.334l-22.819-1.802l0.757,2.066l18.989,1.499c0.801-0.392,1.586-0.821,2.345-1.29
							C396.115,301.654,396.353,301.492,396.596,301.334z"/>
						<path style="fill:#263238;" d="M383.262,252.194l-107.31-9.094c-0.249,0.665-0.495,1.315-0.74,1.945l109.537,9.283
							C384.246,253.607,383.749,252.895,383.262,252.194z"/>
						<polygon style="fill:#263238;" points="366.562,375.391 273.184,362.208 272.858,364.182 366.562,377.411 						"/>
						<path style="fill:#263238;" d="M282.24,229.832l90.754,6.6c-0.104-0.21-0.196-0.403-0.262-0.565
							c-0.209-0.508-0.506-1.017-0.863-1.523l-88.165-6.412C283.183,228.544,282.699,229.181,282.24,229.832z"/>
						<polygon style="fill:#263238;" points="275.666,347.161 366.562,358.957 366.562,356.94 275.992,345.186 						"/>
						<path style="fill:#263238;" d="M268.507,259.6c-0.308,0.637-0.621,1.281-0.939,1.935l129.237,9.744
							c-0.503-0.699-1.012-1.406-1.526-2.121L268.507,259.6z"/>
					</g>
					<polyline style="fill:#263238;" points="283.656,298.722 292.91,252.064 280.469,294.805 283.51,295.24 					"/>
					<polygon style="fill:#263238;" points="366.562,279.827 364.747,262.658 379.547,306.682 376.588,307.206 					"/>
					<path style="fill:none;stroke:#263238;stroke-miterlimit:10;" d="M317.975,221.6c0,0-12.725-4.242-25.065,0
						c-12.339,4.242-15.039,17.352-18.509,25.45c-3.47,8.098-20.052,41.26-20.052,41.26l29.306,10.411l-12.339,74.808
						c0,0,20.052,5.784,37.404,8.098s57.841-2.314,57.841-2.314v-99.487l10.026,27.378c0,0,11.183-0.386,19.281-5.398
						c8.098-5.013,13.882-12.725,13.882-12.725s-34.319-46.659-37.019-53.214c-2.699-6.555-18.509-13.111-25.065-14.268
						C341.112,220.444,317.975,221.6,317.975,221.6z"/>
				</g>
			</g>
			<g>
				<g>
					<path style="fill:#263238;stroke:#263238;stroke-linecap:round;stroke-linejoin:round;stroke-miterlimit:10;" d="
						M314.89,221.618c0,0-5.784,5.013-6.555,13.496c-0.771,8.483-2.699,30.463-2.699,30.463s8.869-6.17,12.34-7.712
						c3.47-1.542,9.64-1.542,9.64-1.542s8.869,1.928,11.183,3.47c2.314,1.542,12.725,7.712,12.725,7.712s-2.314-26.607-4.627-35.476
						c-2.314-8.869-8.483-11.568-18.509-11.568C318.361,220.461,314.89,221.618,314.89,221.618z"/>
					<path style="fill:#92E3A9;stroke:#263238;stroke-linecap:round;stroke-linejoin:round;stroke-miterlimit:10;" d="
						M314.89,220.058c0,0-5.784,5.013-6.555,13.496c-0.771,8.483-2.699,30.463-2.699,30.463s8.869-6.17,12.34-7.712
						c3.47-1.542,9.64-1.542,9.64-1.542s8.869,1.928,11.183,3.471c2.314,1.542,12.725,7.712,12.725,7.712
						s-2.314-26.607-4.627-35.476c-2.314-8.869-8.483-11.568-18.509-11.568C318.361,218.901,314.89,220.058,314.89,220.058z"/>
				</g>
				<g>
					<path style="fill:#FFFFFF;stroke:#263238;stroke-linecap:round;stroke-linejoin:round;stroke-miterlimit:10;" d="
						M317.589,225.456c0,0,3.856,27.764,8.483,34.319c4.627,6.555,11.954-25.45,11.954-25.45L317.589,225.456z"/>
					<path style="fill:#263238;stroke:#263238;stroke-linecap:round;stroke-linejoin:round;stroke-miterlimit:10;" d="
						M319.556,237.353c4.284,4.032,9.048,6.723,13.406,6.264c0.95-0.1,1.919-0.411,2.895-0.886c1.312-4.663,2.17-8.406,2.17-8.406
						l-20.437-8.869C317.589,225.456,318.332,230.801,319.556,237.353z"/>
				</g>
				<g>
					<path style="fill:#FFFFFF;stroke:#263238;stroke-linecap:round;stroke-linejoin:round;stroke-miterlimit:10;" d="
						M303.707,192.68c0,0-3.856-6.17-6.555-2.314c-2.699,3.856-1.157,8.869,1.928,13.882s8.869,8.483,10.026,5.013
						C310.263,205.79,303.707,192.68,303.707,192.68z"/>
					<path style="fill:#FFFFFF;stroke:#263238;stroke-linecap:round;stroke-linejoin:round;stroke-miterlimit:10;" d="
						M362.993,195.379c0,0,3.856-6.17,6.555-2.314c2.699,3.856,1.157,8.869-1.928,13.882c-3.085,5.013-8.869,8.483-10.026,5.013
						C356.438,208.49,362.993,195.379,362.993,195.379z"/>
					<g>
						<path style="fill:#FFFFFF;stroke:#263238;stroke-linecap:round;stroke-linejoin:round;stroke-miterlimit:10;" d="
							M304.093,197.693c0,0,3.856,18.124,9.255,26.607c5.399,8.483,13.882,16.581,21.208,15.81
							c7.327-0.771,15.81-13.882,19.666-21.208c3.856-7.327,7.327-11.568,8.869-21.594c1.542-10.026,3.085-16.967-0.386-23.137
							c-3.47-6.17-20.437-15.424-40.103-13.111c-19.666,2.314-19.666,14.653-19.28,18.509
							C303.707,183.425,302.936,197.693,304.093,197.693z"/>
						<path style="fill:#263238;" d="M326.844,205.598c0,2.023-0.777,3.663-1.735,3.663c-0.958,0-1.735-1.64-1.735-3.663
							c0-2.023,0.777-3.663,1.735-3.663C326.067,201.934,326.844,203.574,326.844,205.598z"/>
						<path style="fill:#263238;" d="M343.422,206.274c-0.114,2.02-0.982,3.614-1.939,3.56c-0.957-0.054-1.64-1.735-1.526-3.755
							c0.114-2.02,0.982-3.614,1.939-3.56C342.853,202.573,343.536,204.254,343.422,206.274z"/>
						<path style="fill:none;stroke:#263238;stroke-linecap:round;stroke-linejoin:round;stroke-miterlimit:10;" d="
							M328.772,216.202c0,0,4.627,6.17,8.869-0.771"/>
						<path style="fill:none;stroke:#263238;stroke-linecap:round;stroke-linejoin:round;stroke-miterlimit:10;" d="
							M324.916,220.829c0,0,3.856,6.17,10.026,5.013c6.17-1.157,8.869-6.941,8.869-6.941"/>
						<path style="fill:none;stroke:#263238;stroke-linecap:round;stroke-linejoin:round;stroke-miterlimit:10;" d="
							M339.184,198.078c0,0,5.013-1.928,8.098,2.699"/>
						<path style="fill:none;stroke:#263238;stroke-linecap:round;stroke-linejoin:round;stroke-miterlimit:10;" d="
							M325.687,198.464c0,0-6.555-3.856-9.255,4.242"/>
					</g>
					<path style="fill:#263238;stroke:#263238;stroke-linecap:round;stroke-linejoin:round;stroke-miterlimit:10;" d="
						M311.034,181.883c0,0,3.856,1.928,8.483,0.386c4.627-1.542,6.17-5.013,6.17-5.013s-0.386,6.555-5.398,10.411
						c-5.013,3.856-9.255,5.399-6.17,7.327c3.085,1.928,13.111,7.712,26.607-1.157c13.496-8.869,14.267-14.653,14.267-14.653
						s-4.627,8.869-0.771,8.483c3.856-0.386,6.555-9.255,6.555-9.255s-3.47,10.411-1.928,13.882
						c1.542,3.471,3.085,8.483,3.085,8.483s-3.47,6.17-1.157,5.784c2.314-0.386,6.17-17.738,6.17-17.738s3.856-12.339,3.856-23.522
						c0-11.183-5.569-20.582-12.51-24.438c-6.941-3.856-28.41-11.106-42.469-2.918c-11.818,6.884-18.286,25.428-17.515,31.212
						c0.771,5.784,5.784,28.535,5.784,28.535s2.314,3.47,3.085,0.386c0.771-3.085,0-6.941,0-6.941S311.42,188.052,311.034,181.883z"
						/>
				</g>
			</g>
		</g>
		<g>
			<g>
				<polygon style="fill:#263238;stroke:#263238;stroke-linecap:round;stroke-linejoin:round;stroke-miterlimit:10;" points="
					333.785,410.163 305.636,426.359 316.047,429.058 339.184,416.719 				"/>
				<path style="fill:#263238;stroke:#263238;stroke-linecap:round;stroke-linejoin:round;stroke-miterlimit:10;" d="
					M316.047,429.058c0,0,5.784,8.869,16.581,14.653c10.797,5.784,12.339,5.784,12.339,5.784l-14.267,2.699
					c0,0-12.34-5.013-16.196-10.411c-3.856-5.398-8.869-15.424-8.869-15.424L316.047,429.058z"/>
			</g>
			<g>
				<polygon style="fill:#263238;stroke:#263238;stroke-linecap:round;stroke-linejoin:round;stroke-miterlimit:10;" points="
					427.102,397.824 446.768,395.896 442.912,401.294 425.56,403.222 				"/>
				<path style="fill:#263238;stroke:#263238;stroke-linecap:round;stroke-linejoin:round;stroke-miterlimit:10;" d="
					M442.912,401.294l22.751,6.555l9.64-0.386l1.157-5.398c0,0-9.255,0.386-11.568,0.386c-2.314,0-18.124-6.555-18.124-6.555
					L442.912,401.294z"/>
			</g>
			<path style="fill:#92E3A9;stroke:#263238;stroke-linecap:round;stroke-linejoin:round;stroke-miterlimit:10;" d="M305.25,333.813
				c0,0-0.395,0.222-0.992,0.611c-1.761,1.146-5.275,3.738-5.563,6.33c-0.386,3.47-4.242,16.581-1.157,26.993
				c3.085,10.411,33.934,40.874,39.718,49.743c5.784,8.869,22.365,19.28,43.574,11.183c21.208-8.098,45.502-18.509,47.43-27.378
				c1.928-8.869-2.314-21.209-5.784-26.221c-3.471-5.013-18.509-15.039-26.993-21.594c-8.483-6.555-41.646-26.993-48.587-28.535
				C339.955,323.401,312.191,329.571,305.25,333.813z"/>
			<path style="fill:#788084;stroke:#000000;stroke-miterlimit:10;" d="M428.259,401.294c1.928-8.869-2.314-21.209-5.784-26.221
				c-3.294-4.758-17.005-14.03-25.645-20.566c-11.766,4.861-25.736,12.359-41.163,20.826c-19.06,10.462-26.591,20.989-29.266,29.123
				c4.956,5.571,9.083,10.317,10.854,13.033c5.784,8.869,22.365,19.28,43.574,11.183
				C402.038,420.575,426.331,410.163,428.259,401.294z"/>
			<g>
				<polygon style="fill:#FFFFFF;stroke:#263238;stroke-linecap:round;stroke-linejoin:round;stroke-miterlimit:10;" points="
					301.779,328.8 301.538,331.261 315.06,355.141 315.491,352.983 				"/>
				<polygon style="fill:#FFFFFF;stroke:#263238;stroke-linecap:round;stroke-linejoin:round;stroke-miterlimit:10;" points="
					325.302,370.831 301.779,328.8 355.765,311.833 376.202,350.394 				"/>
				<g>
					<path style="fill:none;stroke:#263238;stroke-linecap:round;stroke-linejoin:round;stroke-miterlimit:10;" d="M304.365,329.936
						c0,0-3.568,1.371-1.05,4.771"/>
					<path style="fill:none;stroke:#263238;stroke-linecap:round;stroke-linejoin:round;stroke-miterlimit:10;" d="M306.012,332.923
						c0,0-3.568,1.371-1.05,4.771"/>
					<path style="fill:none;stroke:#263238;stroke-linecap:round;stroke-linejoin:round;stroke-miterlimit:10;" d="M307.658,335.91
						c0,0-3.568,1.371-1.05,4.771"/>
					<path style="fill:none;stroke:#263238;stroke-linecap:round;stroke-linejoin:round;stroke-miterlimit:10;" d="M309.304,338.897
						c0,0-3.568,1.371-1.05,4.77"/>
					<path style="fill:none;stroke:#263238;stroke-linecap:round;stroke-linejoin:round;stroke-miterlimit:10;" d="M310.95,341.883
						c0,0-3.568,1.371-1.05,4.771"/>
					<path style="fill:none;stroke:#263238;stroke-linecap:round;stroke-linejoin:round;stroke-miterlimit:10;" d="M312.596,344.87
						c0,0-3.568,1.371-1.05,4.77"/>
					<path style="fill:none;stroke:#263238;stroke-linecap:round;stroke-linejoin:round;stroke-miterlimit:10;" d="M314.242,347.857
						c0,0-3.568,1.371-1.05,4.771"/>
				</g>
			</g>
			<path style="fill:#FFFFFF;stroke:#263238;stroke-linecap:round;stroke-linejoin:round;stroke-miterlimit:10;" d="
				M294.839,298.722c0,0-30.463-8.869-36.247-9.255c-5.784-0.386-5.873,7.048-3.174,12.832c2.699,5.784,18.213,14.16,29.781,14.546
				c11.568,0.386,30.849,3.856,30.849,3.856s5.398,11.183,6.555,13.496c1.157,2.314,5.013,7.712,5.013,7.712l23.137-5.399
				c0,0-12.34-12.725-18.124-20.437C326.844,308.362,294.839,298.722,294.839,298.722z"/>
			<path style="fill:#92E3A9;stroke:#263238;stroke-linecap:round;stroke-linejoin:round;stroke-miterlimit:10;" d="
				M359.235,330.728c-1.157,0.386-13.111,0.771-26.993,6.555c-13.882,5.784-16.967,8.098-18.895,15.424
				c-1.928,7.327-1.928,9.255,2.699,18.124c4.627,8.869,25.45,37.019,39.332,38.947c13.882,1.928,41.26-5.784,50.9-11.568
				c9.64-5.784,13.496-16.196,11.954-20.052c-1.542-3.856-11.183-16.967-24.293-29.692
				C380.829,335.741,359.235,330.728,359.235,330.728z"/>
			<g>
				<path style="fill:#FFFFFF;stroke:#263238;stroke-linecap:round;stroke-linejoin:round;stroke-miterlimit:10;" d="
					M395.868,301.807c-3.335,2.065-7.192,3.343-10.577,4.134l-7.161,28.643c0,0-19.281-10.797-21.98-10.026
					c-2.699,0.771-8.483,10.797-8.869,13.496c-0.385,2.699-0.771,5.784,0.771,6.555c1.542,0.771,15.81,4.627,18.895,4.627
					s6.17-1.157,6.17-1.157l0.386-3.47c0,0,4.627,3.856,8.098,1.542c3.471-2.314,5.013-5.784,5.013-5.784
					s19.666-36.633,21.208-41.26c1.223-3.668,1.47-6.362,0.178-7.9C405.702,293.854,401.313,298.436,395.868,301.807z"/>
				<path style="fill:#FFFFFF;stroke:#263238;stroke-linecap:round;stroke-linejoin:round;stroke-miterlimit:10;" d="
					M357.307,327.643c0,0-6.17,12.339-6.17,14.268c0,1.928,0.771,3.47,0.771,3.47"/>
				<path style="fill:#FFFFFF;stroke:#263238;stroke-linecap:round;stroke-linejoin:round;stroke-miterlimit:10;" d="
					M361.163,329.185c0,0-6.17,13.496-3.471,18.124"/>
				<path style="fill:#FFFFFF;stroke:#263238;stroke-linecap:round;stroke-linejoin:round;stroke-miterlimit:10;" d="
					M366.176,332.656c0,0-3.47,11.183-2.699,12.34c0.771,1.157,1.928,3.47,3.47,4.242"/>
			</g>
			<path style="fill:#FFFFFF;stroke:#263238;stroke-linecap:round;stroke-linejoin:round;stroke-miterlimit:10;" d="
				M418.233,378.158c-0.374-0.934-1.232-2.42-2.49-4.304c0.349,4.798-1.066,8.864-4.451,13.173
				c-4.242,5.398-37.404,17.352-50.129,16.581c-12.725-0.771-32.006-23.908-39.332-34.319c-6.98-9.918-5.561-21.928-5.411-23.044
				c-1.497,1.759-2.364,3.772-3.072,6.463c-1.928,7.327-1.928,9.255,2.699,18.124c4.627,8.869,25.45,37.019,39.332,38.947
				c13.882,1.928,41.26-5.784,50.9-11.568C415.92,392.425,419.776,382.014,418.233,378.158z"/>
		</g>
	</g>
</g>
<g id="Character_1_1_">
	<g>
		<path style="fill:#263238;stroke:#263238;stroke-linecap:round;stroke-linejoin:round;stroke-miterlimit:10;" d="M186.086,170.5
			c0,0,9.5,38,25.5,58.5s30.5,27,30,51.5s-17.5,25-33,25s-26-15-41-16s-18.5-9.5-16-28s18.817-82.945,21-89
			S183.586,167.5,186.086,170.5z"/>
		<g>
			<g>
				<g>
					<g>
						<path style="fill:#263238;stroke:#263238;stroke-linecap:round;stroke-linejoin:round;stroke-miterlimit:10;" d="
							M150.164,237.732c0,0-20.515,6.69-23.637,10.258c-3.122,3.568-32.557,41.477-32.557,45.937s4.014,7.582,11.15,7.136
							c7.136-0.446,29.435-21.853,29.435-21.853s0,67.791,0,72.697c0,4.906-14.272,47.721-14.272,47.721h107.484l-19.178-47.721
							c0,0,3.122-77.602,2.676-84.292c-0.446-6.69,0.892-13.826-2.676-18.732s-25.421-11.596-29.435-12.042
							S155.962,235.502,150.164,237.732z"/>
						<path style="fill:#FFFFFF;stroke:#263238;stroke-linecap:round;stroke-linejoin:round;stroke-miterlimit:10;" d="
							M137.411,282.315l2.059-40.774c-5.506,2.115-11.387,4.67-12.943,6.449c-3.122,3.568-32.557,41.477-32.557,45.937
							s4.014,7.582,11.15,7.136c7.136-0.446,29.435-21.853,29.435-21.853s0,2.103,0,5.585
							C136.33,283.258,137.411,282.315,137.411,282.315z"/>
					</g>
					<g>
						<g>
							<path style="fill:#92E3A9;" d="M208.589,351.905c0,0,3.122-77.602,2.676-84.292c-0.446-6.69,0.892-13.826-2.676-18.732
								c-3.568-4.906-25.421-11.596-29.435-12.042s-23.192-1.338-28.989,0.892c0,0-7.651,2.496-14.32,5.252l-0.758,1.516
								l-0.531,34.709c0,0,0,63.723,0,72.075c8.494,4.6,34.865,15.559,74.43,1.604L208.589,351.905z"/>
							<g>
								<path style="fill:#FFFFFF;" d="M182.01,269.334c0.249,0.438,0.691,0.714,1.278,0.798c0.658,0.092,1.531-0.146,2.206-0.392
									c-0.503,0.932-1.072,2.19-0.877,2.82c0.329,1.059,2.062,1.241,2.792,1.27c0.096,0.004,0.199,0.006,0.308,0.006
									c0.992,0,2.421-0.176,2.691-0.852c0.186-0.466,0.037-1.37-0.171-2.191c0.645,0.507,1.513,0.867,2.489,0.424
									c0.884-0.401,1.501-1.166,1.737-2.153c0.204-0.853,0.076-1.729-0.328-2.234c-0.538-0.673-2.176-0.766-3.179-0.774
									c0.369-0.595,0.837-1.54,0.837-2.497c0-0.673-0.537-1.258-1.473-1.604c-1.212-0.449-2.89-0.418-3.598,0.408
									c-0.887,1.034-0.601,2.382-0.449,2.884l-0.146,0.203c-0.803-0.229-3.15-0.709-3.924,1.15
									C181.714,267.779,181.649,268.698,182.01,269.334z M189.73,272.7c-0.164,0.237-1.575,0.545-2.999,0.327
									c-0.786-0.12-1.313-0.376-1.409-0.686c-0.122-0.393,0.603-1.96,1.357-3.176c0.007-0.011,0.003-0.025,0.009-0.036
									c0.421,0.351,0.956,0.571,1.546,0.571c0.301,0,0.587-0.062,0.853-0.163C189.47,270.633,189.902,272.267,189.73,272.7z
									 M189.924,267.272c0,0.932-0.759,1.691-1.691,1.691s-1.691-0.759-1.691-1.691c0-0.932,0.759-1.691,1.691-1.691
									S189.924,266.34,189.924,267.272z M193.56,267.291c0.211,0.264,0.359,0.878,0.186,1.602
									c-0.105,0.441-0.418,1.241-1.325,1.654c-1.297,0.59-2.466-1.065-2.678-1.388c0.554-0.445,0.917-1.12,0.917-1.885
									c0-0.161-0.018-0.318-0.048-0.47C191.731,266.773,193.242,266.893,193.56,267.291z M187.282,262.843
									c0.426-0.496,1.725-0.588,2.783-0.196c0.621,0.23,0.992,0.571,0.992,0.913c0,0.894-0.529,1.817-0.855,2.304
									c-0.441-0.614-1.157-1.018-1.969-1.018c-0.441,0-0.849,0.127-1.206,0.333c-0.001-0.001,0-0.003-0.001-0.005
									C187.02,265.159,186.482,263.777,187.282,262.843z M182.885,266.884c0.588-1.412,2.743-0.82,3.18-0.683
									c-0.161,0.324-0.26,0.685-0.26,1.071c0,0.505,0.156,0.974,0.421,1.363c-0.008,0.003-0.017,0.002-0.025,0.006
									c-0.503,0.251-1.992,0.882-2.808,0.761c-0.358-0.051-0.607-0.197-0.742-0.433
									C182.415,268.554,182.498,267.813,182.885,266.884z"/>
								<path style="fill:#FFFFFF;" d="M176.718,347.091c-0.887,1.034-0.601,2.382-0.449,2.884l-0.146,0.203
									c-0.803-0.229-3.15-0.709-3.924,1.15c-0.491,1.178-0.556,2.097-0.194,2.733c0.249,0.438,0.691,0.714,1.278,0.798
									c0.658,0.092,1.531-0.146,2.206-0.392c-0.504,0.932-1.073,2.19-0.877,2.82c0.329,1.059,2.062,1.241,2.792,1.27
									c0.096,0.004,0.199,0.006,0.308,0.006c0.992,0,2.421-0.176,2.691-0.852c0.186-0.466,0.037-1.37-0.171-2.191
									c0.645,0.507,1.513,0.867,2.489,0.424c0.884-0.401,1.501-1.166,1.737-2.153c0.204-0.853,0.076-1.729-0.327-2.234
									c-0.538-0.673-2.176-0.766-3.179-0.774c0.369-0.595,0.837-1.54,0.837-2.497c0-0.673-0.537-1.258-1.473-1.604
									C179.105,346.234,177.426,346.264,176.718,347.091z M179.919,352c0,0.932-0.759,1.691-1.691,1.691
									c-0.932,0-1.691-0.759-1.691-1.691s0.759-1.691,1.691-1.691C179.16,350.309,179.919,351.068,179.919,352z M173.388,354.13
									c-0.358-0.051-0.607-0.196-0.742-0.433c-0.236-0.415-0.153-1.156,0.234-2.085c0.588-1.411,2.743-0.82,3.18-0.683
									c-0.161,0.324-0.26,0.685-0.26,1.071c0,0.505,0.156,0.974,0.421,1.363c-0.008,0.003-0.017,0.002-0.025,0.006
									C175.693,353.62,174.204,354.251,173.388,354.13z M179.725,357.427c-0.164,0.237-1.575,0.545-2.999,0.328
									c-0.787-0.12-1.313-0.376-1.41-0.686c-0.122-0.393,0.603-1.96,1.357-3.176c0.007-0.011,0.003-0.025,0.008-0.036
									c0.421,0.351,0.955,0.571,1.545,0.571c0.301,0,0.587-0.062,0.853-0.163C179.465,355.361,179.897,356.995,179.725,357.427z
									 M183.556,352.019c0.211,0.264,0.36,0.878,0.186,1.602c-0.105,0.441-0.418,1.241-1.325,1.653
									c-1.297,0.59-2.466-1.065-2.678-1.388c0.555-0.445,0.917-1.12,0.917-1.885c0-0.161-0.018-0.318-0.048-0.47
									C181.726,351.5,183.238,351.621,183.556,352.019z M181.053,348.287c0,0.895-0.529,1.817-0.855,2.304
									c-0.441-0.614-1.157-1.019-1.969-1.019c-0.441,0-0.849,0.127-1.206,0.333c-0.001-0.001,0-0.003-0.001-0.005
									c-0.006-0.014-0.545-1.396,0.256-2.33c0.426-0.496,1.725-0.588,2.784-0.197
									C180.682,347.604,181.053,347.945,181.053,348.287z"/>
								<path style="fill:#FFFFFF;" d="M137.455,242.331c-0.014,0.411,0.051,0.771,0.218,1.064c0.25,0.438,0.691,0.714,1.278,0.798
									c0.658,0.092,1.531-0.146,2.206-0.392c-0.504,0.932-1.073,2.19-0.877,2.82c0.329,1.059,2.062,1.241,2.792,1.27
									c0.096,0.004,0.199,0.006,0.308,0.006c0.992,0,2.421-0.176,2.691-0.852c0.186-0.466,0.037-1.37-0.171-2.191
									c0.645,0.507,1.513,0.867,2.489,0.424c0.884-0.401,1.5-1.166,1.737-2.153c0.204-0.853,0.076-1.729-0.328-2.234
									c-0.538-0.673-2.176-0.766-3.179-0.774c0.225-0.363,0.475-0.861,0.645-1.407c-0.282,0.097-0.579,0.2-0.892,0.309
									c-0.166,0.368-0.357,0.678-0.508,0.903c-0.148-0.206-0.329-0.387-0.533-0.538c-0.308,0.109-0.622,0.22-0.948,0.337
									c0.693,0.211,1.203,0.849,1.203,1.61c0,0.932-0.759,1.691-1.691,1.691c-0.932,0-1.691-0.759-1.691-1.691
									c0-0.34,0.103-0.655,0.276-0.921c-0.308,0.113-0.621,0.229-0.937,0.346c-0.045,0.185-0.076,0.375-0.076,0.574
									c0,0.505,0.156,0.974,0.421,1.363c-0.008,0.003-0.017,0.002-0.025,0.006c-0.503,0.251-1.992,0.882-2.808,0.761
									c-0.358-0.051-0.608-0.197-0.742-0.433c-0.134-0.236-0.154-0.585-0.085-1.006
									C137.97,242.126,137.712,242.228,137.455,242.331z M146.323,241.333c0-0.161-0.018-0.318-0.048-0.47
									c1.118-0.029,2.629,0.091,2.947,0.489c0.211,0.264,0.36,0.878,0.186,1.602c-0.105,0.44-0.418,1.241-1.325,1.653
									c-1.297,0.59-2.466-1.065-2.678-1.389C145.96,242.773,146.323,242.098,146.323,241.333z M142.341,243.226
									c0.007-0.011,0.003-0.025,0.008-0.036c0.421,0.351,0.956,0.571,1.546,0.571c0.301,0,0.587-0.062,0.853-0.163
									c0.384,1.096,0.816,2.729,0.643,3.162c-0.164,0.237-1.575,0.545-2.999,0.327c-0.786-0.12-1.313-0.376-1.409-0.686
									C140.861,246.009,141.587,244.443,142.341,243.226z"/>
								<path style="fill:#FFFFFF;" d="M210.321,305.761c-0.164,0.237-1.575,0.545-2.999,0.327c-0.786-0.12-1.313-0.376-1.409-0.686
									c-0.122-0.393,0.603-1.96,1.357-3.176c0.007-0.011,0.003-0.025,0.008-0.036c0.421,0.351,0.956,0.571,1.546,0.571
									c0.301,0,0.587-0.062,0.853-0.163c0.283,0.809,0.592,1.908,0.666,2.605c0.033-0.948,0.066-1.892,0.098-2.832
									c-0.048-0.066-0.082-0.116-0.106-0.153c0.038-0.031,0.078-0.061,0.114-0.094c0.02-0.575,0.039-1.148,0.058-1.718
									c-0.039,0.898-0.776,1.618-1.683,1.618c-0.932,0-1.691-0.759-1.691-1.691c0-0.932,0.759-1.691,1.691-1.691
									c0.92,0,1.667,0.739,1.687,1.654c0.019-0.552,0.037-1.101,0.055-1.648c-0.442-0.457-1.058-0.744-1.742-0.744
									c-0.441,0-0.849,0.127-1.206,0.333c-0.001-0.001,0-0.003-0.001-0.005c-0.006-0.014-0.544-1.396,0.256-2.33
									c0.426-0.496,1.725-0.588,2.784-0.197c0.003,0.001,0.004,0.002,0.007,0.003c0.008-0.255,0.017-0.509,0.025-0.763
									c-1.188-0.368-2.708-0.301-3.374,0.477c-0.887,1.034-0.601,2.382-0.449,2.884l-0.146,0.203
									c-0.803-0.229-3.15-0.709-3.924,1.15c-0.491,1.178-0.556,2.097-0.194,2.733c0.249,0.438,0.691,0.714,1.278,0.798
									c0.658,0.092,1.531-0.147,2.206-0.392c-0.504,0.932-1.073,2.19-0.877,2.82c0.329,1.059,2.062,1.241,2.792,1.27
									c0.096,0.004,0.199,0.006,0.308,0.006c0.621,0,1.413-0.069,1.985-0.287c0.01-0.29,0.02-0.58,0.03-0.87
									C210.323,305.745,210.323,305.756,210.321,305.761z M203.985,302.463c-0.358-0.051-0.607-0.196-0.742-0.433
									c-0.237-0.415-0.153-1.156,0.234-2.085c0.588-1.411,2.743-0.82,3.18-0.683c-0.161,0.324-0.26,0.685-0.26,1.071
									c0,0.505,0.156,0.974,0.421,1.363c-0.008,0.003-0.017,0.002-0.025,0.006C206.289,301.954,204.8,302.584,203.985,302.463z"/>
								<path style="fill:#FFFFFF;" d="M136.848,342.783c-0.504,0.932-1.073,2.19-0.877,2.82c0.329,1.059,2.062,1.241,2.792,1.27
									c0.096,0.004,0.199,0.006,0.308,0.006c0.992,0,2.421-0.176,2.691-0.852c0.186-0.466,0.037-1.37-0.171-2.191
									c0.645,0.507,1.513,0.867,2.489,0.424c0.884-0.401,1.501-1.166,1.737-2.153c0.204-0.853,0.076-1.729-0.327-2.234
									c-0.538-0.673-2.176-0.766-3.179-0.774c0.369-0.595,0.837-1.54,0.837-2.497c0-0.673-0.537-1.258-1.473-1.604
									c-1.212-0.449-2.89-0.418-3.598,0.409c-0.887,1.034-0.601,2.382-0.449,2.884l-0.146,0.203
									c-0.571-0.162-1.916-0.436-2.927,0.078c0,0.3,0,0.597,0,0.89c0.824-0.792,2.485-0.335,2.864-0.217
									c-0.161,0.324-0.26,0.685-0.26,1.071c0,0.505,0.156,0.974,0.421,1.363c-0.008,0.003-0.017,0.002-0.025,0.006
									c-0.503,0.251-1.992,0.882-2.808,0.761c-0.075-0.011-0.126-0.043-0.192-0.062c0,0.262,0,0.518,0,0.771
									c0.03,0.006,0.056,0.016,0.087,0.021C135.3,343.267,136.173,343.029,136.848,342.783z M144.914,340.334
									c0.211,0.264,0.36,0.878,0.187,1.602c-0.105,0.441-0.418,1.241-1.325,1.654c-1.297,0.59-2.466-1.065-2.678-1.388
									c0.554-0.445,0.917-1.12,0.917-1.885c0-0.161-0.018-0.318-0.048-0.47C143.084,339.816,144.596,339.936,144.914,340.334z
									 M137.895,340.315c0-0.932,0.759-1.691,1.691-1.691c0.932,0,1.691,0.759,1.691,1.691c0,0.932-0.759,1.691-1.691,1.691
									C138.654,342.006,137.895,341.247,137.895,340.315z M138.636,335.886c0.426-0.496,1.725-0.588,2.784-0.196
									c0.621,0.23,0.992,0.571,0.992,0.913c0,0.895-0.529,1.817-0.855,2.304c-0.441-0.614-1.157-1.018-1.969-1.018
									c-0.441,0-0.849,0.127-1.206,0.333c-0.001-0.001,0-0.003-0.001-0.005C138.374,338.202,137.835,336.82,138.636,335.886z
									 M138.032,342.208c0.007-0.011,0.003-0.025,0.009-0.036c0.421,0.351,0.956,0.571,1.546,0.571
									c0.301,0,0.587-0.062,0.853-0.163c0.384,1.096,0.816,2.729,0.644,3.162c-0.164,0.237-1.575,0.545-2.999,0.328
									c-0.786-0.12-1.313-0.377-1.409-0.686C136.552,344.991,137.278,343.424,138.032,342.208z"/>
								<path style="fill:#FFFFFF;" d="M172.046,336.23c0.992,0,2.421-0.176,2.691-0.852c0.186-0.466,0.037-1.37-0.171-2.191
									c0.645,0.507,1.513,0.867,2.489,0.424c0.884-0.401,1.501-1.166,1.737-2.153c0.204-0.853,0.076-1.729-0.327-2.234
									c-0.538-0.673-2.176-0.766-3.179-0.774c0.369-0.595,0.837-1.54,0.837-2.497c0-0.673-0.537-1.258-1.473-1.604
									c-1.212-0.449-2.891-0.418-3.599,0.409c-0.887,1.034-0.601,2.382-0.449,2.884l-0.146,0.203
									c-0.803-0.229-3.15-0.709-3.924,1.15c-0.491,1.178-0.556,2.097-0.194,2.733c0.249,0.438,0.691,0.714,1.278,0.798
									c0.658,0.092,1.531-0.147,2.205-0.392c-0.503,0.932-1.072,2.19-0.877,2.82c0.329,1.059,2.062,1.241,2.792,1.27
									C171.835,336.228,171.938,336.23,172.046,336.23z M177.889,329.685c0.211,0.264,0.36,0.878,0.186,1.602
									c-0.105,0.441-0.418,1.241-1.325,1.653c-1.297,0.59-2.466-1.065-2.678-1.388c0.554-0.445,0.917-1.12,0.917-1.885
									c0-0.161-0.018-0.318-0.048-0.47C176.06,329.167,177.571,329.288,177.889,329.685z M170.871,329.667
									c0-0.932,0.759-1.691,1.691-1.691c0.932,0,1.691,0.759,1.691,1.691c0,0.932-0.759,1.691-1.691,1.691
									C171.629,331.358,170.871,330.599,170.871,329.667z M171.611,325.237c0.426-0.496,1.725-0.588,2.784-0.197
									c0.621,0.23,0.992,0.571,0.992,0.913c0,0.895-0.529,1.817-0.855,2.304c-0.441-0.614-1.157-1.019-1.969-1.019
									c-0.441,0-0.849,0.127-1.206,0.333c-0.001-0.002,0-0.003-0.001-0.005C171.349,327.553,170.811,326.172,171.611,325.237z
									 M167.722,331.797c-0.358-0.051-0.607-0.197-0.742-0.433c-0.236-0.415-0.153-1.156,0.234-2.085
									c0.588-1.412,2.743-0.82,3.18-0.683c-0.161,0.324-0.26,0.685-0.26,1.071c0,0.505,0.156,0.974,0.421,1.363
									c-0.008,0.003-0.017,0.002-0.025,0.006C170.026,331.287,168.538,331.918,167.722,331.797z M169.65,334.736
									c-0.122-0.393,0.603-1.96,1.357-3.176c0.007-0.011,0.003-0.025,0.008-0.036c0.421,0.351,0.955,0.571,1.546,0.571
									c0.301,0,0.587-0.062,0.853-0.163c0.384,1.096,0.816,2.729,0.643,3.162c-0.164,0.237-1.575,0.545-2.999,0.327
									C170.273,335.302,169.746,335.045,169.65,334.736z"/>
								<path style="fill:#FFFFFF;" d="M139.533,257.995c-0.491,1.178-0.556,2.097-0.194,2.733c0.249,0.438,0.691,0.714,1.278,0.798
									c0.658,0.092,1.531-0.147,2.205-0.392c-0.503,0.932-1.072,2.19-0.877,2.82c0.329,1.059,2.062,1.241,2.792,1.27
									c0.096,0.004,0.199,0.006,0.308,0.006c0.992,0,2.421-0.176,2.691-0.852c0.186-0.466,0.037-1.37-0.171-2.191
									c0.645,0.507,1.513,0.867,2.489,0.424c0.884-0.401,1.501-1.166,1.737-2.153c0.204-0.853,0.076-1.729-0.327-2.234
									c-0.538-0.673-2.176-0.766-3.179-0.774c0.369-0.595,0.837-1.54,0.837-2.497c0-0.673-0.537-1.258-1.473-1.604
									c-1.212-0.449-2.891-0.418-3.599,0.408c-0.887,1.034-0.601,2.382-0.449,2.884l-0.146,0.203
									C142.654,256.616,140.307,256.136,139.533,257.995z M147.252,258.667c0,0.932-0.759,1.691-1.691,1.691
									c-0.932,0-1.691-0.759-1.691-1.691c0-0.932,0.759-1.691,1.691-1.691C146.494,256.976,147.252,257.734,147.252,258.667z
									 M140.722,260.797c-0.358-0.051-0.607-0.197-0.742-0.433c-0.236-0.415-0.153-1.156,0.234-2.085
									c0.588-1.412,2.743-0.82,3.18-0.683c-0.161,0.324-0.26,0.685-0.26,1.071c0,0.505,0.156,0.974,0.421,1.363
									c-0.008,0.003-0.017,0.002-0.025,0.006C143.026,260.287,141.538,260.918,140.722,260.797z M147.058,264.094
									c-0.164,0.237-1.575,0.545-2.999,0.327c-0.786-0.12-1.313-0.376-1.41-0.686c-0.122-0.393,0.603-1.96,1.357-3.176
									c0.007-0.011,0.003-0.025,0.008-0.036c0.421,0.351,0.955,0.571,1.546,0.571c0.301,0,0.587-0.062,0.853-0.163
									C146.798,262.027,147.231,263.661,147.058,264.094z M150.889,258.685c0.211,0.264,0.36,0.878,0.186,1.602
									c-0.105,0.441-0.418,1.241-1.325,1.653c-1.297,0.59-2.466-1.065-2.678-1.388c0.554-0.445,0.917-1.12,0.917-1.885
									c0-0.161-0.018-0.318-0.048-0.47C149.06,258.167,150.571,258.288,150.889,258.685z M144.611,254.237
									c0.426-0.496,1.725-0.588,2.784-0.197c0.621,0.23,0.992,0.571,0.992,0.913c0,0.895-0.529,1.817-0.855,2.304
									c-0.441-0.614-1.157-1.019-1.969-1.019c-0.441,0-0.849,0.127-1.206,0.333c-0.001-0.002,0-0.003-0.001-0.005
									C144.349,256.553,143.811,255.171,144.611,254.237z"/>
								<path style="fill:#FFFFFF;" d="M202.056,343.611c0.884-0.401,1.501-1.166,1.737-2.153c0.204-0.853,0.076-1.729-0.327-2.234
									c-0.538-0.673-2.176-0.766-3.179-0.774c0.369-0.595,0.837-1.54,0.837-2.497c0-0.673-0.537-1.258-1.473-1.604
									c-1.212-0.449-2.891-0.418-3.599,0.409c-0.887,1.034-0.601,2.382-0.449,2.884l-0.146,0.203
									c-0.803-0.229-3.15-0.709-3.924,1.15c-0.491,1.178-0.556,2.097-0.194,2.733c0.249,0.438,0.691,0.714,1.278,0.798
									c0.658,0.092,1.531-0.147,2.205-0.392c-0.503,0.932-1.072,2.19-0.877,2.82c0.329,1.059,2.062,1.241,2.792,1.27
									c0.096,0.004,0.199,0.006,0.308,0.006c0.992,0,2.421-0.176,2.691-0.852c0.186-0.466,0.037-1.37-0.171-2.191
									C200.212,343.694,201.08,344.055,202.056,343.611z M196.611,335.237c0.426-0.496,1.725-0.588,2.784-0.197
									c0.621,0.23,0.992,0.571,0.992,0.913c0,0.895-0.529,1.817-0.855,2.304c-0.441-0.614-1.157-1.019-1.969-1.019
									c-0.441,0-0.849,0.127-1.206,0.333c-0.001-0.002,0-0.003-0.001-0.005C196.349,337.553,195.811,336.172,196.611,335.237z
									 M197.561,341.358c-0.932,0-1.691-0.759-1.691-1.691c0-0.932,0.759-1.691,1.691-1.691s1.691,0.759,1.691,1.691
									C199.252,340.599,198.494,341.358,197.561,341.358z M192.722,341.797c-0.358-0.051-0.607-0.197-0.742-0.433
									c-0.236-0.415-0.153-1.156,0.234-2.085c0.588-1.412,2.743-0.82,3.18-0.683c-0.161,0.324-0.26,0.685-0.26,1.071
									c0,0.505,0.156,0.974,0.421,1.363c-0.008,0.003-0.017,0.002-0.025,0.006C195.026,341.287,193.538,341.918,192.722,341.797z
									 M199.058,345.094c-0.164,0.237-1.575,0.545-2.999,0.327c-0.786-0.12-1.313-0.376-1.41-0.686
									c-0.122-0.393,0.603-1.96,1.357-3.176c0.007-0.011,0.003-0.025,0.008-0.036c0.421,0.351,0.955,0.571,1.546,0.571
									c0.301,0,0.587-0.062,0.853-0.163C198.798,343.027,199.231,344.661,199.058,345.094z M199.072,341.552
									c0.555-0.445,0.917-1.12,0.917-1.885c0-0.161-0.018-0.318-0.048-0.47c1.118-0.029,2.629,0.091,2.947,0.489
									c0.211,0.264,0.36,0.878,0.186,1.602c-0.105,0.441-0.418,1.241-1.325,1.653C200.454,343.53,199.285,341.875,199.072,341.552
									z"/>
								<path style="fill:#FFFFFF;" d="M141.613,295.288c0.329,1.059,2.062,1.241,2.792,1.27c0.096,0.004,0.199,0.006,0.308,0.006
									c0.992,0,2.421-0.176,2.691-0.852c0.186-0.466,0.037-1.37-0.171-2.191c0.645,0.507,1.513,0.867,2.489,0.424
									c0.884-0.401,1.501-1.166,1.737-2.153c0.204-0.853,0.076-1.729-0.327-2.234c-0.538-0.673-2.176-0.766-3.179-0.774
									c0.369-0.595,0.837-1.54,0.837-2.497c0-0.673-0.537-1.258-1.473-1.604c-1.212-0.449-2.89-0.418-3.598,0.409
									c-0.887,1.034-0.601,2.382-0.449,2.884l-0.146,0.203c-0.803-0.229-3.15-0.709-3.924,1.15
									c-0.491,1.178-0.556,2.097-0.194,2.733c0.249,0.438,0.691,0.714,1.278,0.798c0.658,0.092,1.531-0.146,2.206-0.392
									C141.986,293.4,141.417,294.658,141.613,295.288z M150.556,290.019c0.211,0.264,0.36,0.878,0.186,1.602
									c-0.105,0.441-0.418,1.241-1.325,1.653c-1.297,0.59-2.466-1.065-2.678-1.388c0.555-0.445,0.917-1.12,0.917-1.885
									c0-0.161-0.018-0.318-0.048-0.47C148.726,289.5,150.238,289.621,150.556,290.019z M143.537,290
									c0-0.932,0.759-1.691,1.691-1.691c0.932,0,1.691,0.759,1.691,1.691s-0.759,1.691-1.691,1.691
									C144.296,291.691,143.537,290.932,143.537,290z M144.278,285.57c0.426-0.496,1.725-0.588,2.784-0.197
									c0.621,0.23,0.992,0.571,0.992,0.913c0,0.895-0.529,1.817-0.855,2.304c-0.441-0.614-1.157-1.019-1.969-1.019
									c-0.441,0-0.849,0.127-1.206,0.333c-0.001-0.001,0-0.003-0.001-0.005C144.016,287.887,143.477,286.505,144.278,285.57z
									 M140.388,292.13c-0.358-0.051-0.607-0.196-0.742-0.433c-0.236-0.415-0.153-1.156,0.234-2.085
									c0.588-1.411,2.743-0.82,3.18-0.683c-0.161,0.324-0.26,0.685-0.26,1.071c0,0.505,0.156,0.974,0.421,1.363
									c-0.008,0.003-0.017,0.002-0.025,0.006C142.693,291.62,141.204,292.251,140.388,292.13z M143.674,291.893
									c0.007-0.011,0.003-0.025,0.008-0.036c0.421,0.351,0.955,0.571,1.546,0.571c0.301,0,0.587-0.062,0.853-0.163
									c0.384,1.096,0.816,2.729,0.644,3.162c-0.164,0.237-1.575,0.545-2.999,0.328c-0.787-0.12-1.313-0.376-1.41-0.686
									C142.195,294.676,142.92,293.109,143.674,291.893z"/>
								<path style="fill:#FFFFFF;" d="M163.236,271.191l-0.146,0.203c-0.803-0.229-3.15-0.709-3.924,1.15
									c-0.491,1.178-0.556,2.097-0.194,2.733c0.249,0.438,0.691,0.714,1.278,0.798c0.658,0.092,1.531-0.146,2.206-0.392
									c-0.504,0.932-1.073,2.191-0.877,2.82c0.329,1.059,2.062,1.241,2.792,1.27c0.096,0.004,0.199,0.006,0.308,0.006
									c0.992,0,2.421-0.176,2.691-0.852c0.186-0.466,0.037-1.37-0.171-2.191c0.645,0.507,1.513,0.867,2.489,0.424
									c0.884-0.401,1.501-1.166,1.737-2.153c0.204-0.853,0.076-1.729-0.327-2.234c-0.538-0.673-2.176-0.766-3.179-0.774
									c0.369-0.595,0.837-1.54,0.837-2.497c0-0.673-0.537-1.258-1.473-1.604c-1.212-0.449-2.891-0.418-3.598,0.408
									C162.798,269.341,163.084,270.689,163.236,271.191z M166.885,273.216c0,0.932-0.759,1.691-1.691,1.691
									c-0.932,0-1.691-0.759-1.691-1.691c0-0.932,0.759-1.691,1.691-1.691C166.127,271.525,166.885,272.284,166.885,273.216z
									 M160.355,275.346c-0.358-0.051-0.607-0.197-0.742-0.433c-0.236-0.415-0.153-1.156,0.234-2.085
									c0.588-1.411,2.743-0.82,3.18-0.683c-0.161,0.324-0.26,0.685-0.26,1.071c0,0.505,0.156,0.974,0.421,1.363
									c-0.008,0.003-0.017,0.002-0.025,0.006C162.659,274.836,161.171,275.467,160.355,275.346z M166.691,278.643
									c-0.164,0.237-1.575,0.545-2.999,0.328c-0.786-0.12-1.313-0.376-1.41-0.686c-0.122-0.393,0.603-1.96,1.357-3.176
									c0.007-0.011,0.003-0.025,0.008-0.036c0.421,0.351,0.956,0.571,1.546,0.571c0.301,0,0.587-0.062,0.853-0.163
									C166.432,276.576,166.864,278.21,166.691,278.643z M170.522,273.234c0.211,0.264,0.36,0.878,0.186,1.602
									c-0.105,0.441-0.418,1.241-1.325,1.654c-1.297,0.59-2.466-1.065-2.678-1.388c0.555-0.445,0.917-1.12,0.917-1.885
									c0-0.161-0.018-0.318-0.048-0.47C168.693,272.716,170.204,272.837,170.522,273.234z M164.244,268.786
									c0.426-0.496,1.725-0.588,2.783-0.196c0.621,0.23,0.992,0.571,0.992,0.913c0,0.894-0.529,1.817-0.855,2.304
									c-0.441-0.614-1.157-1.018-1.969-1.018c-0.441,0-0.849,0.127-1.206,0.333c-0.001-0.001,0-0.003-0.001-0.005
									C163.982,271.102,163.443,269.721,164.244,268.786z"/>
								<path style="fill:#FFFFFF;" d="M173.389,305.611c0.884-0.401,1.5-1.166,1.737-2.153c0.204-0.853,0.076-1.729-0.328-2.234
									c-0.538-0.673-2.176-0.766-3.179-0.774c0.369-0.595,0.837-1.54,0.837-2.497c0-0.673-0.537-1.258-1.473-1.604
									c-1.212-0.449-2.89-0.418-3.598,0.409c-0.887,1.034-0.601,2.382-0.449,2.884l-0.146,0.203
									c-0.803-0.229-3.15-0.709-3.924,1.15c-0.491,1.178-0.556,2.097-0.194,2.733c0.249,0.438,0.691,0.714,1.278,0.798
									c0.658,0.092,1.531-0.147,2.206-0.392c-0.504,0.932-1.073,2.19-0.877,2.82c0.329,1.059,2.062,1.241,2.792,1.27
									c0.096,0.004,0.199,0.006,0.308,0.006c0.992,0,2.421-0.176,2.691-0.852c0.186-0.466,0.037-1.37-0.171-2.191
									C171.545,305.694,172.413,306.055,173.389,305.611z M167.944,297.237c0.426-0.496,1.725-0.588,2.784-0.197
									c0.621,0.23,0.992,0.571,0.992,0.913c0,0.895-0.529,1.817-0.855,2.304c-0.441-0.614-1.157-1.019-1.969-1.019
									c-0.441,0-0.849,0.127-1.206,0.333c-0.001-0.001,0-0.003-0.001-0.005C167.683,299.553,167.144,298.172,167.944,297.237z
									 M168.895,303.358c-0.932,0-1.691-0.759-1.691-1.691c0-0.932,0.759-1.691,1.691-1.691c0.932,0,1.691,0.759,1.691,1.691
									C170.586,302.599,169.827,303.358,168.895,303.358z M164.055,303.797c-0.358-0.051-0.608-0.197-0.742-0.433
									c-0.236-0.415-0.153-1.156,0.234-2.085c0.588-1.412,2.743-0.82,3.18-0.683c-0.161,0.324-0.26,0.685-0.26,1.071
									c0,0.505,0.156,0.974,0.421,1.363c-0.008,0.003-0.017,0.002-0.025,0.006C166.36,303.287,164.871,303.918,164.055,303.797z
									 M170.392,307.094c-0.164,0.237-1.575,0.545-2.999,0.327c-0.786-0.12-1.313-0.376-1.409-0.686
									c-0.122-0.393,0.603-1.96,1.357-3.176c0.007-0.011,0.003-0.025,0.009-0.036c0.421,0.351,0.955,0.571,1.546,0.571
									c0.301,0,0.587-0.062,0.853-0.163C170.132,305.027,170.564,306.661,170.392,307.094z M170.406,303.552
									c0.554-0.445,0.917-1.12,0.917-1.885c0-0.161-0.018-0.318-0.048-0.47c1.118-0.029,2.629,0.091,2.947,0.489
									c0.211,0.264,0.36,0.878,0.186,1.602c-0.105,0.441-0.418,1.241-1.325,1.653C171.787,305.53,170.618,303.875,170.406,303.552
									z"/>
								<path style="fill:#FFFFFF;" d="M206.113,265.689l-0.146,0.203c-0.803-0.229-3.15-0.709-3.924,1.15
									c-0.491,1.178-0.556,2.097-0.194,2.733c0.249,0.438,0.691,0.714,1.278,0.798c0.658,0.092,1.531-0.147,2.206-0.392
									c-0.504,0.932-1.073,2.19-0.877,2.82c0.329,1.059,2.062,1.241,2.792,1.27c0.096,0.004,0.199,0.006,0.308,0.006
									c0.992,0,2.421-0.176,2.691-0.852c0.186-0.466,0.037-1.37-0.171-2.191c0.347,0.273,0.76,0.498,1.219,0.584
									c0.003-0.264,0.005-0.52,0.007-0.764c-0.876-0.244-1.562-1.215-1.72-1.455c0.554-0.445,0.917-1.12,0.917-1.885
									c0-0.161-0.018-0.318-0.048-0.47c0.252-0.007,0.52-0.004,0.794,0.006c-0.014-0.247-0.028-0.495-0.038-0.743
									c-0.145-0.005-0.284-0.007-0.412-0.008c0.127-0.205,0.261-0.462,0.389-0.737c-0.024-0.918-0.029-1.839-0.026-2.757
									c-0.247-0.24-0.576-0.451-0.999-0.607c-1.212-0.449-2.891-0.418-3.598,0.409
									C205.675,263.838,205.961,265.186,206.113,265.689z M203.232,269.843c-0.358-0.051-0.608-0.197-0.742-0.433
									c-0.236-0.415-0.153-1.156,0.234-2.085c0.588-1.412,2.743-0.82,3.18-0.683c-0.161,0.324-0.26,0.685-0.26,1.071
									c0,0.505,0.156,0.974,0.421,1.363c-0.008,0.003-0.017,0.002-0.025,0.006C205.537,269.333,204.048,269.964,203.232,269.843z
									 M209.569,273.141c-0.164,0.237-1.575,0.545-2.999,0.327c-0.786-0.12-1.313-0.376-1.409-0.686
									c-0.122-0.393,0.603-1.96,1.357-3.176c0.007-0.011,0.003-0.025,0.008-0.036c0.421,0.351,0.956,0.571,1.546,0.571
									c0.301,0,0.587-0.062,0.853-0.163C209.309,271.074,209.741,272.707,209.569,273.141z M208.072,269.404
									c-0.932,0-1.691-0.759-1.691-1.691c0-0.932,0.759-1.691,1.691-1.691s1.691,0.759,1.691,1.691
									C209.763,268.645,209.004,269.404,208.072,269.404z M207.121,263.284c0.426-0.496,1.725-0.588,2.784-0.197
									c0.621,0.23,0.992,0.571,0.992,0.913c0,0.894-0.529,1.817-0.855,2.304c-0.441-0.614-1.157-1.018-1.969-1.018
									c-0.441,0-0.849,0.127-1.206,0.333c-0.001-0.001,0-0.003-0.001-0.005C206.86,265.599,206.321,264.218,207.121,263.284z"/>
								<path style="fill:#FFFFFF;" d="M193.58,280.683c-1.212-0.449-2.891-0.418-3.598,0.409c-0.887,1.034-0.601,2.382-0.449,2.884
									l-0.146,0.203c-0.803-0.229-3.15-0.709-3.924,1.15c-0.491,1.178-0.556,2.097-0.194,2.733
									c0.249,0.438,0.691,0.714,1.278,0.798c0.658,0.092,1.531-0.146,2.206-0.392c-0.503,0.932-1.072,2.19-0.877,2.82
									c0.329,1.059,2.062,1.241,2.792,1.27c0.096,0.004,0.199,0.006,0.308,0.006c0.992,0,2.421-0.176,2.691-0.852
									c0.186-0.466,0.037-1.37-0.171-2.191c0.645,0.507,1.513,0.867,2.489,0.424c0.884-0.401,1.501-1.166,1.737-2.153
									c0.204-0.853,0.076-1.729-0.328-2.234c-0.538-0.673-2.176-0.766-3.179-0.774c0.369-0.595,0.837-1.54,0.837-2.497
									C195.053,281.614,194.516,281.029,193.58,280.683z M193.182,286c0,0.932-0.759,1.691-1.691,1.691
									c-0.932,0-1.691-0.759-1.691-1.691s0.759-1.691,1.691-1.691C192.423,284.309,193.182,285.068,193.182,286z M186.651,288.13
									c-0.358-0.051-0.607-0.196-0.742-0.433c-0.236-0.415-0.153-1.156,0.234-2.085c0.588-1.411,2.743-0.82,3.18-0.683
									c-0.161,0.324-0.26,0.685-0.26,1.071c0,0.505,0.156,0.974,0.421,1.363c-0.008,0.003-0.017,0.002-0.025,0.006
									C188.956,287.62,187.467,288.251,186.651,288.13z M192.988,291.427c-0.164,0.237-1.575,0.545-2.999,0.328
									c-0.786-0.12-1.313-0.376-1.409-0.686c-0.122-0.393,0.603-1.96,1.357-3.176c0.007-0.011,0.003-0.025,0.008-0.036
									c0.421,0.351,0.956,0.571,1.546,0.571c0.301,0,0.587-0.062,0.853-0.163C192.728,289.361,193.16,290.995,192.988,291.427z
									 M196.818,286.019c0.211,0.264,0.359,0.878,0.186,1.602c-0.105,0.441-0.418,1.241-1.325,1.653
									c-1.297,0.59-2.466-1.065-2.678-1.388c0.554-0.445,0.917-1.12,0.917-1.885c0-0.161-0.018-0.318-0.048-0.47
									C194.989,285.5,196.501,285.621,196.818,286.019z M193.46,284.591c-0.441-0.614-1.157-1.019-1.969-1.019
									c-0.441,0-0.849,0.127-1.206,0.333c-0.001-0.001,0-0.003-0.001-0.005c-0.006-0.014-0.544-1.396,0.256-2.33
									c0.426-0.496,1.725-0.588,2.784-0.197c0.621,0.23,0.992,0.571,0.992,0.913C194.316,283.181,193.786,284.104,193.46,284.591z
									"/>
								<path style="fill:#FFFFFF;" d="M162.94,354.784c0.884-0.401,1.5-1.166,1.737-2.153c0.204-0.853,0.076-1.729-0.327-2.234
									c-0.538-0.673-2.176-0.766-3.179-0.774c0.369-0.595,0.837-1.54,0.837-2.497c0-0.673-0.537-1.258-1.473-1.604
									c-1.212-0.449-2.89-0.418-3.598,0.409c-0.887,1.034-0.601,2.382-0.449,2.884l-0.146,0.203
									c-0.803-0.229-3.15-0.709-3.924,1.15c-0.491,1.178-0.556,2.097-0.194,2.733c0.249,0.438,0.691,0.714,1.278,0.798
									c0.658,0.092,1.531-0.146,2.206-0.392c-0.504,0.932-1.073,2.191-0.877,2.82c0.329,1.059,2.062,1.241,2.792,1.27
									c0.096,0.004,0.199,0.006,0.308,0.006c0.992,0,2.421-0.176,2.691-0.852c0.186-0.466,0.037-1.37-0.171-2.191
									C161.096,354.867,161.964,355.227,162.94,354.784z M157.495,346.41c0.426-0.496,1.725-0.588,2.784-0.197
									c0.621,0.23,0.992,0.571,0.992,0.913c0,0.894-0.529,1.817-0.855,2.304c-0.441-0.614-1.157-1.018-1.969-1.018
									c-0.441,0-0.849,0.127-1.206,0.333c-0.001-0.001,0-0.003-0.001-0.005C157.233,348.726,156.695,347.344,157.495,346.41z
									 M158.446,352.53c-0.932,0-1.691-0.759-1.691-1.691c0-0.932,0.759-1.691,1.691-1.691c0.932,0,1.691,0.759,1.691,1.691
									C160.136,351.772,159.378,352.53,158.446,352.53z M153.606,352.969c-0.358-0.051-0.608-0.197-0.742-0.433
									c-0.236-0.415-0.153-1.156,0.234-2.085c0.588-1.412,2.743-0.82,3.18-0.683c-0.161,0.324-0.26,0.685-0.26,1.071
									c0,0.505,0.156,0.974,0.421,1.363c-0.008,0.003-0.017,0.002-0.025,0.006C155.91,352.46,154.422,353.09,153.606,352.969z
									 M159.942,356.267c-0.164,0.237-1.575,0.545-2.999,0.328c-0.786-0.12-1.313-0.376-1.409-0.686
									c-0.122-0.393,0.603-1.96,1.357-3.176c0.007-0.011,0.003-0.025,0.009-0.036c0.421,0.351,0.956,0.571,1.546,0.571
									c0.301,0,0.587-0.062,0.853-0.163C159.683,354.2,160.115,355.834,159.942,356.267z M159.956,352.725
									c0.554-0.445,0.917-1.121,0.917-1.885c0-0.161-0.017-0.318-0.048-0.47c1.118-0.029,2.629,0.091,2.947,0.489
									c0.211,0.264,0.36,0.878,0.186,1.602c-0.105,0.441-0.418,1.241-1.325,1.654
									C161.338,354.703,160.169,353.048,159.956,352.725z"/>
								<path style="fill:#FFFFFF;" d="M186.946,318.954c0.329,1.059,2.062,1.241,2.792,1.27c0.096,0.004,0.199,0.006,0.308,0.006
									c0.992,0,2.421-0.176,2.691-0.852c0.186-0.466,0.037-1.37-0.171-2.191c0.645,0.507,1.513,0.867,2.489,0.424
									c0.884-0.401,1.501-1.166,1.737-2.153c0.204-0.853,0.076-1.729-0.327-2.234c-0.538-0.673-2.176-0.766-3.179-0.774
									c0.369-0.595,0.837-1.54,0.837-2.497c0-0.673-0.537-1.258-1.473-1.604c-1.212-0.449-2.891-0.418-3.599,0.409
									c-0.887,1.034-0.601,2.382-0.449,2.884l-0.146,0.203c-0.803-0.229-3.15-0.709-3.924,1.15
									c-0.491,1.178-0.556,2.097-0.194,2.733c0.249,0.438,0.691,0.714,1.278,0.798c0.658,0.092,1.531-0.147,2.205-0.392
									C187.319,317.066,186.75,318.325,186.946,318.954z M195.889,313.685c0.211,0.264,0.36,0.878,0.186,1.602
									c-0.105,0.441-0.418,1.241-1.325,1.653c-1.297,0.59-2.466-1.065-2.678-1.388c0.555-0.445,0.917-1.12,0.917-1.885
									c0-0.161-0.018-0.318-0.048-0.47C194.06,313.167,195.571,313.288,195.889,313.685z M188.871,313.667
									c0-0.932,0.759-1.691,1.691-1.691s1.691,0.759,1.691,1.691c0,0.932-0.759,1.691-1.691,1.691
									S188.871,314.599,188.871,313.667z M189.611,309.237c0.426-0.496,1.725-0.588,2.784-0.197
									c0.621,0.23,0.992,0.571,0.992,0.913c0,0.895-0.529,1.817-0.855,2.304c-0.441-0.614-1.157-1.019-1.969-1.019
									c-0.441,0-0.849,0.127-1.206,0.333c-0.001-0.002,0-0.003-0.001-0.005C189.349,311.553,188.811,310.172,189.611,309.237z
									 M185.722,315.797c-0.358-0.051-0.607-0.197-0.742-0.433c-0.236-0.415-0.153-1.156,0.234-2.085
									c0.588-1.412,2.743-0.82,3.18-0.683c-0.161,0.324-0.26,0.685-0.26,1.071c0,0.505,0.156,0.974,0.421,1.363
									c-0.008,0.003-0.017,0.002-0.025,0.006C188.026,315.287,186.538,315.918,185.722,315.797z M189.007,315.56
									c0.007-0.011,0.003-0.025,0.008-0.036c0.421,0.351,0.955,0.571,1.546,0.571c0.301,0,0.587-0.062,0.853-0.163
									c0.384,1.096,0.816,2.729,0.643,3.162c-0.164,0.237-1.575,0.545-2.999,0.327c-0.786-0.12-1.313-0.376-1.41-0.686
									C187.528,318.343,188.253,316.776,189.007,315.56z"/>
								<path style="fill:#FFFFFF;" d="M182.5,247.211c-0.491,1.178-0.556,2.097-0.194,2.733c0.25,0.438,0.691,0.714,1.278,0.798
									c0.658,0.092,1.531-0.146,2.206-0.392c-0.504,0.932-1.073,2.19-0.877,2.82c0.329,1.059,2.062,1.241,2.792,1.27
									c0.096,0.004,0.199,0.006,0.308,0.006c0.991,0,2.421-0.176,2.691-0.852c0.186-0.466,0.037-1.37-0.171-2.191
									c0.645,0.507,1.513,0.867,2.489,0.424c0.884-0.401,1.5-1.166,1.737-2.153c0.204-0.853,0.076-1.729-0.328-2.234
									c-0.538-0.673-2.176-0.766-3.179-0.774c0.369-0.595,0.837-1.54,0.837-2.497c0-0.673-0.537-1.258-1.473-1.604
									c-1.212-0.449-2.89-0.418-3.598,0.409c-0.887,1.034-0.601,2.382-0.449,2.884l-0.146,0.203
									C185.62,245.832,183.274,245.352,182.5,247.211z M190.219,247.882c0,0.932-0.759,1.691-1.691,1.691
									s-1.691-0.759-1.691-1.691c0-0.932,0.759-1.691,1.691-1.691S190.219,246.95,190.219,247.882z M183.688,250.012
									c-0.358-0.051-0.608-0.197-0.742-0.433c-0.236-0.415-0.153-1.156,0.234-2.085c0.588-1.411,2.743-0.82,3.18-0.683
									c-0.161,0.324-0.26,0.685-0.26,1.071c0,0.505,0.156,0.974,0.421,1.363c-0.008,0.003-0.017,0.002-0.025,0.006
									C185.993,249.503,184.504,250.133,183.688,250.012z M190.025,253.31c-0.164,0.237-1.575,0.545-2.999,0.328
									c-0.786-0.12-1.313-0.376-1.409-0.686c-0.122-0.393,0.603-1.96,1.357-3.176c0.007-0.011,0.003-0.025,0.008-0.036
									c0.421,0.351,0.956,0.571,1.546,0.571c0.301,0,0.587-0.062,0.853-0.163C189.765,251.243,190.197,252.877,190.025,253.31z
									 M193.855,247.901c0.211,0.264,0.359,0.878,0.186,1.602c-0.106,0.441-0.418,1.241-1.325,1.654
									c-1.297,0.59-2.466-1.065-2.678-1.388c0.554-0.445,0.917-1.121,0.917-1.885c0-0.161-0.018-0.318-0.048-0.47
									C192.026,247.383,193.538,247.503,193.855,247.901z M187.577,243.453c0.426-0.496,1.725-0.588,2.783-0.197
									c0.621,0.23,0.992,0.571,0.992,0.913c0,0.895-0.529,1.817-0.855,2.304c-0.441-0.614-1.157-1.019-1.969-1.019
									c-0.441,0-0.849,0.127-1.206,0.333c-0.001-0.001,0-0.003-0.001-0.005C187.316,245.769,186.777,244.387,187.577,243.453z"/>
								<path style="fill:#FFFFFF;" d="M146.279,324.954c0.329,1.059,2.062,1.241,2.792,1.27c0.096,0.004,0.199,0.006,0.308,0.006
									c0.992,0,2.421-0.176,2.691-0.852c0.186-0.466,0.037-1.37-0.171-2.191c0.645,0.507,1.513,0.867,2.489,0.424
									c0.884-0.401,1.5-1.166,1.737-2.153c0.204-0.853,0.076-1.729-0.328-2.234c-0.538-0.673-2.176-0.766-3.179-0.774
									c0.369-0.595,0.837-1.54,0.837-2.497c0-0.673-0.537-1.258-1.473-1.604c-1.212-0.449-2.89-0.418-3.598,0.409
									c-0.887,1.034-0.601,2.382-0.449,2.884l-0.146,0.203c-0.803-0.229-3.15-0.709-3.924,1.15
									c-0.491,1.178-0.556,2.097-0.194,2.733c0.25,0.438,0.691,0.714,1.278,0.798c0.658,0.092,1.531-0.147,2.206-0.392
									C146.653,323.066,146.084,324.325,146.279,324.954z M155.222,319.685c0.211,0.264,0.36,0.878,0.186,1.602
									c-0.105,0.441-0.418,1.241-1.325,1.653c-1.297,0.59-2.466-1.065-2.678-1.388c0.554-0.445,0.917-1.12,0.917-1.885
									c0-0.161-0.018-0.318-0.048-0.47C153.393,319.167,154.905,319.288,155.222,319.685z M148.204,319.667
									c0-0.932,0.759-1.691,1.691-1.691c0.932,0,1.691,0.759,1.691,1.691c0,0.932-0.759,1.691-1.691,1.691
									C148.963,321.358,148.204,320.599,148.204,319.667z M148.944,315.237c0.426-0.496,1.725-0.588,2.784-0.197
									c0.621,0.23,0.992,0.571,0.992,0.913c0,0.895-0.529,1.817-0.855,2.304c-0.441-0.614-1.157-1.019-1.969-1.019
									c-0.441,0-0.849,0.127-1.206,0.333c-0.001-0.001,0-0.003-0.001-0.005C148.683,317.553,148.144,316.172,148.944,315.237z
									 M145.055,321.797c-0.358-0.051-0.608-0.197-0.742-0.433c-0.236-0.415-0.153-1.156,0.234-2.085
									c0.588-1.412,2.743-0.82,3.18-0.683c-0.161,0.324-0.26,0.685-0.26,1.071c0,0.505,0.156,0.974,0.421,1.363
									c-0.008,0.003-0.017,0.002-0.025,0.006C147.36,321.287,145.871,321.918,145.055,321.797z M148.341,321.56
									c0.007-0.011,0.003-0.025,0.009-0.036c0.421,0.351,0.955,0.571,1.546,0.571c0.301,0,0.587-0.062,0.853-0.163
									c0.384,1.096,0.816,2.729,0.643,3.162c-0.164,0.237-1.575,0.545-2.999,0.327c-0.786-0.12-1.313-0.376-1.409-0.686
									C146.861,324.343,147.587,322.776,148.341,321.56z"/>
							</g>
							<path style="fill:#263238;stroke:#263238;stroke-linecap:round;stroke-linejoin:round;stroke-miterlimit:10;" d="
								M172.456,297.953c0,0,19.859,22.41,27.124,27.405c7.265,4.995,9.99,6.811,9.99,6.811v-12.714L172.456,297.953z"/>
							<path style="fill:none;stroke:#263238;stroke-miterlimit:10;" d="M208.589,351.905c0,0,3.122-77.602,2.676-84.292
								c-0.446-6.69,0.892-13.826-2.676-18.732c-3.568-4.906-25.421-11.596-29.435-12.042s-23.192-1.338-28.989,0.892
								c0,0-7.651,2.496-14.32,5.252l-0.758,1.516l-0.531,34.709c0,0,0,63.723,0,72.075c8.494,4.6,34.865,15.559,74.43,1.604
								L208.589,351.905z"/>
						</g>
						<g>
							<path style="fill:#FFFFFF;stroke:#263238;stroke-linecap:round;stroke-linejoin:round;stroke-miterlimit:10;" d="
								M153.732,246.652c0,0,0,19.178,12.042,20.07c12.042,0.892,14.272-27.651,14.272-27.651l-27.651,3.122L153.732,246.652z"/>
							<path style="fill:#263238;stroke:#263238;stroke-linecap:round;stroke-linejoin:round;stroke-miterlimit:10;" d="
								M152.394,242.192l1.338,4.46c0,0,0.004,4.009,1.154,8.445c0.962,0.465,1.956,0.896,3.016,1.243
								c7.78,2.545,15.912-1.767,20.942-8.989c0.913-4.638,1.201-8.281,1.201-8.281L152.394,242.192z"/>
						</g>
					</g>
				</g>
				<path style="fill:#FFFFFF;stroke:#263238;stroke-linecap:round;stroke-linejoin:round;stroke-miterlimit:10;" d="
					M203.237,248.882c0,0-5.352,4.46-5.352,13.826c0,9.366,1.784,32.111,2.676,37.909c0.892,5.798,8.92,23.191,16.948,18.732
					s10.258-7.582,8.474-21.408c-1.784-13.826-4.014-30.773-7.582-39.247C214.833,250.219,208.143,245.76,203.237,248.882z"/>
			</g>
			<g>
				<path style="fill:#263238;stroke:#263238;stroke-linecap:round;stroke-linejoin:round;stroke-miterlimit:10;" d="M51.919,410
					c0,0-6,8.667-4,12.667s12,3.333,18,1.333s25.333-9.333,25.333-9.333l-4-4c0,0-10,6-18,6.667c-8,0.667-9.333,3.333-12,2.667
					c-2.667-0.667,2-8,2-8L51.919,410z"/>
				<path style="fill:#92E3A9;stroke:#263238;stroke-linecap:round;stroke-linejoin:round;stroke-miterlimit:10;" d="
					M77.919,343.333c0,0-24,49.333-29.333,56.667s4.667,18,12.667,18s34-58,37.333-60.667
					C101.919,354.667,96.586,335.333,77.919,343.333z"/>
				<path style="fill:#FFFFFF;stroke:#263238;stroke-linecap:round;stroke-linejoin:round;stroke-miterlimit:10;" d="
					M158.878,308.522c0,0,11.745,5.655,16.53,13.485c4.785,7.83,10.005,32.626,11.31,47.851c1.305,15.225,6.96,28.276,8.7,37.411
					c1.74,9.135-4.785,15.66-12.615,20.88c-7.83,5.22-11.31,5.655-15.225,6.525c-3.915,0.87-11.745-7.395-10.875-19.14
					c0.87-11.745,3.035-65.837,0.87-80.042C155.409,321.287,154.093,306.346,158.878,308.522"/>
				<path style="fill:#92E3A9;stroke:#263238;stroke-linecap:round;stroke-linejoin:round;stroke-miterlimit:10;" d="M115.252,299
					c0,0-21,7-29,17s-7.5,16-5.5,30s2.5,36-1.5,51s1,30.5,9,34.5s45.5,10.5,64.5,6.5s28.5-4.5,30.5-19.5s-5.5-44.5-6-68
					s-13-43.5-30.5-50.5S115.252,299,115.252,299z"/>
				<path style="fill:#FFFFFF;stroke:#263238;stroke-linecap:round;stroke-linejoin:round;stroke-miterlimit:10;" d="M110.586,299
					c0,0-21,7-29,17s-7.5,16-5.5,30s2.5,36-1.5,51s1,30.5,9,34.5s45.5,10.5,64.5,6.5s28.5-4.5,30.5-19.5s-5.5-44.5-6-68
					s-13-43.5-30.5-50.5S110.586,299,110.586,299z"/>
				<g>
					<path style="fill:#92E3A9;stroke:#263238;stroke-linecap:round;stroke-linejoin:round;stroke-miterlimit:10;" d="
						M148.33,303.174c-1.997-1.244-4.082-2.309-6.244-3.174c-17.5-7-31.5-1-31.5-1s-0.472,0.158-1.286,0.453
						c-0.677,1.012-1.337,2.352-1.714,4.047c-1,4.5,1.5,13,1.5,13l36.5,5c0,0-2.5-7.5,0-13
						C146.623,306.217,147.572,304.459,148.33,303.174z"/>
				</g>
				<g>
					<g>
						<g>
							<polygon style="fill:#FFFFFF;stroke:#263238;stroke-linecap:round;stroke-linejoin:round;stroke-miterlimit:10;" points="
								75.238,248.436 79.633,246.067 134.102,234.262 133.217,235.502 							"/>
							<polygon style="fill:#263238;stroke:#263238;stroke-linecap:round;stroke-linejoin:round;stroke-miterlimit:10;" points="
								134.102,234.262 156.018,304.111 154.983,304.732 133.217,235.502 							"/>
							<polygon style="fill:#FFFFFF;stroke:#263238;stroke-linecap:round;stroke-linejoin:round;stroke-miterlimit:10;" points="
								75.238,248.436 97.983,319.348 155.07,304.63 133.217,235.502 							"/>
						</g>
						<g>
							<path style="fill:#92E3A9;" d="M90.238,254.255c1.512-0.318,2.56,0.439,3.035,2.051l0.093,0.316l-1.469,0.309l-0.123-0.418
								c-0.212-0.719-0.575-0.933-1.07-0.829c-0.494,0.104-0.696,0.437-0.484,1.156c0.611,2.072,3.763,1.822,4.611,4.7
								c0.475,1.611-0.044,2.698-1.57,3.019c-1.526,0.321-2.588-0.433-3.063-2.044l-0.183-0.619l1.469-0.309l0.212,0.719
								c0.212,0.72,0.6,0.914,1.094,0.81c0.494-0.105,0.729-0.43,0.517-1.149c-0.611-2.071-3.762-1.819-4.61-4.697
								C88.221,255.658,88.727,254.574,90.238,254.255z"/>
							<path style="fill:#92E3A9;" d="M98.803,255.219l0.386,1.309c0.475,1.612-0.029,2.649-1.582,2.976l-0.735,0.155l1.116,3.784
								l-1.553,0.327l-2.97-10.071l2.288-0.482C97.306,252.89,98.328,253.606,98.803,255.219z M95.442,254.811l1.005,3.41
								l0.735-0.155c0.494-0.104,0.694-0.391,0.482-1.111l-0.445-1.511c-0.212-0.719-0.549-0.893-1.043-0.788L95.442,254.811z"/>
							<path style="fill:#92E3A9;" d="M106.675,261.614l-1.567,0.33l-0.808-1.77l-1.907,0.401l0.271,1.884l-1.427,0.3l-1.388-10.404
								l2.274-0.479L106.675,261.614z M102.188,259.167l1.496-0.315l-2.25-4.935L102.188,259.167z"/>
							<path style="fill:#92E3A9;" d="M106.629,253.877l2.15,7.294l-1.398,0.294l-2.97-10.071l1.949-0.41l3.374,5.693l-1.777-6.029
								l1.384-0.292l2.97,10.071l-1.596,0.336L106.629,253.877z"/>
							<path style="fill:#92E3A9;" d="M110.457,250.122l1.554-0.327l2.97,10.071l-1.554,0.327L110.457,250.122z"/>
							<path style="fill:#92E3A9;" d="M115.197,249.002c1.512-0.318,2.561,0.439,3.035,2.051l0.094,0.316l-1.47,0.309l-0.123-0.418
								c-0.212-0.719-0.575-0.933-1.07-0.829c-0.494,0.104-0.696,0.437-0.484,1.156c0.611,2.072,3.763,1.822,4.611,4.7
								c0.475,1.611-0.044,2.698-1.57,3.019c-1.526,0.321-2.588-0.433-3.063-2.044l-0.183-0.619l1.469-0.309l0.212,0.719
								c0.212,0.72,0.6,0.914,1.094,0.81c0.494-0.104,0.729-0.43,0.517-1.149c-0.611-2.071-3.762-1.819-4.61-4.697
								C113.18,250.405,113.686,249.321,115.197,249.002z"/>
							<path style="fill:#92E3A9;" d="M122.946,258.19l-1.553,0.327l-2.97-10.071l1.553-0.327l1.273,4.316l1.766-0.372l-1.272-4.316
								l1.582-0.333l2.97,10.071l-1.582,0.333l-1.273-4.316l-1.766,0.372L122.946,258.19z"/>
						</g>
					</g>
					<path style="fill:#FFFFFF;stroke:#263238;stroke-linecap:round;stroke-linejoin:round;stroke-miterlimit:10;" d="
						M215.715,298.778c-2.94-1.4-9.75-4.128-22.29-6.636c-14.406-2.881-28.226-11.285-33.013-14.415l-10.455-12.923l-8.481-3.914
						l-9.472-0.861c-0.694-0.063-1.292,0.483-1.292,1.18c0,0.571,0.408,1.061,0.969,1.165l7.838,1.451l4.24,3.588l-1.957,1.305
						l-14.959-2.413c-0.478-0.018-0.889,0.336-0.942,0.811l-0.069,0.624c0,0.649,0.49,1.193,1.136,1.26l13.059,3.238l-14.086,0.158
						c-0.762,0.047-1.325,0.731-1.224,1.488c0.091,0.683,0.693,1.18,1.381,1.14l12.71,0.348l-5.486,1.501l-5.545,4.893
						c-0.664,1.027,0.385,2.318,1.518,1.857c0.62-0.252,1.214-0.565,1.623-0.796l5.34-3.018h5.545c0,0,3.588,3.262,6.197,4.567
						c2.609,1.305,9.3,2.415,9.3,2.415s27.651,23.191,38.355,29.435c10.704,6.244,27.652,16.502,29.436,11.15
						c1.323-3.968,1.27-15.353,0.995-20.876"/>
					<g>
						<path style="fill:#FFFFFF;stroke:#263238;stroke-linecap:round;stroke-linejoin:round;stroke-miterlimit:10;" d="
							M80.485,263.393c0,0-2.936,0.801-1.869,3.203c1.068,2.402,7.742,7.208,8.542,5.072
							C87.959,269.533,83.421,264.461,80.485,263.393z"/>
						<path style="fill:#FFFFFF;stroke:#263238;stroke-linecap:round;stroke-linejoin:round;stroke-miterlimit:10;" d="
							M79.684,268.466c0,0-2.136,3.203-0.534,5.072c1.602,1.869,7.742,4.271,8.542,2.669c0.801-1.602-1.869-3.47-3.737-4.805
							C82.086,270.067,79.684,268.466,79.684,268.466z"/>
						<path style="fill:#FFFFFF;stroke:#263238;stroke-linecap:round;stroke-linejoin:round;stroke-miterlimit:10;" d="
							M80.218,274.605c0,0-1.335,2.936,0.534,4.271c1.869,1.335,7.475,2.136,7.475,0.267c0-1.869-2.136-2.669-2.136-2.669
							L80.218,274.605z"/>
						<path style="fill:#FFFFFF;stroke:#263238;stroke-linecap:round;stroke-linejoin:round;stroke-miterlimit:10;" d="
							M82.353,279.677c0,0,0.267,2.403,2.136,3.47c1.869,1.068,5.072-0.534,4.538-1.602c-0.534-1.068-3.203-1.068-3.203-1.068
							L82.353,279.677z"/>
					</g>
				</g>
				<g>
					<path style="fill:#92E3A9;stroke:#263238;stroke-linecap:round;stroke-linejoin:round;stroke-miterlimit:10;" d="
						M167.586,398.167c0,0-4.5-53.5-9-66.5s-40-21-56.5-15s-24.5,13-21.5,30s-5.5,53.5,2.5,65.5s26,16.5,53.5,15
						S167.086,415.167,167.586,398.167z"/>
					<path style="fill:#FFFFFF;stroke:#263238;stroke-linecap:round;stroke-linejoin:round;stroke-miterlimit:10;" d="
						M165.586,393.5c0,0-4.5-53.5-9-66.5s-40-21-56.5-15s-24.5,13-21.5,30s-5.5,53.5,2.5,65.5s26,16.5,53.5,15
						S165.086,410.5,165.586,393.5z"/>
					<path style="fill:#92E3A9;stroke:#263238;stroke-linecap:round;stroke-linejoin:round;stroke-miterlimit:10;" d="
						M142.586,320.5c0.268-2.057,0.536-3.848,0.796-5.419c-12.611-4.939-29.889-6.748-40.393-3.375
						c-0.923,2.154-1.903,5.736-1.903,11.294c0,10.5,0.5,22,0.5,22l43.5,3.5C145.086,348.5,141.086,332,142.586,320.5z"/>
				</g>
			</g>
			<g>
				<g>
					<path style="fill:#FFFFFF;stroke:#263238;stroke-linecap:round;stroke-linejoin:round;stroke-miterlimit:10;" d="
						M179.524,189.001c-0.687-0.575-1.39-1.135-2.11-1.672c-11.144-8.324-28.158-9.648-36.643,6.855
						c-8.485,16.503-7.681,31.62-7.681,31.62s1.41,1.327,6.187,7.315c2.587,3.242,8.165,15.092,19.911,18.935
						c12.466,4.078,25.839-9.448,25.9-24.35c0.036-8.869-0.156-11.339-2.97-19.661C180.161,202.256,179.393,194.389,179.524,189.001
						z"/>
					<g>
						<path style="fill:none;stroke:#263238;stroke-linecap:round;stroke-linejoin:round;stroke-miterlimit:10;" d="
							M152.594,223.936c0,0,1.506,4.745,0.577,8.006c-0.929,3.261,3.386,5.402,6.307,3.681"/>
						<path style="fill:none;stroke:#263238;stroke-linecap:round;stroke-linejoin:round;stroke-miterlimit:10;" d="
							M157.779,239.881c0,0,5.865,3.737,11.199-3.68"/>
						<path style="fill:#263238;" d="M164.486,218.954c0.614,1.608,0.552,3.125-0.137,3.388s-1.745-0.827-2.359-2.436
							c-0.614-1.608-0.553-3.125,0.137-3.388C162.816,216.255,163.872,217.346,164.486,218.954z"/>
						<path style="fill:#263238;" d="M146.389,223.605c0.614,1.608,0.553,3.125-0.137,3.388c-0.689,0.263-1.745-0.827-2.359-2.436
							c-0.614-1.608-0.552-3.125,0.137-3.388C144.719,220.907,145.775,221.997,146.389,223.605z"/>
						<path style="fill:none;stroke:#263238;stroke-width:2;stroke-linecap:round;stroke-linejoin:round;stroke-miterlimit:10;" d="
							M156.263,214.04c0,0,4.677-5.537,12.196-2.91"/>
						<path style="fill:none;stroke:#263238;stroke-width:2;stroke-linecap:round;stroke-linejoin:round;stroke-miterlimit:10;" d="
							M148.483,216.383c0,0-7.745-4.394-9.761,4.393"/>
						<path style="fill:none;stroke:#263238;stroke-linecap:round;stroke-linejoin:round;stroke-miterlimit:10;" d="
							M172.868,212.999c3.121,5.744,1.615,12.594-3.363,15.299c-4.979,2.705-11.545,0.241-14.666-5.503
							c-3.121-5.744-1.616-12.594,3.363-15.299S169.747,207.255,172.868,212.999z"/>
						<path style="fill:none;stroke:#263238;stroke-linecap:round;stroke-linejoin:round;stroke-miterlimit:10;" d="
							M151.112,220.163c3.121,5.744,1.615,12.594-3.363,15.299s-11.544,0.241-14.666-5.503c-3.121-5.744-1.616-12.594,3.363-15.299
							C141.424,211.955,147.991,214.419,151.112,220.163z"/>
						
							<line style="fill:none;stroke:#263238;stroke-linecap:round;stroke-linejoin:round;stroke-miterlimit:10;" x1="151.972" y1="221.409" x2="153.929" y2="221.158"/>
						
							<line style="fill:#FFFFFF;stroke:#263238;stroke-linecap:round;stroke-linejoin:round;stroke-miterlimit:10;" x1="172.868" y1="212.999" x2="183.975" y2="204.18"/>
					</g>
				</g>
				<path style="fill:#FFFFFF;stroke:#263238;stroke-linecap:round;stroke-linejoin:round;stroke-miterlimit:10;" d="M165.532,160.6
					c0,0,15.467-29.612,19.36-26.147c3.893,3.465,11.946,35.987,6.023,39.555c-5.923,3.568-24.978-8.153-24.978-8.153
					s-3.458,4.594-7.296,6.387c-3.838,1.793-9.143-12.778-9.63-20.711C148.525,143.599,161.204,149.076,165.532,160.6z"/>
				<g>
					<path style="fill:#263238;stroke:#263238;stroke-linecap:round;stroke-linejoin:round;stroke-miterlimit:10;" d="
						M189.673,176.589c-5.689-13.35-18.883-21.914-33.386-22.393c-6.068-0.201-12.526,0.459-17.846,3.023
						c-14.649,7.062-21.603,27.496-21.603,27.496s-12.365-0.011-15.132,9.517c-2.767,9.528,4.296,8.623,4.296,8.623
						s-7.366,14.105,1.971,18.493c9.337,4.387,12.154-4.748,12.154-4.748s1.77,16.923,14.015,9.77
						c12.245-7.153,9.831-25.987,15.597-33.905s12.556-1.609,12.556-1.609s-0.061,11.973,5.392,14.066
						c5.453,2.093,9.829,5.122,9.829,5.122s1.208-6.137,5.132-6.64c3.924-0.503,5.644,0.473,5.644,0.473s4.93-8.21,3.372-20.374
						C191.371,181.221,190.651,178.883,189.673,176.589z"/>
					<g>
						<path style="fill:#92989B;" d="M179.694,189.471c6.312-2.278,9.184-7.392,10.5-11.564c-0.167-0.44-0.334-0.88-0.521-1.318
							c-0.025-0.059-0.056-0.114-0.081-0.173c-1.061,4.115-3.694,9.753-10.238,12.115c-10.789,3.892-15.161,0.359-15.224,0.305
							c-0.208-0.179-0.522-0.157-0.704,0.051c-0.181,0.208-0.159,0.524,0.049,0.706
							C163.665,189.757,168.264,193.597,179.694,189.471z"/>
						<path style="fill:#92989B;" d="M134.664,208.323c-0.93-1.803-2.819-3.766-6.554-2.877c-2.827,0.673-4.816,2.031-5.913,4.037
							c-1.814,3.32-0.502,7.169-0.445,7.331c0.091,0.261,0.377,0.397,0.637,0.307c0.26-0.091,0.398-0.376,0.308-0.636
							c-0.012-0.036-1.221-3.604,0.382-6.528c0.955-1.743,2.726-2.933,5.263-3.537c2.493-0.594,4.318,0.202,5.434,2.363
							c1.985,3.848,0.986,11.182-1.163,13.063c-0.596,0.522-1.136,0.682-1.604,0.477c-0.983-0.431-1.631-2.265-1.668-3.717
							c-0.022-0.89,0.189-1.406,0.395-1.509c0.247-0.124,0.347-0.424,0.224-0.671c-0.124-0.247-0.423-0.346-0.671-0.224
							c-0.642,0.321-0.979,1.184-0.947,2.428c0.044,1.771,0.854,3.988,2.266,4.608c0.224,0.098,0.499,0.173,0.816,0.173
							c0.515,0,1.143-0.197,1.847-0.813C135.762,220.416,136.904,212.665,134.664,208.323z"/>
						<path style="fill:#92989B;" d="M161.231,185.857c0.017,0,0.034-0.001,0.052-0.002c0.275-0.029,0.475-0.274,0.446-0.549
							c-0.02-0.187-1.762-18.681,12.188-23.56c0.261-0.091,0.398-0.376,0.307-0.637c-0.091-0.26-0.374-0.396-0.637-0.307
							c-14.688,5.137-12.873,24.413-12.853,24.606C160.761,185.665,160.978,185.857,161.231,185.857z"/>
						<path style="fill:#92989B;" d="M191.959,188.261c0-0.64-0.02-1.298-0.055-1.968c-3.559,6.695-9.57,14.404-18.741,15.715
							c-0.273,0.039-0.463,0.292-0.424,0.566c0.036,0.249,0.249,0.429,0.495,0.429c0.023,0,0.047-0.001,0.071-0.005
							C182.2,201.727,188.206,194.775,191.959,188.261z"/>
					</g>
				</g>
				<path style="fill:#FFFFFF;stroke:#263238;stroke-linecap:round;stroke-linejoin:round;stroke-miterlimit:10;" d="
					M178.462,212.88c0,0,1.154-12.158,7.8-13.203c6.646-1.045,8.117,4.384,6.689,12.896c-1.427,8.513-8.953,17.807-10.839,9.138"/>
			</g>
		</g>
	</g>
</g>
</svg>
