<?xml version="1.0" encoding="utf-8"?>
<!-- Generator: Adobe Illustrator 27.5.0, SVG Export Plug-In . SVG Version: 6.00 Build 0)  -->
<svg version="1.1" xmlns="http://www.w3.org/2000/svg" xmlns:xlink="http://www.w3.org/1999/xlink" x="0px" y="0px"
	 viewBox="0 0 500 500" style="enable-background:new 0 0 500 500;" xml:space="preserve">
<g id="Background_Simple">
	<g>
		<path style="fill:#92E3A9;" d="M378.262,119.174c-3.147-6.099-6.446-12.107-10.2-17.831
			C324.742,35.282,208.723-0.681,151.235,67.601c-13.702,16.274-18.477,35.94-27.699,54.604
			c-20.976,42.449-60.164,67.828-84.738,107.135c-19.048,30.471-16.509,69.522-5.883,102.461
			c11.547,35.793,31.867,60.792,64.371,79.794c36.439,21.303,75.412,15.388,114.8,7.975c17.714-3.334,35.976-6.735,54.088-5.463
			c22.676,1.593,45.064,8.011,67.562,11.13c23.397,3.244,47.673,4.011,70.211-3.059c72.178-22.641,89.278-128.741,59.596-189.519
			c-10.507-21.513-28.313-38.111-44.848-54.951C400.847,159.532,389.907,141.741,378.262,119.174z"/>
		<path style="opacity:0.8;fill:#FFFFFF;" d="M378.262,119.174c-3.147-6.099-6.446-12.107-10.2-17.831
			C324.742,35.282,208.723-0.681,151.235,67.601c-13.702,16.274-18.477,35.94-27.699,54.604
			c-20.976,42.449-60.164,67.828-84.738,107.135c-19.048,30.471-16.509,69.522-5.883,102.461
			c11.547,35.793,31.867,60.792,64.371,79.794c36.439,21.303,75.412,15.388,114.8,7.975c17.714-3.334,35.976-6.735,54.088-5.463
			c22.676,1.593,45.064,8.011,67.562,11.13c23.397,3.244,47.673,4.011,70.211-3.059c72.178-22.641,89.278-128.741,59.596-189.519
			c-10.507-21.513-28.313-38.111-44.848-54.951C400.847,159.532,389.907,141.741,378.262,119.174z"/>
	</g>
</g>
<g id="Clouds">
	<g style="opacity:0.3;">
		<path style="fill:none;stroke:#000000;stroke-miterlimit:10;" d="M442.391,42.919c0,0-10.058-18.775-28.163-22.128
			c-18.105-3.353-26.822,12.74-29.504,18.105c-2.682,5.364-9.388,0-17.434,0.671c-8.047,0.67-10.729,9.388-14.752,11.399
			c-4.023,2.012-13.411-5.364-18.775-2.682c-5.364,2.682-10.484,7.926-10.484,7.926h148.615c0,0-2.682-11.949-11.399-15.302
			C451.778,37.555,447.755,42.919,442.391,42.919z"/>
		<path style="fill:none;stroke:#000000;stroke-miterlimit:10;" d="M116.117,118.063c0,0-6.922-12.922-19.383-15.229
			c-12.46-2.308-18.46,8.768-20.306,12.46c-1.846,3.692-6.461,0-11.999,0.461c-5.538,0.462-7.384,6.461-10.153,7.845
			c-2.769,1.384-9.23-3.692-12.922-1.846c-3.692,1.846-7.215,5.455-7.215,5.455h102.283c0,0-1.846-8.224-7.845-10.531
			C122.578,114.371,119.809,118.063,116.117,118.063z"/>
		<path style="fill:none;stroke:#000000;stroke-miterlimit:10;" d="M451.51,188.174c0,0-4.069-7.595-11.392-8.951
			s-10.85,5.154-11.935,7.324c-1.085,2.17-3.797,0-7.052,0.271c-3.255,0.271-4.34,3.798-5.967,4.611
			c-1.627,0.814-5.425-2.17-7.595-1.085c-2.17,1.085-4.241,3.206-4.241,3.206h60.117c0,0-1.085-4.834-4.611-6.19
			C455.308,186.004,453.68,188.174,451.51,188.174z"/>
		<path style="fill:none;stroke:#000000;stroke-miterlimit:10;" d="M224.352,273.796c0,0-4.069-7.595-11.392-8.951
			c-7.323-1.356-10.85,5.154-11.935,7.324c-1.085,2.17-3.797,0-7.052,0.271c-3.255,0.271-4.34,3.797-5.967,4.611
			c-1.628,0.814-5.425-2.17-7.595-1.085c-2.17,1.085-4.241,3.206-4.241,3.206h60.117c0,0-1.085-4.834-4.611-6.19
			C228.149,271.626,226.522,273.796,224.352,273.796z"/>
	</g>
</g>
<g id="Floor">
	<ellipse style="fill:#263238;stroke:#263238;stroke-miterlimit:10;" cx="253.18" cy="467.093" rx="197.335" ry="9.412"/>
</g>
<g id="Gears">
	<path id="XMLID_2_" style="opacity:0.3;" d="M410.214,272.27v-32.295l-18.038-4.103c-1.551-11.054-4.393-21.687-8.359-31.76
		l13.687-12.681l-16.147-27.968l-17.692,5.471c-6.773-8.639-14.528-16.461-23.109-23.304l5.521-17.853l-27.968-16.148
		l-12.562,13.558c-10.047-4.052-20.656-6.999-31.698-8.64l-4.136-18.183h-32.295l-4.104,18.038
		c-11.054,1.551-21.687,4.393-31.76,8.359l-12.681-13.687l-27.968,16.147l5.471,17.692c-8.639,6.773-16.462,14.527-23.304,23.109
		l-17.853-5.521L109.07,190.47l13.558,12.562c-4.052,10.047-6.999,20.656-8.64,31.698l-18.183,4.136v32.295l18.038,4.104
		c1.551,11.054,4.393,21.687,8.36,31.76l-13.687,12.681l16.147,27.968l17.692-5.471c6.773,8.639,14.527,16.461,23.109,23.304
		l-5.521,17.853l27.968,16.147l12.562-13.558c10.047,4.052,20.656,6.999,31.698,8.64l4.137,18.183h32.295l4.103-18.038
		c11.054-1.551,21.687-4.393,31.76-8.359l12.681,13.687l27.968-16.147l-5.471-17.692c8.639-6.773,16.462-14.528,23.304-23.109
		l17.853,5.521l16.147-27.968l-13.558-12.562c4.052-10.047,6.999-20.656,8.64-31.698L410.214,272.27z M359.952,255.568
		c0,59.062-47.88,106.942-106.942,106.942c-59.062,0-106.942-47.879-106.942-106.942c0-59.062,47.88-106.942,106.942-106.942
		C312.072,148.626,359.952,196.506,359.952,255.568z"/>
	<path id="XMLID_1_" style="opacity:0.3;" d="M454.271,121.069v-10.298l-5.752-1.308c-0.494-3.525-1.401-6.915-2.665-10.127
		l4.364-4.044l-5.149-8.918l-5.641,1.744c-2.16-2.754-4.632-5.249-7.368-7.431l1.76-5.693l-8.918-5.149l-4.006,4.323
		c-3.203-1.292-6.586-2.232-10.107-2.755l-1.319-5.798h-10.298l-1.308,5.752c-3.525,0.494-6.915,1.401-10.127,2.665l-4.044-4.364
		l-8.918,5.149l1.745,5.642c-2.755,2.16-5.249,4.632-7.431,7.368l-5.693-1.76l-5.149,8.918l4.323,4.006
		c-1.292,3.204-2.232,6.587-2.755,10.107l-5.798,1.319v10.298l5.752,1.309c0.495,3.525,1.401,6.915,2.666,10.127l-4.364,4.044
		l5.149,8.918l5.641-1.744c2.16,2.755,4.632,5.249,7.368,7.431l-1.76,5.693l8.918,5.149l4.006-4.323
		c3.204,1.292,6.586,2.232,10.107,2.755l1.319,5.798h10.298l1.308-5.751c3.525-0.495,6.915-1.401,10.127-2.666l4.044,4.364
		l8.918-5.149l-1.745-5.641c2.755-2.16,5.249-4.632,7.431-7.369l5.693,1.76l5.149-8.918l-4.323-4.005
		c1.292-3.204,2.232-6.587,2.755-10.107L454.271,121.069z M438.244,115.743c0,18.833-15.267,34.1-34.1,34.1s-34.1-15.267-34.1-34.1
		s15.267-34.1,34.1-34.1S438.244,96.91,438.244,115.743z"/>
	<path id="XMLID_7_" style="opacity:0.3;" d="M112.511,366.537v-7.808l-4.361-0.992c-0.375-2.672-1.062-5.243-2.021-7.678
		l3.309-3.066l-3.904-6.762l-4.277,1.323c-1.637-2.088-3.512-3.98-5.587-5.634l1.335-4.316l-6.762-3.904l-3.037,3.278
		c-2.429-0.98-4.994-1.692-7.663-2.089l-1-4.396h-7.808l-0.992,4.361c-2.672,0.375-5.243,1.062-7.678,2.021l-3.066-3.309
		l-6.762,3.904l1.323,4.277c-2.089,1.637-3.98,3.512-5.634,5.587l-4.316-1.335l-3.904,6.762l3.278,3.037
		c-0.98,2.429-1.692,4.994-2.089,7.663l-4.396,1v7.808l4.361,0.992c0.375,2.672,1.062,5.243,2.021,7.678l-3.309,3.066l3.904,6.762
		l4.277-1.323c1.638,2.089,3.512,3.98,5.587,5.634l-1.335,4.316l6.762,3.904l3.037-3.278c2.429,0.98,4.994,1.692,7.663,2.089
		l1,4.396h7.808l0.992-4.361c2.672-0.375,5.243-1.062,7.678-2.021l3.066,3.309l6.762-3.904l-1.323-4.277
		c2.088-1.637,3.98-3.512,5.634-5.587l4.316,1.335l3.904-6.762l-3.278-3.037c0.98-2.429,1.692-4.994,2.089-7.663L112.511,366.537z
		 M100.359,362.499c0,14.279-11.575,25.854-25.854,25.854c-14.279,0-25.854-11.575-25.854-25.854
		c0-14.279,11.575-25.854,25.854-25.854C88.784,336.645,100.359,348.22,100.359,362.499z"/>
</g>
<g id="Plants">
	<g>
		<g>
			<path style="fill:#263238;" d="M385.009,464.278c-0.263,0-0.486-0.203-0.506-0.47c-1.653-22.208,8.577-44.037,26.699-56.968
				c0.229-0.164,0.546-0.11,0.708,0.118c0.163,0.228,0.11,0.546-0.118,0.708c-17.834,12.727-27.903,34.21-26.275,56.066
				c0.021,0.28-0.189,0.523-0.469,0.544C385.034,464.277,385.021,464.278,385.009,464.278z"/>
		</g>
		<g>
			<g>
				<path style="fill:#263238;" d="M395.588,445.248c-5.934-1.845-10.45,7.112-10.254,7.282c-0.145,1.057-0.264,2.122-0.356,3.193
					c0.605-1.298,3.609-3.127,8.223-3.919C397.746,450.853,401.306,446.797,395.588,445.248z"/>
			</g>
			<g>
				<path style="fill:#263238;" d="M378.226,440.716c-5.885-1.601-5.007,6.759-0.658,9.038c4.185,2.376,6.84,4.624,7.32,5.964
					c0.02-1.077,0.067-2.15,0.14-3.22C384.796,452.561,383.74,442.438,378.226,440.716z"/>
			</g>
		</g>
		<g>
			<g>
				<path style="fill:#263238;" d="M398.661,436.56c-5.539-2.803-11.468,5.165-11.306,5.354c-0.319,1.002-0.614,2.015-0.884,3.037
					c0.813-1.154,4.077-2.415,8.754-2.397C399.862,442.408,404.037,439.05,398.661,436.56z"/>
			</g>
			<g>
				<path style="fill:#263238;" d="M382.308,429.176c-5.531-2.561-6.047,5.757-2.143,8.711c3.729,3.027,5.97,5.664,6.219,7.044
					c0.199-1.04,0.424-2.073,0.675-3.1C386.823,441.863,387.457,431.808,382.308,429.176z"/>
			</g>
		</g>
		<g>
			<g>
				<path style="fill:#263238;" d="M403.126,428.545c-4.995-3.682-12.154,3.149-12.023,3.353c-0.48,0.928-0.937,1.869-1.372,2.822
					c0.992-0.989,4.414-1.67,9.018-0.862C403.339,434.503,408.01,431.901,403.126,428.545z"/>
			</g>
			<g>
				<path style="fill:#263238;" d="M388.24,418.529c-5.026-3.447-6.913,4.649-3.554,8.203c3.173,3.601,4.945,6.562,4.963,7.954
					c0.368-0.982,0.76-1.956,1.176-2.919C390.585,431.766,392.873,421.993,388.24,418.529z"/>
			</g>
		</g>
		<g>
			<g>
				<path style="fill:#263238;" d="M408.878,421.376c-4.313-4.464-12.524,1.091-12.424,1.308c-0.627,0.834-1.235,1.684-1.821,2.55
					c1.141-0.807,4.627-0.904,9.031,0.662C408.078,427.301,413.128,425.505,408.878,421.376z"/>
			</g>
			<g>
				<path style="fill:#263238;" d="M395.88,409.007c-4.381-4.239-7.611,3.448-4.889,7.511c2.526,4.082,3.78,7.296,3.567,8.668
					c0.526-0.905,1.074-1.798,1.645-2.678C395.96,422.474,399.86,413.204,395.88,409.007z"/>
			</g>
		</g>
		<g>
			<g>
				<path style="fill:#263238;" d="M415.811,415.228c-3.505-5.128-12.595-0.981-12.525-0.753c-0.762,0.721-1.506,1.461-2.232,2.219
					c1.263-0.608,4.723-0.127,8.807,2.15C413.981,420.965,419.298,420.017,415.811,415.228z"/>
			</g>
			<g>
				<path style="fill:#263238;" d="M405.088,400.84c-3.607-4.917-8.147,2.164-6.147,6.632c1.797,4.456,2.489,7.842,2.046,9.163
					c0.672-0.807,1.365-1.599,2.079-2.375C402.825,414.189,408.289,405.654,405.088,400.84z"/>
			</g>
		</g>
		<g>
			<path style="fill:#263238;" d="M407.654,410.193c-0.164-0.022,4.88-7.573,9.116-10.177c4.086-2.679,7.064-0.247,7.084,1.887
				c0.055,2.144-2.867,3.894-5.571,4.822C415.537,407.427,407.637,410.042,407.654,410.193z"/>
			<path style="fill:#263238;" d="M407.654,410.531c-0.014,0-0.03-0.001-0.045-0.003c-0.142-0.019-0.26-0.13-0.29-0.269
				c-0.002-0.01-0.003-0.021-0.003-0.034c-0.011-0.094-0.017-0.166,0.08-0.255c0.678-1.534,5.556-8.007,9.196-10.244
				c2.013-1.321,4.09-1.59,5.686-0.736c1.152,0.615,1.903,1.756,1.914,2.908c0.075,2.902-4.421,4.672-5.8,5.145
				c-2.678,0.687-9.868,3.072-10.512,3.4C407.818,410.5,407.738,410.531,407.654,410.531z M420.226,399.171
				c-0.864,0-1.962,0.27-3.27,1.127c-3.341,2.055-7.146,7.169-8.489,9.181c0.669-0.245,1.718-0.597,3.36-1.135
				c2.115-0.695,4.9-1.571,6.372-1.948c2.59-0.89,5.367-2.541,5.317-4.485c-0.009-0.913-0.619-1.822-1.555-2.322
				C421.579,399.385,420.995,399.171,420.226,399.171z"/>
		</g>
	</g>
	<g>
		<g>
			<path style="fill:#263238;" d="M367.194,464.278c0.186,0,0.344-0.144,0.358-0.333c1.17-15.71-6.067-31.151-18.886-40.298
				c-0.162-0.116-0.386-0.078-0.501,0.084c-0.116,0.161-0.078,0.386,0.084,0.501c12.616,9.003,19.738,24.2,18.587,39.66
				c-0.014,0.198,0.134,0.37,0.332,0.385C367.176,464.278,367.185,464.278,367.194,464.278z"/>
		</g>
		<g>
			<g>
				<path style="fill:#263238;" d="M359.71,450.817c4.198-1.305,7.392,5.031,7.253,5.151c0.103,0.748,0.187,1.501,0.252,2.259
					c-0.428-0.918-2.553-2.212-5.817-2.772C358.184,454.781,355.666,451.912,359.71,450.817z"/>
			</g>
			<g>
				<path style="fill:#263238;" d="M371.992,447.611c4.163-1.133,3.542,4.781,0.465,6.394c-2.96,1.681-4.838,3.271-5.178,4.219
					c-0.014-0.762-0.047-1.521-0.099-2.278C367.344,455.99,368.091,448.829,371.992,447.611z"/>
			</g>
		</g>
		<g>
			<g>
				<path style="fill:#263238;" d="M357.536,444.671c3.918-1.983,8.113,3.654,7.998,3.787c0.226,0.709,0.434,1.425,0.625,2.148
					c-0.575-0.816-2.884-1.708-6.192-1.696C356.687,448.808,353.733,446.432,357.536,444.671z"/>
			</g>
			<g>
				<path style="fill:#263238;" d="M369.104,439.447c3.913-1.812,4.278,4.072,1.516,6.162c-2.638,2.141-4.223,4.006-4.399,4.983
					c-0.141-0.735-0.3-1.467-0.477-2.193C365.911,448.422,365.462,441.31,369.104,439.447z"/>
			</g>
		</g>
		<g>
			<g>
				<path style="fill:#263238;" d="M354.378,439.001c3.533-2.605,8.598,2.228,8.505,2.372c0.339,0.656,0.663,1.322,0.97,1.996
					c-0.701-0.7-3.123-1.181-6.379-0.61C354.228,443.216,350.924,441.375,354.378,439.001z"/>
			</g>
			<g>
				<path style="fill:#263238;" d="M364.909,431.916c3.556-2.438,4.89,3.289,2.514,5.803c-2.244,2.547-3.498,4.642-3.511,5.626
					c-0.26-0.695-0.538-1.384-0.832-2.065C363.249,441.28,361.631,434.366,364.909,431.916z"/>
			</g>
		</g>
		<g>
			<g>
				<path style="fill:#263238;" d="M350.309,433.93c3.051-3.157,8.859,0.772,8.789,0.925c0.444,0.59,0.873,1.191,1.288,1.804
					c-0.807-0.571-3.273-0.639-6.388,0.468C350.875,438.121,347.303,436.85,350.309,433.93z"/>
			</g>
			<g>
				<path style="fill:#263238;" d="M359.504,425.18c3.099-2.998,5.384,2.439,3.458,5.313c-1.787,2.887-2.674,5.161-2.523,6.132
					c-0.372-0.64-0.76-1.272-1.164-1.894C359.447,434.706,356.688,428.149,359.504,425.18z"/>
			</g>
		</g>
		<g>
			<g>
				<path style="fill:#263238;" d="M345.405,429.581c2.479-3.627,8.91-0.694,8.86-0.532c0.539,0.51,1.066,1.034,1.579,1.57
					c-0.893-0.43-3.341-0.09-6.23,1.521C346.699,433.639,342.938,432.968,345.405,429.581z"/>
			</g>
			<g>
				<path style="fill:#263238;" d="M352.99,419.403c2.552-3.478,5.763,1.53,4.348,4.691c-1.271,3.152-1.76,5.548-1.447,6.482
					c-0.475-0.571-0.966-1.131-1.471-1.68C354.591,428.846,350.725,422.808,352.99,419.403z"/>
			</g>
		</g>
		<g>
			<path style="fill:#263238;" d="M351.175,426.019c0.116-0.015-3.452-5.357-6.448-7.199c-2.89-1.895-4.997-0.175-5.011,1.335
				c-0.039,1.517,2.028,2.754,3.941,3.411C345.599,424.062,351.187,425.913,351.175,426.019z"/>
			<path style="fill:#263238;" d="M351.175,426.258c0.01,0,0.021-0.001,0.032-0.002c0.1-0.013,0.184-0.092,0.205-0.19
				c0.001-0.007,0.002-0.015,0.002-0.024c0.008-0.066,0.012-0.117-0.057-0.18c-0.48-1.085-3.93-5.664-6.505-7.246
				c-1.424-0.934-2.893-1.125-4.022-0.521c-0.815,0.435-1.346,1.242-1.354,2.057c-0.053,2.053,3.127,3.305,4.103,3.64
				c1.895,0.486,6.981,2.173,7.436,2.405C351.059,426.237,351.116,426.258,351.175,426.258z M342.282,418.222
				c0.611,0,1.388,0.191,2.313,0.797c2.364,1.453,5.055,5.071,6.005,6.495c-0.473-0.173-1.215-0.422-2.377-0.803
				c-1.496-0.492-3.466-1.111-4.507-1.378c-1.832-0.63-3.796-1.798-3.761-3.173c0.006-0.646,0.438-1.289,1.1-1.643
				C341.324,418.374,341.738,418.222,342.282,418.222z"/>
		</g>
	</g>
	<g>
		<g>
			<path style="fill:#263238;" d="M107.763,464.278c0.186,0,0.344-0.144,0.358-0.333c1.169-15.71-6.067-31.151-18.886-40.298
				c-0.162-0.116-0.386-0.078-0.501,0.084c-0.116,0.161-0.078,0.386,0.084,0.501c12.616,9.003,19.738,24.2,18.587,39.66
				c-0.014,0.198,0.134,0.37,0.332,0.385C107.745,464.278,107.754,464.278,107.763,464.278z"/>
		</g>
		<g>
			<g>
				<path style="fill:#263238;" d="M100.28,450.817c4.198-1.305,7.392,5.031,7.253,5.151c0.103,0.748,0.187,1.501,0.252,2.259
					c-0.428-0.918-2.553-2.212-5.817-2.772C98.753,454.781,96.235,451.912,100.28,450.817z"/>
			</g>
			<g>
				<path style="fill:#263238;" d="M112.561,447.611c4.163-1.133,3.542,4.781,0.465,6.394c-2.96,1.681-4.838,3.271-5.178,4.219
					c-0.014-0.762-0.047-1.521-0.099-2.278C107.914,455.99,108.66,448.829,112.561,447.611z"/>
			</g>
		</g>
		<g>
			<g>
				<path style="fill:#263238;" d="M98.106,444.671c3.918-1.983,8.112,3.654,7.998,3.787c0.226,0.709,0.434,1.425,0.625,2.148
					c-0.575-0.816-2.884-1.708-6.192-1.696C97.257,448.808,94.303,446.432,98.106,444.671z"/>
			</g>
			<g>
				<path style="fill:#263238;" d="M109.674,439.447c3.913-1.812,4.278,4.072,1.516,6.162c-2.638,2.141-4.223,4.006-4.399,4.983
					c-0.141-0.735-0.3-1.467-0.477-2.193C106.48,448.422,106.032,441.31,109.674,439.447z"/>
			</g>
		</g>
		<g>
			<g>
				<path style="fill:#263238;" d="M94.947,439.001c3.533-2.605,8.597,2.228,8.505,2.372c0.339,0.656,0.663,1.322,0.97,1.996
					c-0.701-0.7-3.123-1.181-6.379-0.61C94.797,443.216,91.493,441.375,94.947,439.001z"/>
			</g>
			<g>
				<path style="fill:#263238;" d="M105.478,431.916c3.556-2.438,4.89,3.289,2.514,5.803c-2.244,2.547-3.498,4.642-3.511,5.626
					c-0.26-0.695-0.538-1.384-0.832-2.065C103.819,441.28,102.2,434.366,105.478,431.916z"/>
			</g>
		</g>
		<g>
			<g>
				<path style="fill:#263238;" d="M90.878,433.93c3.051-3.157,8.859,0.772,8.789,0.925c0.444,0.59,0.873,1.191,1.288,1.804
					c-0.807-0.571-3.273-0.639-6.388,0.468C91.444,438.121,87.872,436.85,90.878,433.93z"/>
			</g>
			<g>
				<path style="fill:#263238;" d="M100.073,425.18c3.099-2.998,5.384,2.439,3.458,5.313c-1.787,2.887-2.674,5.161-2.523,6.132
					c-0.372-0.64-0.76-1.272-1.163-1.894C100.016,434.706,97.258,428.149,100.073,425.18z"/>
			</g>
		</g>
		<g>
			<g>
				<path style="fill:#263238;" d="M85.974,429.581c2.479-3.627,8.91-0.694,8.86-0.532c0.539,0.51,1.066,1.034,1.579,1.57
					c-0.893-0.43-3.341-0.09-6.23,1.521C87.268,433.639,83.507,432.968,85.974,429.581z"/>
			</g>
			<g>
				<path style="fill:#263238;" d="M93.559,419.403c2.552-3.478,5.763,1.53,4.348,4.691c-1.271,3.152-1.76,5.548-1.447,6.482
					c-0.475-0.571-0.966-1.131-1.471-1.68C95.16,428.846,91.295,422.808,93.559,419.403z"/>
			</g>
		</g>
		<g>
			<path style="fill:#263238;" d="M91.744,426.019c0.116-0.015-3.452-5.357-6.448-7.199c-2.89-1.895-4.997-0.175-5.011,1.335
				c-0.039,1.517,2.028,2.754,3.941,3.411C86.168,424.062,91.756,425.913,91.744,426.019z"/>
			<path style="fill:#263238;" d="M91.744,426.258c0.01,0,0.021-0.001,0.032-0.002c0.1-0.013,0.184-0.092,0.205-0.19
				c0.001-0.007,0.002-0.015,0.002-0.024c0.007-0.066,0.012-0.117-0.057-0.18c-0.48-1.085-3.93-5.664-6.505-7.246
				c-1.424-0.934-2.893-1.125-4.022-0.521c-0.815,0.435-1.346,1.242-1.354,2.057c-0.053,2.053,3.127,3.305,4.103,3.64
				c1.894,0.486,6.98,2.173,7.436,2.405C91.628,426.237,91.685,426.258,91.744,426.258z M82.851,418.222
				c0.611,0,1.388,0.191,2.313,0.797c2.364,1.453,5.055,5.071,6.005,6.495c-0.473-0.173-1.215-0.422-2.377-0.803
				c-1.496-0.492-3.466-1.111-4.507-1.378c-1.832-0.63-3.796-1.798-3.761-3.173c0.006-0.646,0.438-1.289,1.1-1.643
				C81.894,418.374,82.307,418.222,82.851,418.222z"/>
		</g>
	</g>
</g>
<g id="Character">
	<g>
		<g>
			<polygon style="fill:#263238;stroke:#263238;stroke-miterlimit:10;" points="218.296,400.479 219.161,450.644 238.766,451.22 
				245.685,404.515 			"/>
			<g>
				<path style="fill:#878787;stroke:#263238;stroke-miterlimit:10;" d="M219.161,450.644c0,0-1.73,4.901-2.883,6.631
					c-1.153,1.73-5.478,6.919-7.784,11.244c-2.306,4.325,2.595,7.496,8.937,7.496s12.685-3.748,14.415-6.919
					c1.73-3.171,3.748-5.478,3.748-5.478s1.153,0.288,1.441-3.748c0.288-4.036,1.73-8.649,1.73-8.649L219.161,450.644z"/>
				<path style="fill:#878787;stroke:#263238;stroke-miterlimit:10;" d="M217.431,476.014c6.343,0,12.685-3.748,14.415-6.919
					c1.73-3.171,3.748-5.478,3.748-5.478s1.153,0.288,1.441-3.748c0.035-0.485,0.087-0.979,0.15-1.472
					c-1.163,0.867-2.348,1.803-3.035,2.49c-1.682,1.682-3.925,9.158-12.522,12.335c-8.597,3.177-13.135-4.704-13.135-4.704
					C206.188,472.843,211.089,476.014,217.431,476.014z"/>
			</g>
		</g>
		<g>
			<polygon style="fill:#263238;stroke:#263238;stroke-miterlimit:10;" points="279.993,405.38 283.165,448.625 302.481,446.607 
				306.806,403.65 			"/>
			<path style="fill:#878787;stroke:#263238;stroke-miterlimit:10;" d="M302.481,446.607c0,0,2.018,6.343,4.324,9.226
				c2.307,2.883,8.073,10.091,6.343,14.992c-1.73,4.901-13.55,3.46-17.875,1.441c-4.325-2.018-4.901-7.496-6.919-9.514
				c-2.018-2.018-2.883-3.748-3.46-6.054c-0.577-2.306-1.73-8.073-1.73-8.073L302.481,446.607z"/>
			<path style="fill:#878787;stroke:#263238;stroke-miterlimit:10;" d="M311.154,469.298c-1.682,2.43-6.168,2.99-11.401,2.243
				c-5.233-0.748-9.158-8.597-10.28-11.214c-0.742-1.732-3.117-3.132-4.641-3.884c0.021,0.086,0.043,0.177,0.062,0.255
				c0.577,2.306,1.441,4.036,3.46,6.054c2.018,2.018,2.595,7.496,6.919,9.514c4.325,2.018,16.145,3.46,17.875-1.442
				c0.559-1.584,0.329-3.408-0.308-5.25C312.541,466.64,312.023,468.042,311.154,469.298z"/>
		</g>
		<g>
			<path style="fill:#92E3A9;stroke:#263238;stroke-miterlimit:10;" d="M311.401,282.599c0,0,1.077,24.818,1.077,45.538
				c0,20.721-1.351,79.28-1.351,79.28s-45.046,1.351-56.307,3.153c-11.261,1.802-45.045-5.856-45.045-5.856
				s-1.802-49.55-1.351-62.163c0.45-12.613,2.111-73.51,2.111-73.51v-9.761c0,0-13.975-106.733-13.689-107.874
				c0.285-1.141,35.958-16.267,35.958-16.267l39.383-4.852c0,0,22.831,0.571,24.543,1.427c1.712,0.856,32.712,38.411,32.712,38.411
				s-1.6,46.166-2.514,63.764c-0.525,10.1-3.202,22.001-5.485,25.14c-2.283,3.139-11.586,1.964-11.586,1.964l0.46,13.471
				L311.401,282.599z"/>
			<g>
				<path style="fill:none;stroke:#263238;stroke-miterlimit:10;" d="M291.758,284.968c-0.031,7.743-0.105,14.43-0.236,19.482"/>
				<path style="fill:none;stroke:#263238;stroke-miterlimit:10;" d="M290.615,156.766c0,0,1.171,72.883,1.16,119.597"/>
				<path style="fill:none;stroke:#263238;stroke-miterlimit:10;" d="M247.745,351.099c0.41,5.641,0.814,9.973,1.192,12.244"/>
				<path style="fill:none;stroke:#263238;stroke-miterlimit:10;" d="M243.501,262.32c0,0,1.867,51.466,3.759,81.563"/>
				<path style="fill:none;stroke:#263238;stroke-miterlimit:10;" d="M247.68,217.09c0.31,3.463,0.587,6.013,0.805,7.176"/>
				<path style="fill:none;stroke:#263238;stroke-miterlimit:10;" d="M243.501,155.86c0,0,2.211,37.31,3.827,57.101"/>
				<line style="fill:none;stroke:#263238;stroke-miterlimit:10;" x1="281.555" y1="181.229" x2="281.102" y2="217.471"/>
				<path style="fill:none;stroke:#263238;stroke-miterlimit:10;" d="M227.646,149.518c0,0,1.297,7.56,3.624,19.48"/>
			</g>
		</g>
		<g>
			<g>
				<g>
					<path style="fill:#FFFFFF;stroke:#263238;stroke-miterlimit:10;" d="M237.003,124.733c0,0-5.019,3.555-5.228,4.81
						c-0.209,1.255-0.837,6.692,0.418,8.156c1.255,1.464,10.038,7.947,11.711,8.993c1.673,1.046,6.692,5.228,6.692,5.228
						l4.392,6.692c0,0,0.837-8.574,1.255-9.62c0.418-1.046,11.502-15.894,11.711-16.94c0.209-1.046-1.255-7.529-1.882-8.365
						c-0.627-0.837-4.81-1.464-4.81-1.464S243.486,123.687,237.003,124.733z"/>
					<line style="fill:none;stroke:#263238;stroke-miterlimit:10;" x1="235.957" y1="133.517" x2="231.775" y2="129.543"/>
				</g>
				<line style="fill:none;stroke:#263238;stroke-miterlimit:10;" x1="262.727" y1="126.406" x2="266.073" y2="123.687"/>
			</g>
			<g>
				<path style="fill:#FFFFFF;stroke:#263238;stroke-miterlimit:10;" d="M234.912,120.759l1.046,12.757c0,0,1.046,1.673,6.901,3.973
					c5.856,2.301,9.202,6.901,9.202,6.901s1.673-6.274,2.719-8.784c1.046-2.51,7.947-9.202,7.947-9.202l-0.836-6.901
					L234.912,120.759z"/>
				<polygon style="fill:#263238;stroke:#263238;stroke-miterlimit:10;" points="250.75,127.773 235.957,133.517 235.308,123.615 
									"/>
			</g>
			<g>
				<path style="fill:#92E3A9;stroke:#263238;stroke-miterlimit:10;" d="M244.331,53.75c0,0-15.115,7.012-24.153,11.064
					c-9.038,4.051-21.192,7.324-19.946,7.791c1.247,0.467,30.074,7.791,36.931,9.35c6.856,1.558,31.009-9.661,33.503-10.908
					s15.427-6.545,14.336-6.856c-1.091-0.312-16.05-4.207-26.646-6.545C247.759,55.308,245.421,54.217,244.331,53.75z"/>
				<g>
					<path style="fill:#FFFFFF;stroke:#263238;stroke-miterlimit:10;" d="M226.099,100.342c0,0-0.779-2.182-2.805-0.779
						c-2.026,1.402-0.935,6.389,0.156,8.103c1.091,1.714,3.896,3.272,3.896,3.272L226.099,100.342z"/>
					<path style="fill:#FFFFFF;stroke:#263238;stroke-miterlimit:10;" d="M265.99,98.784c0,0,1.558-2.805,3.117-0.312
						c1.558,2.493-2.026,9.973-4.519,11.064L265.99,98.784z"/>
					<path style="fill:#FFFFFF;stroke:#263238;stroke-miterlimit:10;" d="M225.632,93.953c0,0,0.623,16.985,3.584,21.971
						c2.961,4.986,10.596,12.934,17.608,14.648c7.012,1.714,14.803-9.505,16.362-12.31c1.558-2.805,3.272-26.958,2.961-28.36
						c-0.312-1.403-5.298-5.921-14.024-7.324c-8.726-1.402-24.776,3.896-25.867,5.766C225.164,90.213,225.632,93.953,225.632,93.953
						z"/>
					<path style="fill:none;stroke:#263238;stroke-miterlimit:10;" d="M242.503,106.731c0,0-0.467,2.026,0.156,2.649
						c0.623,0.623,4.051,2.026,5.298,1.714c1.247-0.312,3.428-1.091,3.584-2.649c0.156-1.558-0.156-2.493-0.156-2.493"/>
					<path style="fill:none;stroke:#263238;stroke-miterlimit:10;" d="M256.216,112.964c0,0-3.896,1.714-8.103,2.182
						c-4.207,0.467-11.064-1.403-11.064-1.403"/>
					<path style="fill:#263238;" d="M239.075,100.654c0,1.119-0.628,2.026-1.402,2.026c-0.775,0-1.403-0.907-1.403-2.026
						c0-1.119,0.628-2.026,1.403-2.026C238.447,98.628,239.075,99.535,239.075,100.654z"/>
					<path style="fill:#263238;" d="M255.281,100.03c0,1.119-0.628,2.026-1.402,2.026c-0.775,0-1.403-0.907-1.403-2.026
						c0-1.119,0.628-2.026,1.403-2.026C254.653,98.005,255.281,98.911,255.281,100.03z"/>
					<path style="fill:none;stroke:#263238;stroke-miterlimit:10;" d="M244.372,97.537c0,0-1.188-0.935-2.714-1.247
						c-1.527-0.312-11.196-0.779-13.063,0.312c-1.866,1.091-0.848,5.921,0,6.701c0.848,0.779,8.652,2.182,11.536,1.402
						C243.015,103.926,244.542,99.874,244.372,97.537z"/>
					<path style="fill:none;stroke:#263238;stroke-miterlimit:10;" d="M248.386,97.537c0,0,1.168-0.935,2.67-1.247
						c1.502-0.312,11.015-0.779,12.851,0.312c1.836,1.091,0.834,5.921,0,6.701c-0.835,0.779-8.512,2.182-11.349,1.402
						C249.721,103.926,248.219,99.874,248.386,97.537z"/>
					<polygon style="fill:#263238;stroke:#263238;stroke-miterlimit:10;" points="242.062,96.29 250.697,96.29 248.385,97.537 
						244.374,97.537 					"/>
					<path style="fill:none;stroke:#263238;stroke-miterlimit:10;" d="M232.686,94.732c0,0,4.207-1.87,8.882-0.779"/>
					<path style="fill:none;stroke:#263238;stroke-miterlimit:10;" d="M250.606,93.797c0,0,4.831-2.026,8.415,0.312"/>
					<line style="fill:none;stroke:#263238;stroke-miterlimit:10;" x1="227.501" y1="98.16" x2="226.099" y2="98.628"/>
					<path style="fill:none;stroke:#263238;stroke-miterlimit:10;" d="M265.211,99.251"/>
					<path style="fill:#263238;stroke:#263238;stroke-miterlimit:10;" d="M233.89,85.85c0,0-3.428,3.428-2.337,3.428
						c1.091,0,7.324-3.74,7.324-3.74s-6.856,4.675-4.207,5.766c2.649,1.091,11.687,0.623,14.18-0.935
						c2.493-1.558,5.454-4.051,5.454-4.051s-2.026,3.584-0.312,2.805c1.714-0.779,4.675-4.519,4.831-4.986
						C258.978,83.669,246.356,80.085,233.89,85.85z"/>
					<path style="fill:#263238;stroke:#263238;stroke-miterlimit:10;" d="M229.995,87.097c0,0,0.467,3.428-0.623,5.454
						c-1.091,2.026-3.74,4.831-3.74,4.831s-1.87-6.233-0.467-8.415C226.566,86.785,229.527,86.006,229.995,87.097z"/>
					<path style="fill:#263238;stroke:#263238;stroke-miterlimit:10;" d="M263.03,87.408c0,0-0.779,3.74,0.156,5.61
						c0.935,1.87,2.649,3.428,2.649,3.428s0.935-5.142,0.312-6.545C265.523,88.499,263.341,85.694,263.03,87.408z"/>
				</g>
				<path style="fill:#92E3A9;stroke:#263238;stroke-miterlimit:10;" d="M224.696,94.576c0,0,8.882-6.701,21.816-7.168
					c12.933-0.467,19.79,5.298,19.79,5.298s0.779-1.714,0.312-4.831c-0.467-3.117-1.87-13.868-2.493-15.271
					c-0.623-1.402-11.064-6.701-20.725-6.545c-9.661,0.156-19.946,6.389-20.413,8.882C222.515,77.436,224.696,94.576,224.696,94.576
					z"/>
			</g>
			<path style="fill:#263238;stroke:#263238;stroke-miterlimit:10;" d="M348.41,164.412c0,0,3.2,11.656,4.571,22.169
				c1.371,10.513,0.686,17.826-6.171,23.54c-6.856,5.714-15.998,34.282-19.426,40.452c-3.428,6.171-5.942,8.456-5.942,8.456
				s6.628-37.253,6.628-55.307c0-18.055,4.571-31.768,7.313-36.567C338.125,162.355,347.039,156.413,348.41,164.412z"/>
			<g>
				<path style="fill:#FFFFFF;stroke:#263238;stroke-miterlimit:10;" d="M261.102,164.785l4.76-14.546c0,0,8.728-1.058,9.521-1.322
					c0.793-0.264,12.43-11.637,14.017-12.166c1.587-0.529,3.174-0.529,2.38,1.851c-0.793,2.38-10.05,12.695-10.05,12.695
					s3.703,1.587,3.438,3.703c-0.264,2.116-0.264,2.116-0.264,2.116s1.322,2.909,1.851,5.025c0.529,2.116,1.587,5.29,0.264,7.405
					c-1.322,2.116-8.728,7.405-12.959,8.728c-4.232,1.322-6.612,1.851-6.612,1.851l-14.282,12.695l-6.612-17.191L261.102,164.785z"
					/>
				<line style="fill:#FFFFFF;stroke:#263238;stroke-miterlimit:10;" x1="275.384" y1="148.916" x2="267.979" y2="153.148"/>
			</g>
			<path style="fill:#263238;stroke:#263238;stroke-miterlimit:10;" d="M244.156,196.374c0,0-7.592,34.165-8.135,48.807
				c-0.542,14.642-4.026,34.902-4.026,34.902s-6.82-10.499-7.905-29.479c-1.085-18.98,5.965-49.349,5.965-49.349L244.156,196.374z"
				/>
			<polygon style="fill:#FFFFFF;stroke:#263238;stroke-miterlimit:10;" points="249.201,172.719 255.548,195.199 233.862,208.687 
				233.597,180.917 			"/>
			<path style="fill:#92E3A9;stroke:#263238;stroke-miterlimit:10;" d="M207.15,151.297c-3.703-2.645-9.785-1.851-10.306,0.109
				c-0.52,1.961-8.736,33.743-8.736,42.999s8.992,17.984,9.257,19.835c0.264,1.851,7.39,41.246,14.796,52.089
				c7.405,10.843,19.306,14.811,19.835,13.753c0.529-1.058-2.63-27.493-1.572-32.518c1.058-5.025,6.347-38.084,7.405-49.985
				c1.058-11.901,0.529-19.835,0.529-19.835l-15.868,4.76c0,0,3.174-6.347,1.058-10.314c-2.116-3.967-12.695-12.43-12.695-12.43"/>
			<path style="fill:none;stroke:#263238;stroke-miterlimit:10;" d="M194.822,198.48c-0.164,3.196,0.163,5.976,0.163,5.976"/>
			<path style="fill:none;stroke:#263238;stroke-miterlimit:10;" d="M218.522,183.033c0,0-19.306,3.967-21.951,8.199"/>
			<path style="fill:none;stroke:#263238;stroke-miterlimit:10;" d="M194.984,184.885c0,0,4.232-2.116,7.934-2.116
				c3.703,0,11.637-0.793,11.637-0.793"/>
			<path style="fill:none;stroke:#263238;stroke-miterlimit:10;" d="M305.137,244.651c0.013,11.187,0.632,12.598,2.777,13.492"/>
			<path style="fill:none;stroke:#263238;stroke-miterlimit:10;" d="M299.451,140.189c0,0,6.514,47.001,5.985,80.589
				c-0.116,7.394-0.215,13.28-0.265,17.976"/>
			<g>
				<path style="fill:#FFFFFF;stroke:#263238;stroke-miterlimit:10;" d="M313.273,74.918l6.373,79.573c0,0,1.639,2.367,8.558,0.364
					l-2.913-81.212C325.291,73.644,316.369,70.548,313.273,74.918z"/>
				<path style="fill:#92E3A9;stroke:#263238;stroke-miterlimit:10;" d="M316.68,114.358c0,0,4.581-2.588,9.861-0.585l0.084,2.925
					c0,0-6.485-0.636-9.945,1.003V114.358z"/>
				<path style="fill:#92E3A9;stroke:#263238;stroke-miterlimit:10;" d="M314.357,107.734l0.914,6.399c0,0-3.885,5.028-3.2,5.714
					c0.686,0.686,2.971,1.143,2.971,1.143l1.638-6.631c0,0,2.933-3.196,2.705-4.568c-0.229-1.371-3.428-4.571-4.114-4.571
					C314.586,105.22,314.357,107.734,314.357,107.734z"/>
			</g>
			<path style="fill:#FFFFFF;stroke:#263238;stroke-miterlimit:10;" d="M333.783,155.042c0,0-5.257,13.256-4.799,23.311
				c0.457,10.056,3.885,19.883,5.942,21.483c2.057,1.6,9.142,0.457,10.513-4.114c1.371-4.571,5.028-18.741,4.342-23.311
				c-0.686-4.571-2.285-10.284-2.743-12.341S336.983,152.3,333.783,155.042z"/>
			<g>
				<path style="fill:#FFFFFF;stroke:#263238;stroke-miterlimit:10;" d="M342.824,146.272c0,0-6.876-16.133-7.934-18.777
					c-1.058-2.645-0.793-4.76-2.116-4.76c-1.322,0-15.604-1.058-16.662-0.265c-1.058,0.794-0.264,5.818-0.264,5.818
					s-0.793,2.38-0.793,4.232s0,1.851,0,1.851s0.793,4.76,1.058,5.818c0.265,1.058,0.265,3.967,1.058,5.289
					c0,0,3.967,0.529,5.025,0.529c1.058,0,2.909,2.645,5.025,5.29c2.116,2.645,5.025,5.289,5.025,5.289s0,8.992,0,14.546
					c0,5.554,1.587,17.191,4.232,16.926c2.645-0.265,10.579-12.43,11.108-18.777C348.114,162.933,343.882,148.387,342.824,146.272z"
					/>
				<path style="fill:none;stroke:#263238;stroke-miterlimit:10;" d="M315.848,128.288l10.535-0.928c0,0,1.821-1.457,3.278-0.728"/>
				<path style="fill:none;stroke:#263238;stroke-miterlimit:10;" d="M315.64,135.736l10.015-2.003c0,0,1.821-1.821,3.278-1.275"/>
				<path style="fill:none;stroke:#263238;stroke-miterlimit:10;" d="M316.112,140.189l7.904-0.629c0,0,2.731-2.185,4.006-1.821
					c1.275,0.364,2.185,0.91,2.185,0.91"/>
				<path style="fill:#FFFFFF;stroke:#263238;stroke-miterlimit:10;" d="M332.245,156.586c0,0,2.514,0.818,4.153-0.274"/>
			</g>
		</g>
	</g>
</g>
</svg>
