<?xml version="1.0" encoding="utf-8"?>
<!-- Generator: Adobe Illustrator 27.5.0, SVG Export Plug-In . SVG Version: 6.00 Build 0)  -->
<svg version="1.1" xmlns="http://www.w3.org/2000/svg" xmlns:xlink="http://www.w3.org/1999/xlink" x="0px" y="0px"
	 viewBox="0 0 500 500" style="enable-background:new 0 0 500 500;" xml:space="preserve">
<g id="Background_Simple">
	<g>
		<path style="fill:#92E3A9;" d="M467.605,251.913c-4.936,41.801-24.022,90.403-62.141,112.73
			c-57.595,33.742-52.774,85.638-165.193,108.199c-17.527,3.519-34.161,5-49.846,4.708c-8.432-0.156-16.593-0.836-24.465-1.995
			C94.512,465.119,46.43,415.455,28.79,355.505C5.576,276.66,51.928,225.042,82.652,193.941
			c30.724-31.1,53.226-128.004,163.567-151.052c16.824-3.507,34.029-5.296,51.229-4.867c39.259,0.963,82.08,13.855,111.71,40.761
			c2.225,2.022,4.388,4.118,6.497,6.278C456.838,127.332,474.338,194.925,467.605,251.913z"/>
		<path style="opacity:0.7;fill:#FFFFFF;" d="M467.605,251.913c-4.936,41.801-24.022,90.403-62.141,112.73
			c-57.595,33.742-52.774,85.638-165.193,108.199c-17.527,3.519-34.161,5-49.846,4.708c-8.432-0.156-16.593-0.836-24.465-1.995
			C94.512,465.119,46.43,415.455,28.79,355.505C5.576,276.66,51.928,225.042,82.652,193.941
			c30.724-31.1,53.226-128.004,163.567-151.052c16.824-3.507,34.029-5.296,51.229-4.867c39.259,0.963,82.08,13.855,111.71,40.761
			c2.225,2.022,4.388,4.118,6.497,6.278C456.838,127.332,474.338,194.925,467.605,251.913z"/>
	</g>
</g>
<g id="Floor">
	<line style="fill:none;stroke:#263238;stroke-miterlimit:10;" x1="9.543" y1="480.512" x2="493.212" y2="480.512"/>
</g>
<g id="Plants">
	<g style="opacity:0.15;">
		<path d="M207.023,239.118c-3.945,3.881-15.628,8.052-15.638,8.055c-0.121,0.043-0.411-8.536-0.367-9.079
			c0.506-6.29,5.186-18.144,12.064-19.763c4.955-1.166,9.379,2.547,10.013,7.39C213.742,230.668,210.382,235.811,207.023,239.118z"
			/>
		<path d="M199.95,396.405c0.055,0.283,0.109,0.546,0.164,0.826l-3.674,3.384c-0.203-1.129-0.406-2.275-0.608-3.458
			c-0.581-3.349-1.134-6.94-1.667-10.634c-0.889-0.011-5.942-0.107-10.649-0.79c-1.978,4.951-8.995,12.543-9.908,13.516
			c2.286,2.446,4.534,4.803,6.69,6.993c1.481,1.511,2.916,2.95,4.307,4.327l-4.38,1.676c-0.966-1.007-1.942-2.031-2.948-3.103
			c-2.332-2.474-4.776-5.164-7.257-7.949c-1.142,0.735-10.51,6.684-15.653,7.427c-4.664,0.672-10.794,0.233-14.341-3.276
			c-3.471-3.435-3.748-9.204,0.181-12.443c5.451-4.495,17.719-1.044,23.032,2.36c0.314,0.2,3.471,2.759,5.437,4.405
			c-1.008-1.143-1.999-2.243-3.023-3.433c-2.041-2.339-4.007-4.734-6.131-7.303c-0.983-1.276-1.976-2.566-2.979-3.868
			c-1.021-1.271-1.939-2.742-2.924-4.121c-2.219-3.248-4.307-6.645-6.335-10.115c-2.053,1.78-9.434,8-13.964,9.378
			c-4.509,1.372-10.633,1.866-14.669-1.066c-3.952-2.87-5.1-8.531-1.708-12.327c4.708-5.269,17.357-3.715,23.125-1.157
			c0.36,0.159,4.292,2.461,6.426,3.766c-1.203-2.095-2.414-4.18-3.562-6.34c-3.316-6.232-6.478-12.645-9.662-19.028
			c-0.974-1.956-1.968-3.892-2.956-5.835c-0.724,0.642-9.336,8.224-14.41,9.767c-4.508,1.373-10.634,1.867-14.67-1.066
			c-3.952-2.869-5.1-8.53-1.707-12.326c4.708-5.27,17.356-3.716,23.124-1.158c0.434,0.193,6.088,3.513,7.485,4.427
			c-2.177-4.279-4.386-8.521-6.734-12.615c-3.23-5.653-6.714-11.022-10.472-15.973c-0.336,0.299-9.291,8.254-14.486,9.835
			c-4.509,1.371-10.635,1.866-14.67-1.066c-3.952-2.87-5.1-8.53-1.708-12.327c4.708-5.27,17.356-3.716,23.125-1.158
			c0.452,0.202,6.532,3.776,7.589,4.503c-0.225-0.294-0.425-0.623-0.652-0.913c-4.08-5.235-8.689-9.794-13.215-13.85
			c-2.625-2.363-5.266-4.474-7.881-6.471c-1.516,1.653-8.527,9.128-13.046,11.068c-4.331,1.858-10.365,3.022-14.698,0.551
			c-4.244-2.418-6.006-7.918-3.052-12.064c4.102-5.755,16.844-5.599,22.858-3.69c0.326,0.104,3.534,1.528,5.855,2.598
			c-1.194-0.884-2.41-1.817-3.571-2.639c-4.352-3.102-8.527-5.673-12.244-7.921c-2.123-1.261-4.068-2.359-5.9-3.368
			c-2.332,0.846-11.779,4.135-16.595,3.781c-4.699-0.347-10.592-2.093-13.3-6.283c-2.651-4.103-1.68-9.797,2.852-12.113
			c6.291-3.218,17.529,2.791,21.987,7.257c0.385,0.387,5.716,7.115,5.594,7.16c0,0-0.113,0.042-0.141,0.052
			c1.782,0.934,3.68,1.958,5.733,3.117c3.774,2.171,8.017,4.658,12.452,7.678c4.441,3.005,9.181,6.395,13.852,10.416
			c4.687,4.025,9.411,8.498,13.683,13.736c0.048,0.059,0.091,0.127,0.14,0.186c-0.774-1.92-2.759-7.362-2.862-7.797
			c-1.479-6.134-0.732-18.856,5.3-22.54c4.344-2.652,9.705-0.505,11.818,3.9c2.156,4.498,0.568,10.433-1.593,14.622
			c-2.437,4.724-11.488,11.858-12.209,12.424c4.023,5.025,7.742,10.51,11.201,16.266c1.981,3.29,3.874,6.665,5.729,10.073
			c-0.615-1.682-1.154-3.191-1.206-3.41c-1.479-6.135-0.731-18.855,5.301-22.539c4.345-2.654,9.706-0.505,11.817,3.899
			c2.158,4.498,0.569,10.433-1.591,14.622c-2.193,4.25-9.787,10.488-11.819,12.111c0.698,1.315,1.41,2.621,2.102,3.938
			c3.326,6.32,6.616,12.642,10.035,18.743c1.203,2.151,2.467,4.225,3.725,6.303c-0.545-1.493-0.991-2.757-1.04-2.956
			c-1.478-6.135-0.731-18.856,5.299-22.539c4.346-2.653,9.707-0.506,11.82,3.899c2.157,4.496,0.568,10.433-1.594,14.621
			c-2.091,4.055-9.05,9.877-11.455,11.818c1.352,2.091,2.703,4.187,4.107,6.153c0.99,1.32,1.85,2.659,2.918,3.93
			c1.03,1.279,2.05,2.548,3.06,3.803c2.035,2.345,4.118,4.779,6.16,7.017c1.409,1.568,2.78,3.035,4.156,4.518
			c-1.222-2.127-3.529-6.341-3.682-6.715c-1.588-3.88-2.633-10.776-1.578-16.309c-0.238-0.572-0.426-1.16-0.553-1.768
			c-1-4.781,1.952-9.745,7.015-10.28c7.027-0.742,15.355,8.905,17.908,14.674c0.151,0.341,1.373,4.216,2.104,6.674
			c-0.209-1.511-0.431-2.974-0.627-4.531c-0.41-3.076-0.729-6.159-1.086-9.474c-0.116-1.606-0.231-3.229-0.349-4.869
			c-0.151-1.622-0.105-3.356-0.166-5.05c-0.058-3.931,0.074-7.919,0.296-11.931c-2.696,0.353-12.283,1.469-16.821,0.118
			c-4.517-1.342-9.898-4.311-11.648-8.981c-1.712-4.575,0.451-9.929,5.375-11.224c6.834-1.798,16.527,6.475,19.927,11.791
			c0.212,0.332,2.221,4.42,3.283,6.688c0.152-2.411,0.292-4.819,0.526-7.253c0.672-7.028,1.571-14.12,2.438-21.2
			c0.266-2.168,0.506-4.332,0.754-6.497c-0.958,0.135-12.326,1.708-17.408,0.197c-4.517-1.343-9.898-4.31-11.648-8.982
			c-1.712-4.573,0.452-9.928,5.376-11.222c6.834-1.798,16.527,6.475,19.926,11.791c0.256,0.401,3.139,6.288,3.799,7.821
			c0.544-4.767,1.042-9.525,1.344-14.236c0.424-6.498,0.48-12.896,0.077-19.099c-0.447,0.064-12.303,1.758-17.509,0.211
			c-4.517-1.343-9.898-4.31-11.647-8.982c-1.714-4.574,0.452-9.928,5.376-11.223c6.833-1.798,16.527,6.476,19.925,11.792
			c0.267,0.417,3.366,6.754,3.845,7.941c-0.024-0.368-0.008-0.753-0.037-1.12c-0.517-6.618-1.846-12.963-3.382-18.844
			c-0.885-3.418-1.924-6.635-3.004-9.743c-2.176,0.542-12.148,2.909-16.986,2.034c-4.639-0.839-10.313-3.197-12.564-7.647
			c-2.205-4.359-0.641-9.919,4.11-11.746c6.595-2.538,17.138,4.621,21.1,9.531c0.216,0.268,2.106,3.224,3.451,5.398
			c-0.509-1.395-1.008-2.845-1.522-4.172c-1.919-4.987-3.982-9.436-5.842-13.361c-1.076-2.224-2.093-4.213-3.064-6.063
			c-2.412-0.583-12.106-3.051-15.927-6.003c-3.729-2.882-7.678-7.589-7.626-12.576c0.052-4.885,4.002-9.098,9.06-8.532
			c7.023,0.787,13.08,11.999,14.336,18.183c0.107,0.534,0.841,9.087,0.715,9.059c0,0-0.118-0.029-0.145-0.036
			c0.971,1.762,1.99,3.664,3.061,5.763c1.95,3.892,4.117,8.307,6.15,13.273c2.046,4.956,4.13,10.399,5.806,16.33
			c1.688,5.942,3.162,12.279,3.835,19.005c0.007,0.076,0.005,0.156,0.012,0.232c0.414-2.029,1.763-7.661,1.915-8.083
			c2.15-5.932,9.793-16.129,16.854-15.875c5.087,0.185,8.375,4.933,7.706,9.772c-0.683,4.942-5.282,9.015-9.394,11.316
			c-4.639,2.596-16.124,3.554-17.038,3.626c0.582,6.412,0.659,13.038,0.368,19.748c-0.161,3.836-0.445,7.695-0.777,11.561
			c0.414-1.742,0.798-3.297,0.874-3.509c2.151-5.933,9.794-16.13,16.855-15.873c5.088,0.183,8.374,4.932,7.706,9.77
			c-0.68,4.941-5.282,9.017-9.394,11.317c-4.173,2.336-13.948,3.348-16.54,3.582c-0.143,1.482-0.269,2.963-0.419,4.443
			c-0.713,7.107-1.454,14.195-1.969,21.17c-0.183,2.458-0.272,4.885-0.371,7.314c0.37-1.548,0.694-2.847,0.764-3.041
			c2.151-5.931,9.793-16.13,16.855-15.874c5.088,0.184,8.374,4.933,7.706,9.771c-0.683,4.942-5.282,9.016-9.395,11.317
			c-3.983,2.229-12.997,3.245-16.074,3.537c-0.026,2.49-0.056,4.983,0.031,7.397c0.097,1.647,0.074,3.239,0.265,4.887
			c0.152,1.637,0.305,3.256,0.455,4.861c0.402,3.078,0.798,6.257,1.267,9.25c0.31,2.084,0.643,4.065,0.974,6.061
			c0.153-2.448,0.554-7.236,0.633-7.633c1.225-6.189,7.236-17.426,14.255-18.244c5.057-0.589,9.025,3.607,9.096,8.491
			c0.075,4.987-3.854,9.712-7.57,12.609c-4.093,3.19-14.848,5.822-16.195,6.141C198.785,390.184,199.359,393.389,199.95,396.405z"/>
		<path d="M90.829,286.497c-0.078,0.103-5.053-6.893-5.316-7.37c-3.045-5.526-5.683-17.994-0.839-23.139
			c3.489-3.706,9.228-3.049,12.427,0.641c3.268,3.767,3.304,9.912,2.325,14.522C98.279,276.565,90.834,286.489,90.829,286.497z"/>
	</g>
	<g style="opacity:0.15;">
		<path d="M311.499,51.389c3.276,3.223,12.979,6.687,12.987,6.689c0.1,0.036,0.341-7.089,0.305-7.54
			c-0.421-5.223-4.306-15.068-10.018-16.412c-4.115-0.968-7.789,2.115-8.316,6.137C305.919,44.371,308.709,48.643,311.499,51.389z"
			/>
		<path d="M317.372,182.012c-0.045,0.235-0.091,0.454-0.136,0.686l3.051,2.811c0.169-0.937,0.337-1.89,0.505-2.872
			c0.482-2.782,0.942-5.764,1.384-8.831c0.738-0.009,4.935-0.089,8.843-0.656c1.643,4.111,7.47,10.417,8.228,11.225
			c-1.898,2.032-3.765,3.989-5.556,5.807c-1.23,1.255-2.421,2.45-3.577,3.594l3.637,1.392c0.802-0.836,1.613-1.686,2.449-2.577
			c1.937-2.054,3.966-4.289,6.027-6.602c0.948,0.61,8.728,5.55,12.999,6.168c3.873,0.558,8.964,0.193,11.909-2.721
			c2.883-2.852,3.113-7.644-0.15-10.334c-4.527-3.733-14.715-0.867-19.127,1.96c-0.261,0.166-2.883,2.291-4.515,3.658
			c0.837-0.949,1.66-1.862,2.51-2.851c1.695-1.942,3.327-3.931,5.092-6.064c0.816-1.06,1.641-2.131,2.474-3.212
			c0.848-1.055,1.61-2.277,2.428-3.423c1.842-2.697,3.577-5.519,5.261-8.4c1.705,1.479,7.835,6.644,11.597,7.788
			c3.745,1.139,8.83,1.55,12.183-0.885c3.282-2.383,4.236-7.084,1.419-10.237c-3.91-4.376-14.415-3.086-19.205-0.961
			c-0.299,0.132-3.564,2.044-5.337,3.128c0.999-1.74,2.004-3.471,2.958-5.265c2.754-5.176,5.379-10.501,8.024-15.802
			c0.809-1.624,1.634-3.232,2.455-4.846c0.601,0.533,7.754,6.83,11.967,8.111c3.744,1.14,8.831,1.55,12.183-0.885
			c3.282-2.383,4.235-7.084,1.418-10.236c-3.91-4.376-14.414-3.087-19.204-0.961c-0.361,0.16-5.056,2.917-6.216,3.677
			c1.808-3.553,3.642-7.076,5.592-10.476c2.682-4.695,5.576-9.153,8.697-13.265c0.279,0.249,7.716,6.855,12.03,8.168
			c3.745,1.139,8.832,1.549,12.183-0.885c3.282-2.383,4.235-7.084,1.418-10.237c-3.91-4.376-14.414-3.086-19.204-0.961
			c-0.375,0.167-5.425,3.136-6.302,3.739c0.187-0.244,0.353-0.517,0.542-0.758c3.388-4.348,7.216-8.134,10.974-11.502
			c2.18-1.962,4.373-3.716,6.545-5.374c1.259,1.373,7.081,7.581,10.834,9.192c3.596,1.543,8.608,2.51,12.206,0.458
			c3.524-2.008,4.988-6.576,2.535-10.019c-3.406-4.779-13.988-4.65-18.983-3.064c-0.271,0.086-2.935,1.269-4.863,2.158
			c0.992-0.734,2.001-1.509,2.965-2.192c3.614-2.576,7.082-4.711,10.168-6.578c1.763-1.047,3.378-1.959,4.9-2.797
			c1.937,0.702,9.782,3.434,13.782,3.14c3.903-0.288,8.796-1.738,11.045-5.218c2.202-3.408,1.396-8.136-2.368-10.06
			c-5.224-2.672-14.558,2.317-18.259,6.027c-0.319,0.321-4.747,5.909-4.646,5.946c0,0,0.094,0.035,0.117,0.043
			c-1.48,0.776-3.056,1.626-4.761,2.589c-3.134,1.803-6.658,3.868-10.341,6.376c-3.688,2.496-7.625,5.311-11.504,8.65
			c-3.892,3.342-7.815,7.057-11.363,11.408c-0.04,0.049-0.075,0.105-0.116,0.155c0.643-1.595,2.291-6.114,2.377-6.475
			c1.228-5.094,0.607-15.659-4.402-18.719c-3.608-2.202-8.06-0.419-9.815,3.238c-1.791,3.736-0.472,8.664,1.323,12.143
			c2.023,3.923,9.54,9.847,10.139,10.318c-3.341,4.173-6.429,8.728-9.302,13.509c-1.645,2.733-3.217,5.535-4.758,8.366
			c0.511-1.397,0.958-2.65,1.001-2.832c1.228-5.095,0.607-15.658-4.402-18.718c-3.608-2.204-8.06-0.42-9.814,3.238
			c-1.792,3.735-0.473,8.664,1.322,12.143c1.821,3.529,8.128,8.71,9.815,10.058c-0.579,1.092-1.171,2.176-1.746,3.27
			c-2.762,5.249-5.495,10.499-8.334,15.566c-0.999,1.787-2.049,3.508-3.093,5.235c0.452-1.24,0.823-2.289,0.863-2.455
			c1.228-5.095,0.607-15.66-4.401-18.718c-3.609-2.203-8.062-0.42-9.816,3.238c-1.791,3.734-0.471,8.665,1.323,12.143
			c1.737,3.368,7.516,8.202,9.513,9.814c-1.123,1.737-2.245,3.477-3.411,5.11c-0.822,1.096-1.537,2.208-2.423,3.264
			c-0.855,1.062-1.702,2.116-2.541,3.158c-1.69,1.948-3.42,3.968-5.115,5.827c-1.17,1.302-2.309,2.521-3.451,3.752
			c1.015-1.767,2.931-5.266,3.058-5.576c1.319-3.222,2.187-8.949,1.31-13.544c0.198-0.475,0.353-0.964,0.459-1.469
			c0.83-3.97-1.621-8.093-5.826-8.537c-5.836-0.616-12.752,7.395-14.872,12.186c-0.125,0.283-1.141,3.501-1.747,5.542
			c0.173-1.255,0.358-2.469,0.521-3.763c0.341-2.555,0.605-5.115,0.902-7.868c0.096-1.334,0.192-2.681,0.289-4.044
			c0.126-1.347,0.087-2.787,0.138-4.194c0.048-3.265-0.062-6.576-0.246-9.909c2.239,0.293,10.201,1.22,13.969,0.098
			c3.751-1.115,8.22-3.58,9.673-7.458c1.422-3.799-0.375-8.246-4.464-9.321c-5.675-1.493-13.726,5.377-16.549,9.793
			c-0.176,0.276-1.845,3.671-2.726,5.554c-0.127-2.002-0.243-4.002-0.437-6.024c-0.558-5.837-1.304-11.727-2.025-17.606
			c-0.221-1.801-0.42-3.597-0.626-5.396c0.796,0.112,10.236,1.418,14.457,0.163c3.751-1.115,8.22-3.579,9.673-7.459
			c1.422-3.798-0.375-8.245-4.464-9.32c-5.675-1.493-13.725,5.377-16.548,9.792c-0.212,0.333-2.607,5.222-3.155,6.495
			c-0.452-3.959-0.866-7.91-1.116-11.822c-0.352-5.396-0.399-10.71-0.064-15.861c0.371,0.053,10.217,1.46,14.541,0.175
			c3.752-1.116,8.22-3.579,9.673-7.459c1.423-3.798-0.375-8.244-4.465-9.32c-5.675-1.493-13.725,5.378-16.547,9.793
			c-0.222,0.347-2.796,5.609-3.193,6.595c0.02-0.306,0.007-0.625,0.031-0.93c0.429-5.496,1.533-10.766,2.809-15.649
			c0.735-2.838,1.598-5.51,2.495-8.091c1.807,0.45,10.089,2.416,14.107,1.689c3.853-0.697,8.565-2.655,10.434-6.351
			c1.831-3.62,0.532-8.237-3.413-9.755c-5.477-2.108-14.233,3.838-17.523,7.915c-0.179,0.222-1.749,2.678-2.866,4.483
			c0.423-1.159,0.837-2.363,1.264-3.464c1.593-4.141,3.307-7.836,4.852-11.096c0.893-1.847,1.738-3.499,2.545-5.035
			c2.003-0.484,10.054-2.534,13.227-4.985c3.097-2.393,6.377-6.302,6.333-10.444c-0.043-4.057-3.324-7.556-7.524-7.085
			c-5.832,0.654-10.863,9.965-11.906,15.101c-0.089,0.444-0.698,7.546-0.594,7.523c0,0,0.098-0.024,0.121-0.03
			c-0.806,1.463-1.652,3.043-2.543,4.786c-1.619,3.232-3.419,6.899-5.108,11.023c-1.699,4.116-3.43,8.636-4.822,13.562
			c-1.402,4.934-2.626,10.198-3.185,15.783c-0.006,0.063-0.005,0.13-0.01,0.193c-0.344-1.685-1.464-6.363-1.59-6.712
			c-1.786-4.927-8.133-13.395-13.997-13.184c-4.225,0.153-6.955,4.097-6.4,8.116c0.567,4.104,4.387,7.487,7.801,9.398
			c3.853,2.156,13.39,2.951,14.15,3.011c-0.483,5.325-0.548,10.828-0.306,16.4c0.134,3.186,0.37,6.391,0.646,9.601
			c-0.344-1.446-0.663-2.738-0.726-2.914c-1.787-4.927-8.134-13.396-13.997-13.182c-4.226,0.151-6.954,4.096-6.4,8.114
			c0.565,4.103,4.387,7.488,7.801,9.399c3.466,1.94,11.584,2.781,13.736,2.975c0.119,1.231,0.224,2.46,0.348,3.69
			c0.592,5.902,1.208,11.788,1.635,17.581c0.152,2.041,0.226,4.057,0.308,6.074c-0.307-1.285-0.577-2.364-0.635-2.525
			c-1.786-4.926-8.133-13.395-13.997-13.183c-4.225,0.153-6.955,4.097-6.4,8.114c0.567,4.104,4.386,7.488,7.802,9.399
			c3.307,1.851,10.793,2.695,13.349,2.938c0.021,2.068,0.047,4.139-0.026,6.143c-0.08,1.368-0.062,2.69-0.22,4.059
			c-0.127,1.359-0.253,2.704-0.378,4.037c-0.334,2.556-0.663,5.197-1.052,7.682c-0.257,1.731-0.534,3.376-0.809,5.034
			c-0.127-2.033-0.46-6.01-0.526-6.339c-1.018-5.139-6.009-14.471-11.838-15.151c-4.2-0.489-7.495,2.996-7.554,7.052
			c-0.062,4.142,3.201,8.066,6.287,10.472c3.399,2.649,12.331,4.835,13.449,5.1C318.34,176.845,317.863,179.507,317.372,182.012z"/>
		<path d="M407.994,90.736c0.065,0.086,4.196-5.725,4.415-6.12c2.529-4.589,4.719-14.943,0.696-19.216
			c-2.898-3.078-7.663-2.532-10.32,0.533c-2.714,3.129-2.744,8.232-1.931,12.06C401.807,82.488,407.99,90.729,407.994,90.736z"/>
	</g>
</g>
<g id="Post_it_Notes">
	<g>
		
			<rect x="62.05" y="96.791" transform="matrix(0.9978 0.0663 -0.0663 0.9978 10.1576 -7.3346)" style="fill:#FFFFFF;stroke:#263238;stroke-linecap:round;stroke-linejoin:round;stroke-miterlimit:10;" width="107.093" height="105.195"/>
		<line style="fill:none;stroke:#263238;stroke-miterlimit:10;" x1="78.51" y1="124.867" x2="151.348" y2="130.001"/>
		<line style="fill:none;stroke:#263238;stroke-miterlimit:10;" x1="77.227" y1="136.739" x2="153.915" y2="141.873"/>
		<line style="fill:none;stroke:#263238;stroke-miterlimit:10;" x1="76.906" y1="152.462" x2="151.668" y2="160.484"/>
		<line style="fill:none;stroke:#263238;stroke-miterlimit:10;" x1="76.264" y1="168.185" x2="132.737" y2="168.185"/>
	</g>
	<g>
		
			<rect x="109.389" y="192.126" transform="matrix(0.9929 -0.1186 0.1186 0.9929 -27.88 21.0563)" style="fill:#FFFFFF;stroke:#263238;stroke-linecap:round;stroke-linejoin:round;stroke-miterlimit:10;" width="107.093" height="105.195"/>
		<line style="fill:none;stroke:#263238;stroke-miterlimit:10;" x1="131.133" y1="219.845" x2="207.5" y2="210.54"/>
		<line style="fill:none;stroke:#263238;stroke-miterlimit:10;" x1="130.491" y1="234.926" x2="207.821" y2="222.733"/>
		<line style="fill:none;stroke:#263238;stroke-miterlimit:10;" x1="134.021" y1="251.29" x2="205.895" y2="237.172"/>
		<line style="fill:none;stroke:#263238;stroke-miterlimit:10;" x1="134.983" y1="265.408" x2="209.746" y2="256.103"/>
	</g>
	<g>
		
			<line style="fill:none;stroke:#263238;stroke-width:2;stroke-linecap:round;stroke-linejoin:round;stroke-miterlimit:10;" x1="87.417" y1="104.392" x2="89.828" y2="107.461"/>
		<g>
			
				<ellipse transform="matrix(0.7071 -0.7071 0.7071 0.7071 -45.6492 88.0274)" style="fill:#92E3A9;stroke:#263238;stroke-linecap:round;stroke-linejoin:round;stroke-miterlimit:10;" cx="83.434" cy="99.117" rx="8.219" ry="8.219"/>
			<path style="fill:#92E3A9;stroke:#263238;stroke-linecap:round;stroke-linejoin:round;stroke-miterlimit:10;" d="M87.021,96.938
				c0,2.808-2.277,5.085-5.085,5.085s-5.085-2.277-5.085-5.085c0-2.808,2.277-5.085,5.085-5.085S87.021,94.129,87.021,96.938z"/>
			<path style="fill:#92E3A9;stroke:#263238;stroke-linecap:round;stroke-linejoin:round;stroke-miterlimit:10;" d="M86.426,93.43
				c0,3.933-3.188,7.121-7.121,7.121c-3.933,0-7.121-3.188-7.121-7.121c0-3.933,3.188-7.121,7.121-7.121
				C83.238,86.309,86.426,89.497,86.426,93.43z"/>
		</g>
	</g>
	<g>
		
			<line style="fill:none;stroke:#263238;stroke-width:2;stroke-linecap:round;stroke-linejoin:round;stroke-miterlimit:10;" x1="187.528" y1="193.594" x2="189.94" y2="196.663"/>
		<g>
			
				<ellipse transform="matrix(0.2306 -0.9731 0.9731 0.2306 -42.019 323.4993)" style="fill:#92E3A9;stroke:#263238;stroke-linecap:round;stroke-linejoin:round;stroke-miterlimit:10;" cx="183.545" cy="188.319" rx="8.219" ry="8.219"/>
			<path style="fill:#92E3A9;stroke:#263238;stroke-linecap:round;stroke-linejoin:round;stroke-miterlimit:10;" d="M187.132,186.14
				c0,2.809-2.277,5.085-5.085,5.085c-2.808,0-5.085-2.277-5.085-5.085c0-2.808,2.277-5.085,5.085-5.085
				C184.855,181.054,187.132,183.331,187.132,186.14z"/>
			<path style="fill:#92E3A9;stroke:#263238;stroke-linecap:round;stroke-linejoin:round;stroke-miterlimit:10;" d="
				M186.537,182.632c0,3.933-3.188,7.121-7.121,7.121c-3.933,0-7.121-3.188-7.121-7.121c0-3.933,3.188-7.121,7.121-7.121
				C183.349,175.51,186.537,178.699,186.537,182.632z"/>
		</g>
	</g>
</g>
<g id="Folder">
	<g>
		<path style="fill:#92E3A9;stroke:#263238;stroke-linecap:round;stroke-linejoin:round;stroke-miterlimit:10;" d="M240.192,103.317
			l-1.593,19.777c-0.239,2.975-1.603,5.747-3.812,7.754l-4.309,3.912c-2.663,2.418-4.294,5.767-4.554,9.355l-3.677,50.57
			c-0.336,4.626,1.639,9.118,5.275,11.997l0,0c3.049,2.414,4.705,6.182,4.423,10.061l-17.836,245.291l231.844,16.858l26.083-358.716
			L240.192,103.317z"/>
		
			<rect x="210.953" y="110.906" transform="matrix(1 -0.0073 0.0073 1 -2.0164 1.8261)" style="fill:#FFFFFF;stroke:#263238;stroke-linecap:round;stroke-linejoin:round;stroke-miterlimit:10;" width="79.576" height="335.986"/>
		
			<rect x="227.658" y="115.344" transform="matrix(1 -0.0073 0.0073 1 -2.0481 1.9474)" style="fill:#FFFFFF;stroke:#263238;stroke-linecap:round;stroke-linejoin:round;stroke-miterlimit:10;" width="79.576" height="335.986"/>
		<path style="fill:#92E3A9;stroke:#263238;stroke-linecap:round;stroke-linejoin:round;stroke-miterlimit:10;" d="M244.613,103.638
			l-1.593,19.777c-0.24,2.975-1.603,5.747-3.812,7.754l-4.309,3.912c-2.663,2.418-4.294,5.767-4.555,9.355l-3.677,50.571
			c-0.336,4.626,1.639,9.118,5.275,11.997l0,0c3.049,2.415,4.705,6.182,4.423,10.061L218.53,462.354l231.844,16.858l26.083-358.716
			L244.613,103.638z"/>
	</g>
</g>
<g id="Notebook">
	<g>
		
			<rect x="247.334" y="173.929" style="fill:#FFFFFF;stroke:#263238;stroke-width:5;stroke-linecap:round;stroke-linejoin:round;stroke-miterlimit:10;" width="212.716" height="304.885"/>
		<g>
			<g>
				
					<rect x="249.588" y="172.28" style="fill:#FFFFFF;stroke:#263238;stroke-linecap:round;stroke-linejoin:round;stroke-miterlimit:10;" width="210.462" height="308.232"/>
				
					<line style="fill:none;stroke:#263238;stroke-linecap:round;stroke-linejoin:round;stroke-miterlimit:10;" x1="453.676" y1="173.354" x2="453.676" y2="188.277"/>
				
					<line style="fill:none;stroke:#263238;stroke-linecap:round;stroke-linejoin:round;stroke-miterlimit:10;" x1="455.933" y1="182.102" x2="455.933" y2="249.511"/>
				
					<line style="fill:none;stroke:#263238;stroke-linecap:round;stroke-linejoin:round;stroke-miterlimit:10;" x1="453.656" y1="266.492" x2="453.656" y2="202.17"/>
				
					<line style="fill:none;stroke:#263238;stroke-linecap:round;stroke-linejoin:round;stroke-miterlimit:10;" x1="455.933" y1="292.221" x2="455.933" y2="409.545"/>
				
					<line style="fill:none;stroke:#263238;stroke-linecap:round;stroke-linejoin:round;stroke-miterlimit:10;" x1="453.319" y1="420.865" x2="453.319" y2="388.962"/>
			</g>
			
				<rect x="240.875" y="172.28" style="fill:#FFFFFF;stroke:#263238;stroke-linecap:round;stroke-linejoin:round;stroke-miterlimit:10;" width="210.462" height="308.232"/>
			
				<circle style="fill:#FFFFFF;stroke:#263238;stroke-linecap:round;stroke-linejoin:round;stroke-miterlimit:10;" cx="276.479" cy="182.452" r="4.134"/>
			
				<circle style="fill:#FFFFFF;stroke:#263238;stroke-linecap:round;stroke-linejoin:round;stroke-miterlimit:10;" cx="312.709" cy="182.452" r="4.134"/>
			
				<circle style="fill:#FFFFFF;stroke:#263238;stroke-linecap:round;stroke-linejoin:round;stroke-miterlimit:10;" cx="348.939" cy="182.452" r="4.134"/>
			
				<circle style="fill:#FFFFFF;stroke:#263238;stroke-linecap:round;stroke-linejoin:round;stroke-miterlimit:10;" cx="385.169" cy="182.452" r="4.134"/>
			
				<circle style="fill:#FFFFFF;stroke:#263238;stroke-linecap:round;stroke-linejoin:round;stroke-miterlimit:10;" cx="421.399" cy="182.452" r="4.134"/>
			<g>
				<g>
					<path style="fill:#263238;" d="M273.333,158.596c5.942,0,10.776,4.834,10.776,10.776c0,0.732-0.074,1.463-0.219,2.173
						c-0.046,0.223-0.023,0.443,0.045,0.644h2.332c0.017-0.049,0.036-0.096,0.046-0.148c0.179-0.873,0.269-1.771,0.269-2.669
						c0-7.306-5.943-13.249-13.249-13.249c-7.306,0-13.249,5.943-13.249,13.249c0,7.306,5.943,13.249,13.249,13.249
						c0.683,0,1.237-0.553,1.237-1.236c0-0.683-0.553-1.236-1.237-1.236c-5.942,0-10.776-4.834-10.776-10.776
						C262.558,163.43,267.392,158.596,273.333,158.596z"/>
				</g>
				<g>
					<path style="fill:#263238;" d="M278.255,180.148c-5.942,0-10.776-4.834-10.776-10.776c0-5.942,4.834-10.776,10.776-10.776
						c5.942,0,10.776,4.834,10.776,10.776c0,0.731-0.074,1.463-0.219,2.174c-0.046,0.223-0.023,0.442,0.046,0.643h2.331
						c0.017-0.049,0.036-0.096,0.046-0.148c0.178-0.874,0.269-1.771,0.269-2.669c0-7.306-5.943-13.249-13.249-13.249
						c-7.306,0-13.249,5.943-13.249,13.249c0,7.306,5.944,13.249,13.249,13.249c0.683,0,1.236-0.553,1.236-1.236
						C279.491,180.701,278.938,180.148,278.255,180.148z"/>
				</g>
			</g>
			<g>
				<g>
					<path style="fill:#263238;" d="M309.227,158.596c5.942,0,10.776,4.834,10.776,10.776c0,0.731-0.074,1.463-0.219,2.174
						c-0.046,0.223-0.023,0.442,0.046,0.643h2.331c0.017-0.049,0.036-0.096,0.046-0.148c0.178-0.874,0.269-1.771,0.269-2.669
						c0-7.306-5.943-13.249-13.249-13.249c-7.306,0-13.249,5.943-13.249,13.249c0,7.306,5.943,13.249,13.249,13.249
						c0.683,0,1.237-0.553,1.237-1.236c0-0.683-0.553-1.236-1.237-1.236c-5.942,0-10.776-4.834-10.776-10.776
						C298.451,163.43,303.285,158.596,309.227,158.596z"/>
				</g>
				<g>
					<path style="fill:#263238;" d="M314.148,180.148c-5.942,0-10.776-4.834-10.776-10.776c0-5.942,4.834-10.776,10.776-10.776
						c5.942,0,10.776,4.834,10.776,10.776c0,0.732-0.074,1.463-0.219,2.173c-0.046,0.223-0.023,0.443,0.045,0.644h2.332
						c0.017-0.049,0.036-0.096,0.046-0.148c0.179-0.873,0.269-1.771,0.269-2.669c0-7.306-5.944-13.249-13.249-13.249
						c-7.306,0-13.249,5.943-13.249,13.249c0,7.306,5.943,13.249,13.249,13.249c0.683,0,1.237-0.553,1.237-1.236
						C315.384,180.701,314.831,180.148,314.148,180.148z"/>
				</g>
			</g>
			<g>
				<g>
					<path style="fill:#263238;" d="M345.12,180.148c-5.942,0-10.776-4.834-10.776-10.776c0-5.942,4.835-10.776,10.776-10.776
						c5.942,0,10.776,4.834,10.776,10.776c0,0.73-0.074,1.461-0.219,2.174c-0.063,0.308,0.002,0.608,0.149,0.859h2.135
						c0.064-0.111,0.112-0.233,0.139-0.366c0.179-0.875,0.269-1.773,0.269-2.668c0-7.306-5.943-13.249-13.249-13.249
						c-7.306,0-13.249,5.943-13.249,13.249c0,7.306,5.943,13.249,13.249,13.249c0.683,0,1.236-0.553,1.236-1.236
						C346.357,180.701,345.803,180.148,345.12,180.148z"/>
				</g>
				<g>
					<path style="fill:#263238;" d="M350.04,180.148c-5.942,0-10.776-4.834-10.776-10.776c0-5.942,4.834-10.776,10.776-10.776
						c5.943,0,10.777,4.834,10.777,10.776c0,0.731-0.074,1.461-0.22,2.173c-0.063,0.308,0.002,0.609,0.149,0.86h2.136
						c0.064-0.11,0.112-0.232,0.139-0.364c0.179-0.874,0.27-1.772,0.27-2.669c0-7.306-5.943-13.249-13.25-13.249
						c-7.306,0-13.249,5.943-13.249,13.249c0,7.306,5.943,13.249,13.249,13.249c0.683,0,1.236-0.553,1.236-1.236
						C351.277,180.701,350.723,180.148,350.04,180.148z"/>
				</g>
			</g>
			<g>
				<g>
					<path style="fill:#263238;" d="M381.013,180.148c-5.942,0-10.776-4.834-10.776-10.776c0-5.942,4.834-10.776,10.776-10.776
						c5.943,0,10.777,4.834,10.777,10.776c0,0.731-0.074,1.461-0.22,2.173c-0.063,0.309-0.001,0.613,0.146,0.866h2.13
						c0.066-0.113,0.119-0.235,0.147-0.37c0.179-0.874,0.27-1.772,0.27-2.669c0-7.306-5.943-13.249-13.25-13.249
						c-7.305,0-13.249,5.943-13.249,13.249c0,7.306,5.944,13.249,13.249,13.249c0.683,0,1.237-0.553,1.237-1.236
						C382.249,180.701,381.695,180.148,381.013,180.148z"/>
				</g>
				<g>
					<path style="fill:#263238;" d="M385.934,180.148c-5.942,0-10.776-4.834-10.776-10.776c0-5.942,4.834-10.776,10.776-10.776
						c5.942,0,10.776,4.834,10.776,10.776c0,0.733-0.073,1.464-0.219,2.173c-0.063,0.309-0.001,0.613,0.146,0.866h2.13
						c0.066-0.113,0.119-0.235,0.147-0.37c0.179-0.872,0.269-1.77,0.269-2.669c0-7.306-5.943-13.249-13.249-13.249
						c-7.306,0-13.249,5.943-13.249,13.249c0,7.306,5.943,13.249,13.249,13.249c0.683,0,1.237-0.553,1.237-1.236
						C387.17,180.701,386.616,180.148,385.934,180.148z"/>
				</g>
			</g>
			<g>
				<g>
					<path style="fill:#263238;" d="M416.906,180.148c-5.942,0-10.776-4.834-10.776-10.776c0-5.942,4.834-10.776,10.776-10.776
						c5.942,0,10.776,4.834,10.776,10.776c0,0.733-0.073,1.464-0.219,2.173c-0.041,0.199-0.026,0.394,0.025,0.577h2.373
						c0.008-0.027,0.019-0.053,0.025-0.081c0.179-0.872,0.269-1.77,0.269-2.669c0-7.306-5.943-13.249-13.249-13.249
						c-7.306,0-13.249,5.943-13.249,13.249c0,7.306,5.943,13.249,13.249,13.249c0.683,0,1.237-0.553,1.237-1.236
						C418.143,180.701,417.589,180.148,416.906,180.148z"/>
				</g>
				<g>
					<path style="fill:#263238;" d="M421.827,180.148c-5.942,0-10.776-4.834-10.776-10.776c0-5.942,4.834-10.776,10.776-10.776
						c5.942,0,10.776,4.834,10.776,10.776c0,0.733-0.073,1.464-0.219,2.173c-0.041,0.199-0.026,0.394,0.025,0.577h2.373
						c0.008-0.027,0.019-0.053,0.025-0.081c0.179-0.872,0.269-1.77,0.269-2.669c0-7.306-5.943-13.249-13.249-13.249
						c-7.305,0-13.249,5.943-13.249,13.249c0,7.306,5.943,13.249,13.249,13.249c0.683,0,1.237-0.553,1.237-1.236
						C423.064,180.701,422.51,180.148,421.827,180.148z"/>
				</g>
			</g>
		</g>
	</g>
	<g>
		<ellipse style="fill:none;stroke:#263238;stroke-miterlimit:10;" cx="385.651" cy="224.272" rx="35.688" ry="20.953"/>
		<ellipse style="fill:none;stroke:#263238;stroke-miterlimit:10;" cx="410.748" cy="334.791" rx="32.695" ry="23.716"/>
		<ellipse style="fill:none;stroke:#263238;stroke-miterlimit:10;" cx="288.256" cy="220.818" rx="25.788" ry="18.88"/>
		<g>
			<line style="fill:none;stroke:#263238;stroke-miterlimit:10;" x1="390.486" y1="256.276" x2="424.563" y2="256.276"/>
			<line style="fill:none;stroke:#263238;stroke-miterlimit:10;" x1="390.486" y1="260.881" x2="424.563" y2="260.881"/>
			
				<line style="fill:none;stroke:#92E3A9;stroke-width:2;stroke-miterlimit:10;" x1="390.486" y1="265.486" x2="424.563" y2="265.486"/>
		</g>
		<g>
			<line style="fill:none;stroke:#263238;stroke-miterlimit:10;" x1="393.71" y1="329.956" x2="427.786" y2="329.956"/>
			<line style="fill:none;stroke:#263238;stroke-miterlimit:10;" x1="393.71" y1="334.56" x2="427.786" y2="334.56"/>
			<line style="fill:none;stroke:#263238;stroke-miterlimit:10;" x1="393.71" y1="339.165" x2="427.786" y2="339.165"/>
			<path style="fill:none;stroke:#92E3A9;stroke-width:2;stroke-miterlimit:10;" d="M393.072,346.912c0,0,19.621-2.453,41.694-3.504
				"/>
		</g>
		<g>
			<line style="fill:none;stroke:#263238;stroke-miterlimit:10;" x1="369.764" y1="219.436" x2="403.84" y2="219.436"/>
			
				<line style="fill:none;stroke:#92E3A9;stroke-width:2;stroke-miterlimit:10;" x1="368.377" y1="223.823" x2="404.211" y2="222.164"/>
			<line style="fill:none;stroke:#92E3A9;stroke-miterlimit:10;" x1="368.211" y1="226.141" x2="404.046" y2="224.482"/>
			<line style="fill:none;stroke:#263238;stroke-miterlimit:10;" x1="369.764" y1="228.646" x2="403.84" y2="228.646"/>
		</g>
		<g>
			<line style="fill:none;stroke:#263238;stroke-miterlimit:10;" x1="391.407" y1="377.847" x2="425.484" y2="377.847"/>
			<line style="fill:none;stroke:#263238;stroke-miterlimit:10;" x1="391.407" y1="382.452" x2="425.484" y2="382.452"/>
			
				<line style="fill:none;stroke:#92E3A9;stroke-width:2;stroke-miterlimit:10;" x1="391.407" y1="387.057" x2="425.484" y2="387.057"/>
		</g>
		<g>
			<line style="fill:none;stroke:#263238;stroke-miterlimit:10;" x1="391.407" y1="393.504" x2="425.484" y2="393.504"/>
			<line style="fill:none;stroke:#263238;stroke-miterlimit:10;" x1="391.407" y1="398.109" x2="425.484" y2="398.109"/>
			
				<line style="fill:none;stroke:#92E3A9;stroke-width:2;stroke-miterlimit:10;" x1="391.407" y1="402.714" x2="425.484" y2="402.714"/>
		</g>
		<g>
			<line style="fill:none;stroke:#263238;stroke-miterlimit:10;" x1="275.362" y1="216.673" x2="301.15" y2="216.673"/>
			<line style="fill:none;stroke:#263238;stroke-miterlimit:10;" x1="275.362" y1="221.279" x2="301.15" y2="221.279"/>
			<line style="fill:none;stroke:#263238;stroke-miterlimit:10;" x1="275.362" y1="225.883" x2="301.15" y2="225.883"/>
		</g>
		<line style="fill:none;stroke:#263238;stroke-miterlimit:10;" x1="410.748" y1="311.075" x2="402.459" y2="282.985"/>
		<polyline style="fill:none;stroke:#263238;stroke-miterlimit:10;" points="399.696,289.892 401.077,278.841 408.906,287.59 		"/>
		<path style="fill:none;stroke:#263238;stroke-miterlimit:10;" d="M306.676,205.622c0,0,19.341-12.433,43.747,0.461"/>
		<polyline style="fill:none;stroke:#263238;stroke-miterlimit:10;" points="346.278,199.175 353.646,207.464 342.134,207.464 		"/>
	</g>
</g>
<g id="Books">
	<g>
		<path style="fill:#263238;stroke:#263238;stroke-linecap:round;stroke-linejoin:round;stroke-miterlimit:10;" d="M160.214,467.963
			v-21.42c0-6.93-5.618-12.549-12.549-12.549h118.323c6.93,0,12.549,5.618,12.549,12.549v21.42c0,6.93-5.618,12.549-12.549,12.549
			H147.665C154.596,480.512,160.214,474.893,160.214,467.963z"/>
		<g>
			<path style="fill:#949494;stroke:#263238;stroke-linecap:round;stroke-linejoin:round;stroke-miterlimit:10;" d="M42.303,435.692
				l-1.412-0.927c-0.349-0.229-0.187-0.772,0.231-0.772h106.544c6.93,0,12.549,5.618,12.549,12.549v21.42
				c0,6.931-5.618,12.549-12.549,12.549H41.121c-0.417,0-0.579-0.543-0.231-0.772l1.412-0.927V435.692z"/>
			<path style="fill:#FFFFFF;stroke:#263238;stroke-linecap:round;stroke-linejoin:round;stroke-miterlimit:10;" d="
				M142.439,435.692H42.303v43.121h100.136c8.534,0,15.452-6.918,15.452-15.452v-12.217
				C157.891,442.61,150.973,435.692,142.439,435.692z"/>
			
				<line style="fill:none;stroke:#263238;stroke-linecap:round;stroke-linejoin:round;stroke-miterlimit:10;" x1="154.273" y1="443.629" x2="112.702" y2="443.629"/>
			
				<line style="fill:none;stroke:#263238;stroke-linecap:round;stroke-linejoin:round;stroke-miterlimit:10;" x1="123.617" y1="447.577" x2="84.832" y2="447.577"/>
			
				<line style="fill:none;stroke:#263238;stroke-linecap:round;stroke-linejoin:round;stroke-miterlimit:10;" x1="100.16" y1="452.454" x2="137.319" y2="452.454"/>
			
				<line style="fill:none;stroke:#263238;stroke-linecap:round;stroke-linejoin:round;stroke-miterlimit:10;" x1="153.344" y1="467.318" x2="128.959" y2="467.318"/>
			
				<line style="fill:none;stroke:#263238;stroke-linecap:round;stroke-linejoin:round;stroke-miterlimit:10;" x1="135.229" y1="470.801" x2="98.767" y2="470.801"/>
			
				<line style="fill:none;stroke:#263238;stroke-linecap:round;stroke-linejoin:round;stroke-miterlimit:10;" x1="139.642" y1="474.053" x2="129.888" y2="474.053"/>
			
				<line style="fill:none;stroke:#263238;stroke-linecap:round;stroke-linejoin:round;stroke-miterlimit:10;" x1="112.237" y1="464.066" x2="50.228" y2="464.066"/>
			
				<line style="fill:none;stroke:#263238;stroke-linecap:round;stroke-linejoin:round;stroke-miterlimit:10;" x1="43.029" y1="454.08" x2="55.802" y2="454.08"/>
			
				<line style="fill:none;stroke:#263238;stroke-linecap:round;stroke-linejoin:round;stroke-miterlimit:10;" x1="45.119" y1="450.828" x2="58.124" y2="450.828"/>
			
				<line style="fill:none;stroke:#263238;stroke-linecap:round;stroke-linejoin:round;stroke-miterlimit:10;" x1="45.119" y1="471.73" x2="77.633" y2="471.73"/>
		</g>
	</g>
	<g>
		<path style="fill:#8C8C8C;stroke:#263238;stroke-linecap:round;stroke-linejoin:round;stroke-miterlimit:10;" d="M165.796,421.222
			v-21.42c0-6.931-5.618-12.549-12.549-12.549h118.323c6.93,0,12.548,5.618,12.548,12.549v21.42c0,6.93-5.618,12.549-12.548,12.549
			H153.248C160.178,433.771,165.796,428.152,165.796,421.222z"/>
		<g>
			<path style="fill:#949494;stroke:#263238;stroke-linecap:round;stroke-linejoin:round;stroke-miterlimit:10;" d="M47.885,388.951
				l-1.412-0.927c-0.349-0.229-0.187-0.772,0.231-0.772h106.544c6.93,0,12.549,5.618,12.549,12.549v21.42
				c0,6.93-5.618,12.549-12.549,12.549H46.704c-0.417,0-0.58-0.543-0.231-0.772l1.412-0.927V388.951z"/>
			<path style="fill:#FFFFFF;stroke:#263238;stroke-linecap:round;stroke-linejoin:round;stroke-miterlimit:10;" d="
				M149.103,388.951H47.885v43.121h101.217c7.937,0,14.371-6.434,14.371-14.371v-14.379
				C163.474,395.385,157.04,388.951,149.103,388.951z"/>
			
				<line style="fill:none;stroke:#263238;stroke-linecap:round;stroke-linejoin:round;stroke-miterlimit:10;" x1="159.856" y1="396.888" x2="118.284" y2="396.888"/>
			
				<line style="fill:none;stroke:#263238;stroke-linecap:round;stroke-linejoin:round;stroke-miterlimit:10;" x1="129.2" y1="400.836" x2="90.415" y2="400.836"/>
			
				<line style="fill:none;stroke:#263238;stroke-linecap:round;stroke-linejoin:round;stroke-miterlimit:10;" x1="105.743" y1="405.713" x2="142.902" y2="405.713"/>
			
				<line style="fill:none;stroke:#263238;stroke-linecap:round;stroke-linejoin:round;stroke-miterlimit:10;" x1="158.927" y1="420.577" x2="134.541" y2="420.577"/>
			
				<line style="fill:none;stroke:#263238;stroke-linecap:round;stroke-linejoin:round;stroke-miterlimit:10;" x1="140.812" y1="424.06" x2="104.35" y2="424.06"/>
			
				<line style="fill:none;stroke:#263238;stroke-linecap:round;stroke-linejoin:round;stroke-miterlimit:10;" x1="145.225" y1="427.312" x2="135.47" y2="427.312"/>
			
				<line style="fill:none;stroke:#263238;stroke-linecap:round;stroke-linejoin:round;stroke-miterlimit:10;" x1="117.82" y1="417.325" x2="55.811" y2="417.325"/>
			
				<line style="fill:none;stroke:#263238;stroke-linecap:round;stroke-linejoin:round;stroke-miterlimit:10;" x1="48.611" y1="407.339" x2="61.385" y2="407.339"/>
			
				<line style="fill:none;stroke:#263238;stroke-linecap:round;stroke-linejoin:round;stroke-miterlimit:10;" x1="50.701" y1="404.087" x2="63.707" y2="404.087"/>
			
				<line style="fill:none;stroke:#263238;stroke-linecap:round;stroke-linejoin:round;stroke-miterlimit:10;" x1="50.701" y1="424.989" x2="83.215" y2="424.989"/>
		</g>
		<polygon style="fill:#263238;stroke:#263238;stroke-linecap:round;stroke-linejoin:round;stroke-miterlimit:10;" points="
			67.664,458.547 77.218,448.993 86.753,458.547 86.753,404.055 67.664,404.055 		"/>
	</g>
	<g>
		<path style="fill:#92E3A9;stroke:#263238;stroke-linecap:round;stroke-linejoin:round;stroke-miterlimit:10;" d="M329.623,467.963
			v-21.42c0-6.93,5.618-12.549,12.549-12.549H223.849c-6.93,0-12.549,5.618-12.549,12.549v21.42c0,6.93,5.618,12.549,12.549,12.549
			h118.323C335.242,480.512,329.623,474.893,329.623,467.963z"/>
		<g>
			<path style="fill:#949494;stroke:#263238;stroke-linecap:round;stroke-linejoin:round;stroke-miterlimit:10;" d="
				M447.535,435.692l1.412-0.927c0.349-0.229,0.187-0.772-0.231-0.772H342.172c-6.93,0-12.549,5.618-12.549,12.549v21.42
				c0,6.931,5.618,12.549,12.549,12.549h106.544c0.417,0,0.579-0.543,0.231-0.772l-1.412-0.927V435.692z"/>
			<path style="fill:#FFFFFF;stroke:#263238;stroke-linecap:round;stroke-linejoin:round;stroke-miterlimit:10;" d="
				M345.597,435.692h101.938v43.121H345.597c-7.539,0-13.651-6.112-13.651-13.651v-15.819
				C331.946,441.804,338.058,435.692,345.597,435.692z"/>
			
				<line style="fill:none;stroke:#263238;stroke-linecap:round;stroke-linejoin:round;stroke-miterlimit:10;" x1="335.564" y1="443.629" x2="377.136" y2="443.629"/>
			
				<line style="fill:none;stroke:#263238;stroke-linecap:round;stroke-linejoin:round;stroke-miterlimit:10;" x1="366.22" y1="447.577" x2="405.005" y2="447.577"/>
			
				<line style="fill:none;stroke:#263238;stroke-linecap:round;stroke-linejoin:round;stroke-miterlimit:10;" x1="389.677" y1="452.454" x2="352.518" y2="452.454"/>
			
				<line style="fill:none;stroke:#263238;stroke-linecap:round;stroke-linejoin:round;stroke-miterlimit:10;" x1="336.493" y1="467.318" x2="360.879" y2="467.318"/>
			
				<line style="fill:none;stroke:#263238;stroke-linecap:round;stroke-linejoin:round;stroke-miterlimit:10;" x1="354.608" y1="470.801" x2="391.07" y2="470.801"/>
			
				<line style="fill:none;stroke:#263238;stroke-linecap:round;stroke-linejoin:round;stroke-miterlimit:10;" x1="350.195" y1="474.053" x2="359.95" y2="474.053"/>
			
				<line style="fill:none;stroke:#263238;stroke-linecap:round;stroke-linejoin:round;stroke-miterlimit:10;" x1="377.6" y1="464.066" x2="439.609" y2="464.066"/>
			
				<line style="fill:none;stroke:#263238;stroke-linecap:round;stroke-linejoin:round;stroke-miterlimit:10;" x1="446.809" y1="454.08" x2="434.035" y2="454.08"/>
			
				<line style="fill:none;stroke:#263238;stroke-linecap:round;stroke-linejoin:round;stroke-miterlimit:10;" x1="444.718" y1="450.828" x2="431.713" y2="450.828"/>
			
				<line style="fill:none;stroke:#263238;stroke-linecap:round;stroke-linejoin:round;stroke-miterlimit:10;" x1="444.718" y1="471.73" x2="412.204" y2="471.73"/>
		</g>
	</g>
</g>
<g id="Character">
	<g>
		<g>
			<path style="fill:#FFFFFF;stroke:#263238;stroke-linecap:round;stroke-linejoin:round;stroke-miterlimit:10;" d="
				M340.962,240.641c0,0-0.258,2.042-1.302,4.41c-1.044,2.368-1.493,5.503-0.744,6.528s1.209,1.801,0.586,2.521
				c-0.623,0.719-2.731,1.41-2.731,1.41s-1.858,4.18-3.832,4.862c-1.974,0.682-5.819-0.256-5.819-0.256s-1.753,1.88-1.666,3.087
				c0.087,1.208,3.626,5.404,3.626,5.404s-10.122-0.081-18.321-5.292c-8.198-5.211-9.514-10.376-9.514-10.376
				s6.796,0.725,9.921-0.848c3.124-1.574,3.065-4.267,3.065-4.267s-2.383-12.508,4.583-16.921c6.966-4.413,15.154-1.225,19.46,2.377
				C342.581,236.883,340.962,240.641,340.962,240.641z"/>
			<path style="fill:#263238;stroke:#263238;stroke-linecap:round;stroke-linejoin:round;stroke-miterlimit:10;" d="
				M324.278,248.721c0,0-2.117,2.445-6.172,2.332c-4.055-0.113-5.435-0.553-6.721-3.428c-1.286-2.875-1.286-2.875-1.286-2.875
				s-1.034,2.502-3.019,1.161c-1.985-1.341-2.916-3.028-2.916-3.028s1.93,6.201-1.386,6.979c-3.316,0.778-14.063-2.361-13.635-9.54
				c0.428-7.18,10.333-19.492,17.906-19.228c7.573,0.265,11.841,5.218,11.841,5.218s3.689-3.098,7.6-3.109
				c3.911-0.012,5.973,2.403,5.973,2.403s3.785-3.644,6.796-1.163c3.011,2.481,3.904,5.519,3.904,5.519s6.068-0.032,5.84,4.301
				s-3.619,7.814-7.079,8.467c-3.46,0.654-5.723-0.802-5.723-0.802s-3.593,2.551-5.875,2.716c-2.281,0.164-2.829-1.82-3.577-2.845
				C325.999,240.774,322.714,245.731,324.278,248.721z"/>
			<path style="fill:#FFFFFF;stroke:#263238;stroke-linecap:round;stroke-linejoin:round;stroke-miterlimit:10;" d="
				M328.888,247.175c0,0-2.237-6.718-3.645-5.673c-1.409,1.046-2.756,8.561,0.876,8.435"/>
			
				<line style="fill:none;stroke:#263238;stroke-linecap:round;stroke-linejoin:round;stroke-miterlimit:10;" x1="327.429" y1="243.773" x2="342.184" y2="248.242"/>
			<path style="fill:none;stroke:#263238;stroke-linecap:round;stroke-linejoin:round;stroke-miterlimit:10;" d="M340.107,244.001
				c0.392,0.039,0.774,0.163,1.121,0.379c1.389,0.863,1.704,2.867,0.704,4.476c-0.86,1.384-2.412,2.026-3.713,1.63"/>
		</g>
		<path style="fill:#FFFFFF;stroke:#263238;stroke-linecap:round;stroke-linejoin:round;stroke-miterlimit:10;" d="M328.879,267.679
			c0,0-10.479-3.158-17.335-8.465c-6.856-5.307-10.414-7.884-14.21-8.15c-3.796-0.267-8.962,1.049-11.003,2.68
			c-2.041,1.631-5.116,5.764-5.116,5.764s-15.992,12.076-19.135,15.27c-3.143,3.194-15.45,23.368-17.107,26.589
			c-1.657,3.222-6.409,8.419-6.409,8.419s-12.489,2.652-13.246,3.381c-0.757,0.729-2.814,7.756-2.9,8.437
			c-0.086,0.681,4.62,0.477,5.675,0.131c1.054-0.346,1.82-2.829,1.82-2.829s7.486-0.943,9.565-2.037
			c2.08-1.094,4.197-3.539,4.57-3.971c0.374-0.432,23.235-20.151,24.691-22.414c1.456-2.263,2.941-4.123,2.941-4.123l10.312-4.788
			l-1.905,5.398c0,0-7.253,6.052-9.849,9.341c-2.596,3.289-3.822,4.996-3.822,4.996s-9.965,7.731-11.687,15.678
			c-1.721,7.947-3.004,44.496-4.248,49.711c-1.244,5.215-6.118,14.333-8.454,19.358c-2.336,5.024-2.448,12.855-3.268,20.198
			c-0.821,7.343-1.985,17.408-2.09,17.821c-0.105,0.412-1.905,5.398-2.249,8.12c-0.344,2.722,2.13,3.354,3.481,3.391
			c1.352,0.038,3.757-0.27,4.926-0.894c1.169-0.624,4.112-0.97,5.444-1.201c1.332-0.231,2.501-0.854,3.191-2.522
			c0.689-1.668-0.596-2.655-1.104-4.102c-0.509-1.447-2.658-5.069-2.793-6.948c-0.135-1.879,3.597-13.747,9.393-21.313
			c5.796-7.566,9.25-19.55,10.715-23.567c1.465-4.017,12.298-33.429,12.298-33.429s14.309,28.278,16.86,31.871
			c2.552,3.593,2.993,4.101,4.56,12.756c1.567,8.655,7.409,18.621,11.055,24.294c3.645,5.673,4.407,14.386,4.407,14.386
			s-1.531,4.966-0.188,6.758c1.343,1.792,9.558,1.606,10.909,1.643c1.352,0.038,4.813,1.272,7.899,1.051
			c3.086-0.222,5.913-2.179,5.682-3.511c-0.231-1.332-1.946-0.804-2.944-1.542c-0.997-0.738-7.853-6.045-7.853-6.045l-4.892-6.123
			c0,0-1.778-9.719-2.192-13.601c-0.414-3.882-2.513-23.694-3.302-29.033c-0.789-5.339-3.417-23.126-5.569-32.414
			c-2.152-9.287-4.62-19.226-4.62-19.226s1.442-11.839,1.565-13.871c0.124-2.032,0.199-4.735,0.199-4.735l11.172-9.706
			c0,0,24.602,10.101,30.238,9.695s16.147-9.929,20.094-15.069c3.947-5.14,11.707-13.521,11.707-13.521l4.292-4.086
			c0,0-0.117-3.499-0.74-4.668c-0.624-1.169-0.94-1.821-0.94-1.821s0.775-2.349-1.008-2.76c-1.783-0.411-3.393-0.296-3.911,0.011
			c-0.517,0.307-1.945,1.084-1.945,1.084s0.604,0.901-0.929,2.09c-1.533,1.189-2.721,1.545-2.721,1.545s-0.403,0.029-0.44,1.381
			c-0.038,1.352-0.515,5.972-0.515,5.972s-6.611,5.601-8.95,6.849c-2.338,1.247-10.043,4.769-10.043,4.769l-12.655-3.406
			C344.252,282.625,336.692,269.41,328.879,267.679z"/>
		<polyline style="fill:none;stroke:#263238;stroke-linecap:round;stroke-linejoin:round;stroke-miterlimit:10;" points="
			225.49,321.524 224.827,320.64 226.927,315.335 		"/>
		
			<line style="fill:none;stroke:#263238;stroke-linecap:round;stroke-linejoin:round;stroke-miterlimit:10;" x1="222.42" y1="321.602" x2="225.49" y2="314.893"/>
		
			<line style="fill:none;stroke:#263238;stroke-linecap:round;stroke-linejoin:round;stroke-miterlimit:10;" x1="229.914" y1="318.905" x2="227.7" y2="319.093"/>
		<path style="fill:#263238;stroke:#263238;stroke-linecap:round;stroke-linejoin:round;stroke-miterlimit:10;" d="M324.661,412.593
			c-0.528-3.068-1.161-6.928-1.387-9.048c-0.414-3.882-2.513-23.694-3.302-29.033c-0.789-5.339-3.417-23.126-5.569-32.414
			c-2.152-9.287-4.62-19.226-4.62-19.226s0.271-2.222,0.587-4.906c-4.356,0.934-12.234,1.642-23.601-1.076
			c-12.823-3.066-20.71-8.822-24.306-12.019c-2.988,2.998-6.737,7.518-7.733,12.113c-1.721,7.947-3.004,44.496-4.248,49.711
			c-1.244,5.215-6.118,14.333-8.454,19.358c-2.336,5.024-2.448,12.855-3.268,20.198c-0.181,1.618-0.378,3.369-0.578,5.119
			c4.491,2.143,8.703,1.717,11.499,0.948c1.643-4.335,4.161-9.647,7.278-13.716c5.796-7.566,9.25-19.55,10.715-23.567
			c1.465-4.017,12.298-33.429,12.298-33.429s14.309,28.278,16.86,31.871c2.552,3.593,2.993,4.101,4.56,12.756
			c1.567,8.655,7.409,18.621,11.055,24.294c0.746,1.16,1.369,2.449,1.892,3.763C319.017,414.58,322.367,413.69,324.661,412.593z"/>
		<g>
			<path style="fill:#92E3A9;stroke:#263238;stroke-linecap:round;stroke-linejoin:round;stroke-miterlimit:10;" d="
				M344.252,282.625c0,0-7.56-13.215-15.373-14.946c0,0-10.479-3.158-17.335-8.465c-6.856-5.307-10.414-7.884-14.21-8.15
				c-3.796-0.267-8.962,1.049-11.003,2.68c-2.041,1.631-5.116,5.764-5.116,5.764s-8.181,6.178-13.99,10.865
				c0.073,2.808,0.552,6.678,2.459,8.849c2.144,2.441,4.999,4.113,6.681,4.965l5.628-2.613l-1.905,5.398
				c0,0-7.253,6.052-9.849,9.341c-2.596,3.289-3.822,4.996-3.822,4.996s-3.035,2.357-6.045,5.803
				c3.225,2.954,13.883,11.827,28.869,15.216c9.761,2.208,16.45,1.575,20.545,0.525c0.054-0.443,1.441-11.857,1.563-13.85
				c0.124-2.032,0.199-4.735,0.199-4.735l11.172-9.706c0,0,5.568,2.285,12.012,4.638c2.754-2.514,7.166-7.642,9.999-16.445
				L344.252,282.625z"/>
			
				<line style="fill:none;stroke:#263238;stroke-linecap:round;stroke-linejoin:round;stroke-miterlimit:10;" x1="283.007" y1="269.724" x2="283.149" y2="268.074"/>
			
				<line style="fill:none;stroke:#263238;stroke-linecap:round;stroke-linejoin:round;stroke-miterlimit:10;" x1="281.993" y1="281.572" x2="282.832" y2="271.777"/>
			<path style="fill:none;stroke:#263238;stroke-linecap:round;stroke-linejoin:round;stroke-miterlimit:10;" d="M310.066,269.395
				c-3.362,1.066-7.921,2.843-11.684,5.501"/>
			<path style="fill:none;stroke:#263238;stroke-linecap:round;stroke-linejoin:round;stroke-miterlimit:10;" d="M314.822,268.116
				c0,0-0.885,0.177-2.309,0.561"/>
			<path style="fill:none;stroke:#263238;stroke-linecap:round;stroke-linejoin:round;stroke-miterlimit:10;" d="M300.825,270.898
				c0,0-6.245,4.272-7.661,5.465"/>
			
				<line style="fill:none;stroke:#263238;stroke-linecap:round;stroke-linejoin:round;stroke-miterlimit:10;" x1="322.719" y1="294.56" x2="317.6" y2="295.355"/>
		</g>
		<path style="fill:#FFFFFF;stroke:#263238;stroke-linecap:round;stroke-linejoin:round;stroke-miterlimit:10;" d="M341.155,430.855
			c-0.231-1.332-1.946-0.804-2.944-1.542c-0.536-0.396-2.76-2.109-4.706-3.612c0.076,0.498,0.146,1.21,0.063,1.867
			c-0.146,1.153-0.146,1.153-0.146,1.153s-8.467-1.246-12.519-2.527c-1.677-0.53-3.04-0.933-4.068-1.226
			c-0.159,0.535-1.434,5.02-0.172,6.704c1.343,1.792,9.558,1.606,10.909,1.643c1.352,0.038,4.813,1.272,7.899,1.051
			C338.559,434.145,341.386,432.188,341.155,430.855z"/>
		<path style="fill:#FFFFFF;stroke:#263238;stroke-linecap:round;stroke-linejoin:round;stroke-miterlimit:10;" d="M251.463,430.967
			c0.689-1.668-0.596-2.655-1.104-4.102c-0.148-0.422-0.437-1.031-0.773-1.724l-0.036,0.018c0,0-0.518,2.322-1.639,2.631
			c-1.12,0.309-1.347,0.325-5.082-0.777c-1.936-0.572-4.417-1.039-6.729-1.206c-0.59,1.803-1.452,4.586-1.679,6.386
			c-0.344,2.723,2.13,3.354,3.481,3.392c1.352,0.038,3.757-0.27,4.926-0.894c1.169-0.624,4.112-0.97,5.444-1.201
			C249.605,433.259,250.774,432.635,251.463,430.967z"/>
		<path style="fill:#92E3A9;stroke:#263238;stroke-linecap:round;stroke-linejoin:round;stroke-miterlimit:10;" d="M380.505,263.426
			l-4.275-2.165c-0.606-0.307-1.34-0.121-1.729,0.436c-0.103,0.147-0.218,0.317-0.349,0.515c-1.013,1.533,0.153,2.123,0.153,2.123
			l3.976,2.185C378.282,266.52,380.359,264.883,380.505,263.426z"/>
		<path style="fill:#FFFFFF;stroke:#263238;stroke-linecap:round;stroke-linejoin:round;stroke-miterlimit:10;" d="M381.891,268.282
			"/>
	</g>
</g>
</svg>
