<?xml version="1.0" encoding="utf-8"?>
<!-- Generator: Adobe Illustrator 27.5.0, SVG Export Plug-In . SVG Version: 6.00 Build 0)  -->
<svg version="1.1" id="Layer_1" xmlns="http://www.w3.org/2000/svg" xmlns:xlink="http://www.w3.org/1999/xlink" x="0px" y="0px"
	 viewBox="0 0 2527.882 2000" style="enable-background:new 0 0 2527.882 2000;" xml:space="preserve">
<rect style="fill:#FFFFFF;" width="2527.882" height="2000"/>
<g>
	<g>
		<g>
			<g>
				<g>
					<g>
						<path style="fill:#FCEFE6;" d="M673.063,1767.126l1196.12,5.26c234.61-2.58,431.4-149.57,511.11-352.63
							c31.14-79.34,44.42-167.25,35.09-258.44c-4.94-48.33-12.74-100.09-23.96-155.48c-71.23-351.77-441.28-499.69-744.82-519.26
							c-370.29-23.88-390.16-270.84-797.2-231.61c-190.29,18.34-431.13,116.06-583.59,419.26
							c-79.46,158.02-195.99,357.95-133.22,653.64c6.76,31.83,16.17,62.53,27.98,91.89
							C243.512,1625.936,444.582,1766.115,673.063,1767.126z"/>
					</g>
				</g>
			</g>
		</g>
	</g>
	<g style="opacity:0.5;">
		<g>
			<circle style="fill:#FEC786;" cx="971.893" cy="736.687" r="357.38"/>
		</g>
		<g>
			<circle style="fill:#FFFFFF;" cx="971.893" cy="736.687" r="322.99"/>
		</g>
		<g>
			<path style="fill:#FEC786;" d="M1191.536,596.959C974.83,673.162,971.973,738.262,971.973,738.262
				C1053.516,755.946,1191.536,596.959,1191.536,596.959z"/>
		</g>
		<g>
			<path style="fill:#FEC786;" d="M827.222,855.641c0,0,138.275-58.83,144.168-118.091
				C971.39,737.55,926.551,725.198,827.222,855.641z"/>
		</g>
		<g>
			
				<ellipse transform="matrix(0.0981 -0.9952 0.9952 0.0981 141.9124 1633.1146)" style="fill:#EFA04B;" cx="971.973" cy="738.262" rx="18.069" ry="18.069"/>
		</g>
		<g>
			<rect x="969.037" y="413.697" style="fill:#EFA04B;" width="5.873" height="71.158"/>
		</g>
		<g>
			<rect x="969.037" y="988.52" style="fill:#EFA04B;" width="5.873" height="71.158"/>
		</g>
		<g>
			<rect x="1223.806" y="733.751" style="fill:#EFA04B;" width="71.158" height="5.873"/>
		</g>
		<g>
			<rect x="648.983" y="733.751" style="fill:#EFA04B;" width="71.158" height="5.873"/>
		</g>
		<g>
			
				<rect x="1169.993" y="517.942" transform="matrix(0.7071 -0.7071 0.7071 0.7071 -20.4229 992.4508)" style="fill:#EFA04B;" width="35.579" height="5.873"/>
		</g>
		<g>
			
				<rect x="738.374" y="949.56" transform="matrix(0.7071 -0.7071 0.7071 0.7071 -452.0414 813.6661)" style="fill:#EFA04B;" width="35.579" height="5.873"/>
		</g>
		<g>
			
				<rect x="1077.651" y="1004.118" transform="matrix(0.9345 -0.3559 0.3559 0.9345 -292.9316 451.4608)" style="fill:#EFA04B;" width="5.873" height="35.579"/>
		</g>
		<g>
			
				<rect x="860.423" y="433.678" transform="matrix(0.9345 -0.3559 0.3559 0.9345 -104.1461 336.8142)" style="fill:#EFA04B;" width="5.873" height="35.579"/>
		</g>
		<g>
			
				<rect x="829.305" y="1012.234" transform="matrix(0.4092 -0.9125 0.9125 0.4092 -425.8122 1372.7286)" style="fill:#EFA04B;" width="35.579" height="5.873"/>
		</g>
		<g>
			
				<rect x="1079.063" y="455.268" transform="matrix(0.4092 -0.9125 0.9125 0.4092 229.9584 1271.5509)" style="fill:#EFA04B;" width="35.579" height="5.873"/>
		</g>
		<g>
			
				<rect x="668.964" y="842.365" transform="matrix(0.9345 -0.3559 0.3559 0.9345 -255.8616 299.736)" style="fill:#EFA04B;" width="35.579" height="5.873"/>
		</g>
		<g>
			
				<rect x="1239.404" y="625.137" transform="matrix(0.9345 -0.3559 0.3559 0.9345 -141.2121 488.5246)" style="fill:#EFA04B;" width="35.579" height="5.873"/>
		</g>
		<g>
			
				<rect x="690.554" y="594.018" transform="matrix(0.4092 -0.9125 0.9125 0.4092 -148.5151 994.2532)" style="fill:#EFA04B;" width="5.873" height="35.579"/>
		</g>
		<g>
			
				<rect x="1247.519" y="843.777" transform="matrix(0.4092 -0.9125 0.9125 0.4092 -47.3374 1650.0276)" style="fill:#EFA04B;" width="5.873" height="35.579"/>
		</g>
		<g>
			
				<rect x="756.852" y="499.524" transform="matrix(0.7188 -0.6952 0.6952 0.7188 -145.9897 673.7049)" style="fill:#EFA04B;" width="5.873" height="35.579"/>
		</g>
		<g>
			
				<rect x="1181.222" y="938.272" transform="matrix(0.7188 -0.6952 0.6952 0.7188 -331.6862 1092.0721)" style="fill:#EFA04B;" width="5.873" height="35.579"/>
		</g>
	</g>
	<g>
		<path style="fill:#FEC786;" d="M673.063,1767.126l1196.12,5.26c234.61-2.58,431.4-149.57,511.11-352.63H160.572
			C243.512,1625.936,444.582,1766.115,673.063,1767.126z"/>
	</g>
	<g>
		<g>
			<g>
				<g>
					<g>
						<g>
							<g>
								<g>
									<path style="fill:#FC4963;" d="M333.662,1285.207l261.21,0.25c1.701,0.002,3.082-1.376,3.083-3.078
										c0.002-1.701-1.376-3.082-3.077-3.083l-261.211-0.25c-19.164-0.018-34.77,14.633-34.787,32.66
										c-0.017,18.028,15.56,32.709,34.724,32.727l261.211,0.25c1.701,0.002,3.082-1.376,3.083-3.078
										c0.002-1.701-1.376-3.082-3.077-3.083l-261.211-0.25c-15.767-0.015-28.583-11.93-28.569-26.56
										C305.056,1297.082,317.895,1285.192,333.662,1285.207z"/>
								</g>
							</g>
						</g>
					</g>
				</g>
			</g>
			<g>
				<g>
					<path style="fill:#FC4963;" d="M349.09,1280.866c-0.667,0-33.588,5.116-33.588,5.116l-11.567,12.786l-1.335,18.577
						l9.132,19.757l26.235,4.261h72.514h16.905l-18.542-14.141L407.989,1304l20.98-22.951
						C428.969,1281.049,349.757,1280.866,349.09,1280.866z"/>
				</g>
			</g>
			<g>
				<g>
					<g>
						<g>
							<g>
								<g>
									<path style="fill:#FFFFFF;" d="M431.346,1283.742l-17.858,9.313l-5.481,15.41l-0.018,18.646l19.653,12.203l22.309,2.05
										l241.774-1.797c-10.524-23.944,2.081-55.573,2.081-55.573L431.346,1283.742z"/>
								</g>
							</g>
						</g>
					</g>
				</g>
			</g>
			<g>
				<g>
					<g>
						<g>
							<g>
								<g>
									<g>
										<path style="fill:#FC4963;" d="M438.68,1285.207l261.211,0.25c1.701,0.002,3.082-1.376,3.083-3.078
											c0.002-1.701-1.376-3.082-3.077-3.083l-261.21-0.25c-19.164-0.018-34.77,14.633-34.787,32.66
											c-0.017,18.028,15.56,32.709,34.724,32.727l261.21,0.25c1.701,0.002,3.082-1.376,3.083-3.078
											c0.002-1.701-1.376-3.082-3.077-3.083l-261.211-0.25c-15.767-0.015-28.583-11.93-28.569-26.56
											C410.074,1297.082,422.912,1285.192,438.68,1285.207z"/>
									</g>
								</g>
							</g>
						</g>
					</g>
				</g>
			</g>
			<g>
				<g>
					<g>
						<g>
							<g>
								<g>
									<path style="fill:#AAC9F8;" d="M690.229,1312.665c0.378,0,0.685-0.306,0.685-0.684c0-0.378-0.305-0.685-0.684-0.685
										l-128.188-0.123c-0.378,0-0.685,0.305-0.685,0.684c0,0.378,0.306,0.685,0.684,0.685L690.229,1312.665z"/>
								</g>
							</g>
						</g>
					</g>
				</g>
			</g>
			<g>
				<g>
					<g>
						<g>
							<g>
								<g>
									<path style="fill:#AAC9F8;" d="M543.99,1312.525c0.378,0,0.685-0.306,0.685-0.684c0-0.378-0.306-0.685-0.684-0.685
										l-124.537-0.119c-0.378,0-0.685,0.306-0.685,0.684c0,0.378,0.306,0.685,0.684,0.685L543.99,1312.525z"/>
								</g>
							</g>
						</g>
					</g>
				</g>
			</g>
			<g>
				<g>
					<g>
						<g>
							<g>
								<g>
									<path style="fill:#AAC9F8;" d="M486.685,1324.735c0.378,0,0.685-0.305,0.685-0.684c0-0.378-0.305-0.685-0.684-0.685
										l-63.897-0.061c-0.378,0-0.685,0.306-0.685,0.684c0,0.379,0.306,0.685,0.684,0.685L486.685,1324.735z"/>
								</g>
							</g>
						</g>
					</g>
				</g>
			</g>
			<g>
				<g>
					<g>
						<g>
							<g>
								<g>
									<path style="fill:#AAC9F8;" d="M690.218,1324.93c0.378,0,0.685-0.306,0.685-0.684c0-0.378-0.305-0.685-0.684-0.685
										l-194.158-0.186c-0.379-0.001-0.685,0.305-0.685,0.684c0,0.378,0.306,0.685,0.684,0.685L690.218,1324.93z"/>
								</g>
							</g>
						</g>
					</g>
				</g>
			</g>
			<g>
				<g>
					<g>
						<g>
							<g>
								<g>
									<g>
										<path style="fill:#21111D;" d="M699.891,1284.773c-0.378,0-0.685,0.305-0.685,0.684c0,0.378,0.305,0.685,0.684,0.685
											c2.076,0.002,3.767-1.686,3.769-3.761c0.002-2.076-1.685-3.767-3.761-3.769l-261.21-0.25
											c-19.542-0.019-35.454,14.939-35.472,33.344c-0.018,18.405,15.866,33.394,35.408,33.412l261.21,0.25
											c2.076,0.002,3.767-1.686,3.769-3.761c0.002-2.077-1.685-3.767-3.761-3.769c-0.378,0-0.685,0.306-0.685,0.684
											c0,0.378,0.305,0.685,0.684,0.685c1.321,0.001,2.395,1.077,2.394,2.398c-0.001,1.321-1.077,2.395-2.398,2.394
											l-261.21-0.25c-18.787-0.018-34.057-14.392-34.04-32.042c0.017-17.65,15.315-31.994,34.102-31.976l261.211,0.25
											c1.321,0.001,2.395,1.077,2.394,2.398C702.288,1283.7,701.212,1284.774,699.891,1284.773z"/>
									</g>
								</g>
							</g>
						</g>
					</g>
				</g>
			</g>
			<g>
				<g>
					<g>
						<g>
							<g>
								<g>
									<path style="fill:#4CB7D8;" d="M617.967,1324.892l6.674,10.336c4.757-15.083-3.451-35.585-3.451-35.585l-25.561-0.025
										c9.893,1.896,14.966,35.596,14.966,35.596C613.398,1330.364,617.967,1324.892,617.967,1324.892z"/>
								</g>
							</g>
						</g>
					</g>
				</g>
			</g>
			<g>
				<g>
					<g>
						<g>
							<g>
								<g>
									<path style="fill:#AAC9F8;" d="M690.241,1300.394c0.378,0,0.685-0.305,0.685-0.684c0-0.379-0.305-0.685-0.684-0.685
										l-267.43-0.256c-0.378-0.001-0.685,0.305-0.685,0.684c0,0.378,0.306,0.685,0.684,0.685L690.241,1300.394z"/>
								</g>
							</g>
						</g>
					</g>
				</g>
			</g>
			<g>
				<g>
					<rect x="332.407" y="1278.307" style="fill:#1D1D1B;" width="108.104" height="1.501"/>
				</g>
			</g>
			<g>
				<g>
					<path style="fill:#1D1D1B;" d="M298.131,1311.691c-0.005,0.257-0.089,6.386,2.961,13.439
						c2.821,6.525,8.969,15.05,22.209,18.606c0.19,0.059,4.724,1.443,10.304,1.449l106.905,0.102l0.001-1.502l-106.905-0.102
						c-5.344-0.005-9.818-1.368-9.889-1.389c-10.165-2.73-17.306-8.687-21.224-17.705c-2.937-6.761-2.862-12.808-2.861-12.868
						L298.131,1311.691z"/>
				</g>
			</g>
		</g>
		<g>
			<g>
				<g>
					<g>
						<g>
							<g>
								<g>
									<path style="fill:#4CB7D8;" d="M681.473,1273.321l-261.211,0.25c-1.701,0.002-3.079,1.382-3.077,3.083
										c0.002,1.701,1.382,3.079,3.083,3.078l261.21-0.25c19.164-0.019,34.741-14.7,34.724-32.727
										c-0.017-18.027-15.623-32.678-34.787-32.66l-261.211,0.25c-1.701,0.001-3.079,1.382-3.077,3.083
										c0.002,1.701,1.382,3.079,3.083,3.078l261.21-0.25c15.767-0.015,28.606,11.875,28.62,26.505
										C710.056,1261.391,697.24,1273.306,681.473,1273.321z"/>
								</g>
							</g>
						</g>
					</g>
				</g>
			</g>
			<g>
				<g>
					<path style="fill:#4CB7D8;" d="M587.698,1276.413h16.905h72.514l26.235-4.261l9.132-19.757l-1.335-18.577l-11.566-12.786
						c0,0-32.92-5.116-33.588-5.116s-79.879,0.183-79.879,0.183l20.98,22.951l-0.856,23.222L587.698,1276.413z"/>
				</g>
			</g>
			<g>
				<g>
					<g>
						<g>
							<g>
								<g>
									<path style="fill:#FFFFFF;" d="M565.133,1276.413l22.309-2.05l19.653-12.203l-0.018-18.646l-5.481-15.41l-17.858-9.313
										l-262.461,0.251c0,0,12.606,31.629,2.082,55.573L565.133,1276.413z"/>
								</g>
							</g>
						</g>
					</g>
				</g>
			</g>
			<g>
				<g>
					<g>
						<g>
							<g>
								<g>
									<g>
										<path style="fill:#4CB7D8;" d="M576.455,1273.321l-261.21,0.25c-1.701,0.002-3.079,1.382-3.077,3.083
											c0.001,1.701,1.382,3.079,3.083,3.078l261.21-0.25c19.164-0.019,34.741-14.7,34.724-32.727
											c-0.017-18.027-15.623-32.678-34.787-32.66l-261.211,0.25c-1.701,0.001-3.079,1.382-3.077,3.083
											c0.002,1.701,1.382,3.079,3.083,3.078l261.21-0.25c15.767-0.015,28.606,11.875,28.62,26.505
											C605.039,1261.391,592.223,1273.306,576.455,1273.321z"/>
									</g>
								</g>
							</g>
						</g>
					</g>
				</g>
			</g>
			<g>
				<g>
					<g>
						<g>
							<g>
								<g>
									<path style="fill:#AAC9F8;" d="M453.042,1247.592c0.378,0,0.684-0.307,0.684-0.685c-0.001-0.379-0.307-0.684-0.685-0.684
										l-128.188,0.123c-0.378,0-0.684,0.307-0.684,0.685c0,0.378,0.307,0.684,0.685,0.684L453.042,1247.592z"/>
								</g>
							</g>
						</g>
					</g>
				</g>
			</g>
			<g>
				<g>
					<g>
						<g>
							<g>
								<g>
									<path style="fill:#AAC9F8;" d="M595.632,1247.455c0.378,0,0.684-0.307,0.684-0.685c0-0.378-0.307-0.684-0.685-0.684
										l-124.537,0.119c-0.378,0-0.684,0.307-0.684,0.685c0,0.378,0.307,0.684,0.685,0.684L595.632,1247.455z"/>
								</g>
							</g>
						</g>
					</g>
				</g>
			</g>
			<g>
				<g>
					<g>
						<g>
							<g>
								<g>
									<path style="fill:#AAC9F8;" d="M592.296,1259.723c0.378,0,0.684-0.307,0.684-0.685c0-0.378-0.307-0.684-0.685-0.684
										l-63.897,0.061c-0.378,0-0.684,0.307-0.684,0.685c0,0.378,0.307,0.684,0.685,0.684L592.296,1259.723z"/>
								</g>
							</g>
						</g>
					</g>
				</g>
			</g>
			<g>
				<g>
					<g>
						<g>
							<g>
								<g>
									<path style="fill:#AAC9F8;" d="M519.025,1259.793c0.378,0,0.684-0.307,0.684-0.685c0-0.378-0.307-0.684-0.685-0.684
										l-194.158,0.186c-0.378,0-0.684,0.307-0.684,0.685c0,0.378,0.307,0.684,0.685,0.684L519.025,1259.793z"/>
								</g>
							</g>
						</g>
					</g>
				</g>
			</g>
			<g>
				<g>
					<g>
						<g>
							<g>
								<g>
									<g>
										<path style="fill:#21111D;" d="M315.246,1274.256c0.378,0,0.684-0.307,0.684-0.685c0-0.378-0.307-0.684-0.685-0.684
											c-2.077,0.002-3.763,1.692-3.761,3.769c0.002,2.076,1.692,3.763,3.769,3.761l261.211-0.25
											c19.542-0.019,35.426-15.008,35.408-33.412c-0.018-18.405-15.93-33.363-35.472-33.344l-261.211,0.25
											c-2.076,0.002-3.763,1.692-3.761,3.769c0.002,2.076,1.692,3.763,3.769,3.761c0.378,0,0.684-0.307,0.684-0.685
											c0-0.378-0.307-0.684-0.685-0.684c-1.321,0.001-2.397-1.073-2.398-2.394c-0.001-1.321,1.073-2.397,2.394-2.398
											l261.21-0.25c18.787-0.018,34.085,14.326,34.102,31.976c0.017,17.65-15.253,32.024-34.04,32.042l-261.21,0.25
											c-1.321,0.001-2.397-1.073-2.398-2.394C312.851,1275.333,313.925,1274.257,315.246,1274.256z"/>
									</g>
								</g>
							</g>
						</g>
					</g>
				</g>
			</g>
			<g>
				<g>
					<g>
						<g>
							<g>
								<g>
									<path style="fill:#FEC786;" d="M404.49,1270.264c0,0,5.072-33.701,14.965-35.596l-25.561,0.025
										c0,0-8.208,20.502-3.451,35.585l6.674-10.336C397.118,1259.941,401.686,1265.413,404.49,1270.264z"/>
								</g>
							</g>
						</g>
					</g>
				</g>
			</g>
			<g>
				<g>
					<g>
						<g>
							<g>
								<g>
									<path style="fill:#AAC9F8;" d="M592.273,1235.187c0.378,0,0.684-0.307,0.684-0.685c0-0.378-0.307-0.684-0.685-0.684
										l-267.429,0.256c-0.378,0-0.684,0.307-0.684,0.685c0,0.378,0.307,0.684,0.685,0.684L592.273,1235.187z"/>
								</g>
							</g>
						</g>
					</g>
				</g>
			</g>
			<g>
				<g>
					<rect x="574.574" y="1213.356" style="fill:#1D1D1B;" width="108.104" height="1.501"/>
				</g>
			</g>
			<g>
				<g>
					<path style="fill:#1D1D1B;" d="M691.367,1277.342c-0.072,0.022-4.546,1.384-9.889,1.389l-106.905,0.102l0.001,1.501
						l106.905-0.102c5.58-0.005,10.114-1.39,10.305-1.449c13.24-3.555,19.388-12.081,22.208-18.606
						c3.05-7.053,2.966-13.181,2.961-13.438l-1.501,0.029c0.001,0.06,0.076,6.107-2.861,12.868
						C708.673,1268.656,701.532,1274.612,691.367,1277.342z"/>
				</g>
			</g>
		</g>
		<g>
			<g>
				<g>
					<g>
						<g>
							<g>
								<g>
									<path style="fill:#FEBAC7;" d="M324.985,1155.305l261.21,0.25c1.701,0.002,3.082-1.376,3.083-3.077
										c0.002-1.701-1.376-3.082-3.077-3.083l-261.21-0.25c-19.164-0.018-34.77,14.633-34.787,32.66
										c-0.017,18.028,15.56,32.709,34.724,32.727l261.21,0.25c1.701,0.002,3.082-1.376,3.083-3.078
										c0.002-1.701-1.376-3.082-3.077-3.083l-261.211-0.25c-15.767-0.015-28.583-11.93-28.569-26.56
										C296.379,1167.18,309.217,1155.29,324.985,1155.305z"/>
								</g>
							</g>
						</g>
					</g>
				</g>
			</g>
			<g>
				<g>
					<path style="fill:#FEBAC7;" d="M340.413,1150.965c-0.667,0-33.588,5.116-33.588,5.116l-11.567,12.786l-1.335,18.577
						l9.132,19.757l26.235,4.261h72.514h16.905l-18.542-14.141l-0.856-23.222l20.98-22.951
						C420.292,1151.147,341.08,1150.965,340.413,1150.965z"/>
				</g>
			</g>
			<g>
				<g>
					<g>
						<g>
							<g>
								<g>
									<path style="fill:#FFFFFF;" d="M422.668,1153.84l-17.858,9.313l-5.481,15.41l-0.018,18.646l19.653,12.203l22.309,2.05
										l241.774-1.797c-10.524-23.944,2.081-55.573,2.081-55.573L422.668,1153.84z"/>
								</g>
							</g>
						</g>
					</g>
				</g>
			</g>
			<g>
				<g>
					<g>
						<g>
							<g>
								<g>
									<g>
										<path style="fill:#FEBAC7;" d="M430.002,1155.305l261.211,0.25c1.701,0.002,3.082-1.376,3.083-3.077
											c0.002-1.701-1.376-3.082-3.077-3.083l-261.211-0.25c-19.164-0.018-34.77,14.633-34.787,32.66
											c-0.017,18.028,15.56,32.709,34.724,32.727l261.21,0.25c1.701,0.002,3.082-1.376,3.083-3.078
											c0.002-1.701-1.376-3.082-3.077-3.083l-261.211-0.25c-15.767-0.015-28.583-11.93-28.569-26.56
											C401.396,1167.18,414.235,1155.29,430.002,1155.305z"/>
									</g>
								</g>
							</g>
						</g>
					</g>
				</g>
			</g>
			<g>
				<g>
					<g>
						<g>
							<g>
								<g>
									<path style="fill:#AAC9F8;" d="M681.552,1182.764c0.378,0,0.685-0.306,0.685-0.684c0-0.378-0.305-0.685-0.684-0.685
										l-128.188-0.123c-0.378,0-0.685,0.305-0.685,0.684c0,0.379,0.306,0.685,0.684,0.685L681.552,1182.764z"/>
								</g>
							</g>
						</g>
					</g>
				</g>
			</g>
			<g>
				<g>
					<g>
						<g>
							<g>
								<g>
									<path style="fill:#AAC9F8;" d="M535.312,1182.624c0.378,0,0.685-0.306,0.685-0.684c0-0.378-0.306-0.685-0.684-0.685
										l-124.537-0.119c-0.378-0.001-0.685,0.305-0.685,0.684c0,0.378,0.306,0.685,0.684,0.685L535.312,1182.624z"/>
								</g>
							</g>
						</g>
					</g>
				</g>
			</g>
			<g>
				<g>
					<g>
						<g>
							<g>
								<g>
									<path style="fill:#AAC9F8;" d="M478.008,1194.833c0.378,0,0.685-0.305,0.685-0.684c0-0.378-0.305-0.685-0.684-0.685
										l-63.897-0.061c-0.378,0-0.685,0.306-0.685,0.684c0,0.379,0.306,0.685,0.684,0.685L478.008,1194.833z"/>
								</g>
							</g>
						</g>
					</g>
				</g>
			</g>
			<g>
				<g>
					<g>
						<g>
							<g>
								<g>
									<path style="fill:#AAC9F8;" d="M681.54,1195.028c0.378,0,0.685-0.306,0.685-0.684c0-0.378-0.305-0.685-0.684-0.685
										l-194.158-0.186c-0.378,0-0.685,0.305-0.685,0.684c0,0.378,0.306,0.685,0.684,0.685L681.54,1195.028z"/>
								</g>
							</g>
						</g>
					</g>
				</g>
			</g>
			<g>
				<g>
					<g>
						<g>
							<g>
								<g>
									<g>
										<path style="fill:#21111D;" d="M691.213,1154.871c-0.378-0.001-0.685,0.305-0.685,0.684c0,0.378,0.305,0.685,0.684,0.685
											c2.076,0.002,3.767-1.686,3.769-3.761c0.002-2.076-1.685-3.767-3.761-3.769l-261.21-0.25
											c-19.542-0.019-35.454,14.939-35.472,33.344c-0.018,18.405,15.866,33.394,35.408,33.412l261.21,0.25
											c2.076,0.002,3.767-1.686,3.769-3.761c0.002-2.077-1.685-3.767-3.761-3.769c-0.378,0-0.685,0.306-0.685,0.684
											c0,0.378,0.305,0.685,0.684,0.685c1.321,0.001,2.395,1.077,2.394,2.398c-0.001,1.321-1.077,2.395-2.398,2.394
											l-261.21-0.25c-18.787-0.018-34.057-14.392-34.04-32.042c0.017-17.65,15.315-31.994,34.102-31.976l261.21,0.25
											c1.321,0.001,2.395,1.077,2.394,2.398C693.61,1153.798,692.534,1154.872,691.213,1154.871z"/>
									</g>
								</g>
							</g>
						</g>
					</g>
				</g>
			</g>
			<g>
				<g>
					<g>
						<g>
							<g>
								<g>
									<path style="fill:#F75553;" d="M609.289,1194.991l6.674,10.336c4.757-15.083-3.451-35.585-3.451-35.585l-25.561-0.025
										c9.893,1.895,14.965,35.596,14.965,35.596C604.721,1200.463,609.289,1194.991,609.289,1194.991z"/>
								</g>
							</g>
						</g>
					</g>
				</g>
			</g>
			<g>
				<g>
					<g>
						<g>
							<g>
								<g>
									<path style="fill:#AAC9F8;" d="M681.564,1170.492c0.378,0,0.685-0.306,0.685-0.684c0-0.379-0.305-0.685-0.684-0.685
										l-267.43-0.256c-0.378,0-0.685,0.305-0.685,0.684c0,0.378,0.306,0.685,0.684,0.685L681.564,1170.492z"/>
								</g>
							</g>
						</g>
					</g>
				</g>
			</g>
			<g>
				<g>
					<rect x="323.729" y="1148.405" style="fill:#1D1D1B;" width="108.104" height="1.502"/>
				</g>
			</g>
			<g>
				<g>
					<path style="fill:#1D1D1B;" d="M289.453,1181.789c-0.005,0.257-0.089,6.385,2.961,13.439
						c2.821,6.525,8.969,15.05,22.208,18.605c0.19,0.059,4.724,1.443,10.305,1.449l106.905,0.102l0.001-1.501l-106.905-0.102
						c-5.344-0.005-9.818-1.368-9.889-1.389c-10.165-2.73-17.306-8.687-21.224-17.705c-2.938-6.761-2.862-12.808-2.861-12.868
						L289.453,1181.789z"/>
				</g>
			</g>
		</g>
	</g>
	<g>
		<g>
			<rect x="274.512" y="1346.451" style="fill:#FFFFFF;" width="463.374" height="107.748"/>
		</g>
		<g style="opacity:0.3;">
			<rect x="548.652" y="1346.451" style="fill:#6AA2E5;" width="189.233" height="107.748"/>
		</g>
		<g style="opacity:0.3;">
			<rect x="274.512" y="1362.475" style="fill:#6AA2E5;" width="228.692" height="2.066"/>
		</g>
		<g style="opacity:0.3;">
			<rect x="328.568" y="1381.756" style="fill:#6AA2E5;" width="120.578" height="2.066"/>
		</g>
		<g style="opacity:0.3;">
			<rect x="274.512" y="1401.038" style="fill:#6AA2E5;" width="228.692" height="2.066"/>
		</g>
		<g style="opacity:0.3;">
			<rect x="274.512" y="1420.319" style="fill:#6AA2E5;" width="131.046" height="2.066"/>
		</g>
		<g style="opacity:0.3;">
			<rect x="274.512" y="1439.6" style="fill:#6AA2E5;" width="228.692" height="2.066"/>
		</g>
	</g>
	<g>
		<polygon style="fill:#FFFFFF;" points="1742.278,1610.088 1460.4,1438.664 1163.87,1438.664 1445.748,1610.088 		"/>
	</g>
	<g>
		<path style="fill:#F9B59D;" d="M1861.129,1440.664c67.723-24.777,80.898-192.857,77.594-272.142
			c-3.304-79.286-49.903-392.152-49.903-392.152c-84.241,11.562-88.417,19.924-88.417,19.924l-18.949,399.629l-105.714-84.13
			l-61.116,242.702C1614.624,1354.493,1793.406,1465.441,1861.129,1440.664z"/>
	</g>
	<g>
		<path style="fill:#4CB7D8;" d="M1508.663,1419.756l41.54-99.95l104.06,94.15c0,0,82.59-219.38,110.67-259.03l-12.11-12.45
			c-32.42-33.32-173.26-191.91-238.74-220.19c-2.97-1.28-63.18-27.67-66.22-28.95c-138.59-58.58-284.18-36.03-345.29-19.51
			c-61.12,16.52-230.26,120.12-291.38,214.27c0,0,55.17,64.88,179.06,112.78l-90.62,218.88H1508.663z"/>
	</g>
	<g>
		<path style="fill:#F9B59D;" d="M1173.229,1459.089l61.116-85.893L985.752,1195.63c0,0-147.009-130.491-165.178-113.147
			c0,0-70.201,104.062-82.589,142.879c-12.388,38.817,52.568,88.602,105.422,112.218
			C876.283,1352.269,1173.229,1459.089,1173.229,1459.089z"/>
	</g>
	<g>
		<g>
			<g>
				<g>
					<g>
						<g>
							
								<rect x="1279.834" y="1148.723" transform="matrix(0.8967 -0.4426 0.4426 0.8967 -436.0291 706.629)" style="fill:#FEC786;" width="32.459" height="277.724"/>
						</g>
					</g>
				</g>
			</g>
			<g>
				<g>
					<g>
						<g>
							
								<rect x="1289.822" y="1148.723" transform="matrix(0.8967 -0.4426 0.4426 0.8967 -436.0294 706.6295)" style="fill:#F99247;" width="12.484" height="277.724"/>
						</g>
					</g>
				</g>
			</g>
			<g>
				<g>
					<g>
						<g>
							
								<rect x="1229.425" y="1181.368" transform="matrix(0.8967 -0.4426 0.4426 0.8967 -396.0325 673.7684)" style="fill:#4CB7D8;" width="32.459" height="8.175"/>
						</g>
					</g>
				</g>
			</g>
			<g>
				<g>
					<g>
						<g>
							<path style="fill:#FC4963;" d="M1258.399,1174.607l-8.638-17.501c-3.967-8.037-13.699-11.337-21.736-7.37h0
								c-8.037,3.967-11.337,13.699-7.37,21.736l8.638,17.501L1258.399,1174.607z"/>
						</g>
					</g>
				</g>
			</g>
			<g>
				<g>
					<g>
						<g>
							<path style="fill:#F7D6B2;" d="M1345.279,1412.68c-2.473,1.221-3.506,4.179-2.307,6.608l32.735,29.653l-3.628-44.019
								c-1.199-2.429-4.176-3.408-6.649-2.188c-2.473,1.22-3.506,4.179-2.307,6.608c-1.199-2.429-4.677-3.161-7.768-1.635
								c-3.091,1.526-4.625,4.732-3.427,7.161C1350.729,1412.439,1347.752,1411.459,1345.279,1412.68z"/>
						</g>
					</g>
				</g>
			</g>
			<g>
				<g>
					<g>
						<g>
							<path style="fill:#FEC786;" d="M1351.927,1414.867l-2.562-5.191l-8.956,4.421l2.562,5.191
								C1342.972,1419.288,1346.128,1412.99,1351.927,1414.867z"/>
						</g>
					</g>
				</g>
			</g>
			<g>
				<g>
					<g>
						<g>
							<path style="fill:#FEC786;" d="M1372.078,1404.922l-2.562-5.191l-8.956,4.42l2.562,5.191
								C1363.122,1409.342,1366.278,1403.044,1372.078,1404.922z"/>
						</g>
					</g>
				</g>
			</g>
			<g>
				<g>
					<g>
						<g>
							<path style="fill:#F99247;" d="M1363.122,1409.342l-2.792-5.658l-11.195,5.526l2.792,5.657
								C1351.927,1414.867,1354.368,1407.589,1363.122,1409.342z"/>
						</g>
					</g>
				</g>
			</g>
			<g>
				<g>
					<g>
						<g>
							<path style="fill:#FF424D;" d="M1364.834,1439.092l10.872,9.849l-1.205-14.62
								C1367.549,1433.443,1364.834,1439.092,1364.834,1439.092z"/>
						</g>
					</g>
				</g>
			</g>
		</g>
		<g>
			<g>
				<g>
					<g>
						<path d="M1355.291,1431.192l21.081,19.097l-3.743-45.413l-0.009-0.105l-122.366-247.913c-0.076-0.152-1.917-3.755-5.603-6.527
							c-3.431-2.579-9.143-4.862-16.87-1.091l0.484,0.994c5.787-2.824,11.066-2.501,15.691,0.959
							c3.491,2.612,5.292,6.128,5.308,6.159l122.271,247.721l3.505,42.52l-19.008-17.219L1355.291,1431.192z"/>
					</g>
				</g>
			</g>
		</g>
		<g>
			<g>
				<g>
					<g>
						
							<rect x="1282.796" y="1218.469" transform="matrix(0.8964 -0.4432 0.4432 0.8964 -442.489 703.1844)" width="1.105" height="159.821"/>
					</g>
				</g>
			</g>
		</g>
		<g>
			<g>
				<g>
					<g>
						
							<rect x="1246.737" y="1206.726" transform="matrix(0.0638 -0.998 0.998 0.0638 -31.9109 2380.5405)" width="12.303" height="1.106"/>
					</g>
				</g>
			</g>
		</g>
		<g>
			<g>
				<g>
					<g>
						
							<rect x="1227.399" y="1166.899" transform="matrix(0.0638 -0.998 0.998 0.0638 -12.7201 2321.3447)" width="6.99" height="1.106"/>
					</g>
				</g>
			</g>
		</g>
		<g>
			<g>
				<g>
					<g>
						
							<rect x="1223.944" y="1161.87" transform="matrix(0.0639 -0.998 0.998 0.0639 -11.0016 2313.1172)" width="6.99" height="1.106"/>
					</g>
				</g>
			</g>
		</g>
		<g>
			<g>
				<g>
					<g>
						
							<rect x="1242.083" y="1202.192" transform="matrix(0.0639 -0.998 0.998 0.0639 -31.767 2371.6252)" width="12.303" height="1.106"/>
					</g>
				</g>
			</g>
		</g>
		<g>
			<g>
				<g>
					<g>
						
							<rect x="1227.603" y="1181.211" transform="matrix(0.8975 -0.441 0.441 0.8975 -393.6665 669.6288)" width="32.459" height="1.105"/>
					</g>
				</g>
			</g>
		</g>
	</g>
	<g>
		<g>
			<g>
				<g>
					<path style="fill:#F9B59D;" d="M1403.598,1388.082c-5.936-9.669-27.939-24.424-32.38-25.651
						c-4.462-1.207-67.2-4.376-67.2-4.376s-76.826,10.435-81.061,10.047l-52.519,89.982c40.323,21.939,173.269-3.292,179.16-4.175
						c5.444-0.816,15.667,4.136,22.069,7.64c5.332,2.917,12.159,2.015,16.114-2.6c2.298-2.68,3.597-6.463,1.872-11.704
						c0,0,16.291-5.072,9.746-18.603c0,0,17.977-5.38,2.526-23.857C1401.925,1404.786,1409.535,1397.731,1403.598,1388.082z"/>
				</g>
			</g>
		</g>
		<g>
			<g>
				<g>
					<g>
						<g>
							<g>
								<path style="fill:#F07162;" d="M1369.092,1385.497c4.391,1.709,22.846,14.146,31.992,20.484
									c0.669,0.464,1.589,0.308,2.053-0.348c0.465-0.657,0.293-1.568-0.371-2.028c-1.091-0.757-26.798-18.551-32.611-20.813
									c-5.859-2.28-21.34-3.414-21.997-3.461c-0.813-0.059-1.515,0.544-1.567,1.345c-0.027,0.421,0.13,0.814,0.403,1.1
									c0.247,0.258,0.588,0.43,0.974,0.458C1348.125,1382.245,1363.653,1383.381,1369.092,1385.497z"/>
							</g>
						</g>
					</g>
				</g>
			</g>
		</g>
		<g>
			<g>
				<g>
					<g>
						<g>
							<g>
								<path style="fill:#F07162;" d="M1366.827,1413.515c7.122,2.205,31.599,16.253,31.846,16.395
									c0.706,0.406,1.607,0.172,2.013-0.521c0.406-0.695,0.159-1.584-0.545-1.992c-1.018-0.585-25.016-14.357-32.454-16.659
									c-7.458-2.308-19.771-2.941-20.292-2.966c-0.814-0.041-1.502,0.577-1.536,1.38c-0.018,0.41,0.14,0.789,0.405,1.067
									c0.255,0.267,0.61,0.44,1.008,0.46C1347.397,1410.685,1359.732,1411.319,1366.827,1413.515z"/>
							</g>
						</g>
					</g>
				</g>
			</g>
		</g>
		<g>
			<g>
				<g>
					<g>
						<g>
							<g>
								<path style="fill:#F07162;" d="M1360.586,1433.653c7.284,2.002,28.09,14.693,28.3,14.821
									c0.695,0.425,1.603,0.216,2.028-0.465c0.424-0.683,0.202-1.584-0.49-2.005c-0.87-0.531-21.379-13.04-29.069-15.154
									c-7.674-2.11-16.055-2.211-16.408-2.214c-0.815-0.007-1.476,0.637-1.476,1.442c0,0.389,0.154,0.744,0.406,1.007
									c0.268,0.281,0.647,0.458,1.068,0.462C1345.026,1431.546,1353.297,1431.649,1360.586,1433.653z"/>
							</g>
						</g>
					</g>
				</g>
			</g>
		</g>
	</g>
	<g>
		<path style="fill:#18829B;" d="M1753.886,1173.982l6.956,5.536c3.047-11.62,4.095-24.588,4.095-24.588
			C1761.832,1159.205,1753.886,1173.982,1753.886,1173.982z"/>
	</g>
	<g>
		<path style="fill:#18829B;" d="M1665.857,1383.606l-11.59,30.352c10.927-4.965,24.979-23.349,24.979-23.349L1665.857,1383.606z"/>
	</g>
	<g>
		<path style="fill:#4CB7D8;" d="M1090.808,1069.561l-161.936-71.972l-117.674,90.505c55.449,97.296,188.336,117.38,188.336,117.38
			L1090.808,1069.561z"/>
	</g>
	<g>
		<path style="fill:#1D1D1B;" d="M1766.801,1153.265c-1.449-1.623-145.622-162.759-201.875-200.423l-2.781,4.154
			c55.73,37.314,199.481,197.98,200.928,199.599L1766.801,1153.265z"/>
	</g>
	<g>
		
			<rect x="1462.225" y="1298.797" transform="matrix(0.3795 -0.9252 0.9252 0.3795 -237.8067 2247.9927)" style="fill:#1D1D1B;" width="189.786" height="4.999"/>
	</g>
	<g>
		
			<rect x="1599.736" y="1296.715" transform="matrix(0.6711 -0.7414 0.7414 0.6711 -486.3759 1637.4865)" style="fill:#1D1D1B;" width="5" height="140.334"/>
	</g>
	<g>
		<path style="fill:#1D1D1B;" d="M881.206,1014.396c40.518-38.239,106.945-91.406,193.305-127.537
			c86.2-36.064,180.231-33.31,243.932-24.647c69.143,9.401,118.49,27.599,118.981,27.781l1.746-4.685
			c-0.494-0.185-50.266-18.548-119.929-28.033c-40.925-5.572-80.636-7.043-118.025-4.375
			c-46.795,3.341-90.074,13.215-128.634,29.347c-87.106,36.443-154.071,90.054-194.908,128.609
			c-44.262,41.789-68.278,75.458-68.516,75.793l-0.848,1.197l0.631,1.323c22.617,47.453,73.177,77.228,111.609,93.849
			c41.472,17.937,78.163,24.847,78.529,24.914l1.379,0.256l136.068-151.593l-3.721-3.34l-134.182,149.49
			c-6.98-1.422-39.702-8.566-76.186-24.358c-37.245-16.121-86.089-44.782-108.338-90.034
			C818.739,1082.054,841.923,1051.471,881.206,1014.396z"/>
	</g>
	<g>
		<g>
			<g>
				<g>
					<g>
						<g>
							<g>
								<g>
									<g>
										<g>
											<g>
												<path style="fill:#F9B59D;" d="M1449.933,1009.177c25.807,3.589,50.422-12.105,58.693-36.813l22.25-66.47
													c43.995,13.752,64.473-34.257,64.473-34.257l69.807-146.428l-151.524-116.392l-81.909,158.025l-18.324,42.126
													c0,0-51.975,78.727-56.468,98.249c-4.493,19.522,4.174,66.984,51.248,89.424
													C1423.02,1003.716,1437.315,1007.421,1449.933,1009.177z"/>
											</g>
										</g>
									</g>
								</g>
							</g>
						</g>
					</g>
				</g>
			</g>
		</g>
	</g>
	<g>
		<g>
			<g>
				<g>
					<g>
						<g>
							<g>
								<g>
									<g>
										<g>
											<g>
												<path style="fill:#F07162;" d="M1530.875,905.894c0,0-69.929-17.602-76.426-85.513c0,0-34.798,80.105,60.015,134.538
													L1530.875,905.894z"/>
											</g>
										</g>
									</g>
								</g>
							</g>
						</g>
					</g>
				</g>
			</g>
		</g>
	</g>
	<g>
		<g>
			<g>
				<g>
					<g>
						<g>
							<g>
								<g>
									<g>
										<g>
											<g>
												<path d="M1523.557,741.207c1.589-0.174,39-3.943,45.107,26.525c0.236,1.18,1.379,1.942,2.558,1.705
													c1.176-0.235,1.939-1.382,1.702-2.556c-6.888-34.388-49.42-30.041-49.848-29.991c-1.192,0.133-2.051,1.207-1.918,2.399
													c0.064,0.582,0.351,1.082,0.769,1.429C1522.364,741.083,1522.946,741.275,1523.557,741.207z"/>
											</g>
										</g>
									</g>
								</g>
							</g>
						</g>
					</g>
				</g>
			</g>
		</g>
	</g>
	<g>
		<g>
			<g>
				<g>
					<g>
						<g>
							<g>
								<g>
									<g>
										<path d="M1527.956,645.125c-1.321-17.752-70.848,49.9-70.848,49.9l38.13,28.992l3.872,11.573
											C1499.111,735.59,1529.277,662.876,1527.956,645.125z"/>
									</g>
								</g>
							</g>
						</g>
					</g>
				</g>
			</g>
		</g>
	</g>
	<g>
		<g>
			<g>
				<g>
					<g>
						<g>
							<g>
								<g>
									<g>
										<g>
											<g>
												<path d="M1599.887,784.284c0.456,0.218,0.987,0.279,1.512,0.134c0.238-0.065,23.841-6.401,29.321,5.962
													c0.486,1.099,1.769,1.595,2.867,1.106c1.096-0.486,1.591-1.769,1.105-2.866c-6.993-15.782-33.332-8.7-34.449-8.392
													c-1.156,0.322-1.835,1.516-1.514,2.673C1598.902,783.533,1599.338,784.023,1599.887,784.284z"/>
											</g>
										</g>
									</g>
								</g>
							</g>
						</g>
					</g>
				</g>
			</g>
		</g>
	</g>
	<g>
		<g>
			<g>
				<g>
					<g>
						<g>
							<g>
								<g>
									<g>
										<g>
											<g>
												<path d="M1552.568,776.663c1.55-3.248,0.17-7.139-3.079-8.689c-3.249-1.549-7.139-0.171-8.688,3.08
													c-1.55,3.25-0.171,7.141,3.08,8.688C1547.129,781.292,1551.019,779.914,1552.568,776.663z"/>
											</g>
										</g>
									</g>
								</g>
							</g>
						</g>
					</g>
				</g>
			</g>
		</g>
	</g>
	<g>
		<g>
			<g>
				<g>
					<g>
						<g>
							<g>
								<g>
									<g>
										<g>
											<g>
												<path d="M1616.128,798.597c1.549-3.248,0.171-7.139-3.079-8.689c-3.25-1.55-7.14-0.171-8.689,3.079
													c-1.549,3.25-0.171,7.141,3.08,8.688C1610.688,803.226,1614.579,801.847,1616.128,798.597z"/>
											</g>
										</g>
									</g>
								</g>
							</g>
						</g>
					</g>
				</g>
			</g>
		</g>
	</g>
	<g>
		<g>
			<g>
				<g>
					<g>
						<g>
							<g>
								<g>
									<g>
										<g>
											<g>
												<path style="fill:#F9B59D;" d="M1503.153,749.453c9.294-19.498,1.025-42.839-18.473-52.136
													c-19.5-9.295-42.84-1.023-52.136,18.474c-9.296,19.498-1.025,42.84,18.475,52.136
													C1470.516,777.223,1493.858,768.952,1503.153,749.453z"/>
											</g>
										</g>
									</g>
								</g>
							</g>
						</g>
					</g>
				</g>
			</g>
		</g>
	</g>
	<g>
		<g>
			<g>
				<g>
					<g>
						<g>
							<g>
								<g>
									<g>
										<g>
											<g>
												<path style="fill:#F07162;" d="M1456.997,718.177c-6.857,0.762-12.062,6.05-13.261,13.476
													c-1.013,6.278,1.258,14.125,8.591,17.621c0.069,0.032,0.14,0.064,0.208,0.097c0.546,0.25,1.192,0.01,1.441-0.534
													c0.249-0.541,0.016-1.18-0.518-1.434c-0.07-0.038-0.136-0.063-0.204-0.094c-6.741-3.215-8.191-10.238-7.373-15.312
													c0.788-4.884,4.235-10.872,11.354-11.663c12.857-1.425,17.361,10.741,17.546,11.262l1.314,3.673l0.775-3.821
													c1.379-6.815,0.414-12.589-2.877-17.156c-5.697-7.914-16.229-9.302-16.675-9.358c-0.595-0.071-1.135,0.351-1.21,0.944
													c-0.074,0.598,0.348,1.142,0.943,1.214c0.101,0.013,10.059,1.336,15.189,8.481c2.37,3.302,3.37,7.357,2.983,12.09
													C1472.734,723.543,1467.13,717.049,1456.997,718.177z"/>
											</g>
										</g>
									</g>
								</g>
							</g>
						</g>
					</g>
				</g>
			</g>
		</g>
	</g>
	<g>
		<g>
			<g>
				<g>
					<g>
						<g>
							<g>
								<g>
									<g>
										<g>
											<g>
												<path style="fill:#F07162;" d="M1552.944,824.347l24.545,3.098l16.399-50.944c0.183-0.571-0.119-1.194-0.702-1.367
													c-0.571-0.186-1.184,0.129-1.367,0.7l-15.846,49.228l-22.759-2.872c-0.593-0.075-1.138,0.347-1.212,0.943
													c-0.061,0.476,0.198,0.919,0.61,1.116C1552.714,824.298,1552.826,824.333,1552.944,824.347z"/>
											</g>
										</g>
									</g>
								</g>
							</g>
						</g>
					</g>
				</g>
			</g>
		</g>
	</g>
	<g>
		<g>
			<g>
				<g>
					<g>
						<g>
							<g>
								<g>
									<g>
										<path d="M1695.198,621.959c-8.535-19.793-150.711-32.541-183.973-16.951c-33.264,15.59-54.117,90.017-54.117,90.017
											c48.874-29.488,95.755-21.87,95.755-21.87c52.631,49.8,165.683,81.232,175.207,32.985
											c9.523-48.248-46.395-55.813-46.395-55.813S1703.732,641.75,1695.198,621.959z"/>
									</g>
								</g>
							</g>
						</g>
					</g>
				</g>
			</g>
		</g>
	</g>
	<g>
		<path style="fill:#F07162;" d="M1518.429,856.575c12.044,1.864,19.424-0.987,25.168,4.791c0.253,0.261,0.523,0.506,0.767,0.725
			c5.389,4.69,9.733,0.869,13.596-6.562c0,0,1.156-3.146,0.759-6.983c-0.11-1.046-0.329-2.134-0.725-3.23
			c-0.691-1.914-1.898-3.829-3.896-5.491c-3.728-3.07-11.192-4.251-18.623-3.989c-0.683,0.025-1.366,0.059-2.049,0.118
			c-6.587,0.447-12.862,2.016-16.185,4.361c-6.503,4.588-9.961,12.238-2.53,15.274
			C1515.739,856.018,1516.97,856.347,1518.429,856.575z"/>
	</g>
	<g>
		<path style="fill:#FFFFFF;" d="M1558.719,848.546c-0.11-1.046-0.329-2.134-0.725-3.23c-0.691-1.914-1.898-3.829-3.896-5.491
			c-3.728-3.07-11.192-4.251-18.623-3.989c-0.683,0.025-1.366,0.059-2.049,0.118c-0.16,1.864-0.068,3.289-0.068,3.289
			c14.102,6.359,22.536,10.652,22.536,10.652C1556.948,849.651,1557.91,849.136,1558.719,848.546z"/>
	</g>
	<g>
		<g>
			<path style="fill:#F9B59D;" d="M1650.296,675.247c0.363,3.7,2.617,6.947,5.809,8.853c5.897,3.52,18.866,11.21,32.632,19.061
				l-0.011-0.005c0,0,14.789,7.159,38.547,37.767c22.046,28.402,52.03,49.56,86.216,60.419l24.024,66.923
				c0,0,57.603-48.93,52.047-86.902c-5.556-37.971-70.374-88.911-70.374-88.911s-70.355-56.477-81.384-60.785
				c-27.192-10.624-31.138,1.68-31.138,1.68c-35.285-3.5-18.019,16.476-18.019,16.476c-31.339-5.906-18.72,16.046-18.72,16.046
				C1652.779,664.427,1649.801,670.193,1650.296,675.247z"/>
		</g>
		<g>
			<g>
				<g>
					<g>
						<g>
							<g>
								<g>
									<g>
										<g>
											<g>
												<g>
													<g>
														<g>
															<path style="fill:#F07162;" d="M1700.445,680.21c0.805,0.459,1.831,0.177,2.289-0.628
																c0.37-0.649,0.258-1.44-0.219-1.963c-0.116-0.126-0.252-0.237-0.41-0.326c-11.609-6.605-30.857-12.765-31.67-13.026
																c-0.884-0.281-1.828,0.207-2.11,1.092c-0.279,0.884,0.21,1.828,1.092,2.11
																C1669.612,667.53,1689.144,673.781,1700.445,680.21z"/>
														</g>
													</g>
												</g>
											</g>
										</g>
									</g>
								</g>
							</g>
						</g>
					</g>
				</g>
			</g>
			<g>
				<g>
					<g>
						<g>
							<g>
								<g>
									<g>
										<g>
											<g>
												<g>
													<g>
														<g>
															<path style="fill:#F07162;" d="M1715.961,665.74c0.741,0.557,1.794,0.411,2.352-0.329
																c0.496-0.657,0.435-1.558-0.101-2.144c-0.068-0.074-0.145-0.144-0.228-0.209
																c-13.115-9.89-28.206-14.643-28.842-14.841c-0.885-0.275-1.825,0.22-2.101,1.106
																c-0.274,0.882,0.216,1.823,1.106,2.101C1688.297,651.473,1703.33,656.214,1715.961,665.74z"/>
														</g>
													</g>
												</g>
											</g>
										</g>
									</g>
								</g>
							</g>
						</g>
					</g>
				</g>
			</g>
			<g>
				<g>
					<g>
						<g>
							<g>
								<g>
									<g>
										<g>
											<g>
												<g>
													<g>
														<g>
															<path style="fill:#F07162;" d="M1731.384,646.649c0.757,0.537,1.805,0.358,2.342-0.396
																c0.466-0.657,0.393-1.533-0.13-2.104c-0.079-0.087-0.167-0.167-0.268-0.237
																c-11.634-8.258-25.642-12.032-26.232-12.188c-0.897-0.238-1.817,0.297-2.054,1.192
																c-0.238,0.897,0.294,1.819,1.191,2.054C1706.374,635.006,1720.242,638.74,1731.384,646.649z"/>
														</g>
													</g>
												</g>
											</g>
										</g>
									</g>
								</g>
							</g>
						</g>
					</g>
				</g>
			</g>
		</g>
	</g>
	<g>
		
			<rect x="1790.303" y="1193.757" transform="matrix(0.9448 -0.3276 0.3276 0.9448 -304.9197 655.921)" style="fill:#F07162;" width="8" height="78.401"/>
	</g>
	<g>
		<g>
			<path style="fill:#1D1D1B;" d="M1455.628,1599.525c6.98-9.432,12.635-7.215,18.103-5.074c5.845,2.29,11.369,4.452,16.896-8.53
				c2.96-0.526,6.954,1.396,10.824,3.259c4.712,2.268,9.586,4.612,13.327,3.069c1.969-0.811,3.413-2.579,4.387-5.344
				c1.518-2.955,3.378-4.723,5.686-5.404c4.737-1.403,10.741,2.054,16.548,5.393c6.128,3.522,11.917,6.854,16.547,5.021
				c2.639-1.043,4.573-3.65,5.909-7.972c5.644-6.97,14.324-1.429,22.718,3.931c6.897,4.405,13.413,8.562,18.561,6.435
				c3.224-1.333,5.483-5.008,6.9-11.23c5.795-2.703,11.452-0.227,17.434,2.394c5.884,2.577,11.968,5.243,18.04,2.314l0.207-0.1
				l0.059-0.222c1.329-4.986,2.884-7.771,4.753-8.516c2.054-0.817,4.616,0.762,7.584,2.592c3.721,2.293,8.356,5.149,13.871,4.314
				c0.273-0.041,0.461-0.296,0.419-0.569c-0.041-0.272-0.297-0.457-0.569-0.419c-5.158,0.779-9.428-1.853-13.196-4.177
				c-3.198-1.972-5.959-3.676-8.479-2.67c-2.183,0.869-3.866,3.72-5.289,8.963c-5.588,2.573-11.133,0.143-16.999-2.427
				c-5.999-2.627-12.203-5.346-18.49-2.273l-0.216,0.105l-0.052,0.235c-1.338,6.025-3.418,9.545-6.359,10.761
				c-4.666,1.935-10.97-2.093-17.641-6.353c-8.797-5.615-17.893-11.425-24.097-3.638l-0.087,0.165
				c-1.243,4.066-2.992,6.495-5.349,7.427c-4.181,1.65-9.767-1.559-15.681-4.959c-5.99-3.443-12.184-7.003-17.33-5.484
				c-2.584,0.763-4.642,2.695-6.318,5.968c-0.901,2.543-2.161,4.118-3.852,4.815c-3.329,1.367-7.997-0.875-12.512-3.047
				c-4.323-2.08-8.405-4.046-11.727-3.282l-0.25,0.057l-0.099,0.236c-5.184,12.352-10.064,10.441-15.713,8.23
				c-5.548-2.172-11.837-4.633-19.271,5.409c-0.165,0.223-0.118,0.535,0.104,0.7c0.089,0.065,0.193,0.098,0.297,0.098
				C1455.379,1599.727,1455.53,1599.657,1455.628,1599.525z"/>
		</g>
	</g>
	<g>
		<g>
			<path style="fill:#1D1D1B;" d="M1585.355,1549.73c2.303-1.808,6.349-0.773,10.263,0.227c3.524,0.901,7.169,1.834,9.864,0.819
				c0.258-0.097,0.389-0.386,0.292-0.644c-0.097-0.259-0.386-0.393-0.644-0.292c-2.4,0.904-5.89,0.011-9.264-0.853
				c-4.148-1.061-8.438-2.157-11.128-0.046c-1.736,1.361-2.596,3.879-2.622,7.688c-3.921,0.297-7.513-1.34-10.696-2.791
				c-3.415-1.558-6.639-3.028-9.651-1.852c-2.371,0.927-4.311,3.328-6.101,7.552c-4.532,3.63-11.512-0.816-14.254-2.853
				c-8.547-8.96-14.575-4.206-20.405,0.387c-5.696,4.49-11.077,8.733-19.181,2.118c-5.156-3.62-9.018-4.998-12.151-4.321
				c-3.569,0.766-5.518,4.051-7.582,7.529c-2.534,4.271-5.154,8.686-11.049,8.936c-22.946-8.768-29.681-2.735-35.093,2.115
				c-5.042,4.517-9.025,8.088-24.234-0.913c-0.236-0.14-0.544-0.061-0.685,0.176c-0.141,0.238-0.062,0.545,0.176,0.686
				c7.062,4.179,11.856,5.704,15.457,5.704c4.475,0,7.107-2.358,9.953-4.908c5.489-4.918,11.71-10.491,34.164-1.889l0.095,0.036
				l0.101-0.003c6.513-0.225,9.415-5.115,11.976-9.431c1.949-3.284,3.79-6.387,6.931-7.062c2.807-0.601,6.522,0.759,11.338,4.141
				c8.696,7.098,14.916,2.196,20.403-2.129c5.73-4.518,11.142-8.783,19.125-0.428c3.014,2.25,10.572,7.024,15.647,2.801l0.094-0.078
				l0.047-0.113c1.668-3.974,3.497-6.304,5.592-7.122c2.617-1.025,5.516,0.299,8.872,1.83c3.422,1.56,7.301,3.32,11.668,2.832
				l0.448-0.052l-0.004-0.45C1583.079,1553.345,1583.812,1550.941,1585.355,1549.73z"/>
		</g>
	</g>
	<g>
		<g>
			<path style="fill:#1D1D1B;" d="M1574.388,1526.979c-2.408,1.765-8.111-0.446-14.148-2.787
				c-7.426-2.879-15.842-6.146-21.287-3.363c-2.32,1.184-3.941,3.403-4.82,6.599c-6.473,3.958-14.297,1.443-21.864-0.99
				c-6.964-2.239-13.543-4.354-18.722-1.38c-3.598,2.065-6.096,6.407-7.634,13.269c-5.669,4.523-12.778,2.518-20.301,0.396
				c-10.157-2.865-20.659-5.828-26.747,9.077c-5.151,3.829-13.482,1.556-21.542-0.642c-7.292-1.988-14.179-3.868-18.423-1.145
				c-1.995,1.279-3.218,3.432-3.74,6.579c-0.045,0.272,0.139,0.53,0.412,0.575c0.027,0.005,0.055,0.007,0.082,0.007
				c0.24,0,0.452-0.174,0.493-0.418c0.473-2.854,1.55-4.783,3.294-5.901c3.871-2.482,10.549-0.66,17.62,1.268
				c8.352,2.276,16.987,4.633,22.521,0.39l0.108-0.083l0.051-0.126c5.746-14.221,15.39-11.498,25.601-8.619
				c7.496,2.114,15.247,4.302,21.34-0.691l0.134-0.109l0.037-0.17c1.471-6.67,3.824-10.854,7.193-12.788
				c4.795-2.755,11.17-0.705,17.919,1.465c7.851,2.525,15.969,5.135,22.869,0.781l0.167-0.106l0.05-0.19
				c0.803-3.055,2.229-5.068,4.36-6.156c5.044-2.578,13.239,0.6,20.471,3.404c6.573,2.55,12.251,4.748,15.101,2.663
				c1.325-0.971,1.888-2.736,1.719-5.395c-0.017-0.277-0.262-0.488-0.531-0.468c-0.275,0.017-0.485,0.255-0.467,0.53
				C1575.845,1524.747,1575.416,1526.227,1574.388,1526.979z"/>
		</g>
	</g>
	<g>
		<g>
			<path style="fill:#1D1D1B;" d="M1372.894,1531.41c10.709-9.852,15.112-8.149,20.209-6.182
				c6.989,2.698,14.905,5.758,39.429-16.577c2.79,0.492,5.708,1.294,8.533,2.069c10.595,2.91,21.549,5.917,28.621-6.218
				c4.642-4.674,9.044-2.554,13.704-0.313c4.218,2.031,8.58,4.129,13.011,0.766l0.098-0.099c3.678-4.906,8.779-4.324,14.181-3.705
				c4.851,0.555,9.864,1.129,13.41-2.867c0.183-0.207,0.165-0.522-0.042-0.706c-0.207-0.182-0.523-0.166-0.706,0.042
				c-3.201,3.608-7.741,3.089-12.548,2.538c-5.424-0.619-11.032-1.263-15.052,4.041c-3.926,2.938-7.809,1.067-11.918-0.91
				c-4.787-2.303-9.735-4.685-14.895,0.556l-0.076,0.099c-6.685,11.534-16.807,8.754-27.523,5.812
				c-2.929-0.805-5.958-1.637-8.869-2.133l-0.241-0.041l-0.18,0.165c-24.208,22.098-31.84,19.148-38.576,16.548
				c-5.183-2.001-10.079-3.893-21.246,6.378c-0.203,0.188-0.217,0.504-0.03,0.707c0.099,0.106,0.233,0.161,0.368,0.161
				C1372.677,1531.542,1372.798,1531.498,1372.894,1531.41z"/>
		</g>
	</g>
	<g>
		<g>
			<path style="fill:#1D1D1B;" d="M1350.332,1521.6c0.272,0,0.495-0.218,0.5-0.49c0.114-5.957,1.429-9.905,4.019-12.069
				c3.773-3.152,9.759-2.19,16.096-1.174c8.712,1.399,17.72,2.846,21.299-6.807c6.751-5.926,12.016-4.35,17.106-2.824
				c6.391,1.912,12.428,3.719,19.892-9.541c5.11-1.288,10.409,0.398,15.535,2.029c5.643,1.796,11.478,3.651,16.917,1.388
				l0.122-0.052l0.081-0.104c5.802-7.519,13.131-7.553,20.89-7.589c4.258-0.021,8.662-0.041,12.764-1.414
				c0.262-0.088,0.403-0.371,0.315-0.634c-0.087-0.262-0.37-0.402-0.633-0.316c-3.95,1.323-8.271,1.344-12.451,1.363
				c-7.623,0.035-15.504,0.072-21.594,7.871c-5.065,2.046-10.43,0.339-16.108-1.467c-5.332-1.697-10.846-3.452-16.3-1.99
				l-0.204,0.055l-0.103,0.186c-7.121,12.764-12.55,11.14-18.837,9.257c-5.126-1.533-10.938-3.274-18.15,3.117l-0.095,0.084
				l-0.043,0.119c-3.267,9.009-11.514,7.685-20.245,6.281c-6.279-1.007-12.772-2.05-16.895,1.394
				c-2.825,2.361-4.257,6.554-4.377,12.817c-0.005,0.276,0.214,0.504,0.49,0.51C1350.326,1521.6,1350.329,1521.6,1350.332,1521.6z"
				/>
		</g>
	</g>
	<g>
		<g>
			<path style="fill:#1D1D1B;" d="M1323.696,1494.284c12.293-14.357,24.598-12.739,36.496-11.169
				c12.604,1.661,25.634,3.378,38.352-13.754c4.039,0.263,7.776,1.474,11.392,2.645c8.246,2.673,16.035,5.195,25.153-4.379
				c4.081-3.418,9.005-2.104,13.765-0.833c5.604,1.495,10.898,2.909,13.304-4.314c1.343-1.875,3.983-2.741,6.174-2.018
				c0.262,0.088,0.545-0.056,0.631-0.317c0.087-0.263-0.056-0.545-0.318-0.632c-2.615-0.865-5.776,0.19-7.349,2.454l-0.064,0.129
				c-2.1,6.407-6.521,5.227-12.12,3.732c-4.776-1.276-10.189-2.721-14.707,1.071c-8.724,9.157-15.878,6.838-24.162,4.155
				c-3.757-1.217-7.642-2.476-11.914-2.708l-0.27-0.015l-0.16,0.218c-12.419,16.888-24.641,15.278-37.577,13.574
				c-12.164-1.605-24.741-3.26-37.387,11.51c-0.18,0.21-0.155,0.525,0.055,0.705c0.094,0.081,0.21,0.12,0.325,0.12
				C1323.457,1494.459,1323.597,1494.399,1323.696,1494.284z"/>
		</g>
	</g>
	<g>
		<g>
			<g>
				<g>
					<g>
						<g>
							<g>
								<g>
									<path style="fill:#FC4963;" d="M2266.062,1482.721l-261.211,0.329c-1.701,0.002-3.079,1.818-3.077,4.056
										c0.002,2.238,1.382,4.05,3.083,4.048l261.21-0.329c19.164-0.024,34.741-19.336,34.724-43.049
										c-0.017-23.712-15.623-42.984-34.787-42.96l-261.211,0.329c-1.701,0.002-3.079,1.818-3.077,4.056s1.382,4.05,3.083,4.048
										l261.21-0.329c15.767-0.02,28.606,15.62,28.62,34.864C2294.645,1467.028,2281.829,1482.701,2266.062,1482.721z"/>
								</g>
							</g>
						</g>
					</g>
				</g>
			</g>
			<g>
				<g>
					<path style="fill:#FC4963;" d="M2172.286,1486.787h16.905h72.514l26.235-5.604l9.132-25.988l-1.334-24.436l-11.567-16.819
						c0,0-32.92-6.729-33.588-6.729s-79.879,0.24-79.879,0.24l20.98,30.189l-0.856,30.547L2172.286,1486.787z"/>
				</g>
			</g>
			<g>
				<g>
					<g>
						<g>
							<g>
								<g>
									<path style="fill:#FFFFFF;" d="M2149.722,1486.787l22.309-2.696l19.653-16.052l-0.018-24.526l-5.481-20.27l-17.858-12.25
										l-262.461,0.331c0,0,12.606,41.605,2.081,73.1L2149.722,1486.787z"/>
								</g>
							</g>
						</g>
					</g>
				</g>
			</g>
			<g>
				<g>
					<g>
						<g>
							<g>
								<g>
									<g>
										<path style="fill:#FC4963;" d="M2161.044,1482.721l-261.21,0.329c-1.701,0.002-3.079,1.818-3.077,4.056
											c0.001,2.238,1.382,4.05,3.083,4.048l261.21-0.329c19.164-0.024,34.741-19.336,34.724-43.049
											c-0.017-23.712-15.623-42.984-34.787-42.96l-261.211,0.329c-1.701,0.002-3.079,1.818-3.077,4.056
											c0.002,2.238,1.382,4.05,3.083,4.048l261.21-0.329c15.767-0.02,28.606,15.62,28.62,34.864
											C2189.627,1467.028,2176.811,1482.701,2161.044,1482.721z"/>
									</g>
								</g>
							</g>
						</g>
					</g>
				</g>
			</g>
			<g>
				<g>
					<g>
						<g>
							<g>
								<g>
									<path style="fill:#AAC9F8;" d="M2037.631,1448.876c0.378,0,0.684-0.403,0.684-0.901c0-0.498-0.307-0.9-0.685-0.9
										l-128.188,0.162c-0.378,0-0.684,0.403-0.684,0.901c0,0.498,0.307,0.9,0.685,0.9L2037.631,1448.876z"/>
								</g>
							</g>
						</g>
					</g>
				</g>
			</g>
			<g>
				<g>
					<g>
						<g>
							<g>
								<g>
									<path style="fill:#AAC9F8;" d="M2180.22,1448.697c0.378,0,0.684-0.403,0.684-0.901c0-0.498-0.307-0.9-0.685-0.899
										l-124.537,0.157c-0.378,0-0.684,0.404-0.684,0.901c0,0.498,0.307,0.9,0.685,0.9L2180.22,1448.697z"/>
								</g>
							</g>
						</g>
					</g>
				</g>
			</g>
			<g>
				<g>
					<g>
						<g>
							<g>
								<g>
									<path style="fill:#AAC9F8;" d="M2176.885,1464.833c0.378,0,0.684-0.403,0.684-0.901c0-0.498-0.307-0.9-0.685-0.899
										l-63.897,0.08c-0.378,0.001-0.684,0.404-0.684,0.901c0,0.498,0.307,0.9,0.685,0.899L2176.885,1464.833z"/>
								</g>
							</g>
						</g>
					</g>
				</g>
			</g>
			<g>
				<g>
					<g>
						<g>
							<g>
								<g>
									<path style="fill:#AAC9F8;" d="M2103.614,1464.926c0.378-0.001,0.684-0.404,0.684-0.901s-0.307-0.9-0.685-0.9
										l-194.158,0.245c-0.378,0-0.684,0.404-0.684,0.901c0,0.498,0.307,0.9,0.685,0.9L2103.614,1464.926z"/>
								</g>
							</g>
						</g>
					</g>
				</g>
			</g>
			<g>
				<g>
					<g>
						<g>
							<g>
								<g>
									<g>
										<path style="fill:#21111D;" d="M1899.834,1483.95c0.379,0,0.684-0.404,0.684-0.901c0-0.498-0.307-0.9-0.685-0.9
											c-2.077,0.003-3.763,2.226-3.762,4.957c0.002,2.73,1.692,4.95,3.769,4.948l261.21-0.329
											c19.542-0.025,35.426-19.741,35.408-43.95c-0.018-24.209-15.93-43.885-35.472-43.86l-261.211,0.329
											c-2.076,0.003-3.763,2.226-3.761,4.957c0.002,2.73,1.692,4.95,3.769,4.948c0.378,0,0.684-0.404,0.684-0.901
											c0-0.498-0.307-0.9-0.685-0.9c-1.321,0.002-2.397-1.411-2.398-3.148c-0.001-1.738,1.073-3.153,2.394-3.155l261.21-0.329
											c18.787-0.024,34.085,18.845,34.102,42.061c0.017,23.216-15.253,42.124-34.04,42.148l-261.21,0.329
											c-1.321,0.002-2.397-1.411-2.398-3.149S1898.513,1483.952,1899.834,1483.95z"/>
									</g>
								</g>
							</g>
						</g>
					</g>
				</g>
			</g>
			<g>
				<g>
					<g>
						<g>
							<g>
								<g>
									<path style="fill:#4CB7D8;" d="M1989.078,1478.699c0,0,5.072-44.33,14.966-46.823l-25.561,0.032
										c0,0-8.208,26.968-3.451,46.808l6.674-13.596C1981.706,1465.121,1986.275,1472.319,1989.078,1478.699z"/>
								</g>
							</g>
						</g>
					</g>
				</g>
			</g>
			<g>
				<g>
					<g>
						<g>
							<g>
								<g>
									<path style="fill:#AAC9F8;" d="M2176.861,1432.559c0.378,0,0.684-0.404,0.684-0.901c0-0.498-0.307-0.9-0.685-0.9
										l-267.43,0.337c-0.378,0-0.684,0.403-0.684,0.901c0,0.498,0.307,0.9,0.685,0.899L2176.861,1432.559z"/>
								</g>
							</g>
						</g>
					</g>
				</g>
			</g>
			<g>
				<g>
					<rect x="2159.162" y="1403.843" style="fill:#1D1D1B;" width="108.104" height="1.975"/>
				</g>
			</g>
			<g>
				<g>
					<path style="fill:#1D1D1B;" d="M2275.956,1488.01c-0.072,0.028-4.545,1.821-9.889,1.827l-106.905,0.134l0.001,1.975
						l106.905-0.135c5.58-0.007,10.114-1.828,10.304-1.906c13.24-4.677,19.387-15.891,22.208-24.473
						c3.05-9.277,2.966-17.338,2.961-17.677l-1.501,0.038c0.001,0.079,0.076,8.032-2.861,16.926
						C2293.262,1476.584,2286.121,1484.419,2275.956,1488.01z"/>
				</g>
			</g>
		</g>
		<g>
			<g>
				<g>
					<g>
						<g>
							<g>
								<g>
									<path style="fill:#4CB7D8;" d="M1918.251,1327.484l261.21,0.329c1.701,0.002,3.082-1.81,3.083-4.048
										c0.002-2.238-1.376-4.054-3.077-4.056l-261.211-0.329c-19.164-0.024-34.77,19.248-34.787,42.96
										c-0.017,23.713,15.56,43.025,34.724,43.049l261.21,0.329c1.701,0.002,3.082-1.81,3.083-4.048
										c0.002-2.238-1.376-4.054-3.077-4.056l-261.21-0.329c-15.767-0.02-28.583-15.693-28.569-34.937
										C1889.645,1343.104,1902.483,1327.464,1918.251,1327.484z"/>
								</g>
							</g>
						</g>
					</g>
				</g>
			</g>
			<g>
				<g>
					<path style="fill:#4CB7D8;" d="M1933.678,1321.775c-0.667,0-33.588,6.729-33.588,6.729l-11.567,16.819l-1.335,24.436
						l9.132,25.988l26.235,5.604h72.514h16.905l-18.542-18.601l-0.856-30.547l20.98-30.189
						C2013.558,1322.015,1934.346,1321.775,1933.678,1321.775z"/>
				</g>
			</g>
			<g>
				<g>
					<g>
						<g>
							<g>
								<g>
									<path style="fill:#FFFFFF;" d="M2015.934,1325.557l-17.858,12.25l-5.481,20.27l-0.018,24.526l19.653,16.052l22.309,2.696
										l241.774-2.363c-10.524-31.496,2.081-73.1,2.081-73.1L2015.934,1325.557z"/>
								</g>
							</g>
						</g>
					</g>
				</g>
			</g>
			<g>
				<g>
					<g>
						<g>
							<g>
								<g>
									<g>
										<path style="fill:#4CB7D8;" d="M2023.268,1327.484l261.21,0.329c1.701,0.002,3.082-1.81,3.083-4.048
											c0.002-2.238-1.376-4.054-3.077-4.056l-261.211-0.329c-19.164-0.024-34.769,19.248-34.787,42.96
											c-0.017,23.713,15.56,43.025,34.724,43.049l261.21,0.329c1.701,0.002,3.082-1.81,3.083-4.048
											c0.002-2.238-1.376-4.054-3.077-4.056l-261.21-0.329c-15.767-0.02-28.583-15.693-28.569-34.937
											C1994.662,1343.104,2007.501,1327.464,2023.268,1327.484z"/>
									</g>
								</g>
							</g>
						</g>
					</g>
				</g>
			</g>
			<g>
				<g>
					<g>
						<g>
							<g>
								<g>
									<path style="fill:#AAC9F8;" d="M2274.818,1363.602c0.378,0.001,0.685-0.402,0.685-0.9c0-0.498-0.305-0.901-0.684-0.901
										l-128.188-0.162c-0.378,0-0.685,0.402-0.685,0.9c0,0.498,0.306,0.901,0.684,0.901L2274.818,1363.602z"/>
								</g>
							</g>
						</g>
					</g>
				</g>
			</g>
			<g>
				<g>
					<g>
						<g>
							<g>
								<g>
									<path style="fill:#AAC9F8;" d="M2128.578,1363.418c0.378,0,0.685-0.402,0.685-0.9c0-0.498-0.306-0.901-0.684-0.901
										l-124.537-0.157c-0.378,0-0.685,0.402-0.685,0.9c0,0.498,0.306,0.901,0.684,0.901L2128.578,1363.418z"/>
								</g>
							</g>
						</g>
					</g>
				</g>
			</g>
			<g>
				<g>
					<g>
						<g>
							<g>
								<g>
									<path style="fill:#AAC9F8;" d="M2071.273,1379.479c0.378,0,0.685-0.402,0.685-0.9c0-0.498-0.305-0.901-0.684-0.901
										l-63.897-0.08c-0.378,0-0.685,0.402-0.685,0.9c0,0.498,0.306,0.901,0.684,0.901L2071.273,1379.479z"/>
								</g>
							</g>
						</g>
					</g>
				</g>
			</g>
			<g>
				<g>
					<g>
						<g>
							<g>
								<g>
									<path style="fill:#AAC9F8;" d="M2274.806,1379.735c0.378,0,0.685-0.402,0.685-0.9c0-0.498-0.305-0.901-0.684-0.901
										l-194.158-0.245c-0.378-0.001-0.685,0.402-0.685,0.899c0,0.498,0.305,0.901,0.684,0.902L2274.806,1379.735z"/>
								</g>
							</g>
						</g>
					</g>
				</g>
			</g>
			<g>
				<g>
					<g>
						<g>
							<g>
								<g>
									<g>
										<path style="fill:#21111D;" d="M2284.479,1326.913c-0.378,0-0.685,0.402-0.685,0.9c0,0.498,0.306,0.901,0.684,0.901
											c2.076,0.003,3.767-2.218,3.769-4.948c0.002-2.731-1.685-4.954-3.761-4.957l-261.21-0.329
											c-19.542-0.025-35.454,19.651-35.472,43.86c-0.018,24.209,15.866,43.926,35.408,43.95l261.21,0.329
											c2.076,0.003,3.767-2.218,3.769-4.948c0.002-2.731-1.685-4.955-3.761-4.957c-0.378,0-0.685,0.402-0.685,0.9
											c0,0.498,0.305,0.901,0.684,0.901c1.321,0.002,2.395,1.417,2.394,3.155c-0.001,1.738-1.077,3.15-2.398,3.148
											l-261.21-0.329c-18.787-0.024-34.057-18.931-34.04-42.148c0.017-23.216,15.315-42.084,34.102-42.061l261.211,0.329
											c1.321,0.002,2.395,1.417,2.394,3.155S2285.8,1326.914,2284.479,1326.913z"/>
									</g>
								</g>
							</g>
						</g>
					</g>
				</g>
			</g>
			<g>
				<g>
					<g>
						<g>
							<g>
								<g>
									<path style="fill:#FEC786;" d="M2202.555,1379.686l6.674,13.596c4.757-19.84-3.451-46.808-3.451-46.808l-25.561-0.032
										c9.893,2.493,14.966,46.823,14.966,46.823C2197.986,1386.884,2202.555,1379.686,2202.555,1379.686z"/>
								</g>
							</g>
						</g>
					</g>
				</g>
			</g>
			<g>
				<g>
					<g>
						<g>
							<g>
								<g>
									<path style="fill:#AAC9F8;" d="M2274.83,1347.46c0.378,0,0.685-0.402,0.685-0.899c0-0.498-0.305-0.901-0.684-0.901
										l-267.43-0.337c-0.379-0.001-0.685,0.402-0.685,0.9c0,0.498,0.306,0.901,0.684,0.901L2274.83,1347.46z"/>
								</g>
							</g>
						</g>
					</g>
				</g>
			</g>
			<g>
				<g>
					<rect x="1916.995" y="1318.408" style="fill:#1D1D1B;" width="108.104" height="1.975"/>
				</g>
			</g>
			<g>
				<g>
					<path style="fill:#1D1D1B;" d="M1882.719,1362.321c-0.005,0.339-0.089,8.4,2.961,17.677
						c2.821,8.582,8.969,19.797,22.208,24.473c0.19,0.078,4.724,1.899,10.305,1.906l106.905,0.134l0.001-1.975l-106.905-0.135
						c-5.344-0.007-9.818-1.799-9.889-1.828c-10.165-3.591-17.305-11.426-21.224-23.289c-2.938-8.894-2.863-16.847-2.861-16.926
						L1882.719,1362.321z"/>
				</g>
			</g>
		</g>
		<g>
			<g>
				<g>
					<g>
						<g>
							<g>
								<g>
									<path style="fill:#7FC6A6;" d="M1918.251,1155.827l261.21,0.329c1.701,0.002,3.082-1.81,3.083-4.048
										c0.002-2.238-1.376-4.054-3.077-4.056l-261.211-0.329c-19.164-0.024-34.77,19.248-34.787,42.96
										c-0.017,23.713,15.56,43.025,34.724,43.049l261.21,0.329c1.701,0.002,3.082-1.81,3.083-4.048
										c0.002-2.238-1.376-4.054-3.077-4.056l-261.21-0.329c-15.767-0.02-28.583-15.693-28.569-34.937
										C1889.645,1171.447,1902.483,1155.807,1918.251,1155.827z"/>
								</g>
							</g>
						</g>
					</g>
				</g>
			</g>
			<g>
				<g>
					<path style="fill:#7FC6A6;" d="M1933.678,1150.118c-0.667,0-33.588,6.729-33.588,6.729l-11.567,16.819l-1.335,24.436
						l9.132,25.988l26.235,5.604h72.514h16.905l-18.542-18.601l-0.856-30.547l20.98-30.189
						C2013.558,1150.358,1934.346,1150.118,1933.678,1150.118z"/>
				</g>
			</g>
			<g>
				<g>
					<g>
						<g>
							<g>
								<g>
									<path style="fill:#FFFFFF;" d="M2015.934,1153.9l-17.858,12.25l-5.481,20.27l-0.018,24.526l19.653,16.052l22.309,2.696
										l241.774-2.363c-10.524-31.496,2.081-73.1,2.081-73.1L2015.934,1153.9z"/>
								</g>
							</g>
						</g>
					</g>
				</g>
			</g>
			<g>
				<g>
					<g>
						<g>
							<g>
								<g>
									<g>
										<path style="fill:#7FC6A6;" d="M2023.268,1155.827l261.21,0.329c1.701,0.002,3.082-1.81,3.083-4.048
											c0.002-2.238-1.376-4.054-3.077-4.056l-261.211-0.329c-19.164-0.024-34.769,19.248-34.787,42.96
											c-0.017,23.713,15.56,43.025,34.724,43.049l261.21,0.329c1.701,0.002,3.082-1.81,3.083-4.048
											c0.002-2.238-1.376-4.054-3.077-4.056l-261.21-0.329c-15.767-0.02-28.583-15.693-28.569-34.937
											C1994.662,1171.447,2007.501,1155.807,2023.268,1155.827z"/>
									</g>
								</g>
							</g>
						</g>
					</g>
				</g>
			</g>
			<g>
				<g>
					<g>
						<g>
							<g>
								<g>
									<path style="fill:#AAC9F8;" d="M2274.818,1191.946c0.378,0,0.685-0.402,0.685-0.9c0-0.498-0.305-0.901-0.684-0.901
										l-128.188-0.161c-0.378-0.001-0.685,0.402-0.685,0.9c0,0.498,0.306,0.901,0.684,0.901L2274.818,1191.946z"/>
								</g>
							</g>
						</g>
					</g>
				</g>
			</g>
			<g>
				<g>
					<g>
						<g>
							<g>
								<g>
									<path style="fill:#AAC9F8;" d="M2128.578,1191.761c0.378,0,0.685-0.402,0.685-0.9c0-0.498-0.306-0.901-0.684-0.901
										l-124.537-0.157c-0.378-0.001-0.685,0.402-0.685,0.9c0,0.498,0.306,0.901,0.684,0.901L2128.578,1191.761z"/>
								</g>
							</g>
						</g>
					</g>
				</g>
			</g>
			<g>
				<g>
					<g>
						<g>
							<g>
								<g>
									<path style="fill:#AAC9F8;" d="M2071.273,1207.822c0.378,0,0.685-0.402,0.685-0.9s-0.305-0.901-0.684-0.901l-63.897-0.08
										c-0.378,0-0.685,0.402-0.685,0.899c0,0.498,0.306,0.901,0.684,0.901L2071.273,1207.822z"/>
								</g>
							</g>
						</g>
					</g>
				</g>
			</g>
			<g>
				<g>
					<g>
						<g>
							<g>
								<g>
									<path style="fill:#AAC9F8;" d="M2274.806,1208.078c0.378,0,0.685-0.402,0.685-0.9c0-0.498-0.305-0.901-0.684-0.901
										l-194.158-0.245c-0.378,0-0.685,0.402-0.685,0.9c0,0.498,0.305,0.901,0.684,0.901L2274.806,1208.078z"/>
								</g>
							</g>
						</g>
					</g>
				</g>
			</g>
			<g>
				<g>
					<g>
						<g>
							<g>
								<g>
									<g>
										<path style="fill:#21111D;" d="M2284.479,1155.256c-0.378-0.001-0.685,0.402-0.685,0.9c0,0.497,0.306,0.901,0.684,0.901
											c2.076,0.003,3.767-2.217,3.769-4.948c0.002-2.731-1.685-4.955-3.761-4.957l-261.21-0.329
											c-19.542-0.025-35.454,19.651-35.472,43.86c-0.018,24.209,15.866,43.926,35.408,43.95l261.21,0.329
											c2.076,0.003,3.767-2.218,3.769-4.948c0.002-2.731-1.685-4.955-3.761-4.957c-0.378,0-0.685,0.402-0.685,0.9
											c0,0.498,0.305,0.901,0.684,0.901c1.321,0.002,2.395,1.417,2.394,3.155c-0.001,1.738-1.077,3.15-2.398,3.148
											l-261.21-0.329c-18.787-0.024-34.057-18.931-34.04-42.148c0.017-23.216,15.315-42.084,34.102-42.061l261.211,0.329
											c1.321,0.002,2.395,1.417,2.394,3.155S2285.8,1155.257,2284.479,1155.256z"/>
									</g>
								</g>
							</g>
						</g>
					</g>
				</g>
			</g>
			<g>
				<g>
					<g>
						<g>
							<g>
								<g>
									<path style="fill:#FEC786;" d="M2202.555,1208.029l6.674,13.596c4.757-19.84-3.451-46.808-3.451-46.808l-25.561-0.032
										c9.893,2.493,14.966,46.823,14.966,46.823C2197.986,1215.226,2202.555,1208.029,2202.555,1208.029z"/>
								</g>
							</g>
						</g>
					</g>
				</g>
			</g>
			<g>
				<g>
					<g>
						<g>
							<g>
								<g>
									<path style="fill:#AAC9F8;" d="M2274.83,1175.803c0.378,0.001,0.685-0.402,0.685-0.899c0-0.498-0.305-0.901-0.684-0.902
										l-267.43-0.337c-0.379,0-0.685,0.402-0.685,0.9c0,0.497,0.306,0.901,0.684,0.901L2274.83,1175.803z"/>
								</g>
							</g>
						</g>
					</g>
				</g>
			</g>
			<g>
				<g>
					<rect x="1916.995" y="1146.751" style="fill:#1D1D1B;" width="108.104" height="1.975"/>
				</g>
			</g>
			<g>
				<g>
					<path style="fill:#1D1D1B;" d="M1882.719,1190.664c-0.005,0.339-0.089,8.399,2.961,17.677
						c2.821,8.583,8.969,19.797,22.208,24.474c0.19,0.078,4.724,1.899,10.305,1.905l106.905,0.135l0.001-1.975l-106.905-0.135
						c-5.344-0.007-9.818-1.799-9.889-1.827c-10.165-3.591-17.305-11.427-21.224-23.289c-2.938-8.894-2.863-16.847-2.861-16.926
						L1882.719,1190.664z"/>
				</g>
			</g>
		</g>
		<g>
			<g>
				<g>
					<g>
						<g>
							<g>
								<g>
									<path style="fill:#FFB357;" d="M2274.739,1311.85l-261.21,0.329c-1.701,0.002-3.079,1.818-3.077,4.056
										c0.001,2.238,1.382,4.05,3.083,4.048l261.21-0.329c19.164-0.024,34.741-19.336,34.724-43.049
										c-0.017-23.712-15.623-42.984-34.787-42.96l-261.211,0.329c-1.701,0.002-3.079,1.818-3.078,4.056
										c0.002,2.238,1.382,4.05,3.083,4.048l261.21-0.329c15.767-0.02,28.606,15.62,28.62,34.864
										C2303.322,1296.157,2290.506,1311.83,2274.739,1311.85z"/>
								</g>
							</g>
						</g>
					</g>
				</g>
			</g>
			<g>
				<g>
					<path style="fill:#FFB357;" d="M2180.963,1315.916h16.905h72.514l26.235-5.604l9.132-25.988l-1.334-24.436l-11.567-16.819
						c0,0-32.92-6.729-33.588-6.729c-0.667,0-79.879,0.24-79.879,0.24l20.98,30.189l-0.856,30.547L2180.963,1315.916z"/>
				</g>
			</g>
			<g>
				<g>
					<g>
						<g>
							<g>
								<g>
									<path style="fill:#FFFFFF;" d="M2158.399,1315.916l22.309-2.696l19.653-16.052l-0.018-24.526l-5.481-20.27l-17.858-12.25
										l-262.461,0.33c0,0,12.606,41.605,2.081,73.101L2158.399,1315.916z"/>
								</g>
							</g>
						</g>
					</g>
				</g>
			</g>
			<g>
				<g>
					<g>
						<g>
							<g>
								<g>
									<g>
										<path style="fill:#FFB357;" d="M2169.721,1311.85l-261.21,0.329c-1.701,0.002-3.079,1.818-3.077,4.056
											c0.002,2.238,1.382,4.05,3.083,4.048l261.21-0.329c19.164-0.024,34.741-19.336,34.724-43.049
											c-0.017-23.712-15.623-42.984-34.787-42.96l-261.21,0.329c-1.701,0.002-3.079,1.818-3.077,4.056
											c0.001,2.238,1.382,4.05,3.083,4.048l261.21-0.329c15.767-0.02,28.606,15.62,28.62,34.864
											C2198.304,1296.157,2185.489,1311.83,2169.721,1311.85z"/>
									</g>
								</g>
							</g>
						</g>
					</g>
				</g>
			</g>
			<g>
				<g>
					<g>
						<g>
							<g>
								<g>
									<path style="fill:#AAC9F8;" d="M2046.308,1278.005c0.378,0,0.684-0.403,0.684-0.901c0-0.498-0.307-0.9-0.685-0.9
										l-128.188,0.161c-0.378,0-0.684,0.403-0.684,0.901c0,0.498,0.307,0.9,0.685,0.899L2046.308,1278.005z"/>
								</g>
							</g>
						</g>
					</g>
				</g>
			</g>
			<g>
				<g>
					<g>
						<g>
							<g>
								<g>
									<path style="fill:#AAC9F8;" d="M2188.897,1277.826c0.378,0,0.684-0.403,0.684-0.901c0-0.498-0.307-0.9-0.685-0.9
										l-124.537,0.157c-0.378,0-0.684,0.404-0.684,0.901c0,0.498,0.307,0.9,0.685,0.899L2188.897,1277.826z"/>
								</g>
							</g>
						</g>
					</g>
				</g>
			</g>
			<g>
				<g>
					<g>
						<g>
							<g>
								<g>
									<path style="fill:#AAC9F8;" d="M2185.562,1293.962c0.378,0,0.684-0.403,0.684-0.901c0-0.498-0.307-0.9-0.685-0.9
										l-63.897,0.08c-0.378,0.001-0.684,0.404-0.684,0.901c0,0.498,0.307,0.9,0.685,0.9L2185.562,1293.962z"/>
								</g>
							</g>
						</g>
					</g>
				</g>
			</g>
			<g>
				<g>
					<g>
						<g>
							<g>
								<g>
									<path style="fill:#AAC9F8;" d="M2112.291,1294.055c0.378,0,0.684-0.404,0.684-0.901c0-0.498-0.307-0.9-0.685-0.899
										l-194.158,0.245c-0.378,0-0.684,0.404-0.684,0.901c0,0.498,0.307,0.9,0.685,0.9L2112.291,1294.055z"/>
								</g>
							</g>
						</g>
					</g>
				</g>
			</g>
			<g>
				<g>
					<g>
						<g>
							<g>
								<g>
									<g>
										<path style="fill:#21111D;" d="M1908.512,1313.079c0.378,0,0.684-0.404,0.684-0.901c0-0.498-0.307-0.9-0.685-0.9
											c-2.076,0.003-3.764,2.226-3.761,4.957c0.002,2.73,1.692,4.95,3.768,4.948l261.211-0.329
											c19.542-0.025,35.426-19.741,35.408-43.95c-0.018-24.209-15.93-43.885-35.472-43.86l-261.211,0.329
											c-2.077,0.003-3.763,2.226-3.761,4.957c0.002,2.73,1.692,4.95,3.769,4.948c0.378-0.001,0.684-0.404,0.684-0.901
											c0-0.498-0.307-0.9-0.685-0.9c-1.321,0.002-2.397-1.411-2.398-3.148c-0.001-1.738,1.073-3.153,2.394-3.155l261.211-0.329
											c18.787-0.024,34.085,18.845,34.102,42.061c0.017,23.216-15.253,42.124-34.04,42.148l-261.21,0.329
											c-1.321,0.002-2.397-1.411-2.398-3.148S1907.191,1313.081,1908.512,1313.079z"/>
									</g>
								</g>
							</g>
						</g>
					</g>
				</g>
			</g>
			<g>
				<g>
					<g>
						<g>
							<g>
								<g>
									<path style="fill:#F75553;" d="M1997.756,1307.828c0,0,5.072-44.33,14.966-46.823l-25.561,0.032
										c0,0-8.208,26.968-3.451,46.808l6.674-13.596C1990.384,1294.25,1994.952,1301.448,1997.756,1307.828z"/>
								</g>
							</g>
						</g>
					</g>
				</g>
			</g>
			<g>
				<g>
					<g>
						<g>
							<g>
								<g>
									<path style="fill:#AAC9F8;" d="M2185.539,1261.688c0.378,0,0.684-0.404,0.684-0.901c0-0.498-0.307-0.9-0.685-0.9
										l-267.43,0.337c-0.378,0.001-0.684,0.403-0.684,0.901c0,0.498,0.307,0.9,0.685,0.9L2185.539,1261.688z"/>
								</g>
							</g>
						</g>
					</g>
				</g>
			</g>
			<g>
				<g>
					<rect x="2167.84" y="1232.972" style="fill:#1D1D1B;" width="108.104" height="1.975"/>
				</g>
			</g>
			<g>
				<g>
					<path style="fill:#1D1D1B;" d="M2284.633,1317.139c-0.072,0.028-4.545,1.821-9.889,1.827l-106.905,0.135l0.001,1.975
						l106.905-0.135c5.58-0.007,10.114-1.828,10.304-1.906c13.24-4.677,19.387-15.891,22.208-24.474
						c3.05-9.277,2.966-17.338,2.961-17.677l-1.501,0.038c0.001,0.079,0.076,8.032-2.861,16.926
						C2301.939,1305.713,2294.798,1313.548,2284.633,1317.139z"/>
				</g>
			</g>
		</g>
	</g>
	<g>
		<g>
			<g>
				<g>
					<path style="fill:#FFFAF3;" d="M1963.756,1552.332c-2.469-6.981-6.87-4.92-11.022-4.419
						c-4.167,0.497-10.855-5.739-13.307-8.783c-2.447-3.06-7.54-1.173-16.074-0.053c-8.534,1.119-13.891-5.292-19.709-5.431
						c-5.802-0.135-15.649,9.029-15.649,9.029c-6.273,8.257-9.255,8.455-13.458,12.364c-1.263,1.182-2.646,2.676-4.248,4.851
						c-6.977,9.379-0.386,17.282-1.967,29.645c-1.581,12.363,14.847,15.788,25.339,14.846c10.492-0.942,16.676-0.159,23.463,2.073
						c6.768,2.243,11.97,9.336,21.387,12.293c9.417,2.957,9.086-4.438,12.422-9.919c3.336-5.48,8.832,1.562,17.466-3.922
						c7.396-4.69,5.307-14.182,0.75-23.795c-0.769-1.626-1.604-3.255-2.477-4.861
						C1960.486,1564.854,1966.229,1559.297,1963.756,1552.332z"/>
				</g>
			</g>
		</g>
		<g style="opacity:0.2;">
			<g>
				<g>
					<path style="fill:#45AFC9;" d="M1874.538,1555.039c-1.263,1.182-2.646,2.676-4.248,4.851
						c-6.977,9.379-0.386,17.282-1.967,29.645c-1.581,12.363,14.847,15.788,25.339,14.846c10.492-0.942,16.676-0.159,23.463,2.073
						c6.768,2.243,11.97,9.336,21.387,12.293c9.417,2.957,9.086-4.438,12.422-9.919c3.336-5.48,8.832,1.562,17.466-3.922
						c7.396-4.69,5.307-14.182,0.75-23.795c-5.587,0.813-9.442-2.388-12.002,1.826c-3.336,5.479-2.994,12.894-12.422,9.918
						c-9.418-2.957-14.62-10.05-21.392-12.278c-6.768-2.243-12.952-3.026-23.444-2.084c-10.511,0.953-26.92-2.483-25.339-14.846
						C1874.954,1560.516,1874.829,1557.685,1874.538,1555.039z"/>
				</g>
			</g>
		</g>
		<g style="opacity:0.2;">
			<g>
				<g>
					<path style="fill:#45AFC9;" d="M1915.009,1550.974c2.009,0.948,4.16,1.739,5.774,3.285c1.211,1.156,2.395,2.831,4.068,2.667
						c0.494-0.061,0.965-0.277,1.42-0.497c1.62-0.804,3.322-1.667,4.317-3.187c0.556-0.883,0.838-1.907,1.101-2.921
						c0.494-1.854,0.97-3.697,1.464-5.552c0.313-1.197,0.627-2.394,1.238-3.475c0.743-1.325,1.873-2.379,2.767-3.597
						c-2.867-0.757-7.35,0.525-13.803,1.379c-7.083,0.927-11.967-3.315-16.751-4.88c0.409,1.561,1.713,2.858,2.246,4.386
						c0.931,2.592,0.062,5.627,1.194,8.143C1910.968,1548.742,1913,1550.026,1915.009,1550.974z"/>
				</g>
			</g>
		</g>
		<g style="opacity:0.2;">
			<g>
				<g>
					<path style="fill:#45AFC9;" d="M1944.914,1552.651c0.103,0.999,0.717,1.875,1.488,2.483c0.781,0.626,1.711,1.014,2.638,1.352
						c0.149,0.058,0.302,0.1,0.429,0.053c0.132-0.062,0.19-0.211,0.259-0.34c0.347-0.842,0.709-1.68,1.072-2.518
						c0.151-0.37,0.365-0.787,0.752-0.878c0.244-0.048,0.488,0.019,0.713,0.098c1.008,0.343,2,0.682,3.007,1.026
						c0.703-0.76,0.689-2.081,1.564-2.629c1.078-0.69,2.515,0.364,3.772,0.102c0.68-0.142,1.22-0.667,1.622-1.231
						c0.103-0.136,0.192-0.276,0.279-0.417c-2.552-3.813-6.252-2.266-9.775-1.838c-2.126,0.253-4.907-1.237-7.45-3.172
						c-0.151,1.324,0.499,2.967,0.351,4.16C1945.482,1550.175,1944.772,1551.378,1944.914,1552.651z"/>
				</g>
			</g>
		</g>
		<g style="opacity:0.2;">
			<g>
				<g>
					<path style="fill:#45AFC9;" d="M1930.543,1573.217c0.361,0.473,1.267,2.11,1.805,2.258c1.307,1.562,2.807,3.135,4.782,3.634
						c1.562,0.394,3.207,0.058,4.77-0.329c1.492-0.369,2.972-0.785,4.438-1.245c1.359-0.427,2.802-0.964,3.598-2.146
						c0.345-0.513,0.539-1.111,0.726-1.7c0.38-1.201,0.746-2.405,1.099-3.614c0.151-0.516,0.3-1.057,0.19-1.583
						c-0.223-1.067-1.372-1.625-2.385-2.028c-0.888-0.354-1.832-0.714-2.775-0.559c-2.12,0.35-3.323,3.115-5.471,3.173
						c-1.191,0.032-2.223-0.819-2.977-1.742c-0.754-0.923-1.38-1.985-2.355-2.671c-0.686-0.483-1.508-0.748-2.34-0.86
						c-2.169-0.291-4.457,0.483-6.003,2.031c-0.35,0.351-0.677,0.747-1.126,0.957c-0.423,0.197-0.942,0.221-1.273,0.549
						c-0.438,0.433-0.312,1.212,0.102,1.668c0.946,1.042,2.56,0.876,3.522,1.936
						C1929.491,1571.632,1929.981,1572.48,1930.543,1573.217z"/>
				</g>
			</g>
		</g>
		<g style="opacity:0.2;">
			<g>
				<g>
					<path style="fill:#45AFC9;" d="M1903.028,1542.869c0.469-2.059,0.393-4.35-0.765-6.117c-0.46-0.719-1.085-1.318-1.737-1.876
						c-0.173-0.147-0.351-0.278-0.544-0.414c-5.528,2.211-11.986,8.213-11.986,8.213c-4.306,5.657-7.059,7.53-9.717,9.414
						c1.215,0.548,1.959,0.77,2.661,2.164c1.377,2.765,3.61,5.107,6.317,6.627c1.298,0.72,2.725,1.277,3.784,2.326
						c0.79,0.777,1.32,1.779,2.105,2.571c1.06,1.049,2.531,1.618,4.015,1.847c1.464,0.239,2.982,0.163,4.469,0.08
						c0.32-0.027,0.656-0.05,0.906-0.244c0.192-0.161,0.29-0.397,0.389-0.633c0.596-1.448,1.215-3.038,0.743-4.55
						c-0.261-0.845-0.84-1.548-1.331-2.275c-1.473-2.117-2.361-4.566-3.242-6.98c-0.259-0.729-0.541-1.498-0.507-2.278
						c0.096-2.079,2.205-3.406,3.343-5.149C1902.471,1544.772,1902.813,1543.83,1903.028,1542.869z"/>
				</g>
			</g>
		</g>
	</g>
	<g>
		<g>
			<g>
				<g>
					<polygon style="fill:#FFB357;" points="1660.952,452.649 1630.017,469.778 1628.595,388.645 1604.477,503.482 
						1635.098,490.413 1641.238,556.297 					"/>
				</g>
			</g>
		</g>
	</g>
	<g>
		<g>
			<g>
				<g>
					<polygon style="fill:#FFB357;" points="1776.591,543.506 1749.252,535.787 1794.322,488.686 1715.618,540.577 
						1740.482,550.436 1706.729,591.503 					"/>
				</g>
			</g>
		</g>
	</g>
	<g>
		<g>
			<g>
				<g>
					<polygon style="fill:#FFB357;" points="1532.839,561.918 1501.72,483.077 1488.07,507.99 1452.267,453.512 1485.201,541.842 
						1500.381,519.82 					"/>
				</g>
			</g>
		</g>
	</g>
	<g style="opacity:0.8;">
		<path style="fill:#FFFFFF;" d="M284.567,800.634c39.892,219.831,190.677,288.235,190.677,288.235
			c74.082-27.142,163.486-92.318,163.486-92.318c-169.566-125.86-158.159-215.286-158.159-215.286
			C403.818,829.303,284.567,800.634,284.567,800.634z"/>
	</g>
	<g style="opacity:0.8;">
		<path style="fill:#FFFFFF;" d="M2140.303,1129.048c0,0,108.518-78.009,105.295-258.318c0,0-89.848,41.567-158.201,15.695
			c0,0,23.183,68.974-91.105,195.432C1996.292,1081.857,2077.372,1119.291,2140.303,1129.048z"/>
	</g>
	<g>
		<g>
			<g>
				<g>
					<g>
						<polygon style="fill:#EAB096;" points="245.922,1473.277 342.566,1473.277 345.842,1428.93 352.606,1337.398 
							356.813,1280.471 231.675,1280.471 235.882,1337.398 242.645,1428.93 						"/>
					</g>
				</g>
			</g>
			<g>
				<g>
					<g>
						<path style="fill:#F7DACD;" d="M309.293,1274.027h-29.849h-45.927v0.007c-2.433,0.078-4.383,2.038-4.383,4.45
							c0,2.412,1.95,4.372,4.383,4.45v0.007h45.927h29.849h45.927v-0.007c2.433-0.078,4.383-2.038,4.383-4.45
							c0-2.412-1.95-4.372-4.383-4.45v-0.007H309.293z"/>
					</g>
				</g>
			</g>
			<g>
				<g>
					<g>
						<path d="M233.546,1274.925l0.176-0.007h75.572v-1.781h-75.776l-0.891,0.008v0.095c-2.517,0.475-4.383,2.635-4.383,5.246
							s1.866,4.771,4.383,5.246v0.102h112.691v-1.781H233.77l-0.225-0.007c-1.974-0.063-3.521-1.627-3.521-3.56
							C230.025,1276.551,231.572,1274.988,233.546,1274.925z"/>
					</g>
				</g>
			</g>
			<g>
				<g>
					<g>
						<polygon style="fill:#49597D;" points="352.606,1337.398 235.882,1337.398 242.645,1428.93 345.842,1428.93 						"/>
					</g>
				</g>
			</g>
			<g>
				<g>
					<g>
						<polygon points="342.564,1474.168 342.564,1472.387 246.749,1472.387 232.564,1282.875 230.788,1283.009 245.035,1473.344 
							245.097,1474.168 						"/>
					</g>
				</g>
			</g>
			<g>
				<g>
					<g>
						
							<rect x="294.682" y="1392.099" transform="matrix(0.0737 -0.9973 0.9973 0.0737 -1066.3866 1637.8866)" width="107.629" height="1.781"/>
					</g>
				</g>
			</g>
			<g>
				<g>
					<g>
						<g>
							<path d="M301.955,1418.755c1.079-0.234,2.124-0.552,3.134-0.945c-3.36-10.018-9.33-20.32-14.647-29.494
								c-1.231-2.125-2.394-4.131-3.509-6.105c-5.47-9.681-6.957-21.803-6.925-32.267c-10.633,6.476-16.098,22.279-12.498,38.894
								C271.783,1408.556,287.204,1421.951,301.955,1418.755z"/>
						</g>
					</g>
				</g>
				<g>
					<g>
						<g>
							<path d="M313.18,1412.306c7.418-7.773,10.765-21.122,7.749-35.042c-3.978-18.358-17.619-31.232-31.386-30.343
								c-0.339,9.847,0.61,21.753,5.629,30.635c1.09,1.929,2.24,3.913,3.458,6.015
								C303.731,1392.373,309.443,1402.231,313.18,1412.306z"/>
						</g>
					</g>
				</g>
			</g>
		</g>
		<g>
			<g>
				<polygon style="fill:#49597D;" points="370.558,1283.833 370.558,1270.535 361.029,1270.535 349.029,1242.833 336.904,1242.833 
					251.834,1242.833 239.709,1242.833 227.709,1270.535 218.18,1270.535 218.18,1283.833 230.939,1283.833 357.799,1283.833 				
					"/>
			</g>
		</g>
		<g>
			<g>
				<polygon points="370.558,1271.426 370.558,1269.645 217.29,1269.645 217.29,1284.723 370.558,1284.723 370.558,1282.942 
					219.071,1282.942 219.071,1271.426 				"/>
			</g>
		</g>
		<g>
			<g>
				<polygon points="349.029,1243.724 349.029,1241.943 239.124,1241.943 226.892,1270.181 228.526,1270.889 240.294,1243.724 				
					"/>
			</g>
		</g>
		<g>
			<g>
				
					<rect x="345.572" y="1249.4" transform="matrix(0.7509 -0.6604 0.6604 0.7509 -742.6745 541.4383)" width="1.781" height="11.805"/>
			</g>
		</g>
		<g>
			<g>
				
					<rect x="339.183" y="1252.16" transform="matrix(0.751 -0.6603 0.6603 0.751 -746.0586 537.8626)" width="1.781" height="11.805"/>
			</g>
		</g>
	</g>
	<g>
		<g>
			<g>
				<g>
					<g>
						<polygon style="fill:#EAB096;" points="1998.991,1145.012 2095.635,1145.012 2098.911,1100.665 2105.675,1009.133 
							2109.881,952.206 1984.744,952.206 1988.95,1009.133 1995.714,1100.665 						"/>
					</g>
				</g>
			</g>
			<g>
				<g>
					<g>
						<path style="fill:#F7DACD;" d="M2062.362,945.762h-29.849h-45.927v0.007c-2.433,0.078-4.383,2.038-4.383,4.45
							c0,2.412,1.95,4.372,4.383,4.45v0.007h45.927h29.849h45.927v-0.007c2.433-0.078,4.383-2.038,4.383-4.45
							c0-2.412-1.95-4.372-4.383-4.45v-0.007H2062.362z"/>
					</g>
				</g>
			</g>
			<g>
				<g>
					<g>
						<path d="M1986.614,946.66l0.176-0.007h75.572v-1.781h-75.776l-0.891,0.008v0.094c-2.517,0.475-4.383,2.635-4.383,5.246
							s1.866,4.771,4.383,5.246v0.102h112.691v-1.781h-111.547l-0.225-0.007c-1.974-0.063-3.521-1.627-3.521-3.56
							C1983.093,948.286,1984.64,946.723,1986.614,946.66z"/>
					</g>
				</g>
			</g>
			<g>
				<g>
					<g>
						<polygon style="fill:#49597D;" points="2105.675,1009.133 1988.95,1009.133 1995.714,1100.665 2098.911,1100.665 						"/>
					</g>
				</g>
			</g>
			<g>
				<g>
					<g>
						<polygon points="2095.633,1145.903 2095.633,1144.122 1999.818,1144.122 1985.633,954.61 1983.857,954.743 1998.104,1145.079 
							1998.165,1145.903 						"/>
					</g>
				</g>
			</g>
			<g>
				<g>
					<g>
						
							<rect x="2047.75" y="1063.834" transform="matrix(0.0737 -0.9973 0.9973 0.0737 884.8679 3082.1143)" width="107.63" height="1.781"/>
					</g>
				</g>
			</g>
			<g>
				<g>
					<g>
						<g>
							<path d="M2055.024,1090.49c1.079-0.234,2.124-0.552,3.134-0.945c-3.36-10.018-9.33-20.32-14.647-29.495
								c-1.231-2.125-2.394-4.131-3.509-6.105c-5.47-9.681-6.957-21.803-6.925-32.266c-10.633,6.476-16.098,22.279-12.498,38.893
								C2024.851,1080.291,2040.273,1093.686,2055.024,1090.49z"/>
						</g>
					</g>
				</g>
				<g>
					<g>
						<g>
							<path d="M2066.248,1084.041c7.418-7.773,10.765-21.122,7.749-35.042c-3.978-18.358-17.619-31.232-31.386-30.343
								c-0.339,9.847,0.61,21.753,5.629,30.635c1.09,1.929,2.24,3.913,3.458,6.015
								C2056.8,1064.108,2062.512,1073.966,2066.248,1084.041z"/>
						</g>
					</g>
				</g>
			</g>
		</g>
		<g>
			<g>
				<polygon style="fill:#49597D;" points="2123.626,955.567 2123.626,942.27 2114.098,942.27 2102.098,914.568 2089.972,914.568 
					2004.903,914.568 1992.777,914.568 1980.777,942.27 1971.249,942.27 1971.249,955.567 1984.007,955.567 2110.868,955.567 				
					"/>
			</g>
		</g>
		<g>
			<g>
				<polygon points="2123.626,943.161 2123.626,941.38 1970.358,941.38 1970.358,956.458 2123.626,956.458 2123.626,954.677 
					1972.139,954.677 1972.139,943.161 				"/>
			</g>
		</g>
		<g>
			<g>
				<polygon points="2102.098,915.458 2102.098,913.678 1992.193,913.678 1979.96,941.916 1981.594,942.624 1993.362,915.458 				
					"/>
			</g>
		</g>
		<g>
			<g>
				
					<rect x="2098.64" y="921.135" transform="matrix(0.751 -0.6603 0.6603 0.751 -89.344 1617.1505)" width="1.781" height="11.805"/>
			</g>
		</g>
		<g>
			<g>
				
					<rect x="2092.252" y="923.895" transform="matrix(0.751 -0.6603 0.6603 0.751 -92.7211 1613.7339)" width="1.781" height="11.805"/>
			</g>
		</g>
	</g>
	<g>
		<path style="fill:#662108;" d="M738.154,1632.999c36.595-17.778,132.294-16.889,145.627-38.169
			c13.333-21.28-75.746-24.017-113.778-18.699c-38.032,5.318-63.669,5.217-75.556-10.006c-11.886-15.222-97.596,1.96-97.596,1.96
			s41.672-6.395-105.724,16.914S701.559,1650.777,738.154,1632.999z"/>
	</g>
	<g>
		<g>
			<g>
				<g>
					<path style="fill:#FFFAF3;" d="M940.418,1569.774c-3.444,14.786-3.484,28.656,8.251,32.958
						c13.702,5.034,19.234-6.451,25.546,0.182c6.313,6.633,8.09,17.047,20.328,10.072c12.239-6.975,17.346-18.442,26.106-23.62
						c8.791-5.169,17.178-8.133,32.095-9.996c14.918-1.863,36.792-11.614,30.844-28.377c-5.948-16.763,0.85-29.78-11.719-40.748
						c-2.893-2.547-5.274-4.212-7.394-5.478c-7.045-4.179-11.264-3.551-22.513-13.168c0,0-16.507-9.799-24.558-7.854
						c-8.072,1.955-13.602,12.519-25.842,13.542c-12.241,1.022-19.915-0.067-22.401,4.941c-2.497,4.988-9.937,15.71-15.899,16.278
						c-5.942,0.558-12.704-0.983-14.033,9.5c-1.34,10.463,8.352,16.474,3.172,34.24
						C941.669,1564.749,940.998,1567.273,940.418,1569.774z"/>
				</g>
			</g>
		</g>
		<g style="opacity:0.2;">
			<g>
				<g>
					<path style="fill:#45AFC9;" d="M1036.218,1545.152c-14.918,1.864-23.305,4.828-32.065,10.005
						c-8.77,5.158-13.877,16.624-26.116,23.6c-12.248,7.006-14.016-3.439-20.328-10.071c-4.846-5.102-9.253,0.53-17.291,1.088
						c-3.444,14.786-3.484,28.656,8.251,32.958c13.702,5.034,19.234-6.451,25.546,0.182c6.313,6.633,8.09,17.047,20.328,10.072
						c12.239-6.975,17.346-18.442,26.106-23.62c8.791-5.169,17.178-8.133,32.095-9.996c14.918-1.863,36.792-11.614,30.844-28.377
						c-5.948-16.763,0.85-29.78-11.719-40.748c-2.893-2.547-5.274-4.212-7.394-5.478c0.396,3.779,1.079,7.765,2.588,12.008
						C1073.01,1533.538,1051.166,1543.298,1036.218,1545.152z"/>
				</g>
			</g>
		</g>
		<g style="opacity:0.2;">
			<g>
				<g>
					<path style="fill:#45AFC9;" d="M1013.446,1485.408c-6.198,3.631-11.726,11.026-21.884,11.877
						c-9.259,0.762-15.899,0.332-19.668,2.257c1.617,1.427,3.511,2.556,4.949,4.178c1.18,1.323,1.979,2.898,2.779,4.472
						c1.251,2.436,2.472,4.863,3.723,7.299c0.673,1.334,1.377,2.677,2.42,3.741c1.847,1.818,4.482,2.506,6.985,3.137
						c0.702,0.169,1.424,0.327,2.131,0.263c2.384-0.278,3.527-2.972,4.866-4.952c1.782-2.646,4.543-4.4,7.058-6.33
						c2.514-1.931,4.959-4.336,5.639-7.427c0.818-3.852-1.313-7.821-0.8-11.719
						C1011.922,1489.913,1013.348,1487.709,1013.446,1485.408z"/>
				</g>
			</g>
		</g>
		<g style="opacity:0.2;">
			<g>
				<g>
					<path style="fill:#45AFC9;" d="M948.566,1524.466c1.386,0.5,1.766,2.346,2.977,3.193c1.301-0.784,2.582-1.558,3.884-2.341
						c0.29-0.178,0.61-0.346,0.965-0.353c0.567,0.01,0.992,0.528,1.315,0.997c0.76,1.059,1.518,2.118,2.258,3.187
						c0.135,0.159,0.26,0.349,0.464,0.396c0.192,0.027,0.393-0.078,0.583-0.204c1.19-0.751,2.37-1.574,3.269-2.684
						c0.891-1.08,1.481-2.488,1.323-3.913c-0.187-1.818-1.541-3.281-2.141-5.011c-0.568-1.619-0.159-4.107-0.77-5.908
						c-2.961,3.468-6.388,6.388-9.43,6.679c-5.043,0.47-10.671-0.566-13.076,5.524c0.164,0.169,0.33,0.338,0.515,0.496
						c0.732,0.664,1.643,1.234,2.635,1.226C945.168,1525.736,946.853,1523.831,948.566,1524.466z"/>
				</g>
			</g>
		</g>
		<g style="opacity:0.2;">
			<g>
				<g>
					<path style="fill:#45AFC9;" d="M965.483,1555.978c1.467,1.407,3.642,1.719,5.667,1.903c2.184,0.198,4.374,0.33,6.566,0.393
						c2.298,0.066,4.694,0.037,6.753-0.986c2.603-1.294,4.219-3.942,5.569-6.517c0.705-0.37,1.474-2.927,1.834-3.696
						c0.561-1.197,0.988-2.529,1.647-3.672c1.02-1.77,3.322-2.027,4.326-3.767c0.439-0.761,0.379-1.886-0.363-2.358
						c-0.561-0.356-1.292-0.234-1.942-0.38c-0.69-0.155-1.265-0.61-1.86-0.993c-2.626-1.691-6.05-2.078-8.987-1.016
						c-1.126,0.407-2.192,1.026-3.003,1.907c-1.151,1.252-1.703,2.923-2.475,4.438c-0.773,1.515-1.954,3.015-3.625,3.331
						c-3.013,0.569-5.527-2.922-8.59-2.769c-1.363,0.069-2.57,0.857-3.701,1.619c-1.29,0.869-2.724,1.995-2.712,3.55
						c0.005,0.766,0.377,1.477,0.744,2.151c0.858,1.579,1.733,3.149,2.627,4.708
						C964.395,1554.592,964.846,1555.367,965.483,1555.978z"/>
				</g>
			</g>
		</g>
		<g style="opacity:0.2;">
			<g>
				<g>
					<path style="fill:#45AFC9;" d="M1027.207,1520.105c-0.464,1.163-1.059,2.318-1.167,3.576c-0.201,2.251,1.144,4.281,2.414,6.12
						c0.208,0.299,0.417,0.599,0.734,0.765c0.408,0.195,0.883,0.125,1.338,0.066c2.099-0.334,4.238-0.688,6.208-1.465
						c2-0.767,3.88-2.008,5.04-3.791c0.855-1.343,1.291-2.9,2.157-4.223c1.16-1.783,2.98-2.992,4.573-4.389
						c3.315-2.938,5.72-6.882,6.804-11.154c0.557-2.157,1.528-2.692,3.056-3.824c-4.277-1.822-8.684-3.601-16.402-10.187
						c0,0-10.823-6.415-19.203-7.825c-0.228,0.248-0.436,0.485-0.634,0.741c-0.741,0.976-1.43,2.001-1.854,3.143
						c-1.08,2.815-0.493,6.033,0.785,8.763c0.591,1.274,1.353,2.485,2.354,3.468c2.115,2.086,5.459,3.298,6.222,6.169
						c0.284,1.078,0.123,2.235-0.017,3.331C1029.117,1513.022,1028.62,1516.707,1027.207,1520.105z"/>
				</g>
			</g>
		</g>
	</g>
	<g>
		<g>
			<g>
				<g>
					<g>
						<polygon style="fill:#EAB096;" points="531.241,1633.201 588.18,1629.15 570.126,1505.322 514.402,1517.697 424.803,1537.595 
							381.392,1547.236 395.335,1642.868 439.691,1639.713 						"/>
					</g>
				</g>
			</g>
			<g>
				<g>
					<g>
						<path style="fill:#D38363;" d="M587.7,1581.199l-4.306-29.537l-6.626-45.447l-0.007,0.001
							c-0.428-2.397-2.649-4.043-5.036-3.695c-2.387,0.348-4.045,2.56-3.771,4.979l-0.007,0.001l6.626,45.447l4.306,29.536
							l6.626,45.447l0.007-0.001c0.428,2.397,2.649,4.043,5.036,3.695c2.387-0.348,4.045-2.56,3.771-4.979l0.007-0.001
							L587.7,1581.199z"/>
					</g>
				</g>
			</g>
			<g>
				<g>
					<g>
						<path d="M571.854,1503.402c1.913-0.279,3.683,1.026,4.03,2.971l0.033,0.173l10.903,74.781l1.762-0.257l-10.932-74.983
							l-0.136-0.88l-0.094,0.014c-0.833-2.422-3.24-3.957-5.823-3.58c-2.583,0.377-4.452,2.535-4.559,5.094l-0.101,0.015
							l16.258,111.512l1.762-0.257l-16.093-110.38l-0.025-0.223C568.617,1505.437,569.941,1503.681,571.854,1503.402z"/>
					</g>
				</g>
			</g>
			<g>
				<g>
					<g>
						<polygon style="fill:#49597D;" points="514.402,1517.697 424.803,1537.595 439.691,1639.713 531.241,1633.201 						"/>
					</g>
				</g>
			</g>
			<g>
				<g>
					<g>
						<polygon points="567.487,1504.81 381.198,1546.368 380.392,1546.547 394.453,1642.995 396.215,1642.738 382.392,1547.926 
							567.875,1506.549 						"/>
					</g>
				</g>
			</g>
			<g>
				<g>
					<g>
						
							<rect x="421.824" y="1636.264" transform="matrix(0.9975 -0.071 0.071 0.9975 -114.9647 37.8751)" width="107.63" height="1.781"/>
					</g>
				</g>
			</g>
			<g>
				<g>
					<g>
						<g>
							<path d="M471.888,1579.033c1.925-1.525,3.742-2.965,5.535-4.353c8.79-6.809,20.572-10.03,30.93-11.508
								c-7.942-9.588-24.368-12.715-40.289-6.756c-18.896,7.073-29.926,24.265-24.635,38.401c0.387,1.034,0.853,2.022,1.387,2.965
								C454.244,1593.011,463.577,1585.618,471.888,1579.033z"/>
						</g>
					</g>
				</g>
				<g>
					<g>
						<g>
							<path d="M512.72,1572.171c-9.793,1.085-21.437,3.742-29.502,9.99c-1.751,1.356-3.549,2.781-5.453,4.289
								c-7.974,6.318-16.905,13.392-26.336,18.544c8.762,6.219,22.454,7.605,35.794,2.613
								C504.815,1601.021,515.586,1585.666,512.72,1572.171z"/>
						</g>
					</g>
				</g>
			</g>
		</g>
	</g>
	<g>
		<path style="fill:#662108;" d="M897.778,1645.961c7.704-8.889-41.482-5.333-50.963-8.725c-9.482-3.392-29.63,0-29.63,0h-2.963
			c-46.222,7.275-20.148,18.799,0,18.799C834.37,1656.035,890.074,1654.85,897.778,1645.961z"/>
	</g>
	<g style="opacity:0.5;">
		<path style="fill:#FEC786;" d="M627.982,549.141c1.382-1.35,1.409-3.566,0.059-4.948c-1.35-1.383-3.564-1.412-4.947-0.062
			c-0.836,0.815-20.688,20.381-38.121,55.667c-16.076,32.541-32.873,85.057-21.597,150.444c0.294,1.704,1.773,2.906,3.445,2.906
			c0.197,0,0.397-0.017,0.599-0.051c1.905-0.329,3.183-2.139,2.854-4.044c-10.935-63.407,5.303-114.339,20.85-145.9
			C608.019,568.856,627.785,549.334,627.982,549.141z"/>
	</g>
	<g style="opacity:0.5;">
		<path style="fill:#FEC786;" d="M578.875,565.927c1.382-1.35,1.41-3.564,0.06-4.947c-1.349-1.384-3.565-1.412-4.949-0.063
			c-0.627,0.611-15.515,15.284-28.563,41.695c-12.03,24.35-24.599,63.645-16.161,112.571c0.294,1.704,1.773,2.906,3.445,2.906
			c0.197,0,0.397-0.017,0.599-0.051c1.905-0.329,3.183-2.139,2.854-4.044c-8.096-46.946,3.913-84.658,15.414-108.028
			C564.084,580.544,578.728,566.07,578.875,565.927z"/>
	</g>
	<g style="opacity:0.5;">
		<path style="fill:#FEC786;" d="M1355.859,739.129c0.386,0.136,0.779,0.201,1.166,0.201c1.442,0,2.793-0.898,3.3-2.336
			c0.256-0.723,6.258-18.011,6.268-43.771c0.009-23.747-5.344-59.422-30.893-94.518c-1.139-1.563-3.328-1.908-4.89-0.77
			c-1.563,1.138-1.907,3.327-0.771,4.89c24.367,33.471,29.521,67.479,29.552,90.113c0.035,24.635-5.809,41.559-5.867,41.728
			C1353.083,736.488,1354.038,738.485,1355.859,739.129z"/>
	</g>
	<g style="opacity:0.5;">
		<path style="fill:#FEC786;" d="M1379.625,715.244c0.386,0.136,0.779,0.201,1.166,0.201c1.442,0,2.793-0.898,3.3-2.336
			c0.192-0.544,4.711-13.557,4.718-32.89c0.007-17.815-4.008-44.579-23.175-70.906c-1.137-1.563-3.327-1.907-4.889-0.77
			c-1.563,1.138-1.907,3.327-0.771,4.89c34.459,47.333,17.688,96.854,17.515,97.349
			C1376.849,712.604,1377.804,714.601,1379.625,715.244z"/>
	</g>
</g>
</svg>
