<?xml version="1.0" encoding="utf-8"?>
<!-- Generator: Adobe Illustrator 27.5.0, SVG Export Plug-In . SVG Version: 6.00 Build 0)  -->
<svg version="1.1" xmlns="http://www.w3.org/2000/svg" xmlns:xlink="http://www.w3.org/1999/xlink" x="0px" y="0px"
	 viewBox="0 0 750 500" style="enable-background:new 0 0 750 500;" xml:space="preserve">
<g id="Background_Simple">
	<g>
		<path style="fill:#92E3A9;" d="M632.122,129.444c0,0-102.786-105.269-236.354-113.391
			C262.202,7.93,184.306,94.206,147.397,145.668C110.488,197.13,18.435,282.866,29.265,361.382
			c10.83,78.516,117.323,138.08,269.842,111.908c152.519-26.172,196.741-36.099,266.232-16.245
			c69.491,19.855,159.739-9.927,161.544-122.738S632.122,129.444,632.122,129.444z"/>
		<path style="opacity:0.7;fill:#FFFFFF;" d="M632.122,129.444c0,0-102.786-105.269-236.354-113.391
			C262.202,7.93,184.306,94.206,147.397,145.668C110.488,197.13,18.435,282.866,29.265,361.382
			c10.83,78.516,117.323,138.08,269.842,111.908c152.519-26.172,196.741-36.099,266.232-16.245
			c69.491,19.855,159.739-9.927,161.544-122.738S632.122,129.444,632.122,129.444z"/>
	</g>
</g>
<g id="Floor">
	
		<line style="fill:none;stroke:#263238;stroke-linecap:round;stroke-linejoin:round;stroke-miterlimit:10;" x1="34.418" y1="427.31" x2="713.736" y2="427.31"/>
</g>
<g id="Tabs">
	<g style="opacity:0.3;">
		<g>
			<path style="fill:#FFFFFF;stroke:#000000;stroke-linecap:round;stroke-linejoin:round;stroke-miterlimit:10;" d="
				M521.035,373.839h104.069v-99.657c0-3.345-2.711-6.056-6.056-6.056h-91.958c-3.344,0-6.056,2.711-6.056,6.056V373.839z"/>
			<path style="fill:#FFFFFF;stroke:#000000;stroke-linecap:round;stroke-linejoin:round;stroke-miterlimit:10;" d="M521.035,281.94
				h104.069v-7.758c0-3.345-2.711-6.056-6.056-6.056h-91.958c-3.344,0-6.056,2.711-6.056,6.056V281.94z"/>
			
				<circle style="fill:#FFFFFF;stroke:#000000;stroke-linecap:round;stroke-linejoin:round;stroke-miterlimit:10;" cx="608.409" cy="298.233" r="8.195"/>
			
				<rect x="603.727" y="316.147" transform="matrix(-1 -1.224647e-16 1.224647e-16 -1 1220.3467 636.038)" style="fill:#FFFFFF;stroke:#000000;stroke-linecap:round;stroke-linejoin:round;stroke-miterlimit:10;" width="12.893" height="3.743"/>
			
				<rect x="603.727" y="329.726" transform="matrix(-1 -1.224647e-16 1.224647e-16 -1 1220.3467 663.1951)" style="fill:#FFFFFF;stroke:#000000;stroke-linecap:round;stroke-linejoin:round;stroke-miterlimit:10;" width="12.893" height="3.743"/>
			
				<rect x="603.727" y="343.304" transform="matrix(-1 -1.224647e-16 1.224647e-16 -1 1220.3467 690.3521)" style="fill:#FFFFFF;stroke:#000000;stroke-linecap:round;stroke-linejoin:round;stroke-miterlimit:10;" width="12.893" height="3.743"/>
			
				<rect x="603.727" y="356.731" transform="matrix(-1 -1.224647e-16 1.224647e-16 -1 1220.3467 717.2053)" style="fill:#FFFFFF;stroke:#000000;stroke-linecap:round;stroke-linejoin:round;stroke-miterlimit:10;" width="12.893" height="3.743"/>
			
				<rect x="528.802" y="288.282" transform="matrix(-1 -1.224647e-16 1.224647e-16 -1 1121.4075 597.6365)" style="fill:#FFFFFF;stroke:#000000;stroke-linecap:round;stroke-linejoin:round;stroke-miterlimit:10;" width="63.803" height="21.072"/>
			<g>
				
					<rect x="531.859" y="314.81" transform="matrix(-1 -1.224647e-16 1.224647e-16 -1 1123.0475 659.2853)" style="fill:#FFFFFF;stroke:#000000;stroke-linecap:round;stroke-linejoin:round;stroke-miterlimit:10;" width="59.33" height="29.665"/>
				<polygon style="fill:#FFFFFF;stroke:#000000;stroke-linecap:round;stroke-linejoin:round;stroke-miterlimit:10;" points="
					591.189,344.475 570.485,332.733 559.979,335.823 543.601,322.844 532.168,330.261 532.168,344.475 				"/>
				<path style="fill:#FFFFFF;stroke:#000000;stroke-linecap:round;stroke-linejoin:round;stroke-miterlimit:10;" d="
					M575.429,324.389c0,2.56,2.075,4.635,4.635,4.635c2.56,0,4.635-2.075,4.635-4.635c0-2.56-2.075-4.635-4.635-4.635
					C577.504,319.754,575.429,321.829,575.429,324.389z"/>
			</g>
			<g>
				
					<line style="fill:#FFFFFF;stroke:#000000;stroke-linecap:round;stroke-linejoin:round;stroke-miterlimit:10;" x1="573.41" y1="350.789" x2="529.229" y2="350.789"/>
				
					<line style="fill:#FFFFFF;stroke:#000000;stroke-linecap:round;stroke-linejoin:round;stroke-miterlimit:10;" x1="591.88" y1="350.789" x2="576.414" y2="350.789"/>
				
					<line style="fill:#FFFFFF;stroke:#000000;stroke-linecap:round;stroke-linejoin:round;stroke-miterlimit:10;" x1="542.77" y1="356.684" x2="529.229" y2="356.684"/>
				
					<line style="fill:#FFFFFF;stroke:#000000;stroke-linecap:round;stroke-linejoin:round;stroke-miterlimit:10;" x1="577.615" y1="356.684" x2="546.675" y2="356.684"/>
				
					<line style="fill:#FFFFFF;stroke:#000000;stroke-linecap:round;stroke-linejoin:round;stroke-miterlimit:10;" x1="591.88" y1="356.684" x2="580.92" y2="356.684"/>
				
					<line style="fill:#FFFFFF;stroke:#000000;stroke-linecap:round;stroke-linejoin:round;stroke-miterlimit:10;" x1="563.196" y1="362.579" x2="529.229" y2="362.579"/>
				
					<line style="fill:#FFFFFF;stroke:#000000;stroke-linecap:round;stroke-linejoin:round;stroke-miterlimit:10;" x1="591.88" y1="362.579" x2="566.801" y2="362.579"/>
				
					<line style="fill:#FFFFFF;stroke:#000000;stroke-linecap:round;stroke-linejoin:round;stroke-miterlimit:10;" x1="541.268" y1="368.474" x2="529.229" y2="368.474"/>
				
					<line style="fill:#FFFFFF;stroke:#000000;stroke-linecap:round;stroke-linejoin:round;stroke-miterlimit:10;" x1="583.924" y1="368.474" x2="544.272" y2="368.474"/>
				
					<line style="fill:#FFFFFF;stroke:#000000;stroke-linecap:round;stroke-linejoin:round;stroke-miterlimit:10;" x1="591.88" y1="368.474" x2="587.228" y2="368.474"/>
			</g>
		</g>
		<g>
			<path style="fill:#FFFFFF;stroke:#000000;stroke-linecap:round;stroke-linejoin:round;stroke-miterlimit:10;" d="M495.315,393.27
				h104.069v-99.657c0-3.344-2.711-6.056-6.056-6.056h-91.958c-3.344,0-6.056,2.711-6.056,6.056V393.27z"/>
			<path style="fill:#FFFFFF;stroke:#000000;stroke-linecap:round;stroke-linejoin:round;stroke-miterlimit:10;" d="
				M495.315,301.371h104.069v-7.758c0-3.344-2.711-6.056-6.056-6.056h-91.958c-3.344,0-6.056,2.711-6.056,6.056V301.371z"/>
			
				<ellipse transform="matrix(0.3808 -0.9247 0.9247 0.3808 67.0802 735.4971)" style="fill:#FFFFFF;stroke:#000000;stroke-linecap:round;stroke-linejoin:round;stroke-miterlimit:10;" cx="582.689" cy="317.664" rx="8.195" ry="8.195"/>
			
				<rect x="578.006" y="335.578" transform="matrix(-1 -1.224647e-16 1.224647e-16 -1 1168.9058 674.9003)" style="fill:#FFFFFF;stroke:#000000;stroke-linecap:round;stroke-linejoin:round;stroke-miterlimit:10;" width="12.893" height="3.743"/>
			
				<rect x="578.006" y="349.157" transform="matrix(-1 -1.224647e-16 1.224647e-16 -1 1168.9058 702.0573)" style="fill:#FFFFFF;stroke:#000000;stroke-linecap:round;stroke-linejoin:round;stroke-miterlimit:10;" width="12.893" height="3.743"/>
			
				<rect x="578.006" y="362.736" transform="matrix(-1 -1.224647e-16 1.224647e-16 -1 1168.9058 729.2144)" style="fill:#FFFFFF;stroke:#000000;stroke-linecap:round;stroke-linejoin:round;stroke-miterlimit:10;" width="12.893" height="3.743"/>
			
				<rect x="578.006" y="376.162" transform="matrix(-1 -1.224647e-16 1.224647e-16 -1 1168.9058 756.0676)" style="fill:#FFFFFF;stroke:#000000;stroke-linecap:round;stroke-linejoin:round;stroke-miterlimit:10;" width="12.893" height="3.743"/>
			
				<rect x="503.082" y="307.713" transform="matrix(-1 -1.224647e-16 1.224647e-16 -1 1069.9667 636.4988)" style="fill:#FFFFFF;stroke:#000000;stroke-linecap:round;stroke-linejoin:round;stroke-miterlimit:10;" width="63.802" height="21.072"/>
			<g>
				
					<rect x="506.138" y="334.241" transform="matrix(-1 -1.224647e-16 1.224647e-16 -1 1071.6067 698.1476)" style="fill:#FFFFFF;stroke:#000000;stroke-linecap:round;stroke-linejoin:round;stroke-miterlimit:10;" width="59.33" height="29.665"/>
				<polygon style="fill:#FFFFFF;stroke:#000000;stroke-linecap:round;stroke-linejoin:round;stroke-miterlimit:10;" points="
					565.468,363.906 544.765,352.164 534.258,355.254 517.881,342.276 506.447,349.692 506.447,363.906 				"/>
				<path style="fill:#FFFFFF;stroke:#000000;stroke-linecap:round;stroke-linejoin:round;stroke-miterlimit:10;" d="
					M549.709,343.821c0,2.56,2.075,4.635,4.635,4.635c2.56,0,4.635-2.075,4.635-4.635c0-2.56-2.075-4.635-4.635-4.635
					C551.784,339.185,549.709,341.261,549.709,343.821z"/>
			</g>
			<g>
				
					<line style="fill:#FFFFFF;stroke:#000000;stroke-linecap:round;stroke-linejoin:round;stroke-miterlimit:10;" x1="547.69" y1="370.22" x2="503.509" y2="370.22"/>
				
					<line style="fill:#FFFFFF;stroke:#000000;stroke-linecap:round;stroke-linejoin:round;stroke-miterlimit:10;" x1="566.16" y1="370.22" x2="550.693" y2="370.22"/>
				
					<line style="fill:#FFFFFF;stroke:#000000;stroke-linecap:round;stroke-linejoin:round;stroke-miterlimit:10;" x1="517.049" y1="376.115" x2="503.509" y2="376.115"/>
				
					<line style="fill:#FFFFFF;stroke:#000000;stroke-linecap:round;stroke-linejoin:round;stroke-miterlimit:10;" x1="551.895" y1="376.115" x2="520.954" y2="376.115"/>
				
					<line style="fill:#FFFFFF;stroke:#000000;stroke-linecap:round;stroke-linejoin:round;stroke-miterlimit:10;" x1="566.16" y1="376.115" x2="555.199" y2="376.115"/>
				
					<line style="fill:#FFFFFF;stroke:#000000;stroke-linecap:round;stroke-linejoin:round;stroke-miterlimit:10;" x1="537.476" y1="382.01" x2="503.509" y2="382.01"/>
				
					<line style="fill:#FFFFFF;stroke:#000000;stroke-linecap:round;stroke-linejoin:round;stroke-miterlimit:10;" x1="566.16" y1="382.01" x2="541.081" y2="382.01"/>
				
					<line style="fill:#FFFFFF;stroke:#000000;stroke-linecap:round;stroke-linejoin:round;stroke-miterlimit:10;" x1="515.547" y1="387.905" x2="503.509" y2="387.905"/>
				
					<line style="fill:#FFFFFF;stroke:#000000;stroke-linecap:round;stroke-linejoin:round;stroke-miterlimit:10;" x1="558.203" y1="387.905" x2="518.551" y2="387.905"/>
				
					<line style="fill:#FFFFFF;stroke:#000000;stroke-linecap:round;stroke-linejoin:round;stroke-miterlimit:10;" x1="566.16" y1="387.905" x2="561.508" y2="387.905"/>
			</g>
		</g>
		<g>
			<path style="fill:#FFFFFF;stroke:#000000;stroke-linecap:round;stroke-linejoin:round;stroke-miterlimit:10;" d="
				M469.594,412.701h104.069v-99.657c0-3.345-2.711-6.056-6.056-6.056H475.65c-3.344,0-6.056,2.711-6.056,6.056V412.701z"/>
			<path style="fill:#FFFFFF;stroke:#000000;stroke-linecap:round;stroke-linejoin:round;stroke-miterlimit:10;" d="
				M469.594,320.802h104.069v-7.758c0-3.345-2.711-6.056-6.056-6.056H475.65c-3.344,0-6.056,2.711-6.056,6.056V320.802z"/>
			
				<circle style="fill:#FFFFFF;stroke:#000000;stroke-linecap:round;stroke-linejoin:round;stroke-miterlimit:10;" cx="556.969" cy="337.095" r="8.195"/>
			
				<rect x="552.286" y="355.01" transform="matrix(-1 -1.224647e-16 1.224647e-16 -1 1117.4648 713.7626)" style="fill:#FFFFFF;stroke:#000000;stroke-linecap:round;stroke-linejoin:round;stroke-miterlimit:10;" width="12.893" height="3.743"/>
			
				<rect x="552.286" y="368.588" transform="matrix(-1 -1.224647e-16 1.224647e-16 -1 1117.4648 740.9197)" style="fill:#FFFFFF;stroke:#000000;stroke-linecap:round;stroke-linejoin:round;stroke-miterlimit:10;" width="12.893" height="3.743"/>
			
				<rect x="552.286" y="382.167" transform="matrix(-1 -1.224647e-16 1.224647e-16 -1 1117.4648 768.0767)" style="fill:#FFFFFF;stroke:#000000;stroke-linecap:round;stroke-linejoin:round;stroke-miterlimit:10;" width="12.893" height="3.743"/>
			
				<rect x="552.286" y="395.593" transform="matrix(-1 -1.224647e-16 1.224647e-16 -1 1117.4648 794.9299)" style="fill:#FFFFFF;stroke:#000000;stroke-linecap:round;stroke-linejoin:round;stroke-miterlimit:10;" width="12.893" height="3.743"/>
			
				<rect x="477.362" y="327.144" transform="matrix(-1 -1.224647e-16 1.224647e-16 -1 1018.5259 675.361)" style="fill:#FFFFFF;stroke:#000000;stroke-linecap:round;stroke-linejoin:round;stroke-miterlimit:10;" width="63.802" height="21.072"/>
			<g>
				
					<rect x="480.418" y="353.672" transform="matrix(-1 -1.224647e-16 1.224647e-16 -1 1020.1659 737.0099)" style="fill:#FFFFFF;stroke:#000000;stroke-linecap:round;stroke-linejoin:round;stroke-miterlimit:10;" width="59.33" height="29.665"/>
				<polygon style="fill:#FFFFFF;stroke:#000000;stroke-linecap:round;stroke-linejoin:round;stroke-miterlimit:10;" points="
					539.748,383.337 519.044,371.595 508.538,374.685 492.16,361.707 480.727,369.123 480.727,383.337 				"/>
				<path style="fill:#FFFFFF;stroke:#000000;stroke-linecap:round;stroke-linejoin:round;stroke-miterlimit:10;" d="
					M523.988,363.252c0,2.56,2.075,4.635,4.635,4.635c2.56,0,4.635-2.075,4.635-4.635c0-2.56-2.075-4.635-4.635-4.635
					C526.064,358.617,523.988,360.692,523.988,363.252z"/>
			</g>
			<g>
				
					<line style="fill:#FFFFFF;stroke:#000000;stroke-linecap:round;stroke-linejoin:round;stroke-miterlimit:10;" x1="521.969" y1="389.651" x2="477.788" y2="389.651"/>
				
					<line style="fill:#FFFFFF;stroke:#000000;stroke-linecap:round;stroke-linejoin:round;stroke-miterlimit:10;" x1="540.439" y1="389.651" x2="524.973" y2="389.651"/>
				
					<line style="fill:#FFFFFF;stroke:#000000;stroke-linecap:round;stroke-linejoin:round;stroke-miterlimit:10;" x1="491.329" y1="395.547" x2="477.788" y2="395.547"/>
				
					<line style="fill:#FFFFFF;stroke:#000000;stroke-linecap:round;stroke-linejoin:round;stroke-miterlimit:10;" x1="526.175" y1="395.547" x2="495.234" y2="395.547"/>
				
					<line style="fill:#FFFFFF;stroke:#000000;stroke-linecap:round;stroke-linejoin:round;stroke-miterlimit:10;" x1="540.439" y1="395.547" x2="529.479" y2="395.547"/>
				
					<line style="fill:#FFFFFF;stroke:#000000;stroke-linecap:round;stroke-linejoin:round;stroke-miterlimit:10;" x1="511.756" y1="401.441" x2="477.788" y2="401.441"/>
				
					<line style="fill:#FFFFFF;stroke:#000000;stroke-linecap:round;stroke-linejoin:round;stroke-miterlimit:10;" x1="540.439" y1="401.441" x2="515.36" y2="401.441"/>
				
					<line style="fill:#FFFFFF;stroke:#000000;stroke-linecap:round;stroke-linejoin:round;stroke-miterlimit:10;" x1="489.827" y1="407.336" x2="477.788" y2="407.336"/>
				
					<line style="fill:#FFFFFF;stroke:#000000;stroke-linecap:round;stroke-linejoin:round;stroke-miterlimit:10;" x1="532.483" y1="407.336" x2="492.831" y2="407.336"/>
				
					<line style="fill:#FFFFFF;stroke:#000000;stroke-linecap:round;stroke-linejoin:round;stroke-miterlimit:10;" x1="540.439" y1="407.336" x2="535.787" y2="407.336"/>
			</g>
		</g>
	</g>
</g>
<g id="Gears">
	<g style="opacity:0.3;">
		<path style="fill:none;stroke:#000000;stroke-linecap:round;stroke-linejoin:round;stroke-miterlimit:10;" d="M137.162,93.868
			V83.416l-10.438-1.161c-0.573-2.208-1.444-4.294-2.559-6.22l6.593-8.243l-7.391-7.391l-8.207,6.564
			c-1.919-1.129-4-2.011-6.203-2.599l-1.166-10.486H97.339l-1.161,10.438c-2.208,0.573-4.294,1.444-6.221,2.559l-8.243-6.593
			l-7.391,7.391l6.564,8.207c-1.129,1.919-2.011,4-2.599,6.203l-10.486,1.166v10.452l10.438,1.161
			c0.573,2.208,1.444,4.293,2.559,6.22l-6.593,8.243l7.391,7.391l8.207-6.564c1.919,1.129,4.001,2.011,6.203,2.599l1.166,10.486
			h10.452l1.161-10.438c2.208-0.573,4.294-1.444,6.22-2.559l8.243,6.593l7.391-7.391l-6.564-8.207c1.129-1.919,2.011-4,2.599-6.203
			L137.162,93.868z M102.483,101.034c-6.889,0-12.474-5.585-12.474-12.474c0-6.889,5.585-12.474,12.474-12.474
			c6.889,0,12.474,5.585,12.474,12.474C114.956,95.449,109.372,101.034,102.483,101.034z"/>
		<path style="fill:none;stroke:#000000;stroke-linecap:round;stroke-linejoin:round;stroke-miterlimit:10;" d="M178.235,72.888
			l-1.158-6.92l-7.039,0.388c-0.624-1.398-1.432-2.683-2.384-3.835l3.451-6.188l-5.712-4.074l-4.706,5.255
			c-1.396-0.535-2.871-0.888-4.395-1.033l-1.934-6.813l-6.92,1.158l0.388,7.039c-1.398,0.624-2.682,1.431-3.835,2.384l-6.188-3.451
			l-4.074,5.712l5.255,4.706c-0.535,1.396-0.888,2.871-1.033,4.395l-6.813,1.934l1.158,6.92l7.039-0.388
			c0.624,1.398,1.432,2.683,2.384,3.835l-3.451,6.188l5.712,4.074l4.706-5.255c1.396,0.535,2.871,0.888,4.395,1.033l1.934,6.813
			l6.92-1.158l-0.388-7.039c1.398-0.624,2.683-1.432,3.835-2.384l6.188,3.451l4.074-5.712l-5.255-4.706
			c0.535-1.396,0.888-2.871,1.033-4.395L178.235,72.888z M156.07,81.475c-4.561,0.763-8.877-2.315-9.641-6.876
			c-0.763-4.561,2.315-8.877,6.876-9.641c4.561-0.763,8.877,2.315,9.641,6.876C163.709,76.395,160.631,80.711,156.07,81.475z"/>
	</g>
	<g style="opacity:0.3;">
		<path style="fill:none;stroke:#000000;stroke-linecap:round;stroke-linejoin:round;stroke-miterlimit:10;" d="M241.993,390.191
			v-10.452l-10.438-1.161c-0.573-2.208-1.444-4.294-2.559-6.221l6.593-8.243l-7.391-7.391l-8.207,6.564
			c-1.919-1.129-4.001-2.011-6.203-2.599l-1.166-10.486H202.17l-1.161,10.438c-2.208,0.573-4.294,1.444-6.221,2.559l-8.243-6.593
			l-7.391,7.391l6.564,8.207c-1.129,1.919-2.011,4-2.599,6.203l-10.486,1.166v10.452l10.438,1.161
			c0.573,2.208,1.444,4.293,2.559,6.22l-6.593,8.243l7.391,7.391l8.207-6.564c1.919,1.129,4.001,2.011,6.203,2.599l1.166,10.486
			h10.452l1.161-10.438c2.208-0.573,4.294-1.444,6.221-2.559l8.243,6.593l7.391-7.391l-6.564-8.207c1.129-1.919,2.011-4,2.599-6.203
			L241.993,390.191z M207.314,397.357c-6.889,0-12.474-5.585-12.474-12.474c0-6.889,5.585-12.474,12.474-12.474
			c6.889,0,12.474,5.585,12.474,12.474C219.788,391.772,214.203,397.357,207.314,397.357z"/>
		<path style="fill:none;stroke:#000000;stroke-linecap:round;stroke-linejoin:round;stroke-miterlimit:10;" d="M283.066,369.211
			l-1.158-6.92l-7.039,0.388c-0.624-1.398-1.432-2.683-2.384-3.835l3.451-6.188l-5.712-4.074l-4.706,5.255
			c-1.396-0.535-2.871-0.888-4.395-1.033l-1.934-6.813l-6.92,1.158l0.388,7.039c-1.398,0.624-2.683,1.432-3.835,2.384l-6.188-3.451
			l-4.074,5.712l5.255,4.706c-0.535,1.396-0.888,2.871-1.033,4.395l-6.813,1.934l1.158,6.92l7.039-0.388
			c0.624,1.398,1.432,2.683,2.384,3.835l-3.452,6.188l5.712,4.074l4.706-5.255c1.396,0.535,2.871,0.888,4.395,1.033l1.934,6.813
			l6.92-1.158l-0.388-7.039c1.398-0.624,2.683-1.432,3.835-2.384l6.188,3.452l4.074-5.712l-5.255-4.706
			c0.535-1.396,0.888-2.871,1.033-4.395L283.066,369.211z M260.901,377.798c-4.561,0.763-8.877-2.315-9.641-6.876
			c-0.763-4.561,2.315-8.877,6.876-9.641c4.561-0.763,8.877,2.315,9.641,6.876C268.54,372.718,265.462,377.034,260.901,377.798z"/>
	</g>
</g>
<g id="Plant">
	<g>
		<path style="fill:#92E3A9;stroke:#263238;stroke-linecap:round;stroke-linejoin:round;stroke-miterlimit:10;" d="M51.199,215.802
			c0,0-4.029,11.079-12.59,12.59c-8.561,1.511-23.669-15.108-14.101-23.669C34.077,196.162,47.17,209.759,51.199,215.802z"/>
		<path style="fill:#92E3A9;stroke:#263238;stroke-linecap:round;stroke-linejoin:round;stroke-miterlimit:10;" d="M64.292,161.414
			c0,0-12.59,30.719-7.554,45.827s36.259,26.187,45.323,6.547c9.065-19.64-11.079-47.337-18.633-53.381
			C75.875,154.364,66.81,156.378,64.292,161.414z"/>
		<path style="fill:#92E3A9;stroke:#263238;stroke-linecap:round;stroke-linejoin:round;stroke-miterlimit:10;" d="M137.817,174.508
			c0,0-21.654,19.64-24.172,39.28c-2.518,19.64,12.086,26.69,27.194,24.173c15.108-2.518,22.662-40.791,18.129-58.417
			C154.435,161.918,137.817,174.508,137.817,174.508z"/>
		<path style="fill:#92E3A9;stroke:#263238;stroke-linecap:round;stroke-linejoin:round;stroke-miterlimit:10;" d="M141.846,283.284
			c0,0-24.172,1.007-25.18,12.59c-1.007,11.583,10.575,14.101,22.158,4.029C150.407,289.83,151.917,283.787,141.846,283.284z"/>
		<path style="fill:#92E3A9;stroke:#263238;stroke-linecap:round;stroke-linejoin:round;stroke-miterlimit:10;" d="M81.918,307.456
			c0,0-2.518,12.086-11.582,16.618c-9.065,4.532-25.18-5.036-16.619-19.64C62.278,289.83,77.386,301.413,81.918,307.456z"/>
		<path style="fill:#92E3A9;stroke:#263238;stroke-linecap:round;stroke-linejoin:round;stroke-miterlimit:10;" d="M60.767,269.687
			c0,0-4.532-10.072-22.158-3.525c-17.626,6.547-24.676,16.618-13.597,20.143C36.091,289.83,60.767,269.687,60.767,269.687z"/>
		<path style="fill:#92E3A9;stroke:#263238;stroke-linecap:round;stroke-linejoin:round;stroke-miterlimit:10;" d="M111.127,148.824
			c0,0,3.021,7.05,9.065,5.54c6.043-1.511,7.554-10.575,17.122-8.057c9.568,2.518,17.626,13.597,17.626,8.561
			c0-5.036-12.086-18.129-25.683-18.129C115.659,136.738,111.63,142.278,111.127,148.824z"/>
		<path style="fill:none;stroke:#263238;stroke-linecap:round;stroke-linejoin:round;stroke-miterlimit:10;" d="M86.214,224.889
			c0,0,10.535,30.852,12.792,57.189c2.257,26.337,0,68.477,0,68.477"/>
		<path style="fill:none;stroke:#263238;stroke-linecap:round;stroke-linejoin:round;stroke-miterlimit:10;" d="M123.086,235.424
			c0,0-12.04,35.367-15.05,57.942c-3.01,22.575-3.763,57.19-3.763,57.19"/>
		<path style="fill:none;stroke:#263238;stroke-linecap:round;stroke-linejoin:round;stroke-miterlimit:10;" d="M117.066,298.634
			c0,0-5.268,1.505-8.277,52.675"/>
		<path style="fill:none;stroke:#263238;stroke-linecap:round;stroke-linejoin:round;stroke-miterlimit:10;" d="M81.918,307.456
			c0,0,5.048-4.307,8.058,5.475c3.01,9.782,1.505,36.872,1.505,36.872"/>
		<path style="fill:none;stroke:#263238;stroke-linecap:round;stroke-linejoin:round;stroke-miterlimit:10;" d="M94.939,302.608
			c3.937,22.059,0.305,46.443,0.305,46.443"/>
		<path style="fill:none;stroke:#263238;stroke-linecap:round;stroke-linejoin:round;stroke-miterlimit:10;" d="M60.767,269.687
			c0,0,21.684-4.163,30.714,19.917c0.886,2.363,1.634,4.834,2.263,7.369"/>
		<path style="fill:#92E3A9;stroke:#263238;stroke-linecap:round;stroke-linejoin:round;stroke-miterlimit:10;" d="M151.266,246.359
			c0,0,4.533-10.072,22.158-3.525c17.626,6.547,24.676,16.618,13.597,20.144C175.942,266.503,151.266,246.359,151.266,246.359z"/>
		<path style="fill:none;stroke:#263238;stroke-linecap:round;stroke-linejoin:round;stroke-miterlimit:10;" d="M131.989,250.77
			c-4.358,2.983-8.546,7.797-11.437,15.507c-9.03,24.08-8,83.527-8,83.527"/>
		<path style="fill:none;stroke:#263238;stroke-linecap:round;stroke-linejoin:round;stroke-miterlimit:10;" d="M151.266,246.359
			c0,0-7.188-1.38-15.011,2.045"/>
		<path style="fill:none;stroke:#263238;stroke-linecap:round;stroke-linejoin:round;stroke-miterlimit:10;" d="M74.947,231.165
			c4.704,5.523,9.265,12.992,12.771,23.072c12.04,34.615,16.555,79.012,14.298,95.567"/>
		<path style="fill:none;stroke:#263238;stroke-linecap:round;stroke-linejoin:round;stroke-miterlimit:10;" d="M51.199,215.802
			c0,0,10.499,1.638,21.128,12.491"/>
		<path style="fill:none;stroke:#263238;stroke-linecap:round;stroke-linejoin:round;stroke-miterlimit:10;" d="M105.525,263.559
			c-0.733,43.686-1.252,86.997-1.252,86.997"/>
		<path style="fill:none;stroke:#263238;stroke-linecap:round;stroke-linejoin:round;stroke-miterlimit:10;" d="M111.127,148.824
			c0,0-2.338-2.194-3.843,36.935c-0.585,15.205-1.17,43.476-1.666,72.363"/>
		<path style="fill:#FFFFFF;stroke:#263238;stroke-linecap:round;stroke-linejoin:round;stroke-miterlimit:10;" d="M128.378,427.31
			H79.417c-3.358,0-6.167-2.55-6.492-5.892l-7.028-72.367h76.002l-7.028,72.367C134.546,424.76,131.736,427.31,128.378,427.31z"/>
		<g>
			<polygon style="fill:#263238;stroke:#263238;stroke-linecap:round;stroke-linejoin:round;stroke-miterlimit:10;" points="
				68.162,372.378 68.966,380.655 138.829,380.655 139.633,372.378 			"/>
			<polygon style="fill:#263238;stroke:#263238;stroke-linecap:round;stroke-linejoin:round;stroke-miterlimit:10;" points="
				137.075,398.715 137.514,394.2 70.282,394.2 70.72,398.715 			"/>
			
				<circle style="fill:#263238;stroke:#263238;stroke-linecap:round;stroke-linejoin:round;stroke-miterlimit:10;" cx="131.364" cy="362.595" r="6.02"/>
			<path style="fill:#263238;stroke:#263238;stroke-linecap:round;stroke-linejoin:round;stroke-miterlimit:10;" d="M77.184,368.615
				c3.325,0,6.02-2.695,6.02-6.02c0-3.325-2.695-6.02-6.02-6.02s-6.02,2.695-6.02,6.02C71.164,365.92,73.859,368.615,77.184,368.615
				z"/>
			<path style="fill:#263238;stroke:#263238;stroke-linecap:round;stroke-linejoin:round;stroke-miterlimit:10;" d="M89.224,362.595
				c0,3.325,2.695,6.02,6.02,6.02c3.325,0,6.02-2.695,6.02-6.02c0-3.325-2.695-6.02-6.02-6.02
				C91.919,356.576,89.224,359.271,89.224,362.595z"/>
			
				<circle style="fill:#263238;stroke:#263238;stroke-linecap:round;stroke-linejoin:round;stroke-miterlimit:10;" cx="113.304" cy="362.595" r="6.02"/>
		</g>
	</g>
</g>
<g id="Character">
	<g>
		<path style="fill:#263238;stroke:#263238;stroke-linecap:round;stroke-linejoin:round;stroke-miterlimit:10;" d="M622.757,272.941
			c0,0-2.563,36.573,0.932,53.812c3.494,17.238,10.017,61.033,11.648,65.925c1.631,4.892,3.261,23.528,3.261,23.528
			s-3.727-0.699-3.727,1.398c0,2.097-0.233,3.96-0.233,4.892s-1.398,3.494-5.824,9.318c-4.426,5.824-10.483,7.687-10.017,10.25
			c0.466,2.563,6.29,3.96,12.114,3.494c5.824-0.466,10.017-0.699,13.278-3.96c3.261-3.261,7.92-4.193,10.25-5.358
			c2.329-1.165,2.795-3.261,2.795-7.687c0-4.426,0-13.278-0.233-14.676c-0.233-1.398,0.233-1.864-0.699-7.454
			c-0.932-5.591-3.261-62.664-3.261-62.664s6.989,45.193,9.551,52.181c2.563,6.989,4.892,16.772,4.892,16.772s-1.398,3.96,0,6.523
			c1.398,2.562,4.892,9.085,4.892,9.085s1.631,10.017,2.562,14.909s8.153,9.551,10.483,7.92c2.329-1.631,6.755-5.358,5.358-12.346
			c-1.398-6.988-3.261-10.483-3.96-14.909c-0.699-4.426,2.329-10.017,1.398-13.744c-0.932-3.727-1.631-2.329-2.33-7.92
			c-0.699-5.591-0.699-36.806-2.795-45.891c-2.096-9.085-4.426-24.46-4.426-24.46s0.466-37.039,0.466-38.204
			c0-1.165,0.466-14.443,0.466-14.443s-17.704,4.892-32.38,1.165C632.541,276.668,622.757,272.941,622.757,272.941z"/>
		<g>
			<path style="fill:#FFFFFF;stroke:#263238;stroke-linecap:round;stroke-linejoin:round;stroke-miterlimit:10;" d="
				M594.867,234.074l0.759-4.421l3.558,3.354C599.184,233.008,596.345,233.82,594.867,234.074z"/>
			<path style="fill:#FFFFFF;stroke:#263238;stroke-linecap:round;stroke-linejoin:round;stroke-miterlimit:10;" d="M601.115,218.37
				l3.01,2.935c0,0,0.65,1.944,0.04,5.095c-0.61,3.151-4.066,6.302-4.981,6.607c-0.915,0.305-1.83,0.61-1.83,0.61l-3.22-3.948
				C594.134,229.669,599.895,227.112,601.115,218.37z"/>
			<g>
				<path style="fill:#FFFFFF;stroke:#263238;stroke-linecap:round;stroke-linejoin:round;stroke-miterlimit:10;" d="
					M617.053,178.529c0,0-2.873,7.502-3.512,14.684c-0.638,7.183-4.629,30.007-4.629,30.007l-4.788-1.915
					c0,0,0.638,3.511-2.075,8.14c-2.713,4.629-7.183,4.629-7.183,4.629s8.619,9.098,11.492,11.013
					c2.873,1.915,4.629,2.713,6.863,1.915c2.235-0.798,6.065-8.459,6.384-8.938c0.319-0.479,1.756-56.343,1.437-57.939
					S617.053,178.529,617.053,178.529z"/>
				<path style="fill:none;stroke:#263238;stroke-linecap:round;stroke-linejoin:round;stroke-miterlimit:10;" d="M615.006,226.741
					c-1.987-2.608-6.093-3.52-6.093-3.52s3.236,3.023,4.478,6.377"/>
			</g>
			<g>
				<path style="fill:#FFFFFF;stroke:#263238;stroke-linecap:round;stroke-linejoin:round;stroke-miterlimit:10;" d="
					M595.506,214.761c0,0-4.15-3.512-6.544-3.831c-2.394-0.319-6.225,0.958-9.577,0.958c-3.352,0-5.586-1.915-6.065-0.16
					c-0.479,1.756,2.394,4.309,3.99,4.788c1.596,0.479,5.267,0,6.065,0c0.798,0,1.756,0.798,1.756,0.798s-1.689,4.03-2.168,4.669
					c-0.479,0.639-2.661,1.774-2.661,1.774s-8.259-3.57-7.781-1.814c0.479,1.756,5.108,5.267,7.661,6.385
					c2.554,1.117,8.14,2.234,10.854,2.873c2.713,0.638,4.948,1.117,6.544-1.117c1.596-2.235,4.788-5.108,4.469-9.577
					C601.731,216.038,598.219,214.602,595.506,214.761z"/>
				<path style="fill:#FFFFFF;stroke:#263238;stroke-linecap:round;stroke-linejoin:round;stroke-miterlimit:10;" d="
					M588.43,225.391c0,0-2.218-2.931-4.991-4.278c-2.773-1.347-5.466-1.347-4.595,0.396c0.871,1.743,3.723,4.991,5.07,6.417
					c1.347,1.426,1.981,1.98,3.248,2.535c1.267,0.555,2.535,0.158,2.377-1.584C589.381,227.134,588.43,225.391,588.43,225.391z"/>
				<path style="fill:#FFFFFF;stroke:#263238;stroke-linecap:round;stroke-linejoin:round;stroke-miterlimit:10;" d="
					M590.49,225.629c0,0-7.447-2.931-7.843-0.713s1.901,2.06,4.674,4.04c2.773,1.98,4.753,2.377,5.625,2.297
					c0.872-0.079,1.188-1.584,1.188-1.584L590.49,225.629z"/>
				<path style="fill:#FFFFFF;stroke:#263238;stroke-linecap:round;stroke-linejoin:round;stroke-miterlimit:10;" d="
					M597.145,227.213c0,0-6.258-6.1-6.971-3.644c-0.713,2.456,3.803,6.734,5.07,7.367c1.268,0.634,2.535-1.584,3.327-2.693"/>
			</g>
		</g>
		<path style="fill:#92E3A9;stroke:#263238;stroke-linecap:round;stroke-linejoin:round;stroke-miterlimit:10;" d="M621.042,266.684
			v11.199c0,0,14.615,6.833,29.61,7.592c14.995,0.759,31.508-2.657,31.508-2.657l0.19-100.03c0,0-10.44-5.315-20.12-6.833
			c-9.68-1.518-38.531,2.847-38.531,2.847L621.042,266.684z"/>
		<g>
			<path style="fill:#FFFFFF;stroke:#263238;stroke-linecap:round;stroke-linejoin:round;stroke-miterlimit:10;" d="
				M644.188,159.535c0,0-2.235,22.984-1.596,24.421c0.638,1.436,3.352,5.267,8.938,5.267c5.586,0,11.652-5.906,11.652-5.906
				l1.915-23.144c0,0-7.342,3.512-12.45,2.394C647.539,161.451,644.188,159.535,644.188,159.535z"/>
			<polygon style="fill:#263238;" points="651.802,168.565 664.298,176.499 665.289,158.647 			"/>
		</g>
		<g>
			<path style="fill:#FFFFFF;stroke:#263238;stroke-linecap:round;stroke-linejoin:round;stroke-miterlimit:10;" d="
				M638.972,140.222c0,0-1.596-3.671-3.192-0.798c-1.596,2.873,3.671,10.215,3.671,10.215L638.972,140.222z"/>
			<path style="fill:#FFFFFF;stroke:#263238;stroke-linecap:round;stroke-linejoin:round;stroke-miterlimit:10;" d="
				M669.617,140.222c0,0,1.596-3.671,3.192-0.798c1.596,2.873-4.491,10.687-4.491,10.687L669.617,140.222z"/>
			<path style="fill:#263238;" d="M639.451,142.297c0,0-1.596-5.746-1.596-7.342c0-1.596,2.873-1.596,2.873-1.596L639.451,142.297z"
				/>
			<path style="fill:#FFFFFF;stroke:#263238;stroke-linecap:round;stroke-linejoin:round;stroke-miterlimit:10;" d="
				M639.667,133.967c0,0-0.56,19.77,0.932,22.94c1.492,3.171,6.714,10.444,8.02,11.377c1.305,0.932,5.782,1.306,7.087,1.119
				c1.306-0.186,11.303-10.159,11.676-11.465c0.373-1.305,1.939-19.495,1.939-19.495l-0.186-15.107c0,0-3.73-2.052-9.325-1.679
				c-5.595,0.373-19.397,6.341-19.397,6.341L639.667,133.967z"/>
			<path style="fill:#263238;" d="M664.845,126.321c0,0-4.663,6.155-6.714,7.087c-2.052,0.933-1.678-2.984-1.678-2.984
				s-4.849,3.73-11.75,5.222c-6.901,1.492-12.496,1.865-14.361-0.746c-1.865-2.611,4.103-6.341,4.103-6.341s-4.663-2.798,0-7.833
				c4.663-5.036,16.599-10.631,25.178-7.274c8.579,3.357,6.901,6.528,6.901,6.528s6.528-0.933,7.087,4.29
				c0.56,5.222-3.357,11.19-3.357,11.19s-0.187,4.476-0.187,5.595c0,1.119-1.306,0.933-1.306,0.933l-0.56-5.595
				c0,0-2.052,0.186-3.171-3.73C663.913,128.745,664.845,126.321,664.845,126.321z"/>
			<path style="fill:none;stroke:#263238;stroke-linecap:round;stroke-linejoin:round;stroke-miterlimit:10;" d="M649.346,152.672
				c0,0,1.915,1.596,3.671,1.596c1.756,0,3.512-1.436,3.512-1.436"/>
			<path style="fill:none;stroke:#263238;stroke-linecap:round;stroke-linejoin:round;stroke-miterlimit:10;" d="M647.431,156.822
				c0,0,3.511,1.915,6.544,1.596c3.033-0.319,4.948-2.873,4.948-2.873"/>
			<path style="fill:none;stroke:#263238;stroke-linecap:round;stroke-linejoin:round;stroke-miterlimit:10;" d="M656.529,138.626
				c0,0,6.065-1.756,7.981,1.596"/>
			<path style="fill:none;stroke:#263238;stroke-linecap:round;stroke-linejoin:round;stroke-miterlimit:10;" d="M649.985,139.105
				c0,0-4.15-2.873-7.342,0.16"/>
			<path style="fill:#263238;" d="M648.229,142.776c0,1.058-0.464,1.915-1.037,1.915c-0.573,0-1.037-0.858-1.037-1.915
				c0-1.058,0.464-1.915,1.037-1.915C647.765,140.861,648.229,141.718,648.229,142.776z"/>
			<path style="fill:#263238;" d="M660.28,142.776c0,1.058-0.465,1.915-1.038,1.915s-1.037-0.858-1.037-1.915
				c0-1.058,0.464-1.915,1.037-1.915S660.28,141.718,660.28,142.776z"/>
		</g>
		<g>
			<path style="fill:#FFFFFF;stroke:#263238;stroke-linecap:round;stroke-linejoin:round;stroke-miterlimit:10;" d="
				M693.564,278.165c0,0-2.691,5.113-2.96,6.459c-0.269,1.346,0,5.921-0.269,8.343c-0.269,2.422-2.287,3.23-0.942,4.306
				c1.346,1.076,3.499-1.076,4.037-2.018c0.538-0.942,1.211-2.826,1.884-4.306c0.673-1.48,1.48,1.211,1.884,2.018
				c0.404,0.807,0.135,8.881,0.269,10.227c0.135,1.346-1.615,6.324-1.076,7.266c0.538,0.942,1.749,0.942,2.288-0.404
				c0.538-1.346,2.153-4.037,2.153-4.037s7.132-5.921,7.805-6.863c0.673-0.942-2.826-13.725-3.095-15.878
				c-0.269-2.153-0.807-5.517-0.807-5.517L693.564,278.165z"/>
			<path style="fill:#FFFFFF;stroke:#263238;stroke-linecap:round;stroke-linejoin:round;stroke-miterlimit:10;" d="M700.83,306.019
				c0,0,1.615-3.633,1.884-5.113c0.269-1.48,0.538-3.499,0.673-3.902"/>
			<path style="fill:#FFFFFF;stroke:#263238;stroke-linecap:round;stroke-linejoin:round;stroke-miterlimit:10;" d="M702.31,304.673
				c0,0,2.691-2.96,2.96-4.306c0.269-1.346,0.538-2.96,0.538-2.96"/>
		</g>
		<path style="fill:#FFFFFF;stroke:#263238;stroke-linecap:round;stroke-linejoin:round;stroke-miterlimit:10;" d="M693.348,274.137
			l0.216,4.028c0,0,1.884,2.018,6.728,2.422c4.844,0.404,6.459-1.884,6.459-1.884l0.324-3.449
			C707.075,275.254,696.362,275.357,693.348,274.137z"/>
		<path style="fill:#FFFFFF;stroke:#263238;stroke-linecap:round;stroke-linejoin:round;stroke-miterlimit:10;" d="M664.299,168.633
			c0,0-6.704,21.548-8.938,40.542c-2.235,18.994-1.596,66.399-1.596,66.399s3.352,1.117,14.844,0.958
			c11.492-0.16,16.919-1.756,16.919-1.756l1.437-47.405l8.14,11.333l-1.756,35.434c0,0,1.616,2.145,5.746,2.554
			c5.369,0.532,9.406-1.352,9.406-1.352s3.523-36.955,3.363-39.828c-0.16-2.873-20.111-51.714-21.707-53.311
			c-1.596-1.596-21.388-11.652-21.388-11.652S666.533,166.558,664.299,168.633z"/>
		<path style="fill:#FFFFFF;stroke:#263238;stroke-linecap:round;stroke-linejoin:round;stroke-miterlimit:10;" d="M668.768,170.549
			c0,0,0.479,5.108,0.479,11.652c0,6.544-0.958,13.088-0.958,13.088s-3.512-0.958-7.023,0.16c-3.512,1.117-4.31,2.394-4.31,2.394
			s4.948-26.017,7.342-29.209C666.693,165.441,667.491,167.835,668.768,170.549z"/>
		<path style="fill:#FFFFFF;stroke:#263238;stroke-linecap:round;stroke-linejoin:round;stroke-miterlimit:10;" d="M686.964,227.371
			c0,0-9.736-12.609-9.098-17.877c0.638-5.267,1.596-11.013,1.596-11.013"/>
		<path style="fill:#FFFFFF;stroke:#263238;stroke-linecap:round;stroke-linejoin:round;stroke-miterlimit:10;" d="M642.911,168.633
			c0,0-1.915,25.219-3.671,37.509c-1.756,12.29-0.638,68.155-0.638,68.155s-6.704-0.639-12.929-2.713
			c-6.225-2.075-9.577-3.671-9.577-3.671l0.638-33.838c0,0-1.277-53.949,0.319-55.545c1.596-1.596,20.43-7.023,20.43-7.023
			S640.995,168.154,642.911,168.633z"/>
		<path style="fill:#FFFFFF;stroke:#263238;stroke-linecap:round;stroke-linejoin:round;stroke-miterlimit:10;" d="M637.484,171.506
			c0,0-2.075,7.342-3.99,13.567c-1.915,6.225-2.394,9.577-2.394,9.577s1.915-2.713,4.788-0.638c2.873,2.075,4.629,3.831,4.629,3.831
			l2.704-29.193C643.221,168.65,639.399,168.154,637.484,171.506z"/>
	</g>
</g>
<g id="Arrow">
	<path style="fill:#263238;" d="M585.62,85.271l-7.37,3.369c-14.906-24.742-41.797-40.231-71.211-40.231
		c-42.624,0-77.84,32.252-82.571,73.63h13.102c4.653-34.19,34.022-60.63,69.469-60.63c24.31,0,46.582,12.539,59.303,32.675
		l-6.784,3.102c-2.288,1.046-2.586,4.177-0.536,5.636l23.35,16.613c2.05,1.459,4.911,0.151,5.149-2.354l2.712-28.528
		C590.471,86.048,587.909,84.225,585.62,85.271z"/>
</g>
<g id="Device">
	<g>
		<g id="XMLID_139_">
			<path style="fill:#FFFFFF;stroke:#263238;stroke-linecap:round;stroke-linejoin:round;stroke-miterlimit:10;" d="
				M293.579,370.488c0,0,9.44,40.59,5.331,47.262c-5.373,8.725-62.591,13.981-62.591,13.981H362.49c0,0,15.81-4.436,11.057-17.147
				c-3.677-9.835-21.324-44.096-21.324-44.096H293.579z"/>
			<path style="fill:#FFFFFF;stroke:#263238;stroke-linecap:round;stroke-linejoin:round;stroke-miterlimit:10;" d="
				M290.815,370.488c0,0,10.07,40.93,5.331,47.262c-4.739,6.331-59.827,11.168-59.827,11.168h126.763c0,0,10.663-4.309,7.701-14.333
				c-2.962-10.025-21.325-44.096-21.325-44.096H290.815z"/>
			<path style="fill:#263238;stroke:#263238;stroke-linecap:round;stroke-linejoin:round;stroke-miterlimit:10;" d="
				M349.458,370.488h-58.643c0,0,5.963,24.252,6.547,38.306h71.223C362.822,395.287,349.458,370.488,349.458,370.488z"/>
			
				<rect x="236.319" y="429.123" style="fill:#FFFFFF;stroke:#263238;stroke-linecap:round;stroke-linejoin:round;stroke-miterlimit:10;" width="126.17" height="2.609"/>
			<path id="XMLID_1_" style="fill:#FFFFFF;stroke:#263238;stroke-linecap:round;stroke-linejoin:round;stroke-miterlimit:10;" d="
				M506.294,374.486H142.576c-4.686,0-8.484-3.798-8.484-8.484V97.456c0-4.686,3.799-8.484,8.484-8.484h363.718
				c4.686,0,8.484,3.799,8.484,8.484v268.546C514.779,370.688,510.98,374.486,506.294,374.486z"/>
			
				<path id="XMLID_146_" style="fill:#263238;stroke:#263238;stroke-linecap:round;stroke-linejoin:round;stroke-miterlimit:10;" d="
				M497.319,374.486H133.602c-4.686,0-8.484-3.798-8.484-8.484V97.456c0-4.686,3.799-8.484,8.484-8.484h363.718
				c4.686,0,8.484,3.799,8.484,8.484v268.546C505.804,370.688,502.005,374.486,497.319,374.486z"/>
			
				<path id="XMLID_145_" style="fill:#FFFFFF;stroke:#263238;stroke-linecap:round;stroke-linejoin:round;stroke-miterlimit:10;" d="
				M497.319,374.486H133.602c-4.686,0-8.484-3.798-8.484-8.484v-35.896h380.686v35.896
				C505.804,370.688,502.005,374.486,497.319,374.486z"/>
			
				<path id="XMLID_143_" style="fill:#263238;stroke:#263238;stroke-linecap:round;stroke-linejoin:round;stroke-miterlimit:10;" d="
				M322.482,352.296c0-3.877-3.143-7.021-7.021-7.021c-3.878,0-7.021,3.144-7.021,7.021c0,3.878,3.143,7.021,7.021,7.021
				C319.338,359.317,322.482,356.174,322.482,352.296z"/>
			
				<rect x="134.092" y="97.456" style="fill:#FFFFFF;stroke:#263238;stroke-linecap:round;stroke-linejoin:round;stroke-miterlimit:10;" width="360.867" height="224.607"/>
			
				<rect x="488.125" y="97.456" style="fill:#D1D1D1;stroke:#263238;stroke-linecap:round;stroke-linejoin:round;stroke-miterlimit:10;" width="6.834" height="224.607"/>
			
				<rect x="488.125" y="192.24" style="fill:#B0B0B0;stroke:#263238;stroke-linecap:round;stroke-linejoin:round;stroke-miterlimit:10;" width="6.834" height="35.039"/>
			
				<rect x="134.092" y="97.456" style="fill:#92E3A9;stroke:#263238;stroke-linecap:round;stroke-linejoin:round;stroke-miterlimit:10;" width="360.867" height="18.215"/>
			
				<rect x="147.203" y="102.922" style="fill:#FFFFFF;stroke:#263238;stroke-linecap:round;stroke-linejoin:round;stroke-miterlimit:10;" width="260.367" height="8.932"/>
		</g>
		<g>
			<rect x="298.431" y="147.274" style="fill:#B0B0B0;" width="20.3" height="5.894"/>
			<rect x="341.979" y="147.274" style="fill:#B0B0B0;" width="20.3" height="5.894"/>
			<rect x="385.527" y="147.274" style="fill:#B0B0B0;" width="20.3" height="5.894"/>
			<rect x="429.074" y="147.274" style="fill:#B0B0B0;" width="20.3" height="5.894"/>
			
				<line style="fill:none;stroke:#B0B0B0;stroke-linecap:round;stroke-linejoin:round;stroke-miterlimit:10;" x1="145.851" y1="165.61" x2="476.551" y2="165.61"/>
			
				<ellipse transform="matrix(0.7071 -0.7071 0.7071 0.7071 -54.0381 156.2301)" style="fill:#92E3A9;" cx="161.567" cy="143.345" rx="17.026" ry="17.026"/>
			<rect x="144.541" y="176.415" style="fill:#92E3A9;" width="332.664" height="66.795"/>
			<g>
				
					<line style="fill:none;stroke:#263238;stroke-linecap:round;stroke-linejoin:round;stroke-miterlimit:10;" x1="166.08" y1="257.616" x2="211.336" y2="257.616"/>
				
					<line style="fill:none;stroke:#263238;stroke-linecap:round;stroke-linejoin:round;stroke-miterlimit:10;" x1="147.161" y1="257.616" x2="163.003" y2="257.616"/>
				
					<line style="fill:none;stroke:#263238;stroke-linecap:round;stroke-linejoin:round;stroke-miterlimit:10;" x1="197.466" y1="273.333" x2="211.336" y2="273.333"/>
				
					<line style="fill:none;stroke:#263238;stroke-linecap:round;stroke-linejoin:round;stroke-miterlimit:10;" x1="161.773" y1="273.333" x2="193.466" y2="273.333"/>
				
					<line style="fill:none;stroke:#263238;stroke-linecap:round;stroke-linejoin:round;stroke-miterlimit:10;" x1="147.161" y1="273.333" x2="158.388" y2="273.333"/>
				
					<line style="fill:none;stroke:#263238;stroke-linecap:round;stroke-linejoin:round;stroke-miterlimit:10;" x1="176.542" y1="289.049" x2="211.336" y2="289.049"/>
				
					<line style="fill:none;stroke:#263238;stroke-linecap:round;stroke-linejoin:round;stroke-miterlimit:10;" x1="147.161" y1="289.049" x2="172.85" y2="289.049"/>
				
					<line style="fill:none;stroke:#263238;stroke-linecap:round;stroke-linejoin:round;stroke-miterlimit:10;" x1="199.005" y1="304.766" x2="211.336" y2="304.766"/>
				
					<line style="fill:none;stroke:#263238;stroke-linecap:round;stroke-linejoin:round;stroke-miterlimit:10;" x1="155.311" y1="304.766" x2="195.928" y2="304.766"/>
				
					<line style="fill:none;stroke:#263238;stroke-linecap:round;stroke-linejoin:round;stroke-miterlimit:10;" x1="147.161" y1="304.766" x2="151.926" y2="304.766"/>
			</g>
			<g>
				
					<line style="fill:none;stroke:#263238;stroke-linecap:round;stroke-linejoin:round;stroke-miterlimit:10;" x1="353.878" y1="257.616" x2="399.134" y2="257.616"/>
				
					<line style="fill:none;stroke:#263238;stroke-linecap:round;stroke-linejoin:round;stroke-miterlimit:10;" x1="334.958" y1="257.616" x2="350.801" y2="257.616"/>
				
					<line style="fill:none;stroke:#263238;stroke-linecap:round;stroke-linejoin:round;stroke-miterlimit:10;" x1="385.263" y1="273.333" x2="399.134" y2="273.333"/>
				
					<line style="fill:none;stroke:#263238;stroke-linecap:round;stroke-linejoin:round;stroke-miterlimit:10;" x1="349.57" y1="273.333" x2="381.263" y2="273.333"/>
				
					<line style="fill:none;stroke:#263238;stroke-linecap:round;stroke-linejoin:round;stroke-miterlimit:10;" x1="334.958" y1="273.333" x2="346.185" y2="273.333"/>
				
					<line style="fill:none;stroke:#263238;stroke-linecap:round;stroke-linejoin:round;stroke-miterlimit:10;" x1="364.34" y1="289.049" x2="399.134" y2="289.049"/>
				
					<line style="fill:none;stroke:#263238;stroke-linecap:round;stroke-linejoin:round;stroke-miterlimit:10;" x1="334.958" y1="289.049" x2="360.647" y2="289.049"/>
				
					<line style="fill:none;stroke:#263238;stroke-linecap:round;stroke-linejoin:round;stroke-miterlimit:10;" x1="386.802" y1="304.766" x2="399.134" y2="304.766"/>
				
					<line style="fill:none;stroke:#263238;stroke-linecap:round;stroke-linejoin:round;stroke-miterlimit:10;" x1="343.108" y1="304.766" x2="383.725" y2="304.766"/>
				
					<line style="fill:none;stroke:#263238;stroke-linecap:round;stroke-linejoin:round;stroke-miterlimit:10;" x1="334.958" y1="304.766" x2="339.723" y2="304.766"/>
			</g>
			<g>
				
					<line style="fill:none;stroke:#263238;stroke-linecap:round;stroke-linejoin:round;stroke-miterlimit:10;" x1="429.665" y1="257.616" x2="474.921" y2="257.616"/>
				
					<line style="fill:none;stroke:#263238;stroke-linecap:round;stroke-linejoin:round;stroke-miterlimit:10;" x1="410.746" y1="257.616" x2="426.588" y2="257.616"/>
				
					<line style="fill:none;stroke:#263238;stroke-linecap:round;stroke-linejoin:round;stroke-miterlimit:10;" x1="461.051" y1="273.333" x2="474.921" y2="273.333"/>
				
					<line style="fill:none;stroke:#263238;stroke-linecap:round;stroke-linejoin:round;stroke-miterlimit:10;" x1="425.358" y1="273.333" x2="457.051" y2="273.333"/>
				
					<line style="fill:none;stroke:#263238;stroke-linecap:round;stroke-linejoin:round;stroke-miterlimit:10;" x1="410.746" y1="273.333" x2="421.973" y2="273.333"/>
				
					<line style="fill:none;stroke:#263238;stroke-linecap:round;stroke-linejoin:round;stroke-miterlimit:10;" x1="440.127" y1="289.049" x2="474.921" y2="289.049"/>
				
					<line style="fill:none;stroke:#263238;stroke-linecap:round;stroke-linejoin:round;stroke-miterlimit:10;" x1="410.746" y1="289.049" x2="436.435" y2="289.049"/>
				
					<line style="fill:none;stroke:#263238;stroke-linecap:round;stroke-linejoin:round;stroke-miterlimit:10;" x1="462.59" y1="304.766" x2="474.921" y2="304.766"/>
				
					<line style="fill:none;stroke:#263238;stroke-linecap:round;stroke-linejoin:round;stroke-miterlimit:10;" x1="418.896" y1="304.766" x2="459.513" y2="304.766"/>
				
					<line style="fill:none;stroke:#263238;stroke-linecap:round;stroke-linejoin:round;stroke-miterlimit:10;" x1="410.746" y1="304.766" x2="415.511" y2="304.766"/>
			</g>
			<g>
				
					<rect x="220.202" y="254.081" style="fill:none;stroke:#263238;stroke-linecap:round;stroke-linejoin:round;stroke-miterlimit:10;" width="106.994" height="53.497"/>
				<polygon style="fill:#263238;stroke:#263238;stroke-linecap:round;stroke-linejoin:round;stroke-miterlimit:10;" points="
					220.202,307.578 257.538,286.402 276.485,291.975 306.02,268.57 326.639,281.944 326.639,307.578 				"/>
				
					<ellipse transform="matrix(0.678 -0.7351 0.7351 0.678 -122.0993 264.0072)" style="fill:#263238;stroke:#263238;stroke-linecap:round;stroke-linejoin:round;stroke-miterlimit:10;" cx="240.263" cy="271.356" rx="8.359" ry="8.359"/>
			</g>
		</g>
	</g>
</g>
<g id="Window_00000034075265821179398330000003835262034279513505_">
	<g>
		<path style="fill:#FFFFFF;stroke:#263238;stroke-linecap:round;stroke-linejoin:round;stroke-miterlimit:10;" d="M622.553,205.715
			h-79.281v-74.478c0-3.344,2.711-6.056,6.056-6.056h67.17c3.344,0,6.056,2.711,6.056,6.056V205.715z"/>
		<path style="fill:#92E3A9;stroke:#263238;stroke-linecap:round;stroke-linejoin:round;stroke-miterlimit:10;" d="M622.553,135.705
			h-79.281v-4.468c0-3.344,2.711-6.056,6.056-6.056h67.17c3.344,0,6.056,2.711,6.056,6.056V135.705z"/>
		<path style="fill:#92E3A9;" d="M562.233,148.117c0,3.448-2.795,6.243-6.243,6.243c-3.448,0-6.243-2.795-6.243-6.243
			c0-3.448,2.795-6.243,6.243-6.243C559.438,141.874,562.233,144.669,562.233,148.117z"/>
		<rect x="549.735" y="161.764" style="fill:#B0B0B0;" width="9.822" height="2.852"/>
		<rect x="549.735" y="172.109" style="fill:#B0B0B0;" width="9.822" height="2.852"/>
		<rect x="549.735" y="182.453" style="fill:#B0B0B0;" width="9.822" height="2.852"/>
		<rect x="549.735" y="192.682" style="fill:#B0B0B0;" width="9.822" height="2.852"/>
		<rect x="568.03" y="140.536" style="fill:#92E3A9;" width="48.606" height="16.053"/>
		<g>
			
				<rect x="569.109" y="160.746" style="fill:none;stroke:#263238;stroke-linecap:round;stroke-linejoin:round;stroke-miterlimit:10;" width="45.198" height="22.599"/>
			<polygon style="fill:#263238;stroke:#263238;stroke-linecap:round;stroke-linejoin:round;stroke-miterlimit:10;" points="
				569.109,183.345 584.882,174.399 592.886,176.753 605.362,166.866 614.072,172.516 614.072,183.345 			"/>
			
				<circle style="fill:#263238;stroke:#263238;stroke-linecap:round;stroke-linejoin:round;stroke-miterlimit:10;" cx="577.584" cy="168.043" r="3.531"/>
		</g>
		<g>
			
				<line style="fill:none;stroke:#263238;stroke-linecap:round;stroke-linejoin:round;stroke-miterlimit:10;" x1="582.654" y1="188.155" x2="616.311" y2="188.155"/>
			
				<line style="fill:none;stroke:#263238;stroke-linecap:round;stroke-linejoin:round;stroke-miterlimit:10;" x1="568.583" y1="188.155" x2="580.365" y2="188.155"/>
			
				<line style="fill:none;stroke:#263238;stroke-linecap:round;stroke-linejoin:round;stroke-miterlimit:10;" x1="605.996" y1="192.646" x2="616.311" y2="192.646"/>
			
				<line style="fill:none;stroke:#263238;stroke-linecap:round;stroke-linejoin:round;stroke-miterlimit:10;" x1="579.45" y1="192.646" x2="603.021" y2="192.646"/>
			
				<line style="fill:none;stroke:#263238;stroke-linecap:round;stroke-linejoin:round;stroke-miterlimit:10;" x1="568.583" y1="192.646" x2="576.932" y2="192.646"/>
			
				<line style="fill:none;stroke:#263238;stroke-linecap:round;stroke-linejoin:round;stroke-miterlimit:10;" x1="590.434" y1="197.137" x2="616.311" y2="197.137"/>
			
				<line style="fill:none;stroke:#263238;stroke-linecap:round;stroke-linejoin:round;stroke-miterlimit:10;" x1="568.583" y1="197.137" x2="587.688" y2="197.137"/>
			
				<line style="fill:none;stroke:#263238;stroke-linecap:round;stroke-linejoin:round;stroke-miterlimit:10;" x1="607.14" y1="201.628" x2="616.311" y2="201.628"/>
			
				<line style="fill:none;stroke:#263238;stroke-linecap:round;stroke-linejoin:round;stroke-miterlimit:10;" x1="574.644" y1="201.628" x2="604.851" y2="201.628"/>
			
				<line style="fill:none;stroke:#263238;stroke-linecap:round;stroke-linejoin:round;stroke-miterlimit:10;" x1="568.583" y1="201.628" x2="572.127" y2="201.628"/>
		</g>
	</g>
</g>
</svg>
