<?xml version="1.0" encoding="utf-8"?>
<!-- Generator: Adobe Illustrator 27.5.0, SVG Export Plug-In . SVG Version: 6.00 Build 0)  -->
<svg version="1.1" xmlns="http://www.w3.org/2000/svg" xmlns:xlink="http://www.w3.org/1999/xlink" x="0px" y="0px"
	 viewBox="0 0 500 500" style="enable-background:new 0 0 500 500;" xml:space="preserve">
<g id="Background_Simple">
	<g>
		<path style="fill:#92E3A9;" d="M423.873,127.523c-4.913-8.005-10.428-15.677-16.59-22.939
			c-33.689-39.704-80.289-75.351-133.595-76.552c-87.972-1.982-155.643,90.164-174.977,136.732S16.54,291.588,35.874,342.119
			c19.335,50.531,137.275,108.99,220.413,118.898c83.138,9.908,137.275-21.798,171.111-69.357
			c23.806-33.462,29.793-81.258,30.54-121.448C458.856,220.763,449.662,169.546,423.873,127.523z"/>
		<path style="opacity:0.7;fill:#FFFFFF;" d="M423.873,127.523c-4.913-8.005-10.428-15.677-16.59-22.939
			c-33.689-39.704-80.289-75.351-133.595-76.552c-87.972-1.982-155.643,90.164-174.977,136.732S16.54,291.588,35.874,342.119
			c19.335,50.531,137.275,108.99,220.413,118.898c83.138,9.908,137.275-21.798,171.111-69.357
			c23.806-33.462,29.793-81.258,30.54-121.448C458.856,220.763,449.662,169.546,423.873,127.523z"/>
	</g>
</g>
<g id="Window">
	<g>
		<g style="opacity:0.2;">
			
				<rect x="196.25" y="42" style="fill:none;stroke:#263238;stroke-linecap:round;stroke-miterlimit:10;" width="129.978" height="365.724"/>
			<polyline style="fill:none;stroke:#263238;stroke-linecap:round;stroke-miterlimit:10;" points="196.944,53.119 325.969,53.119 
				322.938,43.065 			"/>
			<polyline style="fill:none;stroke:#263238;stroke-linecap:round;stroke-miterlimit:10;" points="196.944,65.295 325.969,65.295 
				322.938,55.241 			"/>
			<polyline style="fill:none;stroke:#263238;stroke-linecap:round;stroke-miterlimit:10;" points="196.944,77.471 325.969,77.471 
				322.938,67.417 			"/>
			<polyline style="fill:none;stroke:#263238;stroke-linecap:round;stroke-miterlimit:10;" points="196.944,89.648 325.969,89.648 
				322.938,79.593 			"/>
			<polyline style="fill:none;stroke:#263238;stroke-linecap:round;stroke-miterlimit:10;" points="196.944,101.824 
				325.969,101.824 322.938,91.77 			"/>
			<polyline style="fill:none;stroke:#263238;stroke-linecap:round;stroke-miterlimit:10;" points="196.944,114 325.969,114 
				322.938,103.946 			"/>
			<polyline style="fill:none;stroke:#263238;stroke-linecap:round;stroke-miterlimit:10;" points="196.944,126.176 
				325.969,126.176 322.938,116.122 			"/>
			<polyline style="fill:none;stroke:#263238;stroke-linecap:round;stroke-miterlimit:10;" points="196.944,138.352 
				325.969,138.352 322.938,128.298 			"/>
			<polyline style="fill:none;stroke:#263238;stroke-linecap:round;stroke-miterlimit:10;" points="196.944,150.528 
				325.969,150.528 322.938,140.474 			"/>
			<polyline style="fill:none;stroke:#263238;stroke-linecap:round;stroke-miterlimit:10;" points="196.944,162.704 
				325.969,162.704 322.938,152.65 			"/>
			<polyline style="fill:none;stroke:#263238;stroke-linecap:round;stroke-miterlimit:10;" points="196.944,174.88 325.969,174.88 
				322.938,164.826 			"/>
			<polyline style="fill:none;stroke:#263238;stroke-linecap:round;stroke-miterlimit:10;" points="196.944,187.056 
				325.969,187.056 322.938,177.002 			"/>
			<polyline style="fill:none;stroke:#263238;stroke-linecap:round;stroke-miterlimit:10;" points="196.944,199.232 
				325.969,199.232 322.938,189.178 			"/>
			<polyline style="fill:none;stroke:#263238;stroke-linecap:round;stroke-miterlimit:10;" points="196.944,211.408 
				325.969,211.408 322.938,201.354 			"/>
			<polyline style="fill:none;stroke:#263238;stroke-linecap:round;stroke-miterlimit:10;" points="196.944,223.584 
				325.969,223.584 322.938,213.53 			"/>
			<polyline style="fill:none;stroke:#263238;stroke-linecap:round;stroke-miterlimit:10;" points="196.944,235.76 325.969,235.76 
				322.938,225.706 			"/>
			<polyline style="fill:none;stroke:#263238;stroke-linecap:round;stroke-miterlimit:10;" points="196.944,247.937 
				325.969,247.937 322.938,237.882 			"/>
			<polyline style="fill:none;stroke:#263238;stroke-linecap:round;stroke-miterlimit:10;" points="196.944,260.113 
				325.969,260.113 322.938,250.059 			"/>
			<polyline style="fill:none;stroke:#263238;stroke-linecap:round;stroke-miterlimit:10;" points="196.944,272.289 
				325.969,272.289 322.938,262.235 			"/>
			<polyline style="fill:none;stroke:#263238;stroke-linecap:round;stroke-miterlimit:10;" points="196.944,284.465 
				325.969,284.465 322.938,274.411 			"/>
			<polyline style="fill:none;stroke:#263238;stroke-linecap:round;stroke-miterlimit:10;" points="196.944,296.641 
				325.969,296.641 322.938,286.587 			"/>
			<polyline style="fill:none;stroke:#263238;stroke-linecap:round;stroke-miterlimit:10;" points="196.944,308.817 
				325.969,308.817 322.938,298.763 			"/>
			<polyline style="fill:none;stroke:#263238;stroke-linecap:round;stroke-miterlimit:10;" points="196.944,320.993 
				325.969,320.993 322.938,310.939 			"/>
			<polyline style="fill:none;stroke:#263238;stroke-linecap:round;stroke-miterlimit:10;" points="196.944,333.169 
				325.969,333.169 322.938,323.115 			"/>
			<polyline style="fill:none;stroke:#263238;stroke-linecap:round;stroke-miterlimit:10;" points="196.944,345.345 
				325.969,345.345 322.938,335.291 			"/>
			<polyline style="fill:none;stroke:#263238;stroke-linecap:round;stroke-miterlimit:10;" points="196.944,357.521 
				325.969,357.521 322.938,347.467 			"/>
			<polyline style="fill:none;stroke:#263238;stroke-linecap:round;stroke-miterlimit:10;" points="196.944,369.697 
				325.969,369.697 322.938,359.643 			"/>
			<polyline style="fill:none;stroke:#263238;stroke-linecap:round;stroke-miterlimit:10;" points="196.944,381.873 
				325.969,381.873 322.938,371.819 			"/>
			<polyline style="fill:none;stroke:#263238;stroke-linecap:round;stroke-miterlimit:10;" points="196.944,394.049 
				325.969,394.049 322.938,383.995 			"/>
		</g>
		<g style="opacity:0.2;">
			
				<rect x="336.022" y="42" style="fill:none;stroke:#263238;stroke-linecap:round;stroke-miterlimit:10;" width="129.978" height="365.724"/>
			<polyline style="fill:none;stroke:#263238;stroke-linecap:round;stroke-miterlimit:10;" points="336.716,53.119 465.741,53.119 
				462.71,43.065 			"/>
			<polyline style="fill:none;stroke:#263238;stroke-linecap:round;stroke-miterlimit:10;" points="336.716,65.295 465.741,65.295 
				462.71,55.241 			"/>
			<polyline style="fill:none;stroke:#263238;stroke-linecap:round;stroke-miterlimit:10;" points="336.716,77.471 465.741,77.471 
				462.71,67.417 			"/>
			<polyline style="fill:none;stroke:#263238;stroke-linecap:round;stroke-miterlimit:10;" points="336.716,89.648 465.741,89.648 
				462.71,79.593 			"/>
			<polyline style="fill:none;stroke:#263238;stroke-linecap:round;stroke-miterlimit:10;" points="336.716,101.824 
				465.741,101.824 462.71,91.77 			"/>
			<polyline style="fill:none;stroke:#263238;stroke-linecap:round;stroke-miterlimit:10;" points="336.716,114 465.741,114 
				462.71,103.946 			"/>
			<polyline style="fill:none;stroke:#263238;stroke-linecap:round;stroke-miterlimit:10;" points="336.716,126.176 
				465.741,126.176 462.71,116.122 			"/>
			<polyline style="fill:none;stroke:#263238;stroke-linecap:round;stroke-miterlimit:10;" points="336.716,138.352 
				465.741,138.352 462.71,128.298 			"/>
			<polyline style="fill:none;stroke:#263238;stroke-linecap:round;stroke-miterlimit:10;" points="336.716,150.528 
				465.741,150.528 462.71,140.474 			"/>
			<polyline style="fill:none;stroke:#263238;stroke-linecap:round;stroke-miterlimit:10;" points="336.716,162.704 
				465.741,162.704 462.71,152.65 			"/>
			<polyline style="fill:none;stroke:#263238;stroke-linecap:round;stroke-miterlimit:10;" points="336.716,174.88 465.741,174.88 
				462.71,164.826 			"/>
			<polyline style="fill:none;stroke:#263238;stroke-linecap:round;stroke-miterlimit:10;" points="336.716,187.056 
				465.741,187.056 462.71,177.002 			"/>
			<polyline style="fill:none;stroke:#263238;stroke-linecap:round;stroke-miterlimit:10;" points="336.716,199.232 
				465.741,199.232 462.71,189.178 			"/>
			<polyline style="fill:none;stroke:#263238;stroke-linecap:round;stroke-miterlimit:10;" points="336.716,211.408 
				465.741,211.408 462.71,201.354 			"/>
			<polyline style="fill:none;stroke:#263238;stroke-linecap:round;stroke-miterlimit:10;" points="336.716,223.584 
				465.741,223.584 462.71,213.53 			"/>
			<polyline style="fill:none;stroke:#263238;stroke-linecap:round;stroke-miterlimit:10;" points="336.716,235.76 465.741,235.76 
				462.71,225.706 			"/>
			<polyline style="fill:none;stroke:#263238;stroke-linecap:round;stroke-miterlimit:10;" points="336.716,247.937 
				465.741,247.937 462.71,237.882 			"/>
			<polyline style="fill:none;stroke:#263238;stroke-linecap:round;stroke-miterlimit:10;" points="336.716,260.113 
				465.741,260.113 462.71,250.059 			"/>
			<polyline style="fill:none;stroke:#263238;stroke-linecap:round;stroke-miterlimit:10;" points="336.716,272.289 
				465.741,272.289 462.71,262.235 			"/>
			<polyline style="fill:none;stroke:#263238;stroke-linecap:round;stroke-miterlimit:10;" points="336.716,284.465 
				465.741,284.465 462.71,274.411 			"/>
			<polyline style="fill:none;stroke:#263238;stroke-linecap:round;stroke-miterlimit:10;" points="336.716,296.641 
				465.741,296.641 462.71,286.587 			"/>
			<polyline style="fill:none;stroke:#263238;stroke-linecap:round;stroke-miterlimit:10;" points="336.716,308.817 
				465.741,308.817 462.71,298.763 			"/>
			<polyline style="fill:none;stroke:#263238;stroke-linecap:round;stroke-miterlimit:10;" points="336.716,320.993 
				465.741,320.993 462.71,310.939 			"/>
			<polyline style="fill:none;stroke:#263238;stroke-linecap:round;stroke-miterlimit:10;" points="336.716,333.169 
				465.741,333.169 462.71,323.115 			"/>
			<polyline style="fill:none;stroke:#263238;stroke-linecap:round;stroke-miterlimit:10;" points="336.716,345.345 
				465.741,345.345 462.71,335.291 			"/>
			<polyline style="fill:none;stroke:#263238;stroke-linecap:round;stroke-miterlimit:10;" points="336.716,357.521 
				465.741,357.521 462.71,347.467 			"/>
			<polyline style="fill:none;stroke:#263238;stroke-linecap:round;stroke-miterlimit:10;" points="336.716,369.697 
				465.741,369.697 462.71,359.643 			"/>
			<polyline style="fill:none;stroke:#263238;stroke-linecap:round;stroke-miterlimit:10;" points="336.716,381.873 
				465.741,381.873 462.71,371.819 			"/>
			<polyline style="fill:none;stroke:#263238;stroke-linecap:round;stroke-miterlimit:10;" points="336.716,394.049 
				465.741,394.049 462.71,383.995 			"/>
		</g>
	</g>
</g>
<g id="Picture">
	<g style="opacity:0.2;">
		<rect x="48" y="23" style="fill:none;stroke:#263238;stroke-linecap:round;stroke-miterlimit:10;" width="104" height="134"/>
		
			<rect x="56" y="33.308" style="fill:none;stroke:#263238;stroke-linecap:round;stroke-miterlimit:10;" width="88" height="113.385"/>
	</g>
	<g>
		<line style="fill:none;stroke:#263238;stroke-miterlimit:10;" x1="465" y1="423" x2="473" y2="423"/>
		<line style="fill:none;stroke:#263238;stroke-miterlimit:10;" x1="23" y1="423" x2="456.333" y2="423"/>
	</g>
	<g>
		<rect x="93.199" y="54.236" style="fill:#D4D4D4;" width="329" height="130"/>
		<line style="fill:none;stroke:#263238;stroke-miterlimit:10;" x1="123.753" y1="184.236" x2="114.697" y2="184.236"/>
		<polyline style="fill:none;stroke:#263238;stroke-miterlimit:10;" points="422.199,93.188 422.199,184.236 129.98,184.236 		"/>
		<polyline style="fill:none;stroke:#263238;stroke-miterlimit:10;" points="108.471,184.236 93.199,184.236 93.199,54.236 
			422.199,54.236 422.199,85.264 		"/>
		<rect x="93.199" y="54.236" style="fill:#263238;stroke:#263238;stroke-miterlimit:10;" width="329" height="13"/>
		<rect x="112.199" y="142.903" style="fill:#FFFFFF;stroke:#263238;stroke-miterlimit:10;" width="235" height="16"/>
		<g>
			<rect x="354.833" y="145.513" style="fill:#263238;" width="53.28" height="20.06"/>
			<rect x="353.048" y="141.945" style="fill:#D4D4D4;stroke:#263238;stroke-miterlimit:10;" width="53.28" height="20.06"/>
			<g>
				<path style="fill:#263238;" d="M371.515,149.917v0.752h-0.883v-0.8c0-0.751-0.298-1.205-0.978-1.205
					c-0.668,0-0.979,0.453-0.979,1.205v4.415c0,0.751,0.311,1.205,0.979,1.205c0.68,0,0.978-0.453,0.978-1.205v-1.086h0.883v1.038
					c0,1.264-0.597,2.1-1.885,2.1c-1.276,0-1.873-0.835-1.873-2.1v-4.319c0-1.264,0.596-2.1,1.873-2.1
					C370.918,147.817,371.515,148.652,371.515,149.917z"/>
				<path style="fill:#263238;" d="M373.303,154.57l-0.322,1.682h-0.859l1.598-8.351h1.349l1.598,8.351h-0.93l-0.322-1.682H373.303z
					 M373.422,153.771h1.861l-0.942-4.82L373.422,153.771z"/>
				<path style="fill:#263238;" d="M378.216,156.252h-0.835v-8.351h1.181l1.932,6.037v-6.037h0.823v8.351h-0.966l-2.136-6.753
					V156.252z"/>
				<path style="fill:#263238;" d="M385.957,149.917v0.752h-0.882v-0.8c0-0.751-0.298-1.205-0.979-1.205
					c-0.668,0-0.978,0.453-0.978,1.205v4.415c0,0.751,0.31,1.205,0.978,1.205c0.681,0,0.979-0.453,0.979-1.205v-1.086h0.882v1.038
					c0,1.264-0.596,2.1-1.885,2.1c-1.277,0-1.873-0.835-1.873-2.1v-4.319c0-1.264,0.596-2.1,1.873-2.1
					C385.361,147.817,385.957,148.652,385.957,149.917z"/>
				<path style="fill:#263238;" d="M389.773,151.599v0.835h-2.04v2.971h2.505v0.847h-3.436v-8.351h3.436v0.847h-2.505v2.851H389.773
					z"/>
				<path style="fill:#263238;" d="M391.096,156.252v-8.351h0.93v7.504h2.386v0.847H391.096z"/>
			</g>
		</g>
		
			<rect x="171.584" y="85.964" transform="matrix(0.6367 -0.7711 0.7711 0.6367 -10.1504 176.2287)" style="fill:#FFFFFF;stroke:#263238;stroke-miterlimit:10;" width="20.733" height="25.845"/>
		
			<rect x="260.065" y="85.964" transform="matrix(-0.6367 -0.7711 0.7711 -0.6367 366.3637 370.3803)" style="fill:#FFFFFF;stroke:#263238;stroke-miterlimit:10;" width="20.733" height="25.845"/>
		
			<rect x="213.251" y="77.298" transform="matrix(0.7954 -0.6061 0.6061 0.7954 -8.9263 153.9994)" style="fill:#FFFFFF;stroke:#263238;stroke-miterlimit:10;" width="20.733" height="25.845"/>
		<g>
			<polygon style="fill:#92E3A9;stroke:#263238;stroke-miterlimit:10;" points="134.703,111.844 133.703,109.552 118.953,109.552 
				115.959,133.042 143.354,133.042 146.347,111.844 			"/>
			
				<rect x="126.399" y="97.906" transform="matrix(0.6367 -0.7711 0.7711 0.6367 -35.7743 145.7243)" style="fill:#FFFFFF;stroke:#263238;stroke-miterlimit:10;" width="20.733" height="25.845"/>
			<polygon style="fill:#92E3A9;stroke:#263238;stroke-miterlimit:10;" points="128.001,111.844 127.001,109.552 112.251,109.552 
				115.426,133.042 142.82,133.042 139.646,111.844 			"/>
		</g>
		<g>
			<polygon style="fill:#92E3A9;stroke:#263238;stroke-miterlimit:10;" points="318.562,111.844 319.562,109.552 334.312,109.552 
				337.306,133.042 309.911,133.042 306.918,111.844 			"/>
			
				<rect x="301.251" y="97.906" transform="matrix(-0.6367 -0.7711 0.7711 -0.6367 424.5635 421.6835)" style="fill:#FFFFFF;stroke:#263238;stroke-miterlimit:10;" width="20.733" height="25.845"/>
			<polygon style="fill:#92E3A9;stroke:#263238;stroke-miterlimit:10;" points="325.264,111.844 326.264,109.552 341.014,109.552 
				337.839,133.042 310.445,133.042 313.619,111.844 			"/>
		</g>
		<g>
			<rect x="115.533" y="145.569" style="fill:#263238;stroke:#263238;stroke-miterlimit:10;" width="8" height="10.667"/>
			<rect x="126.199" y="145.569" style="fill:#263238;stroke:#263238;stroke-miterlimit:10;" width="8" height="10.667"/>
			<rect x="136.866" y="145.569" style="fill:#263238;stroke:#263238;stroke-miterlimit:10;" width="8" height="10.667"/>
			<rect x="147.533" y="145.569" style="fill:#263238;stroke:#263238;stroke-miterlimit:10;" width="8" height="10.667"/>
			<rect x="158.199" y="145.569" style="fill:#263238;stroke:#263238;stroke-miterlimit:10;" width="8" height="10.667"/>
			<rect x="168.866" y="145.569" style="fill:#263238;stroke:#263238;stroke-miterlimit:10;" width="8" height="10.667"/>
			<rect x="179.533" y="145.569" style="fill:#263238;stroke:#263238;stroke-miterlimit:10;" width="8" height="10.667"/>
			<rect x="190.199" y="145.569" style="fill:#263238;stroke:#263238;stroke-miterlimit:10;" width="8" height="10.667"/>
			<rect x="200.866" y="145.569" style="fill:#263238;stroke:#263238;stroke-miterlimit:10;" width="8" height="10.667"/>
			<rect x="211.533" y="145.569" style="fill:#263238;stroke:#263238;stroke-miterlimit:10;" width="8" height="10.667"/>
			<rect x="222.199" y="145.569" style="fill:#263238;stroke:#263238;stroke-miterlimit:10;" width="8" height="10.667"/>
			<rect x="232.866" y="145.569" style="fill:#263238;stroke:#263238;stroke-miterlimit:10;" width="8" height="10.667"/>
			<rect x="243.533" y="145.569" style="fill:#263238;stroke:#263238;stroke-miterlimit:10;" width="8" height="10.667"/>
			<rect x="254.199" y="145.569" style="fill:#263238;stroke:#263238;stroke-miterlimit:10;" width="8" height="10.667"/>
			<rect x="264.866" y="145.569" style="fill:#263238;stroke:#263238;stroke-miterlimit:10;" width="8" height="10.667"/>
		</g>
		<g>
			<rect x="409.108" y="55.766" style="fill:#D4D4D4;stroke:#263238;stroke-miterlimit:10;" width="9.805" height="9.805"/>
			<polygon style="fill:#263238;" points="417.743,58.234 417.089,57.478 414.096,60.071 411.104,57.478 410.449,58.234 
				413.333,60.733 410.449,63.232 411.104,63.987 414.096,61.394 417.089,63.987 417.743,63.232 414.859,60.733 			"/>
		</g>
	</g>
</g>
<g id="Plants">
	<g>
		<path style="fill:none;stroke:#263238;stroke-width:2;stroke-linecap:round;stroke-miterlimit:10;" d="M432.139,224.344
			c0,0-15.703-8.724-16.866,11.05c-1.163,19.774-4.071,148.307-4.071,148.307"/>
		<path style="fill:none;stroke:#263238;stroke-width:2;stroke-linecap:round;stroke-miterlimit:10;" d="M407.117,237.137
			c0,0,12.808,28.5,6.992,144.82"/>
		<g>
			<path style="fill:#92E3A9;" d="M419.701,228.324c0,0-6.007,3.849-9.425-0.556c-3.418-4.405,2.312-12.474-2.738-15.924
				c-5.051-3.451-13.768,1.815-13.768,1.815s6.714,1.972,6.498,5.637c-0.216,3.665-3.451,5.051-3.881,3.449
				c-0.431-1.602-3.633-9.672-9.085-6.316c-5.452,3.356-6.285,8.561-6.285,8.561s12.69-1.353,13.459,3.421
				c0.769,4.774-5.205-0.833-10.441-1.141s-10.01,0.46-9.672,3.633c0.338,3.173-0.494,8.378-0.494,8.378s4.436-3.942,10.195-3.602
				s5.543,4.005,0.307,3.696s-9.734,4.68-9.734,4.68s4.773,8.163,10.839,12.199c6.067,4.036,8.254,2.589,8.963-0.522
				c0.709-3.111-0.922-11.088,2.743-10.872c3.665,0.216-6.07,13.828-1.389,14.63c4.682,0.802,8.439-0.553,9.672-3.633
				c1.233-3.08,1.233-3.08,1.233-3.08s-1.631-7.977-0.922-11.088c0.709-3.111,1.571,0.093,2.402,3.82
				c0.831,3.727,1.353,12.69,2.955,12.259c1.602-0.431,6.716-6.96,7.917-9.516c1.202-2.556-6.743-10.381-6.651-11.951
				c0.093-1.571,6.221,1.418,7.176,3.05c0.954,1.632,1.878,3.789,1.878,3.789s3.82-2.402,3.728-9.763
				C425.091,226.015,419.701,228.324,419.701,228.324z"/>
			<path style="opacity:0.3;fill:#263238;" d="M419.701,228.324c0,0-6.007,3.849-9.425-0.556
				c-3.418-4.405,2.312-12.474-2.738-15.924c-5.051-3.451-13.768,1.815-13.768,1.815s6.714,1.972,6.498,5.637
				c-0.216,3.665-3.451,5.051-3.881,3.449c-0.431-1.602-3.633-9.672-9.085-6.316c-5.452,3.356-6.285,8.561-6.285,8.561
				s12.69-1.353,13.459,3.421c0.769,4.774-5.205-0.833-10.441-1.141s-10.01,0.46-9.672,3.633c0.338,3.173-0.494,8.378-0.494,8.378
				s4.436-3.942,10.195-3.602s5.543,4.005,0.307,3.696s-9.734,4.68-9.734,4.68s4.773,8.163,10.839,12.199
				c6.067,4.036,8.254,2.589,8.963-0.522c0.709-3.111-0.922-11.088,2.743-10.872c3.665,0.216-6.07,13.828-1.389,14.63
				c4.682,0.802,8.439-0.553,9.672-3.633c1.233-3.08,1.233-3.08,1.233-3.08s-1.631-7.977-0.922-11.088
				c0.709-3.111,1.571,0.093,2.402,3.82c0.831,3.727,1.353,12.69,2.955,12.259c1.602-0.431,6.716-6.96,7.917-9.516
				c1.202-2.556-6.743-10.381-6.651-11.951c0.093-1.571,6.221,1.418,7.176,3.05c0.954,1.632,1.878,3.789,1.878,3.789
				s3.82-2.402,3.728-9.763C425.091,226.015,419.701,228.324,419.701,228.324z"/>
			<path style="fill:none;stroke:#263238;stroke-linecap:round;stroke-miterlimit:10;" d="M389.249,245.585
				c3.917-4.843,9.69-11.395,14.528-14.522"/>
			<path style="fill:none;stroke:#263238;stroke-linecap:round;stroke-miterlimit:10;" d="M384.708,251.48
				c0,0,1.006-1.398,2.636-3.494"/>
			<path style="fill:none;stroke:#263238;stroke-linecap:round;stroke-miterlimit:10;" d="M406.333,232.264
				c0,0,5.82,8.225,6.896,16.695"/>
			<path style="fill:none;stroke:#263238;stroke-linecap:round;stroke-miterlimit:10;" d="M399.741,237.13
				c0,0,1.633-0.955,1.015,9.517"/>
			<path style="fill:none;stroke:#263238;stroke-linecap:round;stroke-miterlimit:10;" d="M403.993,227.398
				c0,0,3.327-2.956,1.572-8.839"/>
			
				<line style="fill:none;stroke:#263238;stroke-linecap:round;stroke-miterlimit:10;" x1="399.495" y1="232.386" x2="397.124" y2="228.043"/>
			<path style="fill:none;stroke:#263238;stroke-linecap:round;stroke-miterlimit:10;" d="M394.505,236.821
				c0,0-7.545-5.699-12.257-5.977"/>
		</g>
		<g>
			<path style="fill:#92E3A9;" d="M441.11,212.806c0,0-0.241,8.637-6.981,9.057c-6.74,0.42-10.913-10.817-17.81-8.112
				c-6.897,2.705-7.567,15.021-7.567,15.021s6.551-5.378,10.073-2.663c3.522,2.715,2.705,6.897,0.807,6.237
				c-1.897-0.66-12.16-2.955-12.516,4.791c-0.356,7.746,4.288,12.128,4.288,12.128s7.295-13.627,12.599-11.143
				c5.304,2.484-4.381,4.644-8.26,9.676c-3.878,5.032-6.362,10.336-2.955,12.16c3.407,1.824,8.051,6.205,8.051,6.205
				s-0.923-7.128,3.343-12.663c4.266-5.535,7.788-2.82,3.91,2.212s-1.949,12.935-1.949,12.935s11.426,0.786,19.602-2.538
				s8.218-6.499,5.586-9.33c-2.631-2.83-11.73-6.635-9.015-10.157c2.715-3.522,9.707,15.503,13.701,11.362
				c3.994-4.141,5.199-8.826,2.955-12.16c-2.243-3.333-2.243-3.333-2.243-3.333s-9.099-3.805-11.73-6.635
				c-2.631-2.83,1.164-1.509,5.461,0.199c4.298,1.708,13.627,7.295,14.288,5.398c0.66-1.897-2.391-11.467-4.131-14.413
				c-1.74-2.945-14.99-0.324-16.499-1.488c-1.51-1.163,5.66-5.262,7.945-5.105c2.285,0.157,5.074,0.702,5.074,0.702
				s0.199-5.461-7.233-10.387C442.473,205.835,441.11,212.806,441.11,212.806z"/>
			<path style="opacity:0.2;fill:#263238;" d="M441.11,212.806c0,0-0.241,8.637-6.981,9.057c-6.74,0.42-10.913-10.817-17.81-8.112
				c-6.897,2.705-7.567,15.021-7.567,15.021s6.551-5.378,10.073-2.663c3.522,2.715,2.705,6.897,0.807,6.237
				c-1.897-0.66-12.16-2.955-12.516,4.791c-0.356,7.746,4.288,12.128,4.288,12.128s7.295-13.627,12.599-11.143
				c5.304,2.484-4.381,4.644-8.26,9.676c-3.878,5.032-6.362,10.336-2.955,12.16c3.407,1.824,8.051,6.205,8.051,6.205
				s-0.923-7.128,3.343-12.663c4.266-5.535,7.788-2.82,3.91,2.212s-1.949,12.935-1.949,12.935s11.426,0.786,19.602-2.538
				s8.218-6.499,5.586-9.33c-2.631-2.83-11.73-6.635-9.015-10.157c2.715-3.522,9.707,15.503,13.701,11.362
				c3.994-4.141,5.199-8.826,2.955-12.16c-2.243-3.333-2.243-3.333-2.243-3.333s-9.099-3.805-11.73-6.635
				c-2.631-2.83,1.164-1.509,5.461,0.199c4.298,1.708,13.627,7.295,14.288,5.398c0.66-1.897-2.391-11.467-4.131-14.413
				c-1.74-2.945-14.99-0.324-16.499-1.488c-1.51-1.163,5.66-5.262,7.945-5.105c2.285,0.157,5.074,0.702,5.074,0.702
				s0.199-5.461-7.233-10.387C442.473,205.835,441.11,212.806,441.11,212.806z"/>
			<path style="fill:none;stroke:#263238;stroke-linecap:round;stroke-miterlimit:10;" d="M437.635,255.06
				c-2.179-7.223-4.804-17.469-4.637-24.444"/>
			<path style="fill:none;stroke:#263238;stroke-linecap:round;stroke-miterlimit:10;" d="M440.442,263.624
				c0,0-0.715-1.96-1.701-5.021"/>
			<path style="fill:none;stroke:#263238;stroke-linecap:round;stroke-miterlimit:10;" d="M435.943,228.876
				c0,0,12.201-0.221,21.416,4.475"/>
			<path style="fill:none;stroke:#263238;stroke-linecap:round;stroke-miterlimit:10;" d="M436.321,238.792
				c0,0,0.157-2.285,10.221,5.471"/>
			<path style="fill:none;stroke:#263238;stroke-linecap:round;stroke-miterlimit:10;" d="M429.476,227.901
				c0,0-0.692-5.346-7.778-7.599"/>
			
				<line style="fill:none;stroke:#263238;stroke-linecap:round;stroke-miterlimit:10;" x1="431.405" y1="235.805" x2="425.44" y2="235.218"/>
			<path style="fill:none;stroke:#263238;stroke-linecap:round;stroke-miterlimit:10;" d="M432.443,243.823
				c0,0-10.849,3.669-14.339,8.198"/>
		</g>
		<path style="fill:none;stroke:#263238;stroke-width:2;stroke-linecap:round;stroke-miterlimit:10;" d="M368.745,270.29
			c0,0,34.314,22.682,33.733,110.503"/>
		<g>
			<path style="fill:#92E3A9;" d="M411.053,264.298c0,0-1.093,9.944-8.91,9.792c-7.817-0.152-11.571-13.512-19.785-11.042
				c-8.214,2.47-10.15,16.619-10.15,16.619s8.067-5.587,11.875-2.122c3.808,3.465,2.47,8.214,0.343,7.273
				c-2.127-0.941-13.752-4.558-14.894,4.347c-1.142,8.905,3.803,14.399,3.803,14.399s9.704-15.036,15.59-11.669
				c5.886,3.367-5.494,4.945-10.444,10.385c-4.95,5.44-8.317,11.326-4.558,13.752c3.759,2.426,8.704,7.92,8.704,7.92
				s-0.392-8.312,5.053-14.296c5.445-5.984,9.253-2.519,4.303,2.921c-4.95,5.44-3.47,14.742-3.47,14.742s13.11,1.985,22.858-1.078
				c9.748-3.063,10.096-6.724,7.327-10.238c-2.769-3.514-12.909-8.763-9.444-12.571c3.465-3.808,9.738,18.805,14.737,14.404
				c4.999-4.401,6.832-9.694,4.558-13.752c-2.274-4.058-2.274-4.058-2.274-4.058s-10.14-5.249-12.909-8.763
				c-2.769-3.514,1.485-1.632,6.283,0.745c4.798,2.377,15.036,9.704,15.977,7.577c0.941-2.127-1.676-13.458-3.406-17.021
				c-1.73-3.563-17.266-1.789-18.898-3.274c-1.632-1.485,7.028-5.538,9.65-5.141c2.622,0.397,5.788,1.289,5.788,1.289
				s0.745-6.283-7.366-12.669C413.283,256.383,411.053,264.298,411.053,264.298z"/>
			<path style="opacity:0.3;fill:#263238;" d="M411.053,264.298c0,0-1.093,9.944-8.91,9.792
				c-7.817-0.152-11.571-13.512-19.785-11.042c-8.214,2.47-10.15,16.619-10.15,16.619s8.067-5.587,11.875-2.122
				c3.808,3.465,2.47,8.214,0.343,7.273c-2.127-0.941-13.752-4.558-14.894,4.347c-1.142,8.905,3.803,14.399,3.803,14.399
				s9.704-15.036,15.59-11.669c5.886,3.367-5.494,4.945-10.444,10.385c-4.95,5.44-8.317,11.326-4.558,13.752
				c3.759,2.426,8.704,7.92,8.704,7.92s-0.392-8.312,5.053-14.296c5.445-5.984,9.253-2.519,4.303,2.921
				c-4.95,5.44-3.47,14.742-3.47,14.742s13.11,1.985,22.858-1.078c9.748-3.063,10.096-6.724,7.327-10.238
				c-2.769-3.514-12.909-8.763-9.444-12.571c3.465-3.808,9.738,18.805,14.737,14.404c4.999-4.401,6.832-9.694,4.558-13.752
				c-2.274-4.058-2.274-4.058-2.274-4.058s-10.14-5.249-12.909-8.763c-2.769-3.514,1.485-1.632,6.283,0.745
				c4.798,2.377,15.036,9.704,15.977,7.577c0.941-2.127-1.676-13.458-3.406-17.021c-1.73-3.563-17.266-1.789-18.898-3.274
				c-1.632-1.485,7.028-5.538,9.65-5.141c2.622,0.397,5.788,1.289,5.788,1.289s0.745-6.283-7.366-12.669
				C413.283,256.383,411.053,264.298,411.053,264.298z"/>
			<path style="fill:none;stroke:#263238;stroke-linecap:round;stroke-miterlimit:10;" d="M403.055,312.727
				c-1.832-8.54-3.895-20.61-3.044-28.644"/>
			<path style="fill:none;stroke:#263238;stroke-linecap:round;stroke-miterlimit:10;" d="M405.486,322.875
				c0,0-0.64-2.329-1.489-5.954"/>
			<path style="fill:none;stroke:#263238;stroke-linecap:round;stroke-miterlimit:10;" d="M403.574,282.354
				c0,0,14.1,0.897,24.289,7.185"/>
			<path style="fill:none;stroke:#263238;stroke-linecap:round;stroke-miterlimit:10;" d="M403.074,293.832
				c0,0,0.397-2.622,11.277,7.278"/>
			<path style="fill:none;stroke:#263238;stroke-linecap:round;stroke-miterlimit:10;" d="M396.203,280.619
				c0,0-0.294-6.234-8.258-9.503"/>
			
				<line style="fill:none;stroke:#263238;stroke-linecap:round;stroke-miterlimit:10;" x1="397.683" y1="289.921" x2="390.856" y2="288.681"/>
			<path style="fill:none;stroke:#263238;stroke-linecap:round;stroke-miterlimit:10;" d="M398.124,299.272
				c0,0-12.865,3.21-17.32,8.106"/>
		</g>
		<path style="fill:none;stroke:#263238;stroke-width:2;stroke-linecap:round;stroke-miterlimit:10;" d="M382.122,339.5
			c0,0,22.101,16.866,24.427,41.875l-4.653-83.75"/>
		<path style="fill:none;stroke:#263238;stroke-width:2;stroke-linecap:round;stroke-miterlimit:10;" d="M435.629,327.287
			c-29.08-5.234-29.08,54.089-29.08,54.089"/>
		<path style="fill:none;stroke:#263238;stroke-width:2;stroke-linecap:round;stroke-miterlimit:10;" d="M410.038,380.794
			c0,0-16.866-122.717,31.988-122.717"/>
		<g>
			<path style="fill:#92E3A9;" d="M424.548,323.759c-3.972-4.469-12.413-4.469-17.378,6.951c-4.965,11.42-0.497,9.434-0.497,9.434
				s9.434-2.979,15.392-4.965c5.958-1.986,13.903-6.951,14.399-3.972c0.497,2.979-3.972,5.958-9.434,6.951
				c-5.462,0.993-19.861,4.965-18.371,7.944c1.49,2.979,4.965,11.917,4.965,11.917s6.951-5.958,13.406-9.931
				c6.455-3.972,10.427-2.483,6.951,1.986c-3.476,4.469-13.406,9.434-11.42,15.392c1.986,5.958,13.903,13.406,13.903,13.406
				s1.49-12.413,4.965-16.385c3.476-3.972,3.476,0.496,2.483,7.448c-0.993,6.951-0.993,8.938-0.993,8.938l13.903,4.965
				c0,0,4.965-7.448,7.448-9.931s2.483-2.483,2.483-2.483s-10.924-9.434-11.42-15.392c-0.496-5.958,7.448,0,9.931,0.993
				c2.483,0.993,6.455,7.944,6.455,7.944s2.483-11.42,2.979-15.392s0.496-3.972,0.496-3.972s-10.427-3.972-14.399-3.972
				s-5.958,2.979-5.958-0.993c0-3.972,3.972-6.455,8.441-5.958c4.469,0.496,11.917,2.979,11.917,2.979s2.979-2.483,1.986-9.931
				c-0.993-7.448-3.476-7.448-9.434-5.462c-5.958,1.986-9.93,6.455-14.399,6.455c-4.469,0-1.986-5.462,0.993-6.951
				c2.979-1.49,10.427-4.469,11.917-4.965c1.49-0.497-7.944-7.448-12.91-8.441c-4.965-0.993-11.394,2.505-10.924,7.448
				C443.416,326.242,428.52,328.228,424.548,323.759z"/>
			<path style="fill:none;stroke:#263238;stroke-linecap:round;stroke-miterlimit:10;" d="M456.511,374.883
				c0.148,1.495,0.254,2.993,0.311,4.487"/>
			<path style="fill:none;stroke:#263238;stroke-linecap:round;stroke-miterlimit:10;" d="M446.536,339.238
				c3.487,8.059,7.52,19.171,9.346,30.767"/>
			<path style="fill:none;stroke:#263238;stroke-linecap:round;stroke-miterlimit:10;" d="M444.748,335.252
				c-2.46-5.29-4.311-8.514-4.311-8.514s4.469-1.986,6.455-5.958c1.986-3.972,4.965-5.958,4.965-5.958"/>
			<path style="fill:none;stroke:#263238;stroke-linecap:round;stroke-miterlimit:10;" d="M423.058,343.62
				c0,0,17.875-7.448,17.875-5.958"/>
			<path style="fill:none;stroke:#263238;stroke-linecap:round;stroke-miterlimit:10;" d="M450.864,334.186
				c0,0,7.944-3.972,14.896-3.972"/>
			<path style="fill:none;stroke:#263238;stroke-linecap:round;stroke-miterlimit:10;" d="M447.885,346.103
				c0,0-4.469,3.476-9.434,9.434c-4.965,5.958-6.951,11.42-6.951,11.42"/>
			<path style="fill:none;stroke:#263238;stroke-linecap:round;stroke-miterlimit:10;" d="M453.346,348.089
				c0,0,10.427-2.979,15.889,1.986"/>
		</g>
		<g>
			<path style="fill:#92E3A9;" d="M472.234,280.998c-5.406-3.197-11.384-3.267-14.314-6.642c-2.93-3.375,2.822-5.08,5.9-3.807
				c3.078,1.273,10.21,4.944,11.561,5.744c1.352,0.799,0.416-10.882-2.089-15.282c-2.505-4.401-9.361-6.962-12.785-3.366
				c-7.223,7.586-18.488-2.361-17.717-8.29c0.77-5.929-4.763-12.303-16.642-8.566c-11.879,3.737-7.45,5.81-7.45,5.81
				s8.434,5.171,13.84,8.368c5.406,3.197,14.363,5.941,12.439,8.269c-1.924,2.328-7.103,0.907-11.434-2.567
				c-4.331-3.473-16.77-11.743-18.043-8.665c-1.273,3.078-5.744,11.562-5.744,11.562s9.056,1.343,16.288,3.613
				c7.231,2.27,8.71,6.246,3.057,6.551c-5.653,0.305-15.913-3.939-19.11,1.467c-3.197,5.406-1.009,19.287-1.009,19.287
				s10.35-7.013,15.628-6.992c5.278,0.021,1.904,2.95-3.997,6.757c-5.9,3.807-7.4,5.109-7.4,5.109l5.365,13.754
				c0,0,8.879-1.133,12.382-0.886c3.502,0.247,3.502,0.247,3.502,0.247s-0.037-14.433,4.137-18.714
				c4.174-4.281,4.883,5.624,5.76,8.15c0.878,2.526-1.768,10.082-1.768,10.082s10.251-5.612,13.576-7.841
				c3.325-2.229,3.325-2.229,3.325-2.229s-3.836-10.478-6.44-13.477c-2.604-3-6.156-2.546-3.156-5.15
				c2.999-2.604,7.478-1.232,10.033,2.468c2.555,3.7,5.562,10.952,5.562,10.952s3.828,0.622,8.801-5.01
				C479.267,286.07,477.64,284.195,472.234,280.998z M425.244,296.891c-3.972-1.986,5.462-5.958,5.462-5.958
				C434.181,290.436,429.216,298.877,425.244,296.891z M431.933,278.354c-1.693-0.847,3.386-2.54,3.386-2.54
				C442.657,277.225,433.626,279.201,431.933,278.354z"/>
			<path style="fill:none;stroke:#263238;stroke-linecap:round;stroke-miterlimit:10;" d="M425.138,307.006
				c-1.032,1.092-2.094,2.154-3.184,3.177"/>
			<path style="fill:none;stroke:#263238;stroke-linecap:round;stroke-miterlimit:10;" d="M445.516,276.106
				c-3.8,7.916-9.547,18.246-17.107,27.228"/>
			<path style="fill:none;stroke:#263238;stroke-linecap:round;stroke-miterlimit:10;" d="M447.353,272.143
				c2.382-5.325,3.603-8.837,3.603-8.837s4.429,2.072,8.731,0.968c4.302-1.104,7.754-0.156,7.754-0.156"/>
			<path style="fill:none;stroke:#263238;stroke-linecap:round;stroke-miterlimit:10;" d="M426.816,261.25
				c0,0,17.342,8.615,16.217,9.592"/>
			<path style="fill:none;stroke:#263238;stroke-linecap:round;stroke-miterlimit:10;" d="M452.168,276.062
				c0,0,8.208,3.395,12.765,8.644"/>
			<path style="fill:none;stroke:#263238;stroke-linecap:round;stroke-miterlimit:10;" d="M441.216,281.625
				c0,0-5.554-1.096-13.309-0.939c-7.754,0.157-13.181,2.237-13.181,2.237"/>
			<path style="fill:none;stroke:#263238;stroke-linecap:round;stroke-miterlimit:10;" d="M443.297,287.051
				c0,0,9.085,5.921,8.916,13.3"/>
		</g>
		<g>
			<path style="fill:#92E3A9;" d="M395.079,349.798c-4.35-2.573-9.162-2.629-11.519-5.345c-2.357-2.716,2.271-4.088,4.748-3.064
				c2.477,1.025,8.217,3.979,9.304,4.622c1.087,0.643,0.335-8.757-1.681-12.298c-2.016-3.541-7.533-5.603-10.289-2.709
				c-5.813,6.104-14.878-1.9-14.258-6.671c0.62-4.771-3.833-9.901-13.393-6.893c-9.559,3.008-5.995,4.675-5.995,4.675
				s6.787,4.161,11.138,6.734c4.35,2.573,11.559,4.781,10.01,6.655c-1.548,1.873-5.716,0.729-9.201-2.066
				c-3.485-2.795-13.495-9.45-14.52-6.973c-1.025,2.477-4.622,9.304-4.622,9.304s7.288,1.081,13.107,2.908
				c5.819,1.827,7.01,5.027,2.46,5.272c-4.549,0.245-12.806-3.17-15.379,1.181c-2.573,4.35-0.812,15.521-0.812,15.521
				s8.329-5.644,12.577-5.627c4.247,0.016,1.532,2.374-3.216,5.438s-5.955,4.112-5.955,4.112l4.317,11.068
				c0,0,7.146-0.912,9.964-0.713c2.818,0.199,2.818,0.199,2.818,0.199s-0.03-11.615,3.329-15.06
				c3.359-3.445,3.929,4.526,4.635,6.559s-1.422,8.114-1.422,8.114s8.25-4.516,10.925-6.31c2.676-1.794,2.676-1.794,2.676-1.794
				s-3.087-8.432-5.183-10.846c-2.096-2.414-4.954-2.049-2.54-4.145c2.414-2.096,6.018-0.991,8.074,1.986
				c2.056,2.978,4.476,8.813,4.476,8.813s3.08,0.501,7.083-4.032C400.739,353.88,399.429,352.371,395.079,349.798z M357.264,362.588
				c-3.197-1.598,4.395-4.795,4.395-4.795C364.457,357.394,360.461,364.186,357.264,362.588z M362.647,347.671
				c-1.363-0.681,2.725-2.044,2.725-2.044C371.277,346.762,364.01,348.352,362.647,347.671z"/>
			<path style="fill:none;stroke:#263238;stroke-linecap:round;stroke-miterlimit:10;" d="M357.179,370.728
				c-0.831,0.879-1.685,1.733-2.563,2.556"/>
			<path style="fill:none;stroke:#263238;stroke-linecap:round;stroke-miterlimit:10;" d="M373.578,345.862
				c-3.058,6.371-7.683,14.684-13.766,21.912"/>
			<path style="fill:none;stroke:#263238;stroke-linecap:round;stroke-miterlimit:10;" d="M375.056,342.672
				c1.917-4.285,2.9-7.112,2.9-7.112s3.564,1.668,7.026,0.779c3.462-0.889,6.24-0.126,6.24-0.126"/>
			<path style="fill:none;stroke:#263238;stroke-linecap:round;stroke-miterlimit:10;" d="M358.529,333.906
				c0,0,13.956,6.933,13.051,7.719"/>
			<path style="fill:none;stroke:#263238;stroke-linecap:round;stroke-miterlimit:10;" d="M378.931,345.826
				c0,0,6.605,2.732,10.272,6.956"/>
			<path style="fill:none;stroke:#263238;stroke-linecap:round;stroke-miterlimit:10;" d="M370.118,350.302
				c0,0-4.47-0.882-10.71-0.756c-6.24,0.126-10.607,1.801-10.607,1.801"/>
			<path style="fill:none;stroke:#263238;stroke-linecap:round;stroke-miterlimit:10;" d="M371.792,354.669
				c0,0,7.311,4.765,7.175,10.703"/>
		</g>
		<g>
			<path style="fill:#92E3A9;" d="M377.34,267.806c0,0-5.462,3.972-8.938,0c-3.476-3.972,1.49-11.917-3.476-14.896
				c-4.965-2.979-12.91,2.483-12.91,2.483s6.455,1.489,6.455,4.965s-2.979,4.965-3.476,3.476c-0.497-1.49-3.972-8.938-8.938-5.462
				c-4.965,3.476-5.462,8.441-5.462,8.441s11.917-1.986,12.91,2.483c0.993,4.469-4.965-0.496-9.93-0.496
				c-4.965,0-9.434,0.993-8.938,3.972c0.496,2.979,0,7.944,0,7.944s3.972-3.972,9.434-3.972s5.462,3.476,0.496,3.476
				c-4.965,0-8.938,4.965-8.938,4.965s4.965,7.448,10.924,10.923c5.958,3.476,7.944,1.986,8.441-0.993
				c0.496-2.979-1.49-10.427,1.986-10.427c3.476,0-4.965,13.406-0.497,13.903c4.469,0.496,7.944-0.993,8.937-3.972
				c0.993-2.979,0.993-2.979,0.993-2.979s-1.986-7.448-1.49-10.427c0.496-2.979,1.49,0,2.483,3.476
				c0.993,3.476,1.986,11.917,3.476,11.42c1.49-0.496,5.958-6.951,6.951-9.434c0.993-2.483-6.951-9.434-6.951-10.924
				s5.958,0.993,6.951,2.483c0.993,1.49,1.986,3.476,1.986,3.476s3.476-2.483,2.979-9.434
				C382.305,265.324,377.34,267.806,377.34,267.806z"/>
			<path style="fill:none;stroke:#263238;stroke-linecap:round;stroke-miterlimit:10;" d="M349.525,285.815
				c3.432-4.794,8.522-11.309,12.919-14.533"/>
			<path style="fill:none;stroke:#263238;stroke-linecap:round;stroke-miterlimit:10;" d="M345.563,291.639
				c0,0,0.872-1.378,2.296-3.449"/>
			<path style="fill:none;stroke:#263238;stroke-linecap:round;stroke-miterlimit:10;" d="M364.927,272.275
				c0,0,5.958,7.448,7.448,15.392"/>
			<path style="fill:none;stroke:#263238;stroke-linecap:round;stroke-miterlimit:10;" d="M358.969,277.24
				c0,0,1.49-0.993,1.49,8.938"/>
			<path style="fill:none;stroke:#263238;stroke-linecap:round;stroke-miterlimit:10;" d="M362.444,267.806
				c0,0,2.979-2.979,0.993-8.441"/>
			
				<line style="fill:none;stroke:#263238;stroke-linecap:round;stroke-miterlimit:10;" x1="358.472" y1="272.772" x2="355.99" y2="268.799"/>
			<path style="fill:none;stroke:#263238;stroke-linecap:round;stroke-miterlimit:10;" d="M354.004,277.24
				c0,0-7.448-4.965-11.917-4.965"/>
		</g>
		
			<rect x="389.101" y="379.049" style="fill:#263238;stroke:#263238;stroke-width:2;stroke-linecap:round;stroke-miterlimit:10;" width="38.385" height="55.252"/>
	</g>
</g>
<g id="Character">
	<g>
		<ellipse style="fill:#263238;" cx="133.37" cy="438.82" rx="94.37" ry="20.257"/>
		<path style="fill:#FFFFFF;stroke:#263238;stroke-miterlimit:10;" d="M104.051,277.699c0,0,2.048,9.598,2.175,10.366
			c0.128,0.768-28.665,16.892-30.585,18.428c-1.92,1.536-5.503,2.431-5.375,4.095c0.128,1.664,22.267,50.037,23.931,59.762
			s4.991,26.362,4.991,26.362l1.408,10.11h72.303l-0.128-55.411c0,0,2.266-55.113,2.01-56.393c-0.256-1.28-2.175-2.176-2.559-2.303
			c-0.384-0.128-32.851-4.649-37.074-5.801c-4.223-1.152-5.759-4.735-6.143-6.143c-0.384-1.408-9.598-4.479-15.74-5.247
			C107.122,274.756,103.923,276.292,104.051,277.699z"/>
		<g>
			<path style="fill:#92E3A9;stroke:#263238;stroke-miterlimit:10;" d="M170.773,292.488c-6.39-0.948-31.914-4.562-35.626-5.575
				c-1.332-0.363-2.395-0.969-3.241-1.671l-27.274,4.03c-6.033,3.913-27.348,15.907-28.991,17.221
				c-0.027,0.021-0.057,0.041-0.084,0.062L170.773,292.488z"/>
			<path style="fill:#92E3A9;stroke:#263238;stroke-miterlimit:10;" d="M172.781,355.67l-79.333,11.721
				c0.362,1.197,0.618,2.197,0.749,2.96c0.484,2.828,1.108,6.241,1.751,9.659l76.863-11.356L172.781,355.67z"/>
			<path style="fill:#92E3A9;stroke:#263238;stroke-miterlimit:10;" d="M172.84,381.15l-74.551,11.014
				c0.54,2.75,0.9,4.548,0.9,4.548l1.133,8.14l72.548-10.718L172.84,381.15z"/>
			<path style="fill:#92E3A9;stroke:#263238;stroke-miterlimit:10;" d="M174.107,317.484c0.178-4.773,0.342-9.318,0.466-13.057
				L73.846,319.309c1.485,3.448,3.318,7.67,5.271,12.209L174.107,317.484z"/>
			<path style="fill:#92E3A9;stroke:#263238;stroke-miterlimit:10;" d="M173.107,343.121c0.147-3.653,0.329-8.213,0.518-13.065
				l-89.501,13.223c1.781,4.242,3.506,8.431,5.014,12.247L173.107,343.121z"/>
		</g>
		<path style="fill:#263238;stroke:#263238;stroke-miterlimit:10;" d="M95.314,294.883c3.535,10.81,13.234,18.576,24.652,18.576
			c13.467,0,24.548-10.799,25.937-24.659c-5.159-0.804-9.404-1.518-10.756-1.887c-4.223-1.152-5.759-4.735-6.143-6.143
			c-0.384-1.408-9.598-4.479-15.74-5.247c-6.143-0.768-9.342,0.768-9.214,2.176c0,0,2.048,9.598,2.176,10.366
			C106.279,288.386,101.285,291.387,95.314,294.883z"/>
		<path style="fill:#263238;stroke:#263238;stroke-miterlimit:10;" d="M208.051,390.375c0,0-25.149,7.073-30.913,8.121
			c-5.763,1.048-13.884,1.572-13.884,1.572s-61.825-1.572-63.397-1.834c-1.572-0.262-31.698-13.884-31.698-13.884
			s58.157,47.679,64.445,50.56c6.287,2.882,18.076-1.572,25.149-5.763C164.826,424.955,208.051,390.375,208.051,390.375z"/>
		<path style="fill:#D4D4D4;stroke:#263238;stroke-miterlimit:10;" d="M99.32,292.522c1.455,5.003,6.859,17.781,23.614,14.639
			c13.335-2.5,18.081-12.184,19.774-18.771c-3.521-0.615-6.383-1.155-7.561-1.477c-4.223-1.152-5.759-4.735-6.143-6.143
			c-0.384-1.408-9.598-4.479-15.74-5.247c-6.143-0.768-9.342,0.768-9.214,2.176c0,0,2.048,9.598,2.176,10.366
			C106.267,288.31,103.357,290.122,99.32,292.522z"/>
		<path style="fill:#263238;stroke:#263238;stroke-miterlimit:10;" d="M104.05,277.699c0,0,1.074,5.032,1.715,8.101
			c4.301,1.859,11.474,4.375,15.395,2.508c3.543-1.687,6.567-4.289,8.405-6.082c-0.281-0.578-0.461-1.09-0.56-1.455
			c-0.063-0.231-0.368-0.507-0.854-0.811l-3.372-0.281l-14.811-4.356C105.99,275.363,103.948,276.571,104.05,277.699z"/>
		<g>
			<path style="fill:#D4D4D4;stroke:#263238;stroke-miterlimit:10;" d="M94.593,218.732c0,0-14.931,9.141-13.712,16.759
				c1.219,7.618,6.704,22.549,6.704,22.549s-5.485-5.485-5.79,1.219c-0.305,6.704,4.875,9.446,6.399,9.446
				c1.524,0,3.352-0.609,3.352-0.609s7.618,8.837,10.665,10.056c3.047,1.219,14.626,6.399,18.588,6.399
				c3.961,0,10.36-1.524,11.579-3.961c1.219-2.438,4.571-17.673,3.961-20.416c-0.609-2.742-6.399-27.424-7.618-30.471
				c-1.219-3.047-1.523-9.446-10.056-13.408C110.134,212.333,94.593,218.732,94.593,218.732z"/>
			<path style="fill:#263238;stroke:#263238;stroke-miterlimit:10;" d="M118.666,216.294c-8.532-3.961-24.072,2.438-24.072,2.438
				s-14.931,9.141-13.712,16.759c1.219,7.618,6.704,22.549,6.704,22.549s2.743,2.742,4.266,1.219
				c1.524-1.524-3.961-8.532-3.961-8.532s0.305-2.742,0.305-5.789c0-3.047-1.524-6.399-3.657-9.446
				c-2.133-3.047,3.961-12.493,8.532-13.408c4.571-0.914,11.274,0.609,14.931-1.219c3.657-1.828,3.657-4.266,3.657-4.266
				s0.914-0.609,4.875-0.609c0.706,0,1.451,0.13,2.199,0.337C118.709,216.315,118.688,216.304,118.666,216.294z"/>
			<g>
				<path style="fill:none;stroke:#263238;stroke-width:2;stroke-linecap:round;stroke-miterlimit:10;" d="M111.53,241.91
					l-18.592,7.771c0,0,1.503,6.953,3.087,8.413c1.584,1.46,3.765,2.591,8.904,1.468c5.139-1.124,9.886-4.367,9.787-6.803
					C114.617,250.323,111.53,241.91,111.53,241.91z"/>
				<path style="fill:none;stroke:#263238;stroke-width:2;stroke-linecap:round;stroke-miterlimit:10;" d="M116.887,240.136
					l19.259-5.926c0,0,3.295,6.305,3.012,8.441c-0.283,2.136-1.235,4.401-5.903,6.826c-4.668,2.425-10.391,2.971-11.874,1.036
					C119.899,248.577,116.887,240.136,116.887,240.136z"/>
				<path style="fill:none;stroke:#263238;stroke-width:2;stroke-linecap:round;stroke-miterlimit:10;" d="M111.53,241.91
					c0,0,2.666-2.412,5.357-1.774"/>
				<path style="fill:none;stroke:#263238;stroke-width:2;stroke-linecap:round;stroke-miterlimit:10;" d="M112.721,244.692
					c0,0,2.379-3.219,5.178-1.959"/>
				
					<line style="fill:none;stroke:#263238;stroke-width:2;stroke-linecap:round;stroke-miterlimit:10;" x1="92.938" y1="249.68" x2="87.113" y2="257.846"/>
				
					<line style="fill:none;stroke:#263238;stroke-width:2;stroke-linecap:round;stroke-miterlimit:10;" x1="136.146" y1="234.21" x2="131.333" y2="238.115"/>
			</g>
			<circle style="fill:#263238;" cx="107.193" cy="248.121" r="1.329"/>
			<circle style="fill:#263238;" cx="126.715" cy="241.614" r="1.329"/>
			<path style="fill:none;stroke:#263238;stroke-width:2;stroke-linecap:round;stroke-miterlimit:10;" d="M106.144,238.535
				c0,0-6.577-1.959-8.676,4.898"/>
			<path style="fill:none;stroke:#263238;stroke-width:2;stroke-linecap:round;stroke-miterlimit:10;" d="M118.878,236.576
				c0,0,1.399-4.058,8.396-2.099"/>
			<path style="fill:none;stroke:#263238;stroke-miterlimit:10;" d="M119.158,247.631c0,0,2.099,4.478,3.778,5.178
				c1.679,0.7,5.737,1.959,3.638,3.499c-2.099,1.539-6.577,3.778-8.536,3.778c-1.959,0-2.659-1.539-2.659-1.539"/>
			<path style="fill:none;stroke:#263238;stroke-miterlimit:10;" d="M124.336,264.843c0,0-4.058,2.659-9.516,2.239
				c-5.458-0.42-6.437-2.939-6.437-2.939"/>
			<line style="fill:none;stroke:#263238;stroke-miterlimit:10;" x1="109.502" y1="262.884" x2="106.704" y2="265.543"/>
		</g>
		<g>
			<path style="fill:#D4D4D4;stroke:#263238;stroke-miterlimit:10;" d="M56.641,343.933c0,0-7.51,35.218-7.51,36.772
				c0,1.554,18.127,6.474,21.493,4.143c3.366-2.331,10.617-32.37,10.617-32.37L56.641,343.933z"/>
			<path style="fill:#263238;stroke:#263238;stroke-miterlimit:10;" d="M54.848,352.391l24.768,6.518
				c0.985-3.778,1.626-6.43,1.626-6.43l-24.601-8.546C56.641,343.933,55.883,347.49,54.848,352.391z"/>
			<polygon style="fill:#92E3A9;stroke:#263238;stroke-miterlimit:10;" points="70.266,310.588 48.096,345.746 84.35,357.14 
				86.939,349.63 			"/>
		</g>
		<g>
			<polygon style="fill:#D4D4D4;stroke:#263238;stroke-miterlimit:10;" points="172.395,348.594 182.235,377.598 208.908,373.713 
				197.255,334.611 			"/>
			<polygon style="fill:#263238;stroke:#263238;stroke-miterlimit:10;" points="197.255,334.611 172.395,348.594 175.421,357.512 
				199.07,340.701 			"/>
			<polygon style="fill:#92E3A9;stroke:#263238;stroke-miterlimit:10;" points="174.781,295.018 203.211,333.057 172.771,351.411 
							"/>
		</g>
		<g>
			<path style="fill:#D4D4D4;stroke:#263238;stroke-miterlimit:10;" d="M68.812,362.06l40.915,32.629l-11.135,8.028
				c0,0-47.648-17.868-49.202-20.717c-1.554-2.848,2.849-13.466,2.849-13.466"/>
			<g>
				<path style="fill:#FFFFFF;stroke:#263238;stroke-miterlimit:10;" d="M115.104,393.497c0,0,4.217,2.711,4.97,2.862
					c0.753,0.151,3.615,5.573,4.82,6.175c1.205,0.603,2.862,1.958,1.958,2.711c-0.904,0.753-2.41,1.807-3.464,1.506
					s-3.313-3.163-4.067-4.067c-0.753-0.904-4.067-3.314-4.067-3.314L115.104,393.497z"/>
				<g>
					<path style="fill:#FFFFFF;stroke:#263238;stroke-miterlimit:10;" d="M115.855,392.348c-0.163-0.467-0.651-0.727-1.13-0.604
						c-1.609,0.413-4.972,1.365-4.742,2.055c0.301,0.904,4.368,14.459,5.422,14.61c1.054,0.151,4.97,0.904,4.97-0.452
						C120.375,406.73,117.047,395.766,115.855,392.348z"/>
					<path style="fill:#FFFFFF;stroke:#263238;stroke-miterlimit:10;" d="M109.983,393.799c0,0-4.217,0-4.519,1.506
						c-0.301,1.506,4.669,13.856,5.422,14.61c0.753,0.753,4.519-0.301,4.519-1.506S109.983,393.799,109.983,393.799z"/>
					<path style="fill:#FFFFFF;stroke:#263238;stroke-miterlimit:10;" d="M105.464,395.305c0,0-4.368,0.904-4.368,2.109
						s4.518,12.953,4.97,13.254c0.452,0.301,2.41,0,3.012-0.301c0.602-0.301,0.904-1.958,0.904-1.958L105.464,395.305z"/>
					<path style="fill:#FFFFFF;stroke:#263238;stroke-miterlimit:10;" d="M101.096,397.413c0,0-4.067,2.862-3.314,5.422
						c0.753,2.56,2.711,6.627,3.615,7.079c0.904,0.452,2.862-0.452,3.012-0.904c0.151-0.452,0.151-0.452,0.151-0.452l-0.151-0.753
						L101.096,397.413z"/>
				</g>
			</g>
		</g>
		<g>
			<path style="fill:#D4D4D4;stroke:#263238;stroke-miterlimit:10;" d="M190.741,362.06l-40.915,32.629l11.135,8.028
				c0,0,47.648-17.868,49.202-20.717c1.554-2.848-2.848-13.466-2.848-13.466"/>
			<g>
				<path style="fill:#FFFFFF;stroke:#263238;stroke-miterlimit:10;" d="M144.449,393.497c0,0-4.217,2.711-4.97,2.862
					c-0.753,0.151-3.615,5.573-4.82,6.175c-1.205,0.603-2.862,1.958-1.958,2.711c0.904,0.753,2.41,1.807,3.464,1.506
					s3.314-3.163,4.067-4.067c0.753-0.904,4.067-3.314,4.067-3.314L144.449,393.497z"/>
				<g>
					<path style="fill:#FFFFFF;stroke:#263238;stroke-miterlimit:10;" d="M143.698,392.348c0.163-0.467,0.651-0.727,1.13-0.604
						c1.609,0.413,4.972,1.365,4.742,2.055c-0.301,0.904-4.368,14.459-5.422,14.61c-1.054,0.151-4.97,0.904-4.97-0.452
						C139.178,406.73,142.506,395.766,143.698,392.348z"/>
					<path style="fill:#FFFFFF;stroke:#263238;stroke-miterlimit:10;" d="M149.57,393.799c0,0,4.217,0,4.519,1.506
						c0.301,1.506-4.669,13.856-5.422,14.61c-0.753,0.753-4.518-0.301-4.518-1.506S149.57,393.799,149.57,393.799z"/>
					<path style="fill:#FFFFFF;stroke:#263238;stroke-miterlimit:10;" d="M154.089,395.305c0,0,4.368,0.904,4.368,2.109
						s-4.518,12.953-4.97,13.254c-0.452,0.301-2.41,0-3.012-0.301c-0.602-0.301-0.904-1.958-0.904-1.958L154.089,395.305z"/>
					<path style="fill:#FFFFFF;stroke:#263238;stroke-miterlimit:10;" d="M158.457,397.413c0,0,4.067,2.862,3.314,5.422
						c-0.753,2.56-2.711,6.627-3.615,7.079c-0.904,0.452-2.862-0.452-3.012-0.904c-0.151-0.452-0.151-0.452-0.151-0.452l0.151-0.753
						L158.457,397.413z"/>
				</g>
			</g>
		</g>
		<g>
			<path style="fill:#FFFFFF;stroke:#263238;stroke-miterlimit:10;" d="M166.921,443.031c0,0,13.361-0.262,24.363-4.453
				c11.003-4.192,16.242-2.62,18.862,1.572c2.62,4.191,1.572,12.051-0.262,15.456c-1.834,3.406-8.645,6.811-19.648,8.383
				c-11.003,1.572-23.053-0.786-23.053-0.786L166.921,443.031z"/>
			<path style="fill:#FFFFFF;stroke:#263238;stroke-miterlimit:10;" d="M197.918,462.43c6.508-1.777,10.608-4.3,11.967-6.824
				c1.834-3.406,2.882-11.265,0.262-15.456c-2.252-3.603-6.451-5.259-14.57-2.994L196,437.53c0,0,8.907-2.62,10.479,2.882
				c1.572,5.501,0,14.932-3.144,17.814C201.823,459.611,199.709,461.175,197.918,462.43z"/>
		</g>
		<g>
			<path style="fill:#FFFFFF;stroke:#263238;stroke-miterlimit:10;" d="M118.593,438.608c0,0-13.132,2.473-24.759,0.618
				c-11.627-1.855-16.435,0.754-18.143,5.393s0.924,12.118,3.415,15.077c2.491,2.959,9.854,4.901,20.946,4.192
				s36.743-9.068,36.743-9.068L118.593,438.608z"/>
			<path style="fill:#263238;stroke:#263238;stroke-miterlimit:10;" d="M111.799,444.408c0,0,7.769,6.733,4.661,11.912
				c-1.143,1.905-2.425,3.738-3.591,5.296c11.349-2.701,23.925-6.797,23.925-6.797l-12.322-10.975l-2.833-0.472L111.799,444.408z"/>
			<path style="fill:#FFFFFF;stroke:#263238;stroke-miterlimit:10;" d="M92.214,463.931c-6.734-0.41-11.262-2.042-13.109-4.235
				c-2.491-2.959-5.123-10.438-3.415-15.077c1.468-3.987,5.24-6.466,13.651-5.908l-0.339,0.453c0,0-9.254-0.745-9.669,4.962
				c-0.414,5.706,3.051,14.617,6.717,16.796C87.815,461.97,90.205,463.069,92.214,463.931z"/>
		</g>
		<path style="fill:#92E3A9;stroke:#263238;stroke-miterlimit:10;" d="M195.713,389.143c0,0-16.911,12.113-27.541,20.575
			c-10.63,8.462-22.827,17.048-24.855,17.997c-2.027,0.949-4.502-0.432-6.529,0.517c-2.027,0.949-2.969,2.337-2.969,2.337
			s-4.9,1.176-5.683,1.238c-0.784,0.062-1.249,7.457-0.073,12.357c1.176,4.9,9.163,9.524,10.51,9.943
			c1.347,0.419,16.706-4.738,29.172-9.93c12.466-5.191,45.657-24.111,52.095-29.088c6.439-4.977,8.562-8.036,6.189-18.097
			c-2.373-10.061-8.992-14.004-14.779-14.072C205.464,382.852,195.713,389.143,195.713,389.143z"/>
		<path style="fill:#92E3A9;stroke:#263238;stroke-miterlimit:10;" d="M140.725,433.862c0,0-19.803-8.665-34.658-23.195
			c-14.854-14.529-34.24-27.628-41.051-28.152c-6.811-0.524-14.408,5.763-19.648,13.36c-5.239,7.597,3.795,20.926,10.606,25.379
			c6.811,4.454,36.81,17.584,52.267,23.609s38.248,15.194,41.653,15.718c3.406,0.524,13.622,4.977,15.98,4.977
			s3.668-2.358,3.93-4.453c0.262-2.096-0.524-14.932-0.524-17.028c0-2.096-1.31-3.668-3.406-3.668s-4.977,1.572-5.763,1.572
			c-0.786,0-3.144-4.453-4.977-4.453s-3.667,0.786-4.191-0.524C150.417,435.696,145.44,433.076,140.725,433.862z"/>
		<g>
			<rect x="84.868" y="348.076" style="fill:#FFFFFF;stroke:#263238;stroke-miterlimit:10;" width="96.85" height="62.668"/>
			<rect x="84.868" y="348.076" style="fill:#FFFFFF;stroke:#263238;stroke-miterlimit:10;" width="96.85" height="58.675"/>
			<path style="fill:#263238;stroke:#263238;stroke-miterlimit:10;" d="M181.717,350.424c-23.654,5.109-35.32,25.084-56.856,37.753
				c-18.552,10.913-33.57,15.851-39.994,17.653v0.921h96.85V350.424z"/>
			<path style="fill:#FFFFFF;stroke:#263238;stroke-miterlimit:10;" d="M138.067,377.414c0-2.637-2.138-4.774-4.775-4.774
				c-2.637,0-4.774,2.138-4.774,4.774c0,2.637,2.138,4.774,4.774,4.774C135.929,382.188,138.067,380.051,138.067,377.414z"/>
		</g>
	</g>
</g>
</svg>
