<?xml version="1.0" encoding="utf-8"?>
<!-- Generator: Adobe Illustrator 27.5.0, SVG Export Plug-In . SVG Version: 6.00 Build 0)  -->
<svg version="1.1" xmlns="http://www.w3.org/2000/svg" xmlns:xlink="http://www.w3.org/1999/xlink" x="0px" y="0px"
	 viewBox="0 0 500 500" style="enable-background:new 0 0 500 500;" xml:space="preserve">
<g id="Background_Simple">
	<g>
		<path style="fill:#92E3A9;" d="M470.438,221.234c2.306-30.651-4.829-62.667-14.381-91.202
			c-14.19-42.386-41.739-85.85-88.128-95.882c-26.752-5.785-53.974,0.414-76.905,14.908c-22.058,13.941-39.261,31.948-66.37,35.437
			c-27.428,3.53-55.572,2.108-83.145,2.108c-70.884,0-128.413,74.469-114.031,152.042C41.859,316.216,109.661,370,167.191,370
			c51.695,0,94.225-31.016,143.326-39.342c24.349-4.129,48.802,0.757,72.894-5.43c28.007-7.192,54.344-24.357,69.86-49.205
			C463.846,259.088,468.993,240.429,470.438,221.234z"/>
		<path style="opacity:0.7;fill:#FFFFFF;" d="M470.438,221.234c2.306-30.651-4.829-62.667-14.381-91.202
			c-14.19-42.386-41.739-85.85-88.128-95.882c-26.752-5.785-53.974,0.414-76.905,14.908c-22.058,13.941-39.261,31.948-66.37,35.437
			c-27.428,3.53-55.572,2.108-83.145,2.108c-70.884,0-128.413,74.469-114.031,152.042C41.859,316.216,109.661,370,167.191,370
			c51.695,0,94.225-31.016,143.326-39.342c24.349-4.129,48.802,0.757,72.894-5.43c28.007-7.192,54.344-24.357,69.86-49.205
			C463.846,259.088,468.993,240.429,470.438,221.234z"/>
	</g>
</g>
<g id="Building">
	<g>
		
			<rect x="77.983" y="119.237" style="fill:#808080;stroke:#263238;stroke-linecap:round;stroke-linejoin:round;stroke-miterlimit:10;" width="341.587" height="279.816"/>
		
			<rect x="77.983" y="119.237" style="fill:#263238;stroke:#263238;stroke-linecap:round;stroke-linejoin:round;stroke-miterlimit:10;" width="341.587" height="5.5"/>
		
			<rect x="104.256" y="103.185" style="fill:#263238;stroke:#263238;stroke-linecap:round;stroke-linejoin:round;stroke-miterlimit:10;" width="33.728" height="13.609"/>
		
			<rect x="171.119" y="102.002" style="fill:#263238;stroke:#263238;stroke-linecap:round;stroke-linejoin:round;stroke-miterlimit:10;" width="4.734" height="14.793"/>
		
			<rect x="73.821" y="110.67" style="fill:#FFFFFF;stroke:#263238;stroke-linecap:round;stroke-linejoin:round;stroke-miterlimit:10;" width="349.91" height="10.978"/>
		<g>
			<g>
				
					<rect x="98.897" y="144.042" style="fill:#263238;stroke:#263238;stroke-linecap:round;stroke-linejoin:round;stroke-miterlimit:10;" width="45.921" height="61.883"/>
				<g>
					
						<rect x="122.684" y="147.357" style="fill:#FFFFFF;stroke:#263238;stroke-linecap:round;stroke-linejoin:round;stroke-miterlimit:10;" width="5.237" height="14.366"/>
					
						<rect x="115.793" y="147.357" style="fill:#FFFFFF;stroke:#263238;stroke-linecap:round;stroke-linejoin:round;stroke-miterlimit:10;" width="5.237" height="14.366"/>
					
						<rect x="136.467" y="147.357" style="fill:#FFFFFF;stroke:#263238;stroke-linecap:round;stroke-linejoin:round;stroke-miterlimit:10;" width="5.445" height="14.366"/>
					
						<rect x="108.902" y="147.357" style="fill:#FFFFFF;stroke:#263238;stroke-linecap:round;stroke-linejoin:round;stroke-miterlimit:10;" width="5.237" height="14.366"/>
					
						<rect x="129.576" y="147.357" style="fill:#FFFFFF;stroke:#263238;stroke-linecap:round;stroke-linejoin:round;stroke-miterlimit:10;" width="5.237" height="14.366"/>
					
						<rect x="124.473" y="165.59" style="fill:#FFFFFF;stroke:#263238;stroke-linecap:round;stroke-linejoin:round;stroke-miterlimit:10;" width="17.438" height="37.019"/>
					
						<rect x="101.803" y="147.357" style="fill:#FFFFFF;stroke:#263238;stroke-linecap:round;stroke-linejoin:round;stroke-miterlimit:10;" width="5.445" height="14.366"/>
					
						<rect x="101.803" y="165.59" style="fill:#FFFFFF;stroke:#263238;stroke-linecap:round;stroke-linejoin:round;stroke-miterlimit:10;" width="17.438" height="37.019"/>
				</g>
			</g>
			<g>
				
					<line style="fill:#FFFFFF;stroke:#263238;stroke-linecap:round;stroke-linejoin:round;stroke-miterlimit:10;" x1="106.248" y1="185.397" x2="103.951" y2="187.251"/>
				
					<line style="fill:#FFFFFF;stroke:#263238;stroke-linecap:round;stroke-linejoin:round;stroke-miterlimit:10;" x1="119.337" y1="174.834" x2="109.112" y2="183.086"/>
			</g>
			<g>
				
					<line style="fill:#FFFFFF;stroke:#263238;stroke-linecap:round;stroke-linejoin:round;stroke-miterlimit:10;" x1="128.164" y1="185.397" x2="125.866" y2="187.251"/>
				
					<line style="fill:#FFFFFF;stroke:#263238;stroke-linecap:round;stroke-linejoin:round;stroke-miterlimit:10;" x1="141.252" y1="174.834" x2="131.028" y2="183.086"/>
			</g>
		</g>
		<g>
			<g>
				
					<rect x="222.746" y="144.042" style="fill:#263238;stroke:#263238;stroke-linecap:round;stroke-linejoin:round;stroke-miterlimit:10;" width="45.921" height="61.883"/>
				<g>
					
						<rect x="246.534" y="147.357" style="fill:#FFFFFF;stroke:#263238;stroke-linecap:round;stroke-linejoin:round;stroke-miterlimit:10;" width="5.237" height="14.366"/>
					
						<rect x="239.643" y="147.357" style="fill:#FFFFFF;stroke:#263238;stroke-linecap:round;stroke-linejoin:round;stroke-miterlimit:10;" width="5.237" height="14.366"/>
					
						<rect x="260.316" y="147.357" style="fill:#FFFFFF;stroke:#263238;stroke-linecap:round;stroke-linejoin:round;stroke-miterlimit:10;" width="5.445" height="14.366"/>
					
						<rect x="232.752" y="147.357" style="fill:#FFFFFF;stroke:#263238;stroke-linecap:round;stroke-linejoin:round;stroke-miterlimit:10;" width="5.237" height="14.366"/>
					
						<rect x="253.425" y="147.357" style="fill:#FFFFFF;stroke:#263238;stroke-linecap:round;stroke-linejoin:round;stroke-miterlimit:10;" width="5.237" height="14.366"/>
					
						<rect x="248.323" y="165.59" style="fill:#FFFFFF;stroke:#263238;stroke-linecap:round;stroke-linejoin:round;stroke-miterlimit:10;" width="17.438" height="37.019"/>
					
						<rect x="225.653" y="147.357" style="fill:#FFFFFF;stroke:#263238;stroke-linecap:round;stroke-linejoin:round;stroke-miterlimit:10;" width="5.445" height="14.366"/>
					
						<rect x="225.653" y="165.59" style="fill:#FFFFFF;stroke:#263238;stroke-linecap:round;stroke-linejoin:round;stroke-miterlimit:10;" width="17.438" height="37.019"/>
				</g>
			</g>
			<g>
				
					<line style="fill:#FFFFFF;stroke:#263238;stroke-linecap:round;stroke-linejoin:round;stroke-miterlimit:10;" x1="229.606" y1="185.397" x2="227.309" y2="187.251"/>
				
					<line style="fill:#FFFFFF;stroke:#263238;stroke-linecap:round;stroke-linejoin:round;stroke-miterlimit:10;" x1="242.694" y1="174.834" x2="232.47" y2="183.086"/>
			</g>
			<g>
				
					<line style="fill:#FFFFFF;stroke:#263238;stroke-linecap:round;stroke-linejoin:round;stroke-miterlimit:10;" x1="252.077" y1="185.397" x2="249.78" y2="187.251"/>
				
					<line style="fill:#FFFFFF;stroke:#263238;stroke-linecap:round;stroke-linejoin:round;stroke-miterlimit:10;" x1="265.165" y1="174.834" x2="254.941" y2="183.086"/>
			</g>
		</g>
		<g>
			<g>
				
					<rect x="347.341" y="144.042" style="fill:#263238;stroke:#263238;stroke-linecap:round;stroke-linejoin:round;stroke-miterlimit:10;" width="45.921" height="61.883"/>
				<g>
					
						<rect x="371.128" y="147.357" style="fill:#FFFFFF;stroke:#263238;stroke-linecap:round;stroke-linejoin:round;stroke-miterlimit:10;" width="5.237" height="14.366"/>
					
						<rect x="364.237" y="147.357" style="fill:#FFFFFF;stroke:#263238;stroke-linecap:round;stroke-linejoin:round;stroke-miterlimit:10;" width="5.237" height="14.366"/>
					
						<rect x="384.911" y="147.357" style="fill:#FFFFFF;stroke:#263238;stroke-linecap:round;stroke-linejoin:round;stroke-miterlimit:10;" width="5.445" height="14.366"/>
					
						<rect x="357.346" y="147.357" style="fill:#FFFFFF;stroke:#263238;stroke-linecap:round;stroke-linejoin:round;stroke-miterlimit:10;" width="5.237" height="14.366"/>
					
						<rect x="378.02" y="147.357" style="fill:#FFFFFF;stroke:#263238;stroke-linecap:round;stroke-linejoin:round;stroke-miterlimit:10;" width="5.237" height="14.366"/>
					
						<rect x="372.917" y="165.59" style="fill:#FFFFFF;stroke:#263238;stroke-linecap:round;stroke-linejoin:round;stroke-miterlimit:10;" width="17.438" height="37.019"/>
					
						<rect x="350.247" y="147.357" style="fill:#FFFFFF;stroke:#263238;stroke-linecap:round;stroke-linejoin:round;stroke-miterlimit:10;" width="5.445" height="14.366"/>
					
						<rect x="350.247" y="165.59" style="fill:#FFFFFF;stroke:#263238;stroke-linecap:round;stroke-linejoin:round;stroke-miterlimit:10;" width="17.438" height="37.019"/>
				</g>
			</g>
			<g>
				
					<line style="fill:#FFFFFF;stroke:#263238;stroke-linecap:round;stroke-linejoin:round;stroke-miterlimit:10;" x1="355.375" y1="185.397" x2="353.078" y2="187.251"/>
				
					<line style="fill:#FFFFFF;stroke:#263238;stroke-linecap:round;stroke-linejoin:round;stroke-miterlimit:10;" x1="368.463" y1="174.834" x2="358.239" y2="183.086"/>
			</g>
			<g>
				
					<line style="fill:#FFFFFF;stroke:#263238;stroke-linecap:round;stroke-linejoin:round;stroke-miterlimit:10;" x1="377.846" y1="185.397" x2="375.548" y2="187.251"/>
				
					<line style="fill:#FFFFFF;stroke:#263238;stroke-linecap:round;stroke-linejoin:round;stroke-miterlimit:10;" x1="390.934" y1="174.834" x2="380.709" y2="183.086"/>
			</g>
		</g>
		
			<rect x="78.09" y="219" style="fill:#263238;stroke:#263238;stroke-linecap:round;stroke-linejoin:round;stroke-miterlimit:10;" width="341.577" height="235.692"/>
		<g>
			
				<rect x="209.311" y="321.728" style="fill:#92E3A9;stroke:#263238;stroke-linecap:round;stroke-linejoin:round;stroke-miterlimit:10;" width="72.945" height="132.964"/>
			<g>
				<defs>
					<path id="SVGID_1_" d="M276.479,397.444h-62.552v-69.252h62.552V397.444z M276.479,404.831h-62.552v42.474h62.552V404.831z"/>
				</defs>
				<clipPath id="SVGID_00000147188327282312277780000010741114521105171900_">
					<use xlink:href="#SVGID_1_"  style="overflow:visible;"/>
				</clipPath>
				<g style="clip-path:url(#SVGID_00000147188327282312277780000010741114521105171900_);">
					
						<rect x="196.746" y="321.705" style="fill:#D6D6D6;stroke:#263238;stroke-linecap:round;stroke-linejoin:round;stroke-miterlimit:10;" width="104.528" height="132.844"/>
					
						<line style="fill:#FFFFFF;stroke:#263238;stroke-linecap:round;stroke-linejoin:round;stroke-miterlimit:10;" x1="197.056" y1="448.734" x2="301.318" y2="448.734"/>
					
						<line style="fill:#FFFFFF;stroke:#263238;stroke-linecap:round;stroke-linejoin:round;stroke-miterlimit:10;" x1="197.056" y1="440.234" x2="301.318" y2="440.234"/>
					
						<line style="fill:#FFFFFF;stroke:#263238;stroke-linecap:round;stroke-linejoin:round;stroke-miterlimit:10;" x1="197.056" y1="431.734" x2="301.318" y2="431.734"/>
					
						<line style="fill:#FFFFFF;stroke:#263238;stroke-linecap:round;stroke-linejoin:round;stroke-miterlimit:10;" x1="197.056" y1="423.234" x2="301.318" y2="423.234"/>
					
						<line style="fill:#FFFFFF;stroke:#263238;stroke-linecap:round;stroke-linejoin:round;stroke-miterlimit:10;" x1="197.056" y1="414.734" x2="301.318" y2="414.734"/>
					
						<line style="fill:#FFFFFF;stroke:#263238;stroke-linecap:round;stroke-linejoin:round;stroke-miterlimit:10;" x1="197.056" y1="406.234" x2="301.318" y2="406.234"/>
					
						<line style="fill:#FFFFFF;stroke:#263238;stroke-linecap:round;stroke-linejoin:round;stroke-miterlimit:10;" x1="197.056" y1="397.734" x2="301.318" y2="397.734"/>
					
						<line style="fill:#FFFFFF;stroke:#263238;stroke-linecap:round;stroke-linejoin:round;stroke-miterlimit:10;" x1="197.056" y1="389.234" x2="301.318" y2="389.234"/>
					
						<line style="fill:#FFFFFF;stroke:#263238;stroke-linecap:round;stroke-linejoin:round;stroke-miterlimit:10;" x1="197.056" y1="380.733" x2="301.318" y2="380.733"/>
					
						<line style="fill:#FFFFFF;stroke:#263238;stroke-linecap:round;stroke-linejoin:round;stroke-miterlimit:10;" x1="197.056" y1="372.233" x2="301.318" y2="372.233"/>
					
						<line style="fill:#FFFFFF;stroke:#263238;stroke-linecap:round;stroke-linejoin:round;stroke-miterlimit:10;" x1="197.056" y1="363.733" x2="301.318" y2="363.733"/>
					
						<line style="fill:#FFFFFF;stroke:#263238;stroke-linecap:round;stroke-linejoin:round;stroke-miterlimit:10;" x1="197.056" y1="355.233" x2="301.318" y2="355.233"/>
					
						<line style="fill:#FFFFFF;stroke:#263238;stroke-linecap:round;stroke-linejoin:round;stroke-miterlimit:10;" x1="197.056" y1="346.733" x2="301.318" y2="346.733"/>
					
						<line style="fill:#FFFFFF;stroke:#263238;stroke-linecap:round;stroke-linejoin:round;stroke-miterlimit:10;" x1="197.056" y1="338.233" x2="301.318" y2="338.233"/>
					
						<line style="fill:#FFFFFF;stroke:#263238;stroke-linecap:round;stroke-linejoin:round;stroke-miterlimit:10;" x1="197.056" y1="329.733" x2="301.318" y2="329.733"/>
				</g>
				<use xlink:href="#SVGID_1_"  style="overflow:visible;fill:none;stroke:#263238;stroke-miterlimit:10;"/>
			</g>
			
				<rect x="277.895" y="381.164" style="fill:#263238;stroke:#263238;stroke-linecap:round;stroke-linejoin:round;stroke-miterlimit:10;" width="2.277" height="24.287"/>
			<g>
				<polyline style="fill:none;stroke:#263238;stroke-linecap:round;stroke-linejoin:round;stroke-miterlimit:10;" points="
					236.151,370.277 244.914,359.154 254.352,370.614 				"/>
				
					<rect x="230.421" y="368.591" style="fill:#FFFFFF;stroke:#263238;stroke-linecap:round;stroke-linejoin:round;stroke-miterlimit:10;" width="28.313" height="14.831"/>
				<g>
					<path style="fill:#263238;" d="M236.039,379.438c-0.278,0.375-0.715,0.562-1.312,0.562c-0.596,0-1.042-0.199-1.337-0.598
						c-0.295-0.4-0.443-0.974-0.443-1.723v-3.518c0-1.201,0.315-1.952,0.945-2.252c0.232-0.11,0.514-0.165,0.844-0.165
						c1.135,0,1.702,0.716,1.702,2.147v1.111h-1.188v-1.033c0-0.416-0.035-0.713-0.106-0.891c-0.07-0.179-0.208-0.269-0.413-0.269
						c-0.205,0-0.347,0.095-0.427,0.284c-0.08,0.19-0.119,0.481-0.119,0.872v3.771c0,0.434,0.039,0.744,0.115,0.931
						c0.076,0.187,0.215,0.28,0.417,0.28c0.202,0,0.341-0.095,0.417-0.284c0.077-0.19,0.115-0.503,0.115-0.94v-1.156h1.206v1.142
						C236.457,378.487,236.318,379.064,236.039,379.438z"/>
					<path style="fill:#263238;" d="M237.456,379.909v-8.073h1.23v7.028h1.555v1.046H237.456z"/>
					<path style="fill:#263238;" d="M243.951,379.418c-0.281,0.388-0.731,0.583-1.35,0.583c-0.619,0-1.073-0.195-1.362-0.584
						c-0.289-0.39-0.434-0.978-0.434-1.764v-3.692c0-1.48,0.604-2.22,1.812-2.22c0.624,0,1.072,0.188,1.346,0.564
						c0.274,0.376,0.411,0.928,0.411,1.656v3.692C244.373,378.44,244.233,379.03,243.951,379.418z M242.151,378.656
						c0.072,0.186,0.219,0.28,0.443,0.28c0.223,0,0.37-0.095,0.44-0.287c0.07-0.191,0.106-0.518,0.106-0.984v-3.761
						c0-0.382-0.036-0.661-0.108-0.837c-0.072-0.176-0.212-0.263-0.422-0.263s-0.356,0.087-0.441,0.263
						c-0.084,0.175-0.126,0.454-0.126,0.833v3.765C242.043,378.139,242.079,378.47,242.151,378.656z"/>
					<path style="fill:#263238;" d="M245.327,377.638v-0.72h1.165v0.811c0,0.45,0.038,0.766,0.115,0.948
						c0.076,0.181,0.22,0.273,0.431,0.273c0.211,0,0.351-0.075,0.419-0.225c0.069-0.15,0.104-0.394,0.104-0.734
						c0-0.34-0.062-0.635-0.184-0.887c-0.122-0.253-0.316-0.516-0.582-0.792l-0.596-0.615c-0.279-0.29-0.495-0.591-0.649-0.903
						c-0.154-0.311-0.232-0.673-0.232-1.082c0-0.667,0.128-1.162,0.386-1.486c0.257-0.324,0.698-0.486,1.325-0.486
						c0.627,0,1.051,0.189,1.273,0.566c0.221,0.377,0.332,0.929,0.332,1.654v0.5h-1.133v-0.578c0-0.391-0.033-0.672-0.101-0.841
						c-0.067-0.17-0.196-0.255-0.388-0.255c-0.191,0-0.329,0.064-0.412,0.193c-0.085,0.128-0.127,0.322-0.127,0.578
						c0,0.257,0.043,0.462,0.128,0.614c0.086,0.153,0.24,0.349,0.464,0.587l0.665,0.72c0.334,0.361,0.585,0.726,0.755,1.096
						c0.17,0.371,0.255,0.774,0.255,1.212c0,0.755-0.128,1.313-0.381,1.674c-0.254,0.36-0.698,0.541-1.333,0.541
						c-0.634,0-1.076-0.201-1.325-0.603C245.452,378.995,245.327,378.409,245.327,377.638z"/>
					<path style="fill:#263238;" d="M249.64,379.909v-8.073h2.706v1.06h-1.478v2.349h1.404v1.036h-1.404v2.569h1.532v1.059H249.64z"
						/>
					<path style="fill:#263238;" d="M253.378,379.909v-8.073h1.812c0.593,0,1.023,0.175,1.291,0.525
						c0.268,0.351,0.401,0.867,0.401,1.549l0.005,3.641c0,0.814-0.135,1.41-0.404,1.789c-0.27,0.379-0.714,0.569-1.335,0.569
						H253.378z M254.607,378.955h0.404c0.226,0,0.39-0.074,0.493-0.22c0.103-0.147,0.154-0.416,0.154-0.808l-0.005-3.986
						c0-0.418-0.051-0.717-0.153-0.894c-0.103-0.177-0.279-0.266-0.53-0.266h-0.363V378.955z"/>
				</g>
			</g>
		</g>
		<g>
			
				<rect x="302.5" y="321.848" style="fill:#D6D6D6;stroke:#263238;stroke-linecap:round;stroke-linejoin:round;stroke-miterlimit:10;" width="110.354" height="132.844"/>
			
				<line style="fill:#FFFFFF;stroke:#263238;stroke-linecap:round;stroke-linejoin:round;stroke-miterlimit:10;" x1="302.827" y1="448.877" x2="412.901" y2="448.877"/>
			
				<line style="fill:#FFFFFF;stroke:#263238;stroke-linecap:round;stroke-linejoin:round;stroke-miterlimit:10;" x1="302.827" y1="440.377" x2="412.901" y2="440.377"/>
			
				<line style="fill:#FFFFFF;stroke:#263238;stroke-linecap:round;stroke-linejoin:round;stroke-miterlimit:10;" x1="302.827" y1="431.877" x2="412.901" y2="431.877"/>
			
				<line style="fill:#FFFFFF;stroke:#263238;stroke-linecap:round;stroke-linejoin:round;stroke-miterlimit:10;" x1="302.827" y1="423.377" x2="412.901" y2="423.377"/>
			
				<line style="fill:#FFFFFF;stroke:#263238;stroke-linecap:round;stroke-linejoin:round;stroke-miterlimit:10;" x1="302.827" y1="414.877" x2="412.901" y2="414.877"/>
			
				<line style="fill:#FFFFFF;stroke:#263238;stroke-linecap:round;stroke-linejoin:round;stroke-miterlimit:10;" x1="302.827" y1="406.377" x2="412.901" y2="406.377"/>
			
				<line style="fill:#FFFFFF;stroke:#263238;stroke-linecap:round;stroke-linejoin:round;stroke-miterlimit:10;" x1="302.827" y1="397.877" x2="412.901" y2="397.877"/>
			
				<line style="fill:#FFFFFF;stroke:#263238;stroke-linecap:round;stroke-linejoin:round;stroke-miterlimit:10;" x1="302.827" y1="389.376" x2="412.901" y2="389.376"/>
			
				<line style="fill:#FFFFFF;stroke:#263238;stroke-linecap:round;stroke-linejoin:round;stroke-miterlimit:10;" x1="302.827" y1="380.876" x2="412.901" y2="380.876"/>
			
				<line style="fill:#FFFFFF;stroke:#263238;stroke-linecap:round;stroke-linejoin:round;stroke-miterlimit:10;" x1="302.827" y1="372.376" x2="412.901" y2="372.376"/>
			
				<line style="fill:#FFFFFF;stroke:#263238;stroke-linecap:round;stroke-linejoin:round;stroke-miterlimit:10;" x1="302.827" y1="363.876" x2="412.901" y2="363.876"/>
			
				<line style="fill:#FFFFFF;stroke:#263238;stroke-linecap:round;stroke-linejoin:round;stroke-miterlimit:10;" x1="302.827" y1="355.376" x2="412.901" y2="355.376"/>
			
				<line style="fill:#FFFFFF;stroke:#263238;stroke-linecap:round;stroke-linejoin:round;stroke-miterlimit:10;" x1="302.827" y1="346.876" x2="412.901" y2="346.876"/>
			
				<line style="fill:#FFFFFF;stroke:#263238;stroke-linecap:round;stroke-linejoin:round;stroke-miterlimit:10;" x1="302.827" y1="338.376" x2="412.901" y2="338.376"/>
			
				<line style="fill:#FFFFFF;stroke:#263238;stroke-linecap:round;stroke-linejoin:round;stroke-miterlimit:10;" x1="302.827" y1="329.876" x2="412.901" y2="329.876"/>
		</g>
		<g>
			
				<rect x="86.24" y="321.848" style="fill:#D6D6D6;stroke:#263238;stroke-linecap:round;stroke-linejoin:round;stroke-miterlimit:10;" width="104.528" height="132.844"/>
			
				<line style="fill:#FFFFFF;stroke:#263238;stroke-linecap:round;stroke-linejoin:round;stroke-miterlimit:10;" x1="86.55" y1="448.877" x2="190.813" y2="448.877"/>
			
				<line style="fill:#FFFFFF;stroke:#263238;stroke-linecap:round;stroke-linejoin:round;stroke-miterlimit:10;" x1="86.55" y1="440.377" x2="190.813" y2="440.377"/>
			
				<line style="fill:#FFFFFF;stroke:#263238;stroke-linecap:round;stroke-linejoin:round;stroke-miterlimit:10;" x1="86.55" y1="431.877" x2="190.813" y2="431.877"/>
			
				<line style="fill:#FFFFFF;stroke:#263238;stroke-linecap:round;stroke-linejoin:round;stroke-miterlimit:10;" x1="86.55" y1="423.377" x2="190.813" y2="423.377"/>
			
				<line style="fill:#FFFFFF;stroke:#263238;stroke-linecap:round;stroke-linejoin:round;stroke-miterlimit:10;" x1="86.55" y1="414.877" x2="190.813" y2="414.877"/>
			
				<line style="fill:#FFFFFF;stroke:#263238;stroke-linecap:round;stroke-linejoin:round;stroke-miterlimit:10;" x1="86.55" y1="406.377" x2="190.813" y2="406.377"/>
			
				<line style="fill:#FFFFFF;stroke:#263238;stroke-linecap:round;stroke-linejoin:round;stroke-miterlimit:10;" x1="86.55" y1="397.877" x2="190.813" y2="397.877"/>
			
				<line style="fill:#FFFFFF;stroke:#263238;stroke-linecap:round;stroke-linejoin:round;stroke-miterlimit:10;" x1="86.55" y1="389.376" x2="190.813" y2="389.376"/>
			
				<line style="fill:#FFFFFF;stroke:#263238;stroke-linecap:round;stroke-linejoin:round;stroke-miterlimit:10;" x1="86.55" y1="380.876" x2="190.813" y2="380.876"/>
			
				<line style="fill:#FFFFFF;stroke:#263238;stroke-linecap:round;stroke-linejoin:round;stroke-miterlimit:10;" x1="86.55" y1="372.376" x2="190.813" y2="372.376"/>
			
				<line style="fill:#FFFFFF;stroke:#263238;stroke-linecap:round;stroke-linejoin:round;stroke-miterlimit:10;" x1="86.55" y1="363.876" x2="190.813" y2="363.876"/>
			
				<line style="fill:#FFFFFF;stroke:#263238;stroke-linecap:round;stroke-linejoin:round;stroke-miterlimit:10;" x1="86.55" y1="355.376" x2="190.813" y2="355.376"/>
			
				<line style="fill:#FFFFFF;stroke:#263238;stroke-linecap:round;stroke-linejoin:round;stroke-miterlimit:10;" x1="86.55" y1="346.876" x2="190.813" y2="346.876"/>
			
				<line style="fill:#FFFFFF;stroke:#263238;stroke-linecap:round;stroke-linejoin:round;stroke-miterlimit:10;" x1="86.55" y1="338.376" x2="190.813" y2="338.376"/>
			
				<line style="fill:#FFFFFF;stroke:#263238;stroke-linecap:round;stroke-linejoin:round;stroke-miterlimit:10;" x1="86.55" y1="329.876" x2="190.813" y2="329.876"/>
		</g>
		<rect x="78.826" y="296.659" style="opacity:0.3;" width="340.84" height="45.174"/>
		<g>
			
				<rect x="81" y="281.436" style="fill:#FFFFFF;stroke:#263238;stroke-linecap:round;stroke-linejoin:round;stroke-miterlimit:10;" width="336" height="45.174"/>
			<g>
				
					<rect x="98.943" y="281.436" style="fill:#92E3A9;stroke:#263238;stroke-linecap:round;stroke-linejoin:round;stroke-miterlimit:10;" width="15.468" height="45.174"/>
				
					<rect x="131.735" y="281.436" style="fill:#92E3A9;stroke:#263238;stroke-linecap:round;stroke-linejoin:round;stroke-miterlimit:10;" width="15.468" height="45.174"/>
				
					<rect x="164.527" y="281.436" style="fill:#92E3A9;stroke:#263238;stroke-linecap:round;stroke-linejoin:round;stroke-miterlimit:10;" width="15.468" height="45.174"/>
				
					<rect x="195.72" y="281.436" style="fill:#92E3A9;stroke:#263238;stroke-linecap:round;stroke-linejoin:round;stroke-miterlimit:10;" width="15.468" height="45.174"/>
				
					<rect x="226.914" y="281.436" style="fill:#92E3A9;stroke:#263238;stroke-linecap:round;stroke-linejoin:round;stroke-miterlimit:10;" width="15.468" height="45.174"/>
				
					<rect x="258.107" y="281.436" style="fill:#92E3A9;stroke:#263238;stroke-linecap:round;stroke-linejoin:round;stroke-miterlimit:10;" width="15.468" height="45.174"/>
				
					<rect x="289.3" y="281.436" style="fill:#92E3A9;stroke:#263238;stroke-linecap:round;stroke-linejoin:round;stroke-miterlimit:10;" width="15.468" height="45.174"/>
				
					<rect x="320.494" y="281.436" style="fill:#92E3A9;stroke:#263238;stroke-linecap:round;stroke-linejoin:round;stroke-miterlimit:10;" width="15.468" height="45.174"/>
				
					<rect x="351.687" y="281.436" style="fill:#92E3A9;stroke:#263238;stroke-linecap:round;stroke-linejoin:round;stroke-miterlimit:10;" width="15.468" height="45.174"/>
				
					<rect x="382.881" y="281.436" style="fill:#92E3A9;stroke:#263238;stroke-linecap:round;stroke-linejoin:round;stroke-miterlimit:10;" width="15.468" height="45.174"/>
			</g>
		</g>
		<g>
			<polygon style="fill:#92E3A9;stroke:#263238;stroke-linecap:round;stroke-linejoin:round;stroke-miterlimit:10;" points="
				101.244,219 95.379,270.024 117.412,219 			"/>
			<polygon style="fill:#92E3A9;stroke:#263238;stroke-linecap:round;stroke-linejoin:round;stroke-miterlimit:10;" points="
				138.613,219 92.932,281.036 162.435,219 			"/>
			<polygon style="fill:#92E3A9;stroke:#263238;stroke-linecap:round;stroke-linejoin:round;stroke-miterlimit:10;" points="
				284.876,219 113.734,274.918 395.56,219 			"/>
			<polygon style="fill:#92E3A9;stroke:#263238;stroke-linecap:round;stroke-linejoin:round;stroke-miterlimit:10;" points="
				181.613,219 105.78,276.142 226.226,219 			"/>
		</g>
	</g>
</g>
<g id="Posters">
	<g>
		
			<rect x="102.956" y="355.5" style="fill:#92E3A9;stroke:#263238;stroke-width:0.8956;stroke-linecap:round;stroke-linejoin:round;stroke-miterlimit:10;" width="72.587" height="51.5"/>
		<g>
			<g>
				<path style="fill:#263238;" d="M116.75,366.47c0-1.91,1.006-3.001,2.848-3.001c1.842,0,2.848,1.092,2.848,3.001v6.209
					c0,1.911-1.006,3.002-2.848,3.002c-1.842,0-2.848-1.092-2.848-3.002V366.47z M118.625,372.798c0,0.853,0.376,1.176,0.973,1.176
					c0.597,0,0.973-0.324,0.973-1.176v-6.448c0-0.853-0.376-1.177-0.973-1.177c-0.597,0-0.973,0.324-0.973,1.177V372.798z"/>
				<path style="fill:#263238;" d="M129.561,366.556v1.552c0,1.911-0.921,2.951-2.798,2.951h-0.886v4.486H124v-11.94h2.763
					C128.639,363.604,129.561,364.645,129.561,366.556z M125.876,365.31v4.042h0.886c0.597,0,0.922-0.272,0.922-1.125v-1.792
					c0-0.853-0.325-1.125-0.922-1.125H125.876z"/>
				<path style="fill:#263238;" d="M132.734,368.636h2.575v1.705h-2.575v3.497h3.24v1.705h-5.117v-11.94h5.117v1.706h-3.24V368.636z
					"/>
				<path style="fill:#263238;" d="M139.147,366.897v8.647h-1.689v-11.94h2.354l1.928,7.147v-7.147h1.671v11.94h-1.927
					L139.147,366.897z"/>
				<path style="fill:#263238;" d="M145.102,363.604h1.876v11.94h-1.876V363.604z"/>
				<path style="fill:#263238;" d="M150.355,366.897v8.647h-1.689v-11.94h2.354l1.928,7.147v-7.147h1.671v11.94h-1.927
					L150.355,366.897z"/>
				<path style="fill:#263238;" d="M159.123,368.892h2.627v3.786c0,1.911-0.955,3.002-2.797,3.002c-1.842,0-2.797-1.092-2.797-3.002
					v-6.209c0-1.91,0.955-3.001,2.797-3.001c1.842,0,2.797,1.092,2.797,3.001v1.159h-1.773v-1.279c0-0.853-0.376-1.177-0.973-1.177
					c-0.597,0-0.973,0.324-0.973,1.177v6.448c0,0.853,0.376,1.159,0.973,1.159c0.597,0,0.973-0.307,0.973-1.159v-2.201h-0.854
					V368.892z"/>
			</g>
			<g>
				<path style="fill:#263238;" d="M121.417,378.777c3.027,0,4.583,1.811,4.583,4.98v0.621h-2.942v-0.82
					c0-1.414-0.565-1.951-1.556-1.951c-0.99,0-1.556,0.537-1.556,1.951c0,4.074,6.082,4.838,6.082,10.495
					c0,3.168-1.584,4.979-4.639,4.979c-3.055,0-4.639-1.81-4.639-4.979v-1.216h2.942v1.414c0,1.415,0.622,1.924,1.613,1.924
					c0.99,0,1.612-0.509,1.612-1.924c0-4.073-6.082-4.837-6.082-10.494C116.834,380.587,118.391,378.777,121.417,378.777z"/>
				<path style="fill:#263238;" d="M128.119,383.757c0-3.169,1.669-4.98,4.724-4.98c3.056,0,4.725,1.811,4.725,4.98v10.297
					c0,3.168-1.669,4.979-4.725,4.979c-3.056,0-4.724-1.81-4.724-4.979V383.757z M131.231,394.251c0,1.415,0.622,1.952,1.613,1.952
					c0.99,0,1.613-0.537,1.613-1.952v-10.693c0-1.414-0.623-1.951-1.613-1.951c-0.99,0-1.613,0.537-1.613,1.951V394.251z"/>
				<path style="fill:#263238;" d="M139.885,383.757c0-3.169,1.669-4.98,4.725-4.98c3.056,0,4.725,1.811,4.725,4.98v10.297
					c0,3.168-1.669,4.979-4.725,4.979c-3.056,0-4.725-1.81-4.725-4.979V383.757z M142.996,394.251c0,1.415,0.623,1.952,1.613,1.952
					c0.99,0,1.613-0.537,1.613-1.952v-10.693c0-1.414-0.623-1.951-1.613-1.951c-0.99,0-1.613,0.537-1.613,1.951V394.251z"/>
				<path style="fill:#263238;" d="M154.678,384.463v14.342h-2.801v-19.802h3.903l3.197,11.853v-11.853h2.773v19.802h-3.197
					L154.678,384.463z"/>
			</g>
		</g>
	</g>
	<g>
		
			<rect x="321.456" y="355.5" style="fill:#92E3A9;stroke:#263238;stroke-width:0.8956;stroke-linecap:round;stroke-linejoin:round;stroke-miterlimit:10;" width="72.587" height="51.5"/>
		<g>
			<g>
				<path style="fill:#263238;" d="M335.25,366.47c0-1.91,1.006-3.001,2.848-3.001c1.842,0,2.848,1.092,2.848,3.001v6.209
					c0,1.911-1.006,3.002-2.848,3.002c-1.842,0-2.848-1.092-2.848-3.002V366.47z M337.125,372.798c0,0.853,0.376,1.176,0.973,1.176
					c0.597,0,0.973-0.324,0.973-1.176v-6.448c0-0.853-0.376-1.177-0.973-1.177c-0.597,0-0.973,0.324-0.973,1.177V372.798z"/>
				<path style="fill:#263238;" d="M348.06,366.556v1.552c0,1.911-0.921,2.951-2.798,2.951h-0.886v4.486H342.5v-11.94h2.763
					C347.139,363.604,348.06,364.645,348.06,366.556z M344.376,365.31v4.042h0.886c0.597,0,0.921-0.272,0.921-1.125v-1.792
					c0-0.853-0.325-1.125-0.921-1.125H344.376z"/>
				<path style="fill:#263238;" d="M351.234,368.636h2.575v1.705h-2.575v3.497h3.24v1.705h-5.117v-11.94h5.117v1.706h-3.24V368.636z
					"/>
				<path style="fill:#263238;" d="M357.647,366.897v8.647h-1.689v-11.94h2.354l1.928,7.147v-7.147h1.671v11.94h-1.927
					L357.647,366.897z"/>
				<path style="fill:#263238;" d="M363.602,363.604h1.876v11.94h-1.876V363.604z"/>
				<path style="fill:#263238;" d="M368.855,366.897v8.647h-1.689v-11.94h2.354l1.928,7.147v-7.147h1.671v11.94h-1.927
					L368.855,366.897z"/>
				<path style="fill:#263238;" d="M377.623,368.892h2.627v3.786c0,1.911-0.955,3.002-2.797,3.002c-1.842,0-2.797-1.092-2.797-3.002
					v-6.209c0-1.91,0.955-3.001,2.797-3.001c1.842,0,2.797,1.092,2.797,3.001v1.159h-1.773v-1.279c0-0.853-0.376-1.177-0.973-1.177
					c-0.597,0-0.973,0.324-0.973,1.177v6.448c0,0.853,0.376,1.159,0.973,1.159c0.597,0,0.973-0.307,0.973-1.159v-2.201h-0.854
					V368.892z"/>
			</g>
			<g>
				<path style="fill:#263238;" d="M339.917,378.777c3.027,0,4.583,1.811,4.583,4.98v0.621h-2.942v-0.82
					c0-1.414-0.565-1.951-1.556-1.951c-0.99,0-1.556,0.537-1.556,1.951c0,4.074,6.082,4.838,6.082,10.495
					c0,3.168-1.584,4.979-4.639,4.979c-3.055,0-4.639-1.81-4.639-4.979v-1.216h2.942v1.414c0,1.415,0.622,1.924,1.613,1.924
					c0.99,0,1.612-0.509,1.612-1.924c0-4.073-6.082-4.837-6.082-10.494C335.334,380.587,336.891,378.777,339.917,378.777z"/>
				<path style="fill:#263238;" d="M346.619,383.757c0-3.169,1.669-4.98,4.725-4.98c3.056,0,4.724,1.811,4.724,4.98v10.297
					c0,3.168-1.669,4.979-4.724,4.979c-3.056,0-4.725-1.81-4.725-4.979V383.757z M349.731,394.251c0,1.415,0.622,1.952,1.613,1.952
					c0.99,0,1.613-0.537,1.613-1.952v-10.693c0-1.414-0.623-1.951-1.613-1.951c-0.99,0-1.613,0.537-1.613,1.951V394.251z"/>
				<path style="fill:#263238;" d="M358.385,383.757c0-3.169,1.669-4.98,4.725-4.98c3.056,0,4.724,1.811,4.724,4.98v10.297
					c0,3.168-1.669,4.979-4.724,4.979c-3.056,0-4.725-1.81-4.725-4.979V383.757z M361.496,394.251c0,1.415,0.623,1.952,1.613,1.952
					c0.99,0,1.613-0.537,1.613-1.952v-10.693c0-1.414-0.623-1.951-1.613-1.951c-0.99,0-1.613,0.537-1.613,1.951V394.251z"/>
				<path style="fill:#263238;" d="M373.178,384.463v14.342h-2.801v-19.802h3.903l3.197,11.853v-11.853h2.773v19.802h-3.197
					L373.178,384.463z"/>
			</g>
		</g>
	</g>
</g>
<g id="Tree">
	<g>
		<g>
			<path style="fill:#92E3A9;" d="M382.399,294.792c0,0,31.301,3.097,47.166,22.501c0,0,16.761-22.479,46.866-22.018
				c8.736-10.53,13.991-24.051,13.996-38.802c0.012-33.602-27.219-60.851-60.82-60.862c-33.602-0.012-60.851,27.219-60.862,60.82
				c-0.005,14.566,5.111,27.936,13.645,38.413L382.399,294.792z"/>
			<path style="opacity:0.5;fill:#FFFFFF;" d="M382.399,294.792c0,0,31.301,3.097,47.166,22.501c0,0,16.761-22.479,46.866-22.018
				c8.736-10.53,13.991-24.051,13.996-38.802c0.012-33.602-27.219-60.851-60.82-60.862c-33.602-0.012-60.851,27.219-60.862,60.82
				c-0.005,14.566,5.111,27.936,13.645,38.413L382.399,294.792z"/>
			<g>
				<polygon style="fill:#828282;" points="428.53,199.9 427.473,448.8 432.757,448.8 				"/>
				<path style="fill:#828282;" d="M430.115,311.379c0,0,10.567-19.02,29.587-24.832c0,0-20.076,4.755-30.115,21.133
					L430.115,311.379z"/>
				<path style="fill:#828282;" d="M429.321,258.545c0,0,11.36-20.076,30.38-25.888c0,0-20.263,5.513-30.302,21.891L429.321,258.545
					z"/>
				<path style="fill:#828282;" d="M429.635,285.112c0,0,11.047-19.699,30.066-25.51c0,0-20.076,4.755-30.115,21.133
					L429.635,285.112z"/>
				<path style="fill:#828282;" d="M428.548,271.225c0,0-10.196-19.02-28.549-24.832c0,0,19.372,4.755,29.058,21.133
					L428.548,271.225z"/>
				<path style="fill:#828282;" d="M428.548,297.642c0,0-10.196-19.02-28.549-24.832c0,0,19.372,4.755,29.058,21.133
					L428.548,297.642z"/>
			</g>
		</g>
		
			<rect x="407.828" y="444.819" style="fill:#FFFFFF;stroke:#263238;stroke-linecap:round;stroke-linejoin:round;stroke-miterlimit:10;" width="41.97" height="9.633"/>
	</g>
</g>
<g id="Floor_1_">
	<g>
		
			<rect x="46.049" y="454.523" style="fill:#FFFFFF;stroke:#263238;stroke-linecap:round;stroke-linejoin:round;stroke-miterlimit:10;" width="407.807" height="7.477"/>
		<line style="fill:none;stroke:#263238;stroke-miterlimit:10;" x1="25" y1="462" x2="478" y2="462"/>
	</g>
</g>
</svg>
