<?xml version="1.0" encoding="utf-8"?>
<!-- Generator: Adobe Illustrator 27.5.0, SVG Export Plug-In . SVG Version: 6.00 Build 0)  -->
<svg version="1.1" xmlns="http://www.w3.org/2000/svg" xmlns:xlink="http://www.w3.org/1999/xlink" x="0px" y="0px"
	 viewBox="0 0 500 500" style="enable-background:new 0 0 500 500;" xml:space="preserve">
<g id="Background_Simple">
	<g>
		<path style="opacity:0.7;fill:#FFFFFF;" d="M67.931,167.086c0,0-27.877,71.988,11.297,144.503
			c39.174,72.516,119.879,110.802,184.469,143.548c64.59,32.746,131.661,16.799,163.534-36.838
			c31.873-53.637-11.845-91.928-11.897-168.418c-0.051-76.49,11.447-96.742-29.963-161.364
			c-41.41-64.623-143.059-78.925-219.9-30.996C88.631,105.45,67.931,167.086,67.931,167.086z"/>
	</g>
	<g>
		<path style="fill:#92E3A9;" d="M41.134,279.332c-4.385-20.579-3.177-42.342,5.788-64.505
			c11.551-28.556,36.366-48.846,64.171-60.686c40.407-17.206,80.073-17.533,112.917-51.248c10.13-10.399,18.633-22.31,28.98-32.494
			c30.52-30.041,75.192-26.394,108.548-2.575c69.586,49.69,94.614,148.102,90.744,229.464c-1.737,36.513-19.168,70.495-46.759,94.45
			c-62.401,54.181-168.357,45.067-240.026,16.786C112.052,387.434,53.684,338.234,41.134,279.332z"/>
		<path style="opacity:0.7;fill:#FFFFFF;" d="M41.134,279.332c-4.385-20.579-3.177-42.342,5.788-64.505
			c11.551-28.556,36.366-48.846,64.171-60.686c40.407-17.206,80.073-17.533,112.917-51.248c10.13-10.399,18.633-22.31,28.98-32.494
			c30.52-30.041,75.192-26.394,108.548-2.575c69.586,49.69,94.614,148.102,90.744,229.464c-1.737,36.513-19.168,70.495-46.759,94.45
			c-62.401,54.181-168.357,45.067-240.026,16.786C112.052,387.434,53.684,338.234,41.134,279.332z"/>
	</g>
</g>
<g id="Line">
	<g>
		<g>
			<g>
				<line style="fill:none;stroke:#263238;stroke-linejoin:round;" x1="358.58" y1="105.45" x2="355.08" y2="105.45"/>
				
					<line style="fill:none;stroke:#263238;stroke-linejoin:round;stroke-dasharray:6.9903,6.9903;" x1="348.09" y1="105.45" x2="127.895" y2="105.45"/>
				<line style="fill:none;stroke:#263238;stroke-linejoin:round;" x1="124.4" y1="105.45" x2="120.9" y2="105.45"/>
			</g>
		</g>
		<g>
			<g>
				<line style="fill:none;stroke:#263238;stroke-linejoin:round;" x1="361" y1="390.34" x2="361" y2="386.84"/>
				
					<line style="fill:none;stroke:#263238;stroke-linejoin:round;stroke-dasharray:7.0633,7.0633;" x1="361" y1="379.777" x2="361" y2="114.902"/>
				<line style="fill:none;stroke:#263238;stroke-linejoin:round;" x1="361" y1="111.37" x2="361" y2="107.87"/>
			</g>
		</g>
		
			<rect x="358.58" y="103.026" style="fill:none;stroke:#263238;stroke-linejoin:round;stroke-miterlimit:10;" width="4.845" height="4.845"/>
	</g>
</g>
<g id="Cursor">
	<polygon style="fill:none;stroke:#263238;stroke-linecap:round;stroke-linejoin:round;stroke-miterlimit:10;" points="
		401.502,119.943 366.297,105.154 381.086,140.359 385.171,128.448 393.032,136.308 397.451,131.889 389.59,124.029 	"/>
</g>
<g id="Folders">
	<g>
		<g>
			<path style="fill:none;stroke:#263238;stroke-linecap:round;stroke-linejoin:round;stroke-miterlimit:10;" d="M333.651,430.207
				h-34.742c-2.459,0-4.769-1.988-5.16-4.44l-3.869-24.26c-0.391-2.452,1.285-4.44,3.744-4.44h34.742c2.459,0,4.769,1.988,5.16,4.44
				l3.869,24.26C337.786,428.219,336.11,430.207,333.651,430.207z"/>
			<path style="fill:none;stroke:#263238;stroke-linecap:round;stroke-linejoin:round;stroke-miterlimit:10;" d="M333.651,430.207
				c2.459,0,4.452-1.993,4.452-4.452v-27.353c0-2.35-1.826-4.254-4.134-4.42l-1.082-2.782c-0.203-0.521-0.705-0.865-1.264-0.865
				h-11.36c-0.559,0-1.061,0.343-1.264,0.865l-1.069,2.75h-19.022c-1.96,0-3.623,1.266-4.218,3.024"/>
		</g>
		<g>
			<path style="fill:none;stroke:#263238;stroke-linecap:round;stroke-linejoin:round;stroke-miterlimit:10;" d="M202.985,430.207
				h-34.742c-2.459,0-4.769-1.988-5.16-4.44l-3.869-24.26c-0.391-2.452,1.285-4.44,3.744-4.44h34.742c2.459,0,4.769,1.988,5.16,4.44
				l3.869,24.26C207.12,428.219,205.443,430.207,202.985,430.207z"/>
			<path style="fill:none;stroke:#263238;stroke-linecap:round;stroke-linejoin:round;stroke-miterlimit:10;" d="M202.985,430.207
				c2.459,0,4.452-1.993,4.452-4.452v-27.353c0-2.35-1.827-4.254-4.134-4.42l-1.082-2.782c-0.203-0.521-0.705-0.865-1.264-0.865
				h-11.36c-0.559,0-1.061,0.343-1.264,0.865l-1.069,2.75h-19.021c-1.96,0-3.623,1.266-4.218,3.024"/>
		</g>
		<g>
			<path style="fill:none;stroke:#263238;stroke-linecap:round;stroke-linejoin:round;stroke-miterlimit:10;" d="M268.318,430.207
				h-34.742c-2.459,0-4.769-1.988-5.16-4.44l-3.869-24.26c-0.391-2.452,1.285-4.44,3.744-4.44h34.742c2.459,0,4.769,1.988,5.16,4.44
				l3.869,24.26C272.453,428.219,270.777,430.207,268.318,430.207z"/>
			<path style="fill:none;stroke:#263238;stroke-linecap:round;stroke-linejoin:round;stroke-miterlimit:10;" d="M268.318,430.207
				c2.459,0,4.452-1.993,4.452-4.452v-27.353c0-2.35-1.827-4.254-4.134-4.42l-1.082-2.782c-0.203-0.521-0.705-0.865-1.264-0.865
				h-11.36c-0.559,0-1.061,0.343-1.264,0.865l-1.069,2.75h-19.021c-1.96,0-3.623,1.266-4.218,3.024"/>
		</g>
	</g>
</g>
<g id="Left_hand">
	<g>
		<path style="fill:#92E3A9;stroke:#263238;stroke-linecap:round;stroke-linejoin:round;stroke-miterlimit:10;" d="M287.421,159.544
			l9.416-11.635c2.149-2.655,2.98-6.141,2.261-9.481l-8.933-41.455c-0.685-3.18-3.497-5.451-6.75-5.451h-17.314
			c-1.231,0-2.453,0.202-3.619,0.597L95.011,160.698l42.441,220.395c5.954,8.943,173.399-48.914,173.399-48.914
			c5.532-1.849,8.738-7.614,7.39-13.288l-34.256-144.236C282.727,169.356,283.996,163.776,287.421,159.544z"/>
		<path style="opacity:0.3;fill-opacity:0.7;" d="M262.926,96.419l53.01,227.178c0,0-179.228,66.762-170.782,46.106
			c0,0-42.653-202.951-39.056-203.701C109.696,165.251,262.926,96.419,262.926,96.419z"/>
		<g>
			<defs>
				<path id="XMLID_548_" d="M307.177,319.55L152.61,368.621l-37.839-197.184l-2.153-11.218l137.705-66.628
					c2.759-1.344,6.249,0.37,7.037,3.46l2.846,11.134l51.692,202.59C312.878,314.618,310.849,318.384,307.177,319.55z"/>
			</defs>
			<use xlink:href="#XMLID_548_"  style="overflow:visible;fill:#FFFFFF;"/>
			<clipPath id="XMLID_00000080902681528575691630000001521704679322250667_">
				<use xlink:href="#XMLID_548_"  style="overflow:visible;"/>
			</clipPath>
			<path style="clip-path:url(#XMLID_00000080902681528575691630000001521704679322250667_);fill:#263238;" d="M260.205,108.185
				l-144.33,66.065l-3.258-14.031l137.705-66.628c2.759-1.344,6.249,0.37,7.037,3.46L260.205,108.185z"/>
			
				<path style="clip-path:url(#XMLID_00000080902681528575691630000001521704679322250667_);fill:#92E3A9;stroke:#263238;stroke-linecap:round;stroke-linejoin:round;stroke-miterlimit:10;" d="
				M252.974,103.298c0,2.016-1.432,3.551-3.198,3.428s-3.198-1.858-3.198-3.874c0-2.017,1.432-3.551,3.198-3.428
				S252.974,101.282,252.974,103.298z"/>
			
				<path style="clip-path:url(#XMLID_00000080902681528575691630000001521704679322250667_);fill:#92E3A9;stroke:#263238;stroke-linecap:round;stroke-linejoin:round;stroke-miterlimit:10;" d="
				M244.727,107.379c0,1.872-1.329,3.296-2.968,3.181c-1.639-0.114-2.968-1.725-2.968-3.596c0-1.872,1.329-3.296,2.968-3.181
				C243.398,103.897,244.727,105.507,244.727,107.379z"/>
			
				<path style="clip-path:url(#XMLID_00000080902681528575691630000001521704679322250667_);fill:#92E3A9;stroke:#263238;stroke-linecap:round;stroke-linejoin:round;stroke-miterlimit:10;" d="
				M236.939,110.908c0,1.751-1.243,3.083-2.776,2.976c-1.533-0.107-2.776-1.613-2.776-3.364s1.243-3.083,2.776-2.976
				C235.696,107.651,236.939,109.157,236.939,110.908z"/>
			<path style="opacity:0.3;clip-path:url(#XMLID_00000080902681528575691630000001521704679322250667_);fill-opacity:0.7;" d="
				M307.177,319.55L152.61,368.621l-37.839-197.184l-2.153-11.218l137.705-66.628c2.759-1.344,6.249,0.37,7.037,3.46l2.846,11.134
				l51.692,202.59C312.878,314.618,310.849,318.384,307.177,319.55z"/>
			
				<use xlink:href="#XMLID_548_"  style="overflow:visible;fill:none;stroke:#263238;stroke-linecap:round;stroke-linejoin:round;stroke-miterlimit:10;"/>
		</g>
		<g>
			<path style="fill:#FFFFFF;stroke:#263238;stroke-linecap:round;stroke-linejoin:round;stroke-miterlimit:10;" d="
				M298.031,309.832l-152.48,59.871l-37.328-194.54l-2.124-11.068l135.845-76.249c2.722-1.536,6.164-0.066,6.942,2.968l2.807,10.935
				l50.994,198.979C303.655,304.502,301.654,308.41,298.031,309.832z"/>
			<path style="fill:#263238;" d="M251.693,101.749l-142.381,76.149l-3.214-13.803l135.845-76.249
				c2.722-1.536,6.164-0.066,6.942,2.968L251.693,101.749z"/>
			<path style="fill:#92E3A9;stroke:#263238;stroke-linecap:round;stroke-linejoin:round;stroke-miterlimit:10;" d="M244.56,97.367
				c0,2.017-1.412,3.651-3.155,3.651c-1.742,0-3.154-1.635-3.154-3.651s1.412-3.651,3.154-3.651
				C243.148,93.716,244.56,95.351,244.56,97.367z"/>
			<path style="fill:#92E3A9;stroke:#263238;stroke-linecap:round;stroke-linejoin:round;stroke-miterlimit:10;" d="
				M236.424,102.024c0,1.872-1.311,3.389-2.928,3.389c-1.617,0-2.928-1.517-2.928-3.389c0-1.872,1.311-3.389,2.928-3.389
				C235.113,98.635,236.424,100.152,236.424,102.024z"/>
			<path style="fill:#92E3A9;stroke:#263238;stroke-linecap:round;stroke-linejoin:round;stroke-miterlimit:10;" d="
				M228.741,106.097c0,1.751-1.226,3.17-2.739,3.17c-1.513,0-2.739-1.419-2.739-3.17c0-1.751,1.226-3.17,2.739-3.17
				C227.515,102.927,228.741,104.347,228.741,106.097z"/>
			<path style="opacity:0.3;fill-opacity:0.7;" d="M250.084,106.667l44.901,175.809c0.184,0.72-0.179,1.468-0.859,1.769
				l-4.096,1.814c-0.85,0.377-1.835-0.104-2.061-1.007l-43.702-174.803c-0.225-0.901,0.18-1.842,0.989-2.298l3.38-1.904
				C249.205,105.728,249.923,106.035,250.084,106.667z"/>
			<path style="fill:#BFBFBF;stroke:#263238;stroke-linecap:round;stroke-linejoin:round;stroke-miterlimit:10;" d="
				M246.229,111.749l2.481-1.37c1.017-0.561,2.289-0.007,2.57,1.12l4.587,18.416c0.23,0.923-0.198,1.884-1.039,2.33l-3.025,1.606
				c-0.734,0.39-1.639-0.013-1.841-0.82l-4.742-18.967C244.993,113.154,245.407,112.203,246.229,111.749z"/>
			
				<line style="opacity:0.4;fill:none;stroke:#000000;stroke-width:2;stroke-linecap:round;stroke-linejoin:round;stroke-miterlimit:10;" x1="268.649" y1="308.591" x2="170.434" y2="349.036"/>
			
				<line style="opacity:0.4;fill:none;stroke:#000000;stroke-width:2;stroke-linecap:round;stroke-linejoin:round;stroke-miterlimit:10;" x1="281.926" y1="296.262" x2="157.156" y2="349.036"/>
			<g>
				<polygon style="opacity:0.3;fill-opacity:0.7;" points="269.668,243.186 259.604,200.374 232.316,213.409 242.291,256.077 				
					"/>
				<polygon style="opacity:0.3;fill-opacity:0.7;" points="221.195,165.844 230.673,206.383 257.915,193.191 248.15,151.65 				"/>
				<polygon style="opacity:0.3;fill-opacity:0.7;" points="247.286,147.977 239.307,114.035 212.38,128.139 220.359,162.267 				
					"/>
				<polygon style="opacity:0.3;fill-opacity:0.7;" points="243.28,260.307 252.459,299.571 280.079,287.474 270.799,247.997 				
					"/>
			</g>
		</g>
		<g>
			<path style="fill:#92E3A9;stroke:#263238;stroke-linecap:round;stroke-linejoin:round;stroke-miterlimit:10;" d="M95.011,160.698
				l42.441,220.395c13.584-15.515,110.617-86.582,110.617-86.582c7.548-5.476,11.109-14.923,9.053-24.019L212.177,77.848
				c-1.659-7.339-10.582-10.209-16.208-5.212C195.969,72.636,105.735,129.327,95.011,160.698z"/>
			<g>
				<g style="opacity:0.7;">
					<path style="fill:#FFFFFF;" d="M249.418,277.37c-1.283,0-2.447-0.873-2.763-2.175c-0.766-3.152-1.516-6.307-2.254-9.466
						c-0.357-1.53,0.593-3.06,2.123-3.418c1.526-0.358,3.06,0.592,3.417,2.123c0.734,3.142,1.481,6.281,2.243,9.418
						c0.371,1.526-0.566,3.065-2.093,3.436C249.866,277.343,249.64,277.37,249.418,277.37z"/>
				</g>
				<g style="opacity:0.7;">
					<path style="fill:#FFFFFF;" d="M243.609,252.05c-1.298,0-2.471-0.895-2.771-2.214L201.91,78.94
						c-0.01-0.045-0.041-0.182-0.211-0.25c-0.169-0.068-0.279,0.008-0.315,0.033c-9.994,6.653-43.818,29.334-59.49,41.872
						c-9.981,8.318-19.132,17.869-29.63,30.933c-0.983,1.226-2.775,1.421-3.999,0.436c-1.225-0.984-1.42-2.775-0.436-3.999
						c10.743-13.371,20.14-23.171,30.467-31.777c15.463-12.371,47.064-33.633,59.935-42.201c1.652-1.1,3.736-1.316,5.578-0.582
						c1.844,0.736,3.209,2.333,3.65,4.271l38.927,170.896c0.349,1.532-0.609,3.056-2.142,3.405
						C244.032,252.027,243.819,252.05,243.609,252.05z"/>
				</g>
			</g>
		</g>
	</g>
	<g>
		<path style="fill:#FFFFFF;" d="M130.189,462.395c-1.337-12.083-3.149-28.868-4.72-44.858c-2.284-23.343-4.061-44.955-3.094-47.688
			c2.202-6.212,1.757-10.685,1.757-10.685c4.754-0.526,6.883-7.02,6.883-7.02l-2.553-22.815c0,0,1.592-43.684-0.366-56.092
			c-1.968-12.417-9.922-20.728-10.087-24.034c-0.164-3.297,6.21-17.818,8.305-21.974c2.095-4.156,0.89-27.538-2.493-34.848
			c-0.987-2.124-2.356-3.331-3.816-3.971c-3.561-1.589-7.623,0.197-7.623,0.197c-0.926,13.713-4.972,22.854-8.721,29.367
			l0.001,0.009c-3.281,5.695-6.312,9.38-6.86,12.387c-1.169,6.442-15.383,23.067-18.068,31.666
			c-2.676,8.598-3.555,37.84-7.766,49.354c-1.985,5.427-9.131,22.701-11.011,75.393c-1.081,30.275-5.759,57.729-9.544,75.614
			H130.189z"/>
		<path style="opacity:0.4;fill:#92E3A9;" d="M126.313,227.227c-2.095,4.156-8.468,18.677-8.305,21.974
			c0.165,3.306,8.118,11.618,10.087,24.034c1.958,12.409,0.366,56.092,0.366,56.092l2.553,22.815c0,0-2.128,6.494-6.883,7.02
			c0,0,0.444,4.473-1.757,10.685c-0.967,2.733,0.81,24.346,3.094,47.688c-2.384-10.074-4.344-17.861-4.344-17.861
			s-1.05,12.407-2.387,22.19c-1.337,9.783-4.578,23.714-4.578,23.714s-7.149-67.391-5.493-78.647
			c1.646-11.263,5.76-9.418,2.59-14.805c-3.16-5.379-22.402-10.054-20.522-14.109c1.844-3.977,16.919,3.145,17.54,3.438
			c-0.509-0.408-8.863-7.099-8.8-10.198c0.069-3.191,13.411,4.986,13.411,4.986s5.561-3.302,9.639-7.98
			c4.078-4.678-1.974-49.448-3.113-52.673c-1.139-3.225-8.291-2.77-10.382-5.462c-2.091-2.691,3.588-3.894,2.498-8.001
			c-1.09-4.107-4.024-3.744-4.024-3.744s4.697-6.864,4.275-12.854c-0.415-6,7.364-13.209,6.803-17.531
			c-2.186-16.828-12.203-5.234-14.922-10.023l-0.001-0.009c3.749-6.513,7.795-15.654,8.721-29.367c0,0,4.062-1.786,7.623-0.197
			c1.46,0.64,2.829,1.848,3.816,3.971C127.204,199.689,128.408,223.072,126.313,227.227z"/>
		<g>
			<path style="fill:none;stroke:#263238;stroke-linecap:round;stroke-linejoin:round;stroke-miterlimit:10;" d="M53.647,445.581
				c2.852-16.409,5.523-36.866,6.307-58.801c1.882-52.69,9.031-69.966,11.016-75.391c4.213-11.514,5.088-40.755,7.767-49.355
				c2.679-8.6,16.899-25.228,18.059-31.668c1.16-6.44,13.844-16.065,15.582-41.765c0,0,8.052-3.535,11.438,3.778
				c3.386,7.312,4.593,30.693,2.496,34.85c-2.097,4.158-8.47,18.672-8.305,21.974c0.165,3.303,8.123,11.616,10.084,24.029
				c1.961,12.413,0.366,56.096,0.366,56.096l2.553,22.813c0,0-2.121,6.499-6.878,7.022c0,0,0.447,4.47-1.757,10.681
				c-1.504,4.238,3.584,53.803,6.968,84.867"/>
			<path style="fill:none;stroke:#263238;stroke-linecap:round;stroke-linejoin:round;stroke-miterlimit:10;" d="M118.008,249.204
				c0,0-2.51,6.99-7.373,6.976"/>
			<path style="fill:none;stroke:#263238;stroke-linecap:round;stroke-linejoin:round;stroke-miterlimit:10;" d="M116.39,252.334
				c0,0,1.48,8.495-3.772,13.905"/>
			<path style="fill:none;stroke:#263238;stroke-linecap:round;stroke-linejoin:round;stroke-miterlimit:10;" d="M98.594,226.193
				c0,0,5.899-1.163,9.595,1.063"/>
			<path style="fill:none;stroke:#263238;stroke-linecap:round;stroke-linejoin:round;stroke-miterlimit:10;" d="M94.492,339.482
				c0,0,19.171,6.02,22.202,9.068c3.031,3.048,7.439,10.614,7.439,10.614"/>
			<path style="fill:none;stroke:#263238;stroke-linecap:round;stroke-linejoin:round;stroke-miterlimit:10;" d="M109.464,336.531
				c2.812,3.169,9.115,6.787,12.1,9.601c2.985,2.814,4.464,9.084,4.464,9.084"/>
			<path style="fill:none;stroke:#263238;stroke-linecap:round;stroke-linejoin:round;stroke-miterlimit:10;" d="M122.053,335.055
				c0,0,4.427-2.199,6.705-9.132"/>
			<path style="fill:none;stroke:#263238;stroke-linecap:round;stroke-linejoin:round;stroke-miterlimit:10;" d="M116.881,360.593
				c-4.201,2.114-4.313,26.196-2.097,53.464"/>
			<path style="fill:none;stroke:#263238;stroke-linecap:round;stroke-linejoin:round;stroke-miterlimit:10;" d="M119.079,365.578
				c0.04,2.665,3.612,22.986,5.26,40.063"/>
		</g>
	</g>
</g>
<g id="Right_hand">
	<g>
		<g>
			<g>
				<defs>
					<path id="XMLID_542_" d="M288.91,201.67c0,0-7.837,14.315-7.762,17.555s14.973,25.725,15.397,28.271
						c0.424,2.546,11.195,7.477,15.134,10.079c3.938,2.602,8.919-16.308,8.276-29.927S288.91,201.67,288.91,201.67z"/>
				</defs>
				<use xlink:href="#XMLID_542_"  style="overflow:visible;fill:#FFFFFF;"/>
				<clipPath id="XMLID_00000182513790448850535520000017535781455920342686_">
					<use xlink:href="#XMLID_542_"  style="overflow:visible;"/>
				</clipPath>
				<path style="opacity:0.5;clip-path:url(#XMLID_00000182513790448850535520000017535781455920342686_);fill:#92E3A9;" d="
					M288.91,201.67c0,0-7.837,14.315-7.762,17.555s14.973,25.725,15.397,28.271c0.424,2.546,11.195,7.477,15.134,10.079
					c3.938,2.602,8.919-16.308,8.276-29.927S288.91,201.67,288.91,201.67z"/>
				
					<use xlink:href="#XMLID_542_"  style="overflow:visible;fill:none;stroke:#263238;stroke-linecap:round;stroke-linejoin:round;stroke-miterlimit:10;"/>
			</g>
			<path style="fill:none;stroke:#263238;stroke-linecap:round;stroke-linejoin:round;stroke-miterlimit:10;" d="M294.273,228.281
				c0,0,7.698-3.503,16.072,5.832"/>
		</g>
		<g>
			<path style="fill:#FFFFFF;" d="M453.145,361.445l-47.024,53.08c0,0-7.733-9.627-17.404-21.392
				c-13.746-16.717-31.41-37.744-36.406-41.576c-6.1-4.683-45.756-31.801-56.712-45.225c-1.573-1.929-2.937-3.632-4.145-5.187
				v-0.009c-7.238-9.314-8.672-13.311-12.269-26.318c-4.188-15.197-8.802-23.59-9.975-29.212c-0.035-0.165-0.07-0.339-0.104-0.521
				c-1.208-6.239-3.328-25.007-6.082-29.777c-2.841-4.918,8.437-7.299,12.738-4.562c4.301,2.728,15.023,16.031,14.345,27.483
				c0,0,8.428,20.775,12.729,20.21c0,0-0.556-20.81-3.415-25.893c-1.703-3.024-2.137-5.822-2.198-7.594
				c-0.061-1.199,0.061-1.929,0.061-1.929s-13.259-14.302-17.152-23.929c-3.901-9.627-11.539-24.45-13.007-38.874
				c0,0-1.712-10.366,4.57-15.066c2.398-1.799,4.605-2.303,6.838,0.799c0.912,1.286,1.842,3.18,2.789,5.848
				c9.41,26.562,21.036,36.736,21.036,36.736s7.698,1.972,13.294,4.605c0.799,0.374,1.712,0.93,2.72,1.607c0.009,0,0.009,0,0.017,0
				c0,0.009,0,0.009,0,0.009c2.468,1.66,5.474,4.066,8.567,6.421c4.466,3.389,9.115,6.673,12.608,7.438
				c12.164,2.641,18.012,8.819,18.012,8.819s8.081-1.72,12.355,5.804c4.145,7.281,6.43,8.732,6.43,8.732
				c0.061,0,3.05,0.026,5.5,5.378c4.318,9.436,17.299,59.719,17.934,61.752c5.222,16.63,20.749,34.477,38.5,50.117
				c0,0,0,0.009,0.009,0.009C443.144,353.486,448.141,357.579,453.145,361.445z"/>
			<g>
				<path style="opacity:0.4;fill:#92E3A9;" d="M318.39,194.758c0,0-0.009,0-0.017-0.009c0.009,0,0.009,0,0.017,0
					C318.39,194.758,318.39,194.758,318.39,194.758z"/>
				<path style="opacity:0.4;fill:#92E3A9;" d="M331.467,215.142c0,0-14.059-2.537-16.83-8.915
					c-2.763-6.378-14.536-19.993-17.352-20.879c-2.807-0.895-4.579,1.086-4.579,1.086s-4.874-7.707-8.541-14.354
					c-3.484-6.317-20.705-25.267-5.63-26.127c0.912,1.286,1.842,3.18,2.789,5.848c9.41,26.562,21.036,36.736,21.036,36.736
					s7.698,1.972,13.294,4.605c0.799,0.374,1.712,0.93,2.72,1.607c-0.365-0.087-5.987-1.486-4.874,1.39
					c1.138,2.98,10.305,11.278,15.119,14.919C333.43,214.708,331.467,215.142,331.467,215.142z"/>
				<path style="opacity:0.4;fill:#92E3A9;" d="M438.296,349.22c-7.95-4.353-19.958-11.539-23.973-17.187
					c-6.186-8.706-10.774-13.059-14.893-18.108c-4.127-5.039-11.921-9.158-10.088-8.472c1.833,0.686,10.088,3.528,10.088,3.528
					s-6.186-7.655-11-20.488c-4.814-12.833-13.572-57.963-20.08-62.977c-6.508-5.014,0,44.287,0,44.287s-6.273-13.85-9.254-30.037
					c-2.98-16.196-5.7-24.146-9.219-26.336c-3.519-2.181-10.262,2.424-12.095,0c-1.833-2.415,0.235-3.311-10.826-12.251
					c4.466,3.389,9.115,6.673,12.608,7.438c12.164,2.641,18.012,8.819,18.012,8.819s8.081-1.72,12.355,5.804
					c4.145,7.281,6.43,8.732,6.43,8.732c0.061,0,3.05,0.026,5.5,5.378c4.318,9.436,17.299,59.719,17.934,61.752
					C405.018,315.733,420.545,333.58,438.296,349.22z"/>
				<path style="opacity:0.4;fill:#92E3A9;" d="M307.477,267.997c-0.513,3.041-4.301-5.856-4.64-4.483
					c-0.339,1.382-1.364,5.891-1.425,4.483c-0.052-1.408-8.081-5.856-9.462-12.503c-1.373-6.647-2.285-9.488-2.972-11.156
					c-0.686-1.677-1.911,1.112-1.99-2.919c-0.07-3.606-11.687-7.412-17.882,3.667c-1.208-6.239-3.328-25.007-6.082-29.777
					c-2.841-4.918,8.437-7.299,12.738-4.562c4.301,2.728,15.023,16.031,14.345,27.483c0,0,8.428,20.775,12.729,20.21
					c0,0-0.556-20.81-3.415-25.893c-1.703-3.024-2.137-5.822-2.198-7.594l4.188,0.565c1.129,2.485-1.077,6.013,0,7.803
					c1.086,1.781,7.855,14.823,5.613,21.566C304.783,261.619,307.989,264.956,307.477,267.997z"/>
				<path style="opacity:0.4;fill:#92E3A9;" d="M388.717,393.134c-13.746-16.717-31.41-37.744-36.406-41.576
					c-6.1-4.683-45.756-31.801-56.712-45.225c-1.573-1.929-2.937-3.632-4.145-5.187c5.833,7.123,12.959,10.871,16.079,12.557
					c5.5,2.972,21.429,5.54,32.544,17.603c5.4,5.861,8.48,10.122,15.127,17.456c6.638,7.333,16.266,7.794,21.991,17.882
					C380.072,371.698,384.842,383.089,388.717,393.134z"/>
			</g>
			<g>
				<path style="fill:none;stroke:#263238;stroke-linecap:round;stroke-linejoin:round;stroke-miterlimit:10;" d="M406.121,414.528
					c0,0-45.301-56.435-53.808-62.968c-6.1-4.684-45.756-31.8-56.715-45.227c-10.959-13.427-12.216-16.323-16.409-31.518
					c-4.193-15.195-8.8-23.587-9.98-29.211c-1.18-5.625-3.351-25.384-6.187-30.298c-2.836-4.914,8.443-7.294,12.74-4.564
					c4.298,2.73,15.022,16.039,14.346,27.488c0,0,8.429,20.774,12.729,20.206c0,0-0.559-20.808-3.418-25.891
					c-2.858-5.083-2.132-9.52-2.132-9.52s-13.262-14.305-17.158-23.934c-3.896-9.629-11.539-24.449-13.005-38.87
					c0,0-1.712-10.364,4.572-15.071c3.384-2.535,6.385-2.499,9.627,6.649c9.412,26.562,21.036,36.739,21.036,36.739
					s7.697,1.969,13.294,4.6c5.597,2.631,17.009,13.974,23.916,15.477c12.161,2.645,18.007,8.826,18.007,8.826
					s8.084-1.723,12.358,5.797c4.14,7.286,6.425,8.738,6.425,8.738s3.025-0.025,5.499,5.372
					c4.327,9.438,17.302,59.718,17.942,61.757c6.647,21.162,29.988,44.305,53.349,62.345"/>
				<path style="fill:none;stroke:#263238;stroke-linecap:round;stroke-linejoin:round;stroke-miterlimit:10;" d="M302.359,188.538
					c0,0,11.509,15.938,19.568,18.992"/>
				<path style="fill:none;stroke:#263238;stroke-linecap:round;stroke-linejoin:round;stroke-miterlimit:10;" d="M321.3,211.062
					c7.765,2.486,12.772,3.966,14.201,9.816c1.428,5.85,5.581,19.081,7.58,24.286c1.999,5.204,6.797,18.351,6.797,18.351"/>
				<path style="fill:none;stroke:#263238;stroke-linecap:round;stroke-linejoin:round;stroke-miterlimit:10;" d="M302.837,258.437
					c0,0,5.282,6.872,3.983,13.605"/>
				<path style="fill:none;stroke:#263238;stroke-linecap:round;stroke-linejoin:round;stroke-miterlimit:10;" d="M300.597,257.328
					c0,0-0.232,7.473,1.647,12.474"/>
				<path style="fill:none;stroke:#263238;stroke-linecap:round;stroke-linejoin:round;stroke-miterlimit:10;" d="M297.288,223.026
					c0,0,4.239,2.286,5.25,4.978"/>
				<path style="fill:none;stroke:#263238;stroke-linecap:round;stroke-linejoin:round;stroke-miterlimit:10;" d="M300.37,235.059
					c0,0,1.892,4.107,3.939,6.358c2.047,2.251,3.012,9.56,3.012,9.56"/>
				<path style="fill:none;stroke:#263238;stroke-linecap:round;stroke-linejoin:round;stroke-miterlimit:10;" d="M269.208,245.603
					c0,0,4.57-5.145,9.291-5.841"/>
				<path style="fill:none;stroke:#263238;stroke-linecap:round;stroke-linejoin:round;stroke-miterlimit:10;" d="M290.843,187.534
					c0,0,5.312-3.982,9.346-1.234"/>
				<path style="fill:none;stroke:#263238;stroke-linecap:round;stroke-linejoin:round;stroke-miterlimit:10;" d="M379.336,244.928
					c1.064,2.91,6.501,29.188,7.869,32.926"/>
				<path style="fill:none;stroke:#263238;stroke-linecap:round;stroke-linejoin:round;stroke-miterlimit:10;" d="M342.137,214.812
					c0,0,4.995-3.582,11.262,0.807c6.266,4.389,6.274,6.512,10.129,5.48c3.855-1.032,6.407,2.139,6.407,2.139"/>
				<path style="fill:none;stroke:#263238;stroke-linecap:round;stroke-linejoin:round;stroke-miterlimit:10;" d="M362.296,233.315
					c0.997,5.899,5.24,34.728,7.289,41.964"/>
			</g>
		</g>
	</g>
</g>
</svg>
